<?xml version="1.0" encoding="UTF-8" standalone="no"?>
<!DOCTYPE svg PUBLIC "-//W3C//DTD SVG 1.1//EN"
 "http://www.w3.org/Graphics/SVG/1.1/DTD/svg11.dtd">
<!-- Generated by graphviz version 2.26.3 (20100126.1600)
 -->
<!-- Title: graphForClustersContents Pages: 1 -->
<svg width="5584pt" height="202pt"
 viewBox="0.00 0.00 5584.00 202.00" xmlns="http://www.w3.org/2000/svg" xmlns:xlink="http://www.w3.org/1999/xlink">
<g id="graph1" class="graph" transform="scale(1 1) rotate(0) translate(4 198)">
<title>graphForClustersContents</title>
<polygon fill="white" stroke="white" points="-4,5 -4,-198 5581,-198 5581,5 -4,5"/>
<!-- node310 -->
<g id="node2" class="node"><title>node310</title>
<ellipse fill="#ffffcc" stroke="black" cx="239" cy="-150" rx="239.002" ry="43.8406"/>
<text text-anchor="middle" x="239" y="-164.4" font-family="Times Roman,serif" font-size="14.00">TakeObject</text>
<text text-anchor="middle" x="239" y="-146.4" font-family="Times Roman,serif" font-size="14.00">(HERAKLES_HUMAN1 BLUE_CUBE2 TABLE_4 )</text>
<text text-anchor="middle" x="239" y="-128.4" font-family="Times Roman,serif" font-size="14.00">[0, 1]</text>
</g>
<!-- node311 -->
<g id="node5" class="node"><title>node311</title>
<ellipse fill="#ffffcc" stroke="black" cx="803" cy="-150" rx="289.207" ry="43.8406"/>
<text text-anchor="middle" x="803" y="-164.4" font-family="Times Roman,serif" font-size="14.00">PlaceObject</text>
<text text-anchor="middle" x="803" y="-146.4" font-family="Times Roman,serif" font-size="14.00">(HERAKLES_HUMAN1 BLUE_CUBE2 PLACEMAT_GREEN )</text>
<text text-anchor="middle" x="803" y="-128.4" font-family="Times Roman,serif" font-size="14.00">[1, 2]</text>
</g>
<!-- node310&#45;&gt;node311 -->
<g id="edge14" class="edge"><title>node310&#45;&gt;node311</title>
<path fill="none" stroke="#9a32cd" d="M478.187,-150C486.711,-150 495.288,-150 503.886,-150"/>
<polygon fill="#9a32cd" stroke="#9a32cd" points="513.988,-150 503.988,-154.5 508.988,-150 503.988,-150 503.988,-150 503.988,-150 508.988,-150 503.988,-145.5 513.988,-150 513.988,-150"/>
</g>
<!-- node308 -->
<g id="node3" class="node"><title>node308</title>
<ellipse fill="#cce6ff" stroke="black" cx="239" cy="-44" rx="237.088" ry="43.8406"/>
<text text-anchor="middle" x="239" y="-58.4" font-family="Times Roman,serif" font-size="14.00">TakeObject</text>
<text text-anchor="middle" x="239" y="-40.4" font-family="Times Roman,serif" font-size="14.00">(PR2_ROBOT RED_CUBE PLACEMAT_GREEN )</text>
<text text-anchor="middle" x="239" y="-22.4" font-family="Times Roman,serif" font-size="14.00">[0, 1]</text>
</g>
<!-- node309 -->
<g id="node6" class="node"><title>node309</title>
<ellipse fill="#cce6ff" stroke="black" cx="803" cy="-44" rx="186.884" ry="43.8406"/>
<text text-anchor="middle" x="803" y="-58.4" font-family="Times Roman,serif" font-size="14.00">PlaceObject</text>
<text text-anchor="middle" x="803" y="-40.4" font-family="Times Roman,serif" font-size="14.00">(PR2_ROBOT RED_CUBE TABLE_4 )</text>
<text text-anchor="middle" x="803" y="-22.4" font-family="Times Roman,serif" font-size="14.00">[1, 2]</text>
</g>
<!-- node308&#45;&gt;node309 -->
<g id="edge12" class="edge"><title>node308&#45;&gt;node309</title>
<path fill="none" stroke="#9a32cd" d="M476.552,-44C519.382,-44 563.616,-44 605.165,-44"/>
<polygon fill="#9a32cd" stroke="#9a32cd" points="615.386,-44 605.386,-48.5001 610.386,-44 605.386,-44.0001 605.386,-44.0001 605.386,-44.0001 610.386,-44 605.386,-39.5001 615.386,-44 615.386,-44"/>
</g>
<!-- node407 -->
<g id="node8" class="node"><title>node407</title>
<ellipse fill="#ffffcc" stroke="black" cx="1377" cy="-150" rx="241.123" ry="43.8406"/>
<text text-anchor="middle" x="1377" y="-164.4" font-family="Times Roman,serif" font-size="14.00">TakeObject</text>
<text text-anchor="middle" x="1377" y="-146.4" font-family="Times Roman,serif" font-size="14.00">(HERAKLES_HUMAN1 GREEN_CUBE TABLE_4 )</text>
<text text-anchor="middle" x="1377" y="-128.4" font-family="Times Roman,serif" font-size="14.00">[2, 3]</text>
</g>
<!-- node311&#45;&gt;node407 -->
<g id="edge16" class="edge"><title>node311&#45;&gt;node407</title>
<path fill="none" stroke="#9a32cd" d="M1092.1,-150C1103.31,-150 1114.52,-150 1125.65,-150"/>
<polygon fill="#9a32cd" stroke="#9a32cd" points="1135.85,-150 1125.85,-154.5 1130.85,-150 1125.85,-150 1125.85,-150 1125.85,-150 1130.85,-150 1125.85,-145.5 1135.85,-150 1135.85,-150"/>
</g>
<!-- node312 -->
<g id="node9" class="node"><title>node312</title>
<ellipse fill="#cce6ff" stroke="black" cx="1377" cy="-44" rx="248.902" ry="43.8406"/>
<text text-anchor="middle" x="1377" y="-58.4" font-family="Times Roman,serif" font-size="14.00">TakeObject</text>
<text text-anchor="middle" x="1377" y="-40.4" font-family="Times Roman,serif" font-size="14.00">(PR2_ROBOT BLUE_CUBE2 PLACEMAT_GREEN )</text>
<text text-anchor="middle" x="1377" y="-22.4" font-family="Times Roman,serif" font-size="14.00">[2, 3]</text>
</g>
<!-- node311&#45;&gt;node312 -->
<g id="edge15" class="edge"><title>node311&#45;&gt;node312</title>
<path fill="none" stroke="#9a32cd" d="M988.019,-116.14C1022.58,-109.795 1058.39,-103.207 1092,-97 1125.45,-90.8234 1161.09,-84.2145 1195.45,-77.8319"/>
<polygon fill="#9a32cd" stroke="#9a32cd" points="1205.58,-75.949 1196.57,-82.2002 1200.67,-76.8624 1195.75,-77.7759 1195.75,-77.7759 1195.75,-77.7759 1200.67,-76.8624 1194.93,-73.3516 1205.58,-75.949 1205.58,-75.949"/>
</g>
<!-- node309&#45;&gt;node312 -->
<g id="edge13" class="edge"><title>node309&#45;&gt;node312</title>
<path fill="none" stroke="#9a32cd" d="M990.552,-44C1031.12,-44 1074.72,-44 1117.5,-44"/>
<polygon fill="#9a32cd" stroke="#9a32cd" points="1127.77,-44 1117.77,-48.5001 1122.77,-44 1117.77,-44.0001 1117.77,-44.0001 1117.77,-44.0001 1122.77,-44 1117.77,-39.5001 1127.77,-44 1127.77,-44"/>
</g>
<!-- node317 -->
<g id="node11" class="node"><title>node317</title>
<ellipse fill="#ffffcc" stroke="black" cx="1951" cy="-150" rx="289.207" ry="43.8406"/>
<text text-anchor="middle" x="1951" y="-164.4" font-family="Times Roman,serif" font-size="14.00">ThrowObject</text>
<text text-anchor="middle" x="1951" y="-146.4" font-family="Times Roman,serif" font-size="14.00">(HERAKLES_HUMAN1 GREEN_CUBE GREEN_TRASHBIN )</text>
<text text-anchor="middle" x="1951" y="-128.4" font-family="Times Roman,serif" font-size="14.00">[3, 4]</text>
</g>
<!-- node407&#45;&gt;node317 -->
<g id="edge19" class="edge"><title>node407&#45;&gt;node317</title>
<path fill="none" stroke="#9a32cd" d="M1618.35,-150C1629.38,-150 1640.51,-150 1651.66,-150"/>
<polygon fill="#9a32cd" stroke="#9a32cd" points="1661.9,-150 1651.9,-154.5 1656.9,-150 1651.9,-150 1651.9,-150 1651.9,-150 1656.9,-150 1651.9,-145.5 1661.9,-150 1661.9,-150"/>
</g>
<!-- node17 -->
<g id="node12" class="node"><title>node17</title>
<ellipse fill="#cce6ff" stroke="black" cx="1951" cy="-44" rx="236.881" ry="43.8406"/>
<text text-anchor="middle" x="1951" y="-58.4" font-family="Times Roman,serif" font-size="14.00">ThrowObject</text>
<text text-anchor="middle" x="1951" y="-40.4" font-family="Times Roman,serif" font-size="14.00">(PR2_ROBOT BLUE_CUBE2 BLUE_TRASHBIN )</text>
<text text-anchor="middle" x="1951" y="-22.4" font-family="Times Roman,serif" font-size="14.00">[3, 4]</text>
</g>
<!-- node312&#45;&gt;node17 -->
<g id="edge17" class="edge"><title>node312&#45;&gt;node17</title>
<path fill="none" stroke="#9a32cd" d="M1626.26,-44C1651.9,-44 1677.95,-44 1703.57,-44"/>
<polygon fill="#9a32cd" stroke="#9a32cd" points="1713.75,-44 1703.75,-48.5001 1708.75,-44 1703.75,-44.0001 1703.75,-44.0001 1703.75,-44.0001 1708.75,-44 1703.75,-39.5001 1713.75,-44 1713.75,-44"/>
</g>
<!-- node455 -->
<g id="node18" class="node"><title>node455</title>
<ellipse fill="#ffffcc" stroke="black" cx="3549" cy="-150" rx="289.207" ry="43.8406"/>
<text text-anchor="middle" x="3549" y="-164.4" font-family="Times Roman,serif" font-size="14.00">TakeObject</text>
<text text-anchor="middle" x="3549" y="-146.4" font-family="Times Roman,serif" font-size="14.00">(HERAKLES_HUMAN1 GREEN_CUBE2 PLACEMAT_BLUE )</text>
<text text-anchor="middle" x="3549" y="-128.4" font-family="Times Roman,serif" font-size="14.00">[6, 7]</text>
</g>
<!-- node317&#45;&gt;node455 -->
<g id="edge18" class="edge"><title>node317&#45;&gt;node455</title>
<path fill="none" stroke="#9a32cd" d="M2240.39,-150C2525.94,-150 2960.53,-150 3249.53,-150"/>
<polygon fill="#9a32cd" stroke="#9a32cd" points="3259.75,-150 3249.75,-154.5 3254.75,-150 3249.75,-150 3249.75,-150 3249.75,-150 3254.75,-150 3249.75,-145.5 3259.75,-150 3259.75,-150"/>
</g>
<!-- node453 -->
<g id="node14" class="node"><title>node453</title>
<ellipse fill="#cce6ff" stroke="black" cx="2483" cy="-44" rx="207.182" ry="43.8406"/>
<text text-anchor="middle" x="2483" y="-58.4" font-family="Times Roman,serif" font-size="14.00">TakeObject</text>
<text text-anchor="middle" x="2483" y="-40.4" font-family="Times Roman,serif" font-size="14.00">(PR2_ROBOT GREEN_CUBE2 TABLE_4 )</text>
<text text-anchor="middle" x="2483" y="-22.4" font-family="Times Roman,serif" font-size="14.00">[4, 5]</text>
</g>
<!-- node17&#45;&gt;node453 -->
<g id="edge11" class="edge"><title>node17&#45;&gt;node453</title>
<path fill="none" stroke="#9a32cd" d="M2188.22,-44C2214.02,-44 2240.2,-44 2265.75,-44"/>
<polygon fill="#9a32cd" stroke="#9a32cd" points="2275.89,-44 2265.89,-48.5001 2270.89,-44 2265.89,-44.0001 2265.89,-44.0001 2265.89,-44.0001 2270.89,-44 2265.89,-39.5001 2275.89,-44 2275.89,-44"/>
</g>
<!-- node454 -->
<g id="node16" class="node"><title>node454</title>
<ellipse fill="#cce6ff" stroke="black" cx="2975" cy="-44" rx="248.902" ry="43.8406"/>
<text text-anchor="middle" x="2975" y="-58.4" font-family="Times Roman,serif" font-size="14.00">PlaceObject</text>
<text text-anchor="middle" x="2975" y="-40.4" font-family="Times Roman,serif" font-size="14.00">(PR2_ROBOT GREEN_CUBE2 PLACEMAT_BLUE )</text>
<text text-anchor="middle" x="2975" y="-22.4" font-family="Times Roman,serif" font-size="14.00">[5, 6]</text>
</g>
<!-- node453&#45;&gt;node454 -->
<g id="edge21" class="edge"><title>node453&#45;&gt;node454</title>
<path fill="none" stroke="#9a32cd" d="M2690.23,-44C2698.72,-44 2707.28,-44 2715.86,-44"/>
<polygon fill="#9a32cd" stroke="#9a32cd" points="2725.93,-44 2715.93,-48.5001 2720.93,-44 2715.93,-44.0001 2715.93,-44.0001 2715.93,-44.0001 2720.93,-44 2715.93,-39.5001 2725.93,-44 2725.93,-44"/>
</g>
<!-- node454&#45;&gt;node455 -->
<g id="edge22" class="edge"><title>node454&#45;&gt;node455</title>
<path fill="none" stroke="#9a32cd" d="M3146.42,-75.949C3183.85,-82.9055 3223.25,-90.2137 3260,-97 3290.33,-102.601 3322.45,-108.512 3353.82,-114.275"/>
<polygon fill="#9a32cd" stroke="#9a32cd" points="3363.98,-116.14 3353.33,-118.76 3359.06,-115.237 3354.15,-114.334 3354.15,-114.334 3354.15,-114.334 3359.06,-115.237 3354.96,-109.908 3363.98,-116.14 3363.98,-116.14"/>
</g>
<!-- node459 -->
<g id="node19" class="node"><title>node459</title>
<ellipse fill="#cce6ff" stroke="black" cx="3549" cy="-44" rx="191.833" ry="43.8406"/>
<text text-anchor="middle" x="3549" y="-58.4" font-family="Times Roman,serif" font-size="14.00">TakeObject</text>
<text text-anchor="middle" x="3549" y="-40.4" font-family="Times Roman,serif" font-size="14.00">(PR2_ROBOT BLUE_CUBE TABLE_4 )</text>
<text text-anchor="middle" x="3549" y="-22.4" font-family="Times Roman,serif" font-size="14.00">[6, 7]</text>
</g>
<!-- node454&#45;&gt;node459 -->
<g id="edge23" class="edge"><title>node454&#45;&gt;node459</title>
<path fill="none" stroke="#9a32cd" d="M3224.26,-44C3264.9,-44 3306.56,-44 3345.91,-44"/>
<polygon fill="#9a32cd" stroke="#9a32cd" points="3356.14,-44 3346.14,-48.5001 3351.14,-44 3346.14,-44.0001 3346.14,-44.0001 3346.14,-44.0001 3351.14,-44 3346.14,-39.5001 3356.14,-44 3356.14,-44"/>
</g>
<!-- node412 -->
<g id="node21" class="node"><title>node412</title>
<ellipse fill="#ffffcc" stroke="black" cx="4170" cy="-150" rx="295.071" ry="43.8406"/>
<text text-anchor="middle" x="4170" y="-164.4" font-family="Times Roman,serif" font-size="14.00">ThrowObject</text>
<text text-anchor="middle" x="4170" y="-146.4" font-family="Times Roman,serif" font-size="14.00">(HERAKLES_HUMAN1 GREEN_CUBE2 GREEN_TRASHBIN )</text>
<text text-anchor="middle" x="4170" y="-128.4" font-family="Times Roman,serif" font-size="14.00">[7, 8]</text>
</g>
<!-- node455&#45;&gt;node412 -->
<g id="edge24" class="edge"><title>node455&#45;&gt;node412</title>
<path fill="none" stroke="#9a32cd" d="M3838.14,-150C3846.78,-150 3855.45,-150 3864.11,-150"/>
<polygon fill="#9a32cd" stroke="#9a32cd" points="3874.27,-150 3864.27,-154.5 3869.27,-150 3864.27,-150 3864.27,-150 3864.27,-150 3869.27,-150 3864.27,-145.5 3874.27,-150 3874.27,-150"/>
</g>
<!-- node457 -->
<g id="node22" class="node"><title>node457</title>
<ellipse fill="#cce6ff" stroke="black" cx="4170" cy="-44" rx="230.017" ry="43.8406"/>
<text text-anchor="middle" x="4170" y="-58.4" font-family="Times Roman,serif" font-size="14.00">ThrowObject</text>
<text text-anchor="middle" x="4170" y="-40.4" font-family="Times Roman,serif" font-size="14.00">(PR2_ROBOT BLUE_CUBE BLUE_TRASHBIN )</text>
<text text-anchor="middle" x="4170" y="-22.4" font-family="Times Roman,serif" font-size="14.00">[7, 8]</text>
</g>
<!-- node459&#45;&gt;node457 -->
<g id="edge26" class="edge"><title>node459&#45;&gt;node457</title>
<path fill="none" stroke="#9a32cd" d="M3741.66,-44C3800.95,-44 3866.97,-44 3929.07,-44"/>
<polygon fill="#9a32cd" stroke="#9a32cd" points="3939.41,-44 3929.41,-48.5001 3934.41,-44 3929.41,-44.0001 3929.41,-44.0001 3929.41,-44.0001 3934.41,-44 3929.41,-39.5001 3939.41,-44 3939.41,-44"/>
</g>
<!-- node478 -->
<g id="node24" class="node"><title>node478</title>
<ellipse fill="#ffffcc" stroke="black" cx="4736" cy="-150" rx="234.052" ry="43.8406"/>
<text text-anchor="middle" x="4736" y="-164.4" font-family="Times Roman,serif" font-size="14.00">TakeObject</text>
<text text-anchor="middle" x="4736" y="-146.4" font-family="Times Roman,serif" font-size="14.00">(HERAKLES_HUMAN1 RED_CUBE2 TABLE_4 )</text>
<text text-anchor="middle" x="4736" y="-128.4" font-family="Times Roman,serif" font-size="14.00">[8, 9]</text>
</g>
<!-- node412&#45;&gt;node478 -->
<g id="edge20" class="edge"><title>node412&#45;&gt;node478</title>
<path fill="none" stroke="#9a32cd" d="M4465.85,-150C4474.51,-150 4483.15,-150 4491.75,-150"/>
<polygon fill="#9a32cd" stroke="#9a32cd" points="4501.81,-150 4491.81,-154.5 4496.81,-150 4491.81,-150 4491.81,-150 4491.81,-150 4496.81,-150 4491.81,-145.5 4501.81,-150 4501.81,-150"/>
</g>
<!-- node474 -->
<g id="node25" class="node"><title>node474</title>
<ellipse fill="#cce6ff" stroke="black" cx="4736" cy="-44" rx="186.884" ry="43.8406"/>
<text text-anchor="middle" x="4736" y="-58.4" font-family="Times Roman,serif" font-size="14.00">TakeObject</text>
<text text-anchor="middle" x="4736" y="-40.4" font-family="Times Roman,serif" font-size="14.00">(PR2_ROBOT RED_CUBE TABLE_4 )</text>
<text text-anchor="middle" x="4736" y="-22.4" font-family="Times Roman,serif" font-size="14.00">[8, 9]</text>
</g>
<!-- node457&#45;&gt;node474 -->
<g id="edge25" class="edge"><title>node457&#45;&gt;node474</title>
<path fill="none" stroke="#9a32cd" d="M4400.62,-44C4446.26,-44 4493.78,-44 4538.22,-44"/>
<polygon fill="#9a32cd" stroke="#9a32cd" points="4548.24,-44 4538.24,-48.5001 4543.24,-44 4538.24,-44.0001 4538.24,-44.0001 4538.24,-44.0001 4543.24,-44 4538.24,-39.5001 4548.24,-44 4548.24,-44"/>
</g>
<!-- node479 -->
<g id="node27" class="node"><title>node479</title>
<ellipse fill="#ffffcc" stroke="black" cx="5291" cy="-150" rx="283.757" ry="43.8406"/>
<text text-anchor="middle" x="5291" y="-164.4" font-family="Times Roman,serif" font-size="14.00">PlaceObject</text>
<text text-anchor="middle" x="5291" y="-146.4" font-family="Times Roman,serif" font-size="14.00">(HERAKLES_HUMAN1 RED_CUBE2 PLACEMAT_GREEN )</text>
<text text-anchor="middle" x="5291" y="-128.4" font-family="Times Roman,serif" font-size="14.00">[9, 10]</text>
</g>
<!-- node478&#45;&gt;node479 -->
<g id="edge28" class="edge"><title>node478&#45;&gt;node479</title>
<path fill="none" stroke="#9a32cd" d="M4970.16,-150C4978.78,-150 4987.46,-150 4996.15,-150"/>
<polygon fill="#9a32cd" stroke="#9a32cd" points="5006.37,-150 4996.37,-154.5 5001.37,-150 4996.37,-150 4996.37,-150 4996.37,-150 5001.37,-150 4996.37,-145.5 5006.37,-150 5006.37,-150"/>
</g>
<!-- node475 -->
<g id="node28" class="node"><title>node475</title>
<ellipse fill="#cce6ff" stroke="black" cx="5291" cy="-44" rx="227.896" ry="43.8406"/>
<text text-anchor="middle" x="5291" y="-58.4" font-family="Times Roman,serif" font-size="14.00">PlaceObject</text>
<text text-anchor="middle" x="5291" y="-40.4" font-family="Times Roman,serif" font-size="14.00">(PR2_ROBOT RED_CUBE PLACEMAT_BLUE )</text>
<text text-anchor="middle" x="5291" y="-22.4" font-family="Times Roman,serif" font-size="14.00">[9, 10]</text>
</g>
<!-- node474&#45;&gt;node475 -->
<g id="edge27" class="edge"><title>node474&#45;&gt;node475</title>
<path fill="none" stroke="#9a32cd" d="M4923.51,-44C4964.81,-44 5009.09,-44 5052.1,-44"/>
<polygon fill="#9a32cd" stroke="#9a32cd" points="5062.13,-44 5052.13,-48.5001 5057.13,-44 5052.13,-44.0001 5052.13,-44.0001 5052.13,-44.0001 5057.13,-44 5052.13,-39.5001 5062.13,-44 5062.13,-44"/>
</g>
</g>
</svg>
