<?xml version="1.0" encoding="UTF-8" standalone="no"?>
<!DOCTYPE svg PUBLIC "-//W3C//DTD SVG 1.1//EN"
 "http://www.w3.org/Graphics/SVG/1.1/DTD/svg11.dtd">
<!-- Generated by graphviz version 2.26.3 (20100126.1600)
 -->
<!-- Title: graphForClustersContents Pages: 1 -->
<svg width="6800pt" height="202pt"
 viewBox="0.00 0.00 6800.00 202.00" xmlns="http://www.w3.org/2000/svg" xmlns:xlink="http://www.w3.org/1999/xlink">
<g id="graph1" class="graph" transform="scale(1 1) rotate(0) translate(4 198)">
<title>graphForClustersContents</title>
<polygon fill="white" stroke="white" points="-4,5 -4,-198 6797,-198 6797,5 -4,5"/>
<!-- node1373 -->
<g id="node2" class="node"><title>node1373</title>
<ellipse fill="#cce6ff" stroke="black" cx="265" cy="-150" rx="265.165" ry="43.8406"/>
<text text-anchor="middle" x="265" y="-164.4" font-family="Times Roman,serif" font-size="14.00">TakeObject</text>
<text text-anchor="middle" x="265" y="-146.4" font-family="Times Roman,serif" font-size="14.00">(HERAKLES_HUMAN1 BLUE_CUBE2 HUMAN_AREA )</text>
<text text-anchor="middle" x="265" y="-128.4" font-family="Times Roman,serif" font-size="14.00">[0, 1]</text>
</g>
<!-- node1374 -->
<g id="node5" class="node"><title>node1374</title>
<ellipse fill="#cce6ff" stroke="black" cx="855" cy="-150" rx="289.207" ry="43.8406"/>
<text text-anchor="middle" x="855" y="-164.4" font-family="Times Roman,serif" font-size="14.00">PlaceObject</text>
<text text-anchor="middle" x="855" y="-146.4" font-family="Times Roman,serif" font-size="14.00">(HERAKLES_HUMAN1 BLUE_CUBE2 PLACEMAT_GREEN )</text>
<text text-anchor="middle" x="855" y="-128.4" font-family="Times Roman,serif" font-size="14.00">[1, 2]</text>
</g>
<!-- node1373&#45;&gt;node1374 -->
<g id="edge16" class="edge"><title>node1373&#45;&gt;node1374</title>
<path fill="none" stroke="#9a32cd" d="M530.228,-150C538.607,-150 547.017,-150 555.433,-150"/>
<polygon fill="#9a32cd" stroke="#9a32cd" points="565.699,-150 555.699,-154.5 560.699,-150 555.699,-150 555.699,-150 555.699,-150 560.699,-150 555.699,-145.5 565.699,-150 565.699,-150"/>
</g>
<!-- node1361 -->
<g id="node3" class="node"><title>node1361</title>
<ellipse fill="#ffffcc" stroke="black" cx="265" cy="-44" rx="217.082" ry="43.8406"/>
<text text-anchor="middle" x="265" y="-58.4" font-family="Times Roman,serif" font-size="14.00">TakeObject</text>
<text text-anchor="middle" x="265" y="-40.4" font-family="Times Roman,serif" font-size="14.00">(PR2_ROBOT BLUE_CUBE ROBOT_AREA )</text>
<text text-anchor="middle" x="265" y="-22.4" font-family="Times Roman,serif" font-size="14.00">[0, 1]</text>
</g>
<!-- node1349 -->
<g id="node6" class="node"><title>node1349</title>
<ellipse fill="#ffffcc" stroke="black" cx="855" cy="-44" rx="230.017" ry="43.8406"/>
<text text-anchor="middle" x="855" y="-58.4" font-family="Times Roman,serif" font-size="14.00">ThrowObject</text>
<text text-anchor="middle" x="855" y="-40.4" font-family="Times Roman,serif" font-size="14.00">(PR2_ROBOT BLUE_CUBE BLUE_TRASHBIN )</text>
<text text-anchor="middle" x="855" y="-22.4" font-family="Times Roman,serif" font-size="14.00">[1, 2]</text>
</g>
<!-- node1361&#45;&gt;node1349 -->
<g id="edge14" class="edge"><title>node1361&#45;&gt;node1349</title>
<path fill="none" stroke="#9a32cd" d="M482.181,-44C525.161,-44 570.515,-44 614.225,-44"/>
<polygon fill="#9a32cd" stroke="#9a32cd" points="624.407,-44 614.407,-48.5001 619.407,-44 614.407,-44.0001 614.407,-44.0001 614.407,-44.0001 619.407,-44 614.407,-39.5001 624.407,-44 624.407,-44"/>
</g>
<!-- node1376 -->
<g id="node8" class="node"><title>node1376</title>
<ellipse fill="#ffffcc" stroke="black" cx="1429" cy="-44" rx="248.902" ry="43.8406"/>
<text text-anchor="middle" x="1429" y="-58.4" font-family="Times Roman,serif" font-size="14.00">TakeObject</text>
<text text-anchor="middle" x="1429" y="-40.4" font-family="Times Roman,serif" font-size="14.00">(PR2_ROBOT BLUE_CUBE2 PLACEMAT_GREEN )</text>
<text text-anchor="middle" x="1429" y="-22.4" font-family="Times Roman,serif" font-size="14.00">[2, 3]</text>
</g>
<!-- node1374&#45;&gt;node1376 -->
<g id="edge17" class="edge"><title>node1374&#45;&gt;node1376</title>
<path fill="none" stroke="#9a32cd" d="M1040.02,-116.14C1074.58,-109.795 1110.39,-103.207 1144,-97 1177.45,-90.8234 1213.09,-84.2145 1247.45,-77.8319"/>
<polygon fill="#9a32cd" stroke="#9a32cd" points="1257.58,-75.949 1248.57,-82.2002 1252.67,-76.8624 1247.75,-77.7759 1247.75,-77.7759 1247.75,-77.7759 1252.67,-76.8624 1246.93,-73.3516 1257.58,-75.949 1257.58,-75.949"/>
</g>
<!-- node1388 -->
<g id="node16" class="node"><title>node1388</title>
<ellipse fill="#cce6ff" stroke="black" cx="3519" cy="-150" rx="282.843" ry="43.8406"/>
<text text-anchor="middle" x="3519" y="-164.4" font-family="Times Roman,serif" font-size="14.00">TakeObject</text>
<text text-anchor="middle" x="3519" y="-146.4" font-family="Times Roman,serif" font-size="14.00">(HERAKLES_HUMAN1 GREEN_CUBE PLACEMAT_BLUE )</text>
<text text-anchor="middle" x="3519" y="-128.4" font-family="Times Roman,serif" font-size="14.00">[6, 7]</text>
</g>
<!-- node1374&#45;&gt;node1388 -->
<g id="edge18" class="edge"><title>node1374&#45;&gt;node1388</title>
<path fill="none" stroke="#9a32cd" d="M1144.02,-150C1365.01,-150 1677.24,-150 1951,-150 1951,-150 1951,-150 2451,-150 2713.03,-150 3011.22,-150 3225.8,-150"/>
<polygon fill="#9a32cd" stroke="#9a32cd" points="3235.95,-150 3225.95,-154.5 3230.95,-150 3225.95,-150 3225.95,-150 3225.95,-150 3230.95,-150 3225.95,-145.5 3235.95,-150 3235.95,-150"/>
</g>
<!-- node1349&#45;&gt;node1376 -->
<g id="edge13" class="edge"><title>node1349&#45;&gt;node1376</title>
<path fill="none" stroke="#9a32cd" d="M1085.57,-44C1113.2,-44 1141.55,-44 1169.54,-44"/>
<polygon fill="#9a32cd" stroke="#9a32cd" points="1179.84,-44 1169.84,-48.5001 1174.84,-44 1169.84,-44.0001 1169.84,-44.0001 1169.84,-44.0001 1174.84,-44 1169.84,-39.5001 1179.84,-44 1179.84,-44"/>
</g>
<!-- node1363 -->
<g id="node10" class="node"><title>node1363</title>
<ellipse fill="#ffffcc" stroke="black" cx="1951" cy="-44" rx="236.881" ry="43.8406"/>
<text text-anchor="middle" x="1951" y="-58.4" font-family="Times Roman,serif" font-size="14.00">ThrowObject</text>
<text text-anchor="middle" x="1951" y="-40.4" font-family="Times Roman,serif" font-size="14.00">(PR2_ROBOT BLUE_CUBE2 BLUE_TRASHBIN )</text>
<text text-anchor="middle" x="1951" y="-22.4" font-family="Times Roman,serif" font-size="14.00">[3, 4]</text>
</g>
<!-- node1376&#45;&gt;node1363 -->
<g id="edge19" class="edge"><title>node1376&#45;&gt;node1363</title>
<path fill="none" stroke="#9a32cd" d="M1678.15,-44C1686.73,-44 1695.33,-44 1703.91,-44"/>
<polygon fill="#9a32cd" stroke="#9a32cd" points="1713.96,-44 1703.96,-48.5001 1708.96,-44 1703.96,-44.0001 1703.96,-44.0001 1703.96,-44.0001 1708.96,-44 1703.96,-39.5001 1713.96,-44 1713.96,-44"/>
</g>
<!-- node1385 -->
<g id="node12" class="node"><title>node1385</title>
<ellipse fill="#ffffcc" stroke="black" cx="2451" cy="-44" rx="225.775" ry="43.8406"/>
<text text-anchor="middle" x="2451" y="-58.4" font-family="Times Roman,serif" font-size="14.00">TakeObject</text>
<text text-anchor="middle" x="2451" y="-40.4" font-family="Times Roman,serif" font-size="14.00">(PR2_ROBOT GREEN_CUBE ROBOT_AREA )</text>
<text text-anchor="middle" x="2451" y="-22.4" font-family="Times Roman,serif" font-size="14.00">[4, 5]</text>
</g>
<!-- node1363&#45;&gt;node1385 -->
<g id="edge15" class="edge"><title>node1363&#45;&gt;node1385</title>
<path fill="none" stroke="#9a32cd" d="M2188.19,-44C2196.8,-44 2205.43,-44 2214.04,-44"/>
<polygon fill="#9a32cd" stroke="#9a32cd" points="2224.13,-44 2214.13,-48.5001 2219.13,-44 2214.13,-44.0001 2214.13,-44.0001 2214.13,-44.0001 2219.13,-44 2214.13,-39.5001 2224.13,-44 2224.13,-44"/>
</g>
<!-- node1386 -->
<g id="node14" class="node"><title>node1386</title>
<ellipse fill="#ffffcc" stroke="black" cx="2957" cy="-44" rx="242.038" ry="43.8406"/>
<text text-anchor="middle" x="2957" y="-58.4" font-family="Times Roman,serif" font-size="14.00">PlaceObject</text>
<text text-anchor="middle" x="2957" y="-40.4" font-family="Times Roman,serif" font-size="14.00">(PR2_ROBOT GREEN_CUBE PLACEMAT_BLUE )</text>
<text text-anchor="middle" x="2957" y="-22.4" font-family="Times Roman,serif" font-size="14.00">[5, 6]</text>
</g>
<!-- node1385&#45;&gt;node1386 -->
<g id="edge21" class="edge"><title>node1385&#45;&gt;node1386</title>
<path fill="none" stroke="#9a32cd" d="M2677.73,-44C2686.42,-44 2695.16,-44 2703.89,-44"/>
<polygon fill="#9a32cd" stroke="#9a32cd" points="2714.14,-44 2704.14,-48.5001 2709.14,-44 2704.14,-44.0001 2704.14,-44.0001 2704.14,-44.0001 2709.14,-44 2704.14,-39.5001 2714.14,-44 2714.14,-44"/>
</g>
<!-- node1386&#45;&gt;node1388 -->
<g id="edge22" class="edge"><title>node1386&#45;&gt;node1388</title>
<path fill="none" stroke="#9a32cd" d="M3124.44,-75.8801C3161.19,-82.8575 3199.91,-90.1918 3236,-97 3265.7,-102.601 3297.15,-108.513 3327.87,-114.276"/>
<polygon fill="#9a32cd" stroke="#9a32cd" points="3337.82,-116.141 3327.16,-118.721 3332.91,-115.22 3327.99,-114.298 3327.99,-114.298 3327.99,-114.298 3332.91,-115.22 3328.82,-109.875 3337.82,-116.141 3337.82,-116.141"/>
</g>
<!-- node1407 -->
<g id="node17" class="node"><title>node1407</title>
<ellipse fill="#ffffcc" stroke="black" cx="3519" cy="-44" rx="212.132" ry="43.8406"/>
<text text-anchor="middle" x="3519" y="-58.4" font-family="Times Roman,serif" font-size="14.00">TakeObject</text>
<text text-anchor="middle" x="3519" y="-40.4" font-family="Times Roman,serif" font-size="14.00">(PR2_ROBOT RED_CUBE ROBOT_AREA )</text>
<text text-anchor="middle" x="3519" y="-22.4" font-family="Times Roman,serif" font-size="14.00">[6, 7]</text>
</g>
<!-- node1386&#45;&gt;node1407 -->
<g id="edge23" class="edge"><title>node1386&#45;&gt;node1407</title>
<path fill="none" stroke="#9a32cd" d="M3199.82,-44C3231.97,-44 3264.79,-44 3296.57,-44"/>
<polygon fill="#9a32cd" stroke="#9a32cd" points="3306.85,-44 3296.85,-48.5001 3301.85,-44 3296.85,-44.0001 3296.85,-44.0001 3296.85,-44.0001 3301.85,-44 3296.85,-39.5001 3306.85,-44 3306.85,-44"/>
</g>
<!-- node1378 -->
<g id="node19" class="node"><title>node1378</title>
<ellipse fill="#cce6ff" stroke="black" cx="4127" cy="-150" rx="289.207" ry="43.8406"/>
<text text-anchor="middle" x="4127" y="-164.4" font-family="Times Roman,serif" font-size="14.00">ThrowObject</text>
<text text-anchor="middle" x="4127" y="-146.4" font-family="Times Roman,serif" font-size="14.00">(HERAKLES_HUMAN1 GREEN_CUBE GREEN_TRASHBIN )</text>
<text text-anchor="middle" x="4127" y="-128.4" font-family="Times Roman,serif" font-size="14.00">[7, 8]</text>
</g>
<!-- node1388&#45;&gt;node1378 -->
<g id="edge24" class="edge"><title>node1388&#45;&gt;node1378</title>
<path fill="none" stroke="#9a32cd" d="M3802.09,-150C3810.66,-150 3819.26,-150 3827.85,-150"/>
<polygon fill="#9a32cd" stroke="#9a32cd" points="3837.93,-150 3827.93,-154.5 3832.93,-150 3827.93,-150 3827.93,-150 3827.93,-150 3832.93,-150 3827.93,-145.5 3837.93,-150 3837.93,-150"/>
</g>
<!-- node1395 -->
<g id="node20" class="node"><title>node1395</title>
<ellipse fill="#ffffcc" stroke="black" cx="4127" cy="-44" rx="227.896" ry="43.8406"/>
<text text-anchor="middle" x="4127" y="-58.4" font-family="Times Roman,serif" font-size="14.00">PlaceObject</text>
<text text-anchor="middle" x="4127" y="-40.4" font-family="Times Roman,serif" font-size="14.00">(PR2_ROBOT RED_CUBE PLACEMAT_BLUE )</text>
<text text-anchor="middle" x="4127" y="-22.4" font-family="Times Roman,serif" font-size="14.00">[7, 8]</text>
</g>
<!-- node1407&#45;&gt;node1395 -->
<g id="edge27" class="edge"><title>node1407&#45;&gt;node1395</title>
<path fill="none" stroke="#9a32cd" d="M3731.22,-44C3781.89,-44 3836.3,-44 3888.08,-44"/>
<polygon fill="#9a32cd" stroke="#9a32cd" points="3898.39,-44 3888.39,-48.5001 3893.39,-44 3888.39,-44.0001 3888.39,-44.0001 3888.39,-44.0001 3893.39,-44 3888.39,-39.5001 3898.39,-44 3898.39,-44"/>
</g>
<!-- node1393 -->
<g id="node22" class="node"><title>node1393</title>
<ellipse fill="#cce6ff" stroke="black" cx="4727" cy="-150" rx="273.858" ry="43.8406"/>
<text text-anchor="middle" x="4727" y="-164.4" font-family="Times Roman,serif" font-size="14.00">TakeObject</text>
<text text-anchor="middle" x="4727" y="-146.4" font-family="Times Roman,serif" font-size="14.00">(HERAKLES_HUMAN1 GREEN_CUBE2 HUMAN_AREA )</text>
<text text-anchor="middle" x="4727" y="-128.4" font-family="Times Roman,serif" font-size="14.00">[8, 9]</text>
</g>
<!-- node1378&#45;&gt;node1393 -->
<g id="edge20" class="edge"><title>node1378&#45;&gt;node1393</title>
<path fill="none" stroke="#9a32cd" d="M4416.02,-150C4424.75,-150 4433.49,-150 4442.22,-150"/>
<polygon fill="#9a32cd" stroke="#9a32cd" points="4452.45,-150 4442.45,-154.5 4447.45,-150 4442.45,-150 4442.45,-150 4442.45,-150 4447.45,-150 4442.45,-145.5 4452.45,-150 4452.45,-150"/>
</g>
<!-- node1390 -->
<g id="node24" class="node"><title>node1390</title>
<ellipse fill="#cce6ff" stroke="black" cx="5334" cy="-150" rx="295.071" ry="43.8406"/>
<text text-anchor="middle" x="5334" y="-164.4" font-family="Times Roman,serif" font-size="14.00">ThrowObject</text>
<text text-anchor="middle" x="5334" y="-146.4" font-family="Times Roman,serif" font-size="14.00">(HERAKLES_HUMAN1 GREEN_CUBE2 GREEN_TRASHBIN )</text>
<text text-anchor="middle" x="5334" y="-128.4" font-family="Times Roman,serif" font-size="14.00">[9, 10]</text>
</g>
<!-- node1393&#45;&gt;node1390 -->
<g id="edge26" class="edge"><title>node1393&#45;&gt;node1390</title>
<path fill="none" stroke="#9a32cd" d="M5001.64,-150C5010.54,-150 5019.47,-150 5028.4,-150"/>
<polygon fill="#9a32cd" stroke="#9a32cd" points="5038.48,-150 5028.48,-154.5 5033.48,-150 5028.48,-150 5028.48,-150 5028.48,-150 5033.48,-150 5028.48,-145.5 5038.48,-150 5038.48,-150"/>
</g>
<!-- node1412 -->
<g id="node26" class="node"><title>node1412</title>
<ellipse fill="#cce6ff" stroke="black" cx="5926" cy="-150" rx="260.215" ry="43.8406"/>
<text text-anchor="middle" x="5926" y="-164.4" font-family="Times Roman,serif" font-size="14.00">TakeObject</text>
<text text-anchor="middle" x="5926" y="-146.4" font-family="Times Roman,serif" font-size="14.00">(HERAKLES_HUMAN1 RED_CUBE2 HUMAN_AREA )</text>
<text text-anchor="middle" x="5926" y="-128.4" font-family="Times Roman,serif" font-size="14.00">[10, 11]</text>
</g>
<!-- node1390&#45;&gt;node1412 -->
<g id="edge25" class="edge"><title>node1390&#45;&gt;node1412</title>
<path fill="none" stroke="#9a32cd" d="M5629.57,-150C5638.3,-150 5647.04,-150 5655.74,-150"/>
<polygon fill="#9a32cd" stroke="#9a32cd" points="5665.94,-150 5655.94,-154.5 5660.94,-150 5655.94,-150 5655.94,-150 5655.94,-150 5660.94,-150 5655.94,-145.5 5665.94,-150 5665.94,-150"/>
</g>
<!-- node1409 -->
<g id="node28" class="node"><title>node1409</title>
<ellipse fill="#cce6ff" stroke="black" cx="6507" cy="-150" rx="283.757" ry="43.8406"/>
<text text-anchor="middle" x="6507" y="-164.4" font-family="Times Roman,serif" font-size="14.00">PlaceObject</text>
<text text-anchor="middle" x="6507" y="-146.4" font-family="Times Roman,serif" font-size="14.00">(HERAKLES_HUMAN1 RED_CUBE2 PLACEMAT_GREEN )</text>
<text text-anchor="middle" x="6507" y="-128.4" font-family="Times Roman,serif" font-size="14.00">[11, 12]</text>
</g>
<!-- node1412&#45;&gt;node1409 -->
<g id="edge28" class="edge"><title>node1412&#45;&gt;node1409</title>
<path fill="none" stroke="#9a32cd" d="M6186.34,-150C6194.91,-150 6203.51,-150 6212.12,-150"/>
<polygon fill="#9a32cd" stroke="#9a32cd" points="6222.23,-150 6212.23,-154.5 6217.23,-150 6212.23,-150 6212.23,-150 6212.23,-150 6217.23,-150 6212.23,-145.5 6222.23,-150 6222.23,-150"/>
</g>
</g>
</svg>
