<?xml version="1.0" encoding="UTF-8" standalone="no"?>
<!DOCTYPE svg PUBLIC "-//W3C//DTD SVG 1.1//EN"
 "http://www.w3.org/Graphics/SVG/1.1/DTD/svg11.dtd">
<!-- Generated by graphviz version 2.26.3 (20100126.1600)
 -->
<!-- Title: final_graph Pages: 1 -->
<svg width="4070pt" height="772pt"
 viewBox="0.00 0.00 4070.00 772.00" xmlns="http://www.w3.org/2000/svg" xmlns:xlink="http://www.w3.org/1999/xlink">
<g id="graph1" class="graph" transform="scale(1 1) rotate(0) translate(4 768)">
<title>final_graph</title>
<polygon fill="white" stroke="white" points="-4,5 -4,-768 4067,-768 4067,5 -4,5"/>
<!-- cluster_0 -->
<g id="node1" class="node"><title>cluster_0</title>
<polygon fill="none" stroke="blue" points="2438,-763.002 2342,-763.002 2342,-685.002 2438,-685.002 2438,-763.002"/>
<text text-anchor="middle" x="2390" y="-720.402" font-family="Times Roman,serif" font-size="14.00"> </text>
</g>
<!-- cluster_1 -->
<g id="node2" class="node"><title>cluster_1</title>
<polygon fill="none" stroke="blue" points="2557,-649 2223,-649 2223,-571 2557,-571 2557,-649"/>
<text text-anchor="middle" x="2390" y="-606.4" font-family="Times Roman,serif" font-size="14.00"> </text>
</g>
<!-- cluster_2 -->
<g id="node3" class="node"><title>cluster_2</title>
<polygon fill="none" stroke="blue" points="2388,-535 1398,-535 1398,-457 2388,-457 2388,-535"/>
<text text-anchor="middle" x="1893" y="-492.4" font-family="Times Roman,serif" font-size="14.00"> </text>
</g>
<!-- cluster_3 -->
<g id="node4" class="node"><title>cluster_3</title>
<polygon fill="none" stroke="blue" points="1431,-421 980.999,-421 980.999,-343 1431,-343 1431,-421"/>
<text text-anchor="middle" x="1206" y="-378.4" font-family="Times Roman,serif" font-size="14.00"> </text>
</g>
<!-- cluster_4 -->
<g id="node5" class="node"><title>cluster_4</title>
<polygon fill="none" stroke="blue" points="2463,-421 1449,-421 1449,-343 2463,-343 2463,-421"/>
<text text-anchor="middle" x="1956" y="-378.4" font-family="Times Roman,serif" font-size="14.00"> </text>
</g>
<!-- cluster_5 -->
<g id="node6" class="node"><title>cluster_5</title>
<polygon fill="none" stroke="blue" points="1695,-307 1.0008,-307 1.0008,-229 1695,-229 1695,-307"/>
<text text-anchor="middle" x="848.001" y="-264.4" font-family="Times Roman,serif" font-size="14.00"> </text>
</g>
<!-- cluster_6 -->
<g id="node7" class="node"><title>cluster_6</title>
<polygon fill="none" stroke="blue" points="2917,-307 1713,-307 1713,-229 2917,-229 2917,-307"/>
<text text-anchor="middle" x="2315" y="-264.4" font-family="Times Roman,serif" font-size="14.00"> </text>
</g>
<!-- cluster_7 -->
<g id="node8" class="node"><title>cluster_7</title>
<polygon fill="none" stroke="blue" points="2443,-193 848.998,-193 848.998,-115 2443,-115 2443,-193"/>
<text text-anchor="middle" x="1646" y="-150.4" font-family="Times Roman,serif" font-size="14.00"> </text>
</g>
<!-- cluster_8 -->
<g id="node9" class="node"><title>cluster_8</title>
<polygon fill="none" stroke="blue" points="3507,-193 2461,-193 2461,-115 3507,-115 3507,-193"/>
<text text-anchor="middle" x="2984" y="-150.4" font-family="Times Roman,serif" font-size="14.00"> </text>
</g>
<!-- cluster_9 -->
<g id="node10" class="node"><title>cluster_9</title>
<polygon fill="none" stroke="blue" points="3267,-79 2701,-79 2701,-1.00002 3267,-1.00002 3267,-79"/>
<text text-anchor="middle" x="2984" y="-36.4" font-family="Times Roman,serif" font-size="14.00"> </text>
</g>
<!-- cluster_10 -->
<g id="node11" class="node"><title>cluster_10</title>
<polygon fill="none" stroke="blue" points="3368,-535 2406,-535 2406,-457 3368,-457 3368,-535"/>
<text text-anchor="middle" x="2887" y="-492.4" font-family="Times Roman,serif" font-size="14.00"> </text>
</g>
<!-- cluster_11 -->
<g id="node12" class="node"><title>cluster_11</title>
<polygon fill="none" stroke="blue" points="3045,-421 2605,-421 2605,-343 3045,-343 3045,-421"/>
<text text-anchor="middle" x="2825" y="-378.4" font-family="Times Roman,serif" font-size="14.00"> </text>
</g>
<!-- cluster_12 -->
<g id="node13" class="node"><title>cluster_12</title>
<polygon fill="none" stroke="blue" points="4061,-421 3063,-421 3063,-343 4061,-343 4061,-421"/>
<text text-anchor="middle" x="3562" y="-378.4" font-family="Times Roman,serif" font-size="14.00"> </text>
</g>
<!-- cluster_13 -->
<g id="node14" class="node"><title>cluster_13</title>
<polygon fill="none" stroke="blue" points="3830,-307 3294,-307 3294,-229 3830,-229 3830,-307"/>
<text text-anchor="middle" x="3562" y="-264.4" font-family="Times Roman,serif" font-size="14.00"> </text>
</g>
<!-- node_1345 -->
<g id="node15" class="node"><title>node_1345</title>
<ellipse fill="#c1cdcd" stroke="black" cx="2390" cy="-724.002" rx="39.1428" ry="31.1127"/>
<ellipse fill="none" stroke="black" cx="2390" cy="-724.002" rx="43.0969" ry="35.1127"/>
<text text-anchor="middle" x="2390" y="-729.402" font-family="Times Roman,serif" font-size="14.00">Clean</text>
<text text-anchor="middle" x="2390" y="-711.402" font-family="Times Roman,serif" font-size="14.00">()</text>
</g>
<!-- node_1346 -->
<g id="node16" class="node"><title>node_1346</title>
<ellipse fill="#c1cdcd" stroke="black" cx="2305" cy="-610" rx="73.0647" ry="31.1127"/>
<ellipse fill="none" stroke="black" cx="2305" cy="-610" rx="77.0389" ry="35.1127"/>
<text text-anchor="middle" x="2305" y="-615.4" font-family="Times Roman,serif" font-size="14.00">ThrowCubes</text>
<text text-anchor="middle" x="2305" y="-597.4" font-family="Times Roman,serif" font-size="14.00">()</text>
</g>
<!-- node_1347 -->
<g id="node17" class="node"><title>node_1347</title>
<ellipse fill="#c1cdcd" stroke="black" cx="2482" cy="-610" rx="67.1751" ry="31.1127"/>
<ellipse fill="none" stroke="black" cx="2482" cy="-610" rx="71.1751" ry="35.1127"/>
<text text-anchor="middle" x="2482" y="-615.4" font-family="Times Roman,serif" font-size="14.00">PlaceCubes</text>
<text text-anchor="middle" x="2482" y="-597.4" font-family="Times Roman,serif" font-size="14.00">()</text>
</g>
<!-- node_1348 -->
<g id="node18" class="node"><title>node_1348</title>
<ellipse fill="#c1cdcd" stroke="black" cx="1552" cy="-496" rx="145.163" ry="31.1127"/>
<text text-anchor="middle" x="1552" y="-501.4" font-family="Times Roman,serif" font-size="14.00">ObtainObject</text>
<text text-anchor="middle" x="1552" y="-483.4" font-family="Times Roman,serif" font-size="14.00">(PR2_ROBOT BLUE_CUBE )</text>
</g>
<!-- node_1349 -->
<g id="node19" class="node"><title>node_1349</title>
<ellipse fill="#ffffcc" stroke="black" cx="1965" cy="-496" rx="230.017" ry="31.1127"/>
<text text-anchor="middle" x="1965" y="-501.4" font-family="Times Roman,serif" font-size="14.00">ThrowObject</text>
<text text-anchor="middle" x="1965" y="-483.4" font-family="Times Roman,serif" font-size="14.00">(PR2_ROBOT BLUE_CUBE BLUE_TRASHBIN )</text>
</g>
<!-- node_1350 -->
<g id="node20" class="node"><title>node_1350</title>
<ellipse fill="#c1cdcd" stroke="black" cx="2306" cy="-496" rx="73.0647" ry="31.1127"/>
<ellipse fill="none" stroke="black" cx="2306" cy="-496" rx="77.0389" ry="35.1127"/>
<text text-anchor="middle" x="2306" y="-501.4" font-family="Times Roman,serif" font-size="14.00">ThrowCubes</text>
<text text-anchor="middle" x="2306" y="-483.4" font-family="Times Roman,serif" font-size="14.00">()</text>
</g>
<!-- node_1361 -->
<g id="node21" class="node"><title>node_1361</title>
<ellipse fill="#ffffcc" stroke="black" cx="1206" cy="-382" rx="217.082" ry="31.1127"/>
<text text-anchor="middle" x="1206" y="-387.4" font-family="Times Roman,serif" font-size="14.00">TakeObject</text>
<text text-anchor="middle" x="1206" y="-369.4" font-family="Times Roman,serif" font-size="14.00">(PR2_ROBOT BLUE_CUBE ROBOT_AREA )</text>
</g>
<!-- node_1362 -->
<g id="node22" class="node"><title>node_1362</title>
<ellipse fill="#c1cdcd" stroke="black" cx="1609" cy="-382" rx="152.028" ry="31.1127"/>
<ellipse fill="none" stroke="black" cx="1609" cy="-382" rx="156.028" ry="35.1127"/>
<text text-anchor="middle" x="1609" y="-387.4" font-family="Times Roman,serif" font-size="14.00">ObtainObject</text>
<text text-anchor="middle" x="1609" y="-369.4" font-family="Times Roman,serif" font-size="14.00">(PR2_ROBOT BLUE_CUBE2 )</text>
</g>
<!-- node_1363 -->
<g id="node23" class="node"><title>node_1363</title>
<ellipse fill="#ffffcc" stroke="black" cx="2034" cy="-382" rx="237" ry="31.1127"/>
<text text-anchor="middle" x="2034" y="-387.4" font-family="Times Roman,serif" font-size="14.00">ThrowObject</text>
<text text-anchor="middle" x="2034" y="-369.4" font-family="Times Roman,serif" font-size="14.00">(PR2_ROBOT BLUE_CUBE2 BLUE_TRASHBIN )</text>
</g>
<!-- node_1364 -->
<g id="node24" class="node"><title>node_1364</title>
<ellipse fill="#c1cdcd" stroke="black" cx="2381" cy="-382" rx="73.0647" ry="31.1127"/>
<ellipse fill="none" stroke="black" cx="2381" cy="-382" rx="77.0389" ry="35.1127"/>
<text text-anchor="middle" x="2381" y="-387.4" font-family="Times Roman,serif" font-size="14.00">ThrowCubes</text>
<text text-anchor="middle" x="2381" y="-369.4" font-family="Times Roman,serif" font-size="14.00">()</text>
</g>
<!-- node_1373 -->
<g id="node25" class="node"><title>node_1373</title>
<ellipse fill="#cce6ff" stroke="black" cx="274.001" cy="-268" rx="265.165" ry="31.1127"/>
<text text-anchor="middle" x="274.001" y="-273.4" font-family="Times Roman,serif" font-size="14.00">TakeObject</text>
<text text-anchor="middle" x="274.001" y="-255.4" font-family="Times Roman,serif" font-size="14.00">(HERAKLES_HUMAN1 BLUE_CUBE2 HUMAN_AREA )</text>
</g>
<!-- node_1374 -->
<g id="node26" class="node"><title>node_1374</title>
<ellipse fill="#cce6ff" stroke="black" cx="863.999" cy="-268" rx="289.207" ry="31.1127"/>
<text text-anchor="middle" x="863.999" y="-273.4" font-family="Times Roman,serif" font-size="14.00">PlaceObject</text>
<text text-anchor="middle" x="863.999" y="-255.4" font-family="Times Roman,serif" font-size="14.00">(HERAKLES_HUMAN1 BLUE_CUBE2 PLACEMAT_GREEN )</text>
</g>
<!-- node_1376 -->
<g id="node27" class="node"><title>node_1376</title>
<ellipse fill="#ffffcc" stroke="black" cx="1438" cy="-268" rx="249" ry="31.1127"/>
<text text-anchor="middle" x="1438" y="-273.4" font-family="Times Roman,serif" font-size="14.00">TakeObject</text>
<text text-anchor="middle" x="1438" y="-255.4" font-family="Times Roman,serif" font-size="14.00">(PR2_ROBOT BLUE_CUBE2 PLACEMAT_GREEN )</text>
</g>
<!-- node_1377 -->
<g id="node28" class="node"><title>node_1377</title>
<ellipse fill="#c1cdcd" stroke="black" cx="1916" cy="-268" rx="193.965" ry="31.1127"/>
<ellipse fill="none" stroke="black" cx="1916" cy="-268" rx="197.954" ry="35.1127"/>
<text text-anchor="middle" x="1916" y="-273.4" font-family="Times Roman,serif" font-size="14.00">ObtainObject</text>
<text text-anchor="middle" x="1916" y="-255.4" font-family="Times Roman,serif" font-size="14.00">(HERAKLES_HUMAN1 GREEN_CUBE )</text>
</g>
<!-- node_1378 -->
<g id="node29" class="node"><title>node_1378</title>
<ellipse fill="#cce6ff" stroke="black" cx="2436" cy="-268" rx="289.207" ry="31.1127"/>
<text text-anchor="middle" x="2436" y="-273.4" font-family="Times Roman,serif" font-size="14.00">ThrowObject</text>
<text text-anchor="middle" x="2436" y="-255.4" font-family="Times Roman,serif" font-size="14.00">(HERAKLES_HUMAN1 GREEN_CUBE GREEN_TRASHBIN )</text>
</g>
<!-- node_1379 -->
<g id="node30" class="node"><title>node_1379</title>
<ellipse fill="#c1cdcd" stroke="black" cx="2835" cy="-268" rx="73.0388" ry="31.1127"/>
<text text-anchor="middle" x="2835" y="-273.4" font-family="Times Roman,serif" font-size="14.00">ThrowCubes</text>
<text text-anchor="middle" x="2835" y="-255.4" font-family="Times Roman,serif" font-size="14.00">()</text>
</g>
<!-- node_1385 -->
<g id="node31" class="node"><title>node_1385</title>
<ellipse fill="#ffffcc" stroke="black" cx="1084" cy="-154" rx="225.775" ry="31.1127"/>
<text text-anchor="middle" x="1084" y="-159.4" font-family="Times Roman,serif" font-size="14.00">TakeObject</text>
<text text-anchor="middle" x="1084" y="-141.4" font-family="Times Roman,serif" font-size="14.00">(PR2_ROBOT GREEN_CUBE ROBOT_AREA )</text>
</g>
<!-- node_1386 -->
<g id="node32" class="node"><title>node_1386</title>
<ellipse fill="#ffffcc" stroke="black" cx="1590" cy="-154" rx="242.038" ry="31.1127"/>
<text text-anchor="middle" x="1590" y="-159.4" font-family="Times Roman,serif" font-size="14.00">PlaceObject</text>
<text text-anchor="middle" x="1590" y="-141.4" font-family="Times Roman,serif" font-size="14.00">(PR2_ROBOT GREEN_CUBE PLACEMAT_BLUE )</text>
</g>
<!-- node_1388 -->
<g id="node33" class="node"><title>node_1388</title>
<ellipse fill="#cce6ff" stroke="black" cx="2152" cy="-154" rx="283" ry="31.1127"/>
<text text-anchor="middle" x="2152" y="-159.4" font-family="Times Roman,serif" font-size="14.00">TakeObject</text>
<text text-anchor="middle" x="2152" y="-141.4" font-family="Times Roman,serif" font-size="14.00">(HERAKLES_HUMAN1 GREEN_CUBE PLACEMAT_BLUE )</text>
</g>
<!-- node_1389 -->
<g id="node34" class="node"><title>node_1389</title>
<ellipse fill="#c1cdcd" stroke="black" cx="2670" cy="-154" rx="201" ry="31.1127"/>
<text text-anchor="middle" x="2670" y="-159.4" font-family="Times Roman,serif" font-size="14.00">ObtainObject</text>
<text text-anchor="middle" x="2670" y="-141.4" font-family="Times Roman,serif" font-size="14.00">(HERAKLES_HUMAN1 GREEN_CUBE2 )</text>
</g>
<!-- node_1390 -->
<g id="node35" class="node"><title>node_1390</title>
<ellipse fill="#cce6ff" stroke="black" cx="3203.01" cy="-154" rx="295.071" ry="31.1127"/>
<text text-anchor="middle" x="3203.01" y="-159.4" font-family="Times Roman,serif" font-size="14.00">ThrowObject</text>
<text text-anchor="middle" x="3203.01" y="-141.4" font-family="Times Roman,serif" font-size="14.00">(HERAKLES_HUMAN1 GREEN_CUBE2 GREEN_TRASHBIN )</text>
</g>
<!-- node_1393 -->
<g id="node36" class="node"><title>node_1393</title>
<ellipse fill="#cce6ff" stroke="black" cx="2984" cy="-40" rx="273.858" ry="31.1127"/>
<text text-anchor="middle" x="2984" y="-45.4" font-family="Times Roman,serif" font-size="14.00">TakeObject</text>
<text text-anchor="middle" x="2984" y="-27.4" font-family="Times Roman,serif" font-size="14.00">(HERAKLES_HUMAN1 GREEN_CUBE2 HUMAN_AREA )</text>
</g>
<!-- node_1394 -->
<g id="node37" class="node"><title>node_1394</title>
<ellipse fill="#c1cdcd" stroke="black" cx="2555" cy="-496" rx="140.213" ry="31.1127"/>
<text text-anchor="middle" x="2555" y="-501.4" font-family="Times Roman,serif" font-size="14.00">ObtainObject</text>
<text text-anchor="middle" x="2555" y="-483.4" font-family="Times Roman,serif" font-size="14.00">(PR2_ROBOT RED_CUBE )</text>
</g>
<!-- node_1395 -->
<g id="node38" class="node"><title>node_1395</title>
<ellipse fill="#ffffcc" stroke="black" cx="2961" cy="-496" rx="227.896" ry="31.1127"/>
<text text-anchor="middle" x="2961" y="-501.4" font-family="Times Roman,serif" font-size="14.00">PlaceObject</text>
<text text-anchor="middle" x="2961" y="-483.4" font-family="Times Roman,serif" font-size="14.00">(PR2_ROBOT RED_CUBE PLACEMAT_BLUE )</text>
</g>
<!-- node_1396 -->
<g id="node39" class="node"><title>node_1396</title>
<ellipse fill="#c1cdcd" stroke="black" cx="3293" cy="-496" rx="67.1751" ry="31.1127"/>
<text text-anchor="middle" x="3293" y="-501.4" font-family="Times Roman,serif" font-size="14.00">PlaceCubes</text>
<text text-anchor="middle" x="3293" y="-483.4" font-family="Times Roman,serif" font-size="14.00">()</text>
</g>
<!-- node_1407 -->
<g id="node40" class="node"><title>node_1407</title>
<ellipse fill="#ffffcc" stroke="black" cx="2825" cy="-382" rx="212.132" ry="31.1127"/>
<text text-anchor="middle" x="2825" y="-387.4" font-family="Times Roman,serif" font-size="14.00">TakeObject</text>
<text text-anchor="middle" x="2825" y="-369.4" font-family="Times Roman,serif" font-size="14.00">(PR2_ROBOT RED_CUBE ROBOT_AREA )</text>
</g>
<!-- node_1408 -->
<g id="node41" class="node"><title>node_1408</title>
<ellipse fill="#c1cdcd" stroke="black" cx="3259" cy="-382" rx="186.884" ry="31.1127"/>
<text text-anchor="middle" x="3259" y="-387.4" font-family="Times Roman,serif" font-size="14.00">ObtainObject</text>
<text text-anchor="middle" x="3259" y="-369.4" font-family="Times Roman,serif" font-size="14.00">(HERAKLES_HUMAN1 RED_CUBE2 )</text>
</g>
<!-- node_1409 -->
<g id="node42" class="node"><title>node_1409</title>
<ellipse fill="#cce6ff" stroke="black" cx="3768" cy="-382" rx="283.757" ry="31.1127"/>
<text text-anchor="middle" x="3768" y="-387.4" font-family="Times Roman,serif" font-size="14.00">PlaceObject</text>
<text text-anchor="middle" x="3768" y="-369.4" font-family="Times Roman,serif" font-size="14.00">(HERAKLES_HUMAN1 RED_CUBE2 PLACEMAT_GREEN )</text>
</g>
<!-- node_1412 -->
<g id="node43" class="node"><title>node_1412</title>
<ellipse fill="#cce6ff" stroke="black" cx="3562" cy="-268" rx="260.215" ry="31.1127"/>
<text text-anchor="middle" x="3562" y="-273.4" font-family="Times Roman,serif" font-size="14.00">TakeObject</text>
<text text-anchor="middle" x="3562" y="-255.4" font-family="Times Roman,serif" font-size="14.00">(HERAKLES_HUMAN1 RED_CUBE2 HUMAN_AREA )</text>
</g>
<!-- node_1345&#45;&gt;cluster_1 -->
<g id="edge16" class="edge"><title>node_1345&#45;&gt;cluster_1</title>
<path fill="none" stroke="black" stroke-width="2" d="M2390,-688.868C2390,-679.545 2390,-669.302 2390,-659.374"/>
<polygon fill="black" stroke="black" points="2393.5,-659.193 2390,-649.193 2386.5,-659.193 2393.5,-659.193"/>
</g>
<!-- node_1346&#45;&gt;cluster_2 -->
<g id="edge17" class="edge"><title>node_1346&#45;&gt;cluster_2</title>
<path fill="none" stroke="black" stroke-width="2" d="M2238.81,-591.684C2186.34,-577.166 2110.96,-556.31 2043.97,-537.773"/>
<polygon fill="black" stroke="black" points="2044.72,-534.349 2034.15,-535.055 2042.85,-541.095 2044.72,-534.349"/>
</g>
<!-- node_1346&#45;&gt;node_1347 -->
<g id="edge1" class="edge"><title>node_1346&#45;&gt;node_1347</title>
<path fill="none" stroke="#9a32cd" d="M2382.12,-610C2388.27,-610 2394.49,-610 2400.67,-610"/>
<polygon fill="#9a32cd" stroke="#9a32cd" points="2410.99,-610 2400.99,-614.5 2405.99,-610 2400.99,-610 2400.99,-610 2400.99,-610 2405.99,-610 2400.99,-605.5 2410.99,-610 2410.99,-610"/>
</g>
<!-- node_1347&#45;&gt;cluster_10 -->
<g id="edge18" class="edge"><title>node_1347&#45;&gt;cluster_10</title>
<path fill="none" stroke="black" stroke-width="2" d="M2543.96,-592.562C2595.59,-578.026 2671.29,-556.718 2738.45,-537.814"/>
<polygon fill="black" stroke="black" points="2739.61,-541.122 2748.29,-535.044 2737.72,-534.384 2739.61,-541.122"/>
</g>
<!-- node_1348&#45;&gt;cluster_3 -->
<g id="edge19" class="edge"><title>node_1348&#45;&gt;cluster_3</title>
<path fill="none" stroke="black" stroke-width="2" d="M1473.06,-469.989C1432,-456.464 1380.8,-439.594 1334.24,-424.254"/>
<polygon fill="black" stroke="black" points="1335.28,-420.912 1324.69,-421.107 1333.09,-427.56 1335.28,-420.912"/>
</g>
<!-- node_1348&#45;&gt;node_1349 -->
<g id="edge2" class="edge"><title>node_1348&#45;&gt;node_1349</title>
<path fill="none" stroke="#9a32cd" d="M1697.03,-496C1706.08,-496 1715.3,-496 1724.61,-496"/>
<polygon fill="#9a32cd" stroke="#9a32cd" points="1734.75,-496 1724.75,-500.5 1729.75,-496 1724.75,-496 1724.75,-496 1724.75,-496 1729.75,-496 1724.75,-491.5 1734.75,-496 1734.75,-496"/>
</g>
<!-- node_1349&#45;&gt;node_1350 -->
<g id="edge3" class="edge"><title>node_1349&#45;&gt;node_1350</title>
<path fill="none" stroke="#9a32cd" d="M2195.29,-496C2203.35,-496 2211.2,-496 2218.77,-496"/>
<polygon fill="#9a32cd" stroke="#9a32cd" points="2228.9,-496 2218.9,-500.5 2223.9,-496 2218.9,-496 2218.9,-496 2218.9,-496 2223.9,-496 2218.9,-491.5 2228.9,-496 2228.9,-496"/>
</g>
<!-- node_1350&#45;&gt;cluster_4 -->
<g id="edge20" class="edge"><title>node_1350&#45;&gt;cluster_4</title>
<path fill="none" stroke="black" stroke-width="2" d="M2243.02,-475.487C2199.21,-461.216 2139.23,-441.679 2085.42,-424.155"/>
<polygon fill="black" stroke="black" points="2086.4,-420.791 2075.81,-421.022 2084.23,-427.447 2086.4,-420.791"/>
</g>
<!-- node_1362&#45;&gt;cluster_5 -->
<g id="edge21" class="edge"><title>node_1362&#45;&gt;cluster_5</title>
<path fill="none" stroke="black" stroke-width="2" d="M1479.05,-362.532C1380.26,-347.734 1240.92,-326.861 1118.3,-308.491"/>
<polygon fill="black" stroke="black" points="1118.78,-305.024 1108.37,-307.004 1117.74,-311.947 1118.78,-305.024"/>
</g>
<!-- node_1362&#45;&gt;node_1363 -->
<g id="edge4" class="edge"><title>node_1362&#45;&gt;node_1363</title>
<path fill="none" stroke="#9a32cd" d="M1765.15,-382C1772.31,-382 1779.56,-382 1786.87,-382"/>
<polygon fill="#9a32cd" stroke="#9a32cd" points="1796.88,-382 1786.88,-386.5 1791.88,-382 1786.88,-382 1786.88,-382 1786.88,-382 1791.88,-382 1786.88,-377.5 1796.88,-382 1796.88,-382"/>
</g>
<!-- node_1363&#45;&gt;node_1364 -->
<g id="edge5" class="edge"><title>node_1363&#45;&gt;node_1364</title>
<path fill="none" stroke="#9a32cd" d="M2271.21,-382C2278.98,-382 2286.56,-382 2293.86,-382"/>
<polygon fill="#9a32cd" stroke="#9a32cd" points="2303.99,-382 2293.99,-386.5 2298.99,-382 2293.99,-382 2293.99,-382 2293.99,-382 2298.99,-382 2293.99,-377.5 2303.99,-382 2303.99,-382"/>
</g>
<!-- node_1364&#45;&gt;cluster_6 -->
<g id="edge22" class="edge"><title>node_1364&#45;&gt;cluster_6</title>
<path fill="none" stroke="black" stroke-width="2" d="M2361.38,-348.105C2355.56,-338.055 2349.07,-326.851 2342.84,-316.083"/>
<polygon fill="black" stroke="black" points="2345.72,-314.075 2337.68,-307.175 2339.66,-317.583 2345.72,-314.075"/>
</g>
<!-- node_1373&#45;&gt;node_1374 -->
<g id="edge6" class="edge"><title>node_1373&#45;&gt;node_1374</title>
<path fill="none" stroke="#9a32cd" d="M539.228,-268C547.607,-268 556.017,-268 564.433,-268"/>
<polygon fill="#9a32cd" stroke="#9a32cd" points="574.699,-268 564.699,-272.5 569.699,-268 564.699,-268 564.699,-268 564.699,-268 569.699,-268 564.699,-263.5 574.699,-268 574.699,-268"/>
</g>
<!-- node_1374&#45;&gt;node_1376 -->
<g id="edge7" class="edge"><title>node_1374&#45;&gt;node_1376</title>
<path fill="none" stroke="#9a32cd" d="M1153.1,-268C1161.72,-268 1170.34,-268 1178.92,-268"/>
<polygon fill="#9a32cd" stroke="#9a32cd" points="1188.98,-268 1178.98,-272.5 1183.98,-268 1178.98,-268 1178.98,-268 1178.98,-268 1183.98,-268 1178.98,-263.5 1188.98,-268 1188.98,-268"/>
</g>
<!-- node_1377&#45;&gt;cluster_7 -->
<g id="edge23" class="edge"><title>node_1377&#45;&gt;cluster_7</title>
<path fill="none" stroke="black" stroke-width="2" d="M1839.35,-235.637C1810.95,-223.646 1778.28,-209.854 1747.98,-197.06"/>
<polygon fill="black" stroke="black" points="1749.24,-193.79 1738.66,-193.125 1746.51,-200.239 1749.24,-193.79"/>
</g>
<!-- node_1377&#45;&gt;node_1378 -->
<g id="edge8" class="edge"><title>node_1377&#45;&gt;node_1378</title>
<path fill="none" stroke="#9a32cd" d="M2114.07,-268C2121.56,-268 2129.11,-268 2136.72,-268"/>
<polygon fill="#9a32cd" stroke="#9a32cd" points="2146.73,-268 2136.73,-272.5 2141.73,-268 2136.73,-268 2136.73,-268 2136.73,-268 2141.73,-268 2136.73,-263.5 2146.73,-268 2146.73,-268"/>
</g>
<!-- node_1378&#45;&gt;node_1379 -->
<g id="edge9" class="edge"><title>node_1378&#45;&gt;node_1379</title>
<path fill="none" stroke="#9a32cd" d="M2725.18,-268C2734.43,-268 2743.36,-268 2751.85,-268"/>
<polygon fill="#9a32cd" stroke="#9a32cd" points="2761.99,-268 2751.99,-272.5 2756.99,-268 2751.99,-268 2751.99,-268 2751.99,-268 2756.99,-268 2751.99,-263.5 2761.99,-268 2761.99,-268"/>
</g>
<!-- node_1379&#45;&gt;cluster_8 -->
<g id="edge24" class="edge"><title>node_1379&#45;&gt;cluster_8</title>
<path fill="none" stroke="black" stroke-width="2" d="M2870.69,-240.694C2886.82,-228.356 2906.31,-213.442 2924.55,-199.488"/>
<polygon fill="black" stroke="black" points="2927.01,-202.014 2932.82,-193.157 2922.75,-196.454 2927.01,-202.014"/>
</g>
<!-- node_1385&#45;&gt;node_1386 -->
<g id="edge10" class="edge"><title>node_1385&#45;&gt;node_1386</title>
<path fill="none" stroke="#9a32cd" d="M1310.36,-154C1319.54,-154 1328.76,-154 1337.99,-154"/>
<polygon fill="#9a32cd" stroke="#9a32cd" points="1347.99,-154 1337.99,-158.5 1342.99,-154 1337.99,-154 1337.99,-154 1337.99,-154 1342.99,-154 1337.99,-149.5 1347.99,-154 1347.99,-154"/>
</g>
<!-- node_1386&#45;&gt;node_1388 -->
<g id="edge11" class="edge"><title>node_1386&#45;&gt;node_1388</title>
<path fill="none" stroke="#9a32cd" d="M1832.01,-154C1840.86,-154 1849.77,-154 1858.7,-154"/>
<polygon fill="#9a32cd" stroke="#9a32cd" points="1868.78,-154 1858.78,-158.5 1863.78,-154 1858.78,-154 1858.78,-154 1858.78,-154 1863.78,-154 1858.78,-149.5 1868.78,-154 1868.78,-154"/>
</g>
<!-- node_1389&#45;&gt;cluster_9 -->
<g id="edge25" class="edge"><title>node_1389&#45;&gt;cluster_9</title>
<path fill="none" stroke="black" stroke-width="2" d="M2748.83,-125.38C2784.57,-112.405 2827.57,-96.7955 2866.96,-82.4918"/>
<polygon fill="black" stroke="black" points="2868.16,-85.7815 2876.37,-79.0789 2865.77,-79.2017 2868.16,-85.7815"/>
</g>
<!-- node_1389&#45;&gt;node_1390 -->
<g id="edge12" class="edge"><title>node_1389&#45;&gt;node_1390</title>
<path fill="none" stroke="#9a32cd" d="M2871.13,-154C2879.92,-154 2888.8,-154 2897.75,-154"/>
<polygon fill="#9a32cd" stroke="#9a32cd" points="2907.87,-154 2897.87,-158.5 2902.87,-154 2897.87,-154 2897.87,-154 2897.87,-154 2902.87,-154 2897.87,-149.5 2907.87,-154 2907.87,-154"/>
</g>
<!-- node_1394&#45;&gt;cluster_11 -->
<g id="edge26" class="edge"><title>node_1394&#45;&gt;cluster_11</title>
<path fill="none" stroke="black" stroke-width="2" d="M2620.36,-468.404C2651.1,-455.424 2688.48,-439.642 2722.83,-425.136"/>
<polygon fill="black" stroke="black" points="2724.59,-428.196 2732.44,-421.082 2721.86,-421.747 2724.59,-428.196"/>
</g>
<!-- node_1394&#45;&gt;node_1395 -->
<g id="edge13" class="edge"><title>node_1394&#45;&gt;node_1395</title>
<path fill="none" stroke="#9a32cd" d="M2695.01,-496C2704.1,-496 2713.38,-496 2722.76,-496"/>
<polygon fill="#9a32cd" stroke="#9a32cd" points="2732.98,-496 2722.98,-500.5 2727.98,-496 2722.98,-496 2722.98,-496 2722.98,-496 2727.98,-496 2722.98,-491.5 2732.98,-496 2732.98,-496"/>
</g>
<!-- node_1395&#45;&gt;node_1396 -->
<g id="edge14" class="edge"><title>node_1395&#45;&gt;node_1396</title>
<path fill="none" stroke="#9a32cd" d="M3189.32,-496C3198.45,-496 3207.3,-496 3215.71,-496"/>
<polygon fill="#9a32cd" stroke="#9a32cd" points="3225.75,-496 3215.75,-500.5 3220.75,-496 3215.75,-496 3215.75,-496 3215.75,-496 3220.75,-496 3215.75,-491.5 3225.75,-496 3225.75,-496"/>
</g>
<!-- node_1396&#45;&gt;cluster_12 -->
<g id="edge27" class="edge"><title>node_1396&#45;&gt;cluster_12</title>
<path fill="none" stroke="black" stroke-width="2" d="M3342.65,-474.958C3375.68,-460.961 3420.24,-442.076 3460.57,-424.984"/>
<polygon fill="black" stroke="black" points="3462.07,-428.15 3469.91,-421.025 3459.34,-421.705 3462.07,-428.15"/>
</g>
<!-- node_1408&#45;&gt;cluster_13 -->
<g id="edge28" class="edge"><title>node_1408&#45;&gt;cluster_13</title>
<path fill="none" stroke="black" stroke-width="2" d="M3334.68,-353.527C3369.1,-340.577 3410.55,-324.981 3448.58,-310.672"/>
<polygon fill="black" stroke="black" points="3450.04,-313.862 3458.17,-307.065 3447.58,-307.31 3450.04,-313.862"/>
</g>
<!-- node_1408&#45;&gt;node_1409 -->
<g id="edge15" class="edge"><title>node_1408&#45;&gt;node_1409</title>
<path fill="none" stroke="#9a32cd" d="M3446,-382C3455.06,-382 3464.24,-382 3473.5,-382"/>
<polygon fill="#9a32cd" stroke="#9a32cd" points="3483.57,-382 3473.57,-386.5 3478.57,-382 3473.57,-382 3473.57,-382 3473.57,-382 3478.57,-382 3473.57,-377.5 3483.57,-382 3483.57,-382"/>
</g>
</g>
</svg>
