<?xml version="1.0" encoding="UTF-8" standalone="no"?>
<!DOCTYPE svg PUBLIC "-//W3C//DTD SVG 1.1//EN"
 "http://www.w3.org/Graphics/SVG/1.1/DTD/svg11.dtd">
<!-- Generated by graphviz version 2.26.3 (20100126.1600)
 -->
<!-- Title: final_graph Pages: 1 -->
<svg width="2884pt" height="704pt"
 viewBox="0.00 0.00 2884.00 704.00" xmlns="http://www.w3.org/2000/svg" xmlns:xlink="http://www.w3.org/1999/xlink">
<g id="graph1" class="graph" transform="scale(1 1) rotate(0) translate(4 700)">
<title>final_graph</title>
<polygon fill="white" stroke="white" points="-4,5 -4,-700 2881,-700 2881,5 -4,5"/>
<!-- cluster_0 -->
<g id="node1" class="node"><title>cluster_0</title>
<polygon fill="none" stroke="blue" points="2235,-273 1399,-273 1399,-115 2235,-115 2235,-273"/>
<text text-anchor="middle" x="1817" y="-190.4" font-family="Times Roman,serif" font-size="14.00"> </text>
</g>
<!-- cluster_1 -->
<g id="node2" class="node"><title>cluster_1</title>
<polygon fill="none" stroke="blue" points="2174,-79 1460,-79 1460,-1.00002 2174,-1.00002 2174,-79"/>
<text text-anchor="middle" x="1817" y="-36.4" font-family="Times Roman,serif" font-size="14.00"> </text>
</g>
<!-- cluster_2 -->
<g id="node3" class="node"><title>cluster_2</title>
<polygon fill="none" stroke="blue" points="1381,-233 0.99976,-233 0.99976,-155 1381,-155 1381,-233"/>
<text text-anchor="middle" x="691" y="-190.4" font-family="Times Roman,serif" font-size="14.00"> </text>
</g>
<!-- cluster_3 -->
<g id="node4" class="node"><title>cluster_3</title>
<polygon fill="none" stroke="blue" points="2875,-233 2253,-233 2253,-155 2875,-155 2875,-233"/>
<text text-anchor="middle" x="2564" y="-190.4" font-family="Times Roman,serif" font-size="14.00"> </text>
</g>
<!-- cluster_4 -->
<g id="node5" class="node"><title>cluster_4</title>
<polygon fill="none" stroke="blue" points="1962,-695 1672,-695 1672,-617 1962,-617 1962,-695"/>
<text text-anchor="middle" x="1817" y="-652.4" font-family="Times Roman,serif" font-size="14.00"> </text>
</g>
<!-- cluster_5 -->
<g id="node6" class="node"><title>cluster_5</title>
<polygon fill="none" stroke="blue" points="2192,-581 1442,-581 1442,-503 2192,-503 2192,-581"/>
<text text-anchor="middle" x="1817" y="-538.4" font-family="Times Roman,serif" font-size="14.00"> </text>
</g>
<!-- cluster_6 -->
<g id="node7" class="node"><title>cluster_6</title>
<polygon fill="none" stroke="blue" points="2716,-467 917.998,-467 917.998,-309 2716,-309 2716,-467"/>
<text text-anchor="middle" x="1817" y="-384.4" font-family="Times Roman,serif" font-size="14.00"> </text>
</g>
<!-- node_56 -->
<g id="node8" class="node"><title>node_56</title>
<ellipse fill="#c1cdcd" stroke="black" cx="1817" cy="-656" rx="137.179" ry="31.1127"/>
<ellipse fill="none" stroke="black" cx="1817" cy="-656" rx="141.179" ry="35.1127"/>
<text text-anchor="middle" x="1817" y="-661.4" font-family="Times Roman,serif" font-size="14.00">HandleSurface</text>
<text text-anchor="middle" x="1817" y="-643.4" font-family="Times Roman,serif" font-size="14.00">(ASSEMBLY_SURFACE_1 )</text>
</g>
<!-- node_57 -->
<g id="node9" class="node"><title>node_57</title>
<ellipse fill="#c1cdcd" stroke="black" cx="1817" cy="-542" rx="367" ry="31.1127"/>
<ellipse fill="none" stroke="black" cx="1817" cy="-542" rx="371" ry="35.1127"/>
<text text-anchor="middle" x="1817" y="-547.4" font-family="Times Roman,serif" font-size="14.00">AssembleOneBracket</text>
<text text-anchor="middle" x="1817" y="-529.4" font-family="Times Roman,serif" font-size="14.00">(HERAKLES_HUMAN1 PR2_ROBOT BRACKET_1 ASSEMBLY_SURFACE_1 )</text>
</g>
<!-- node_58 -->
<g id="node10" class="node"><title>node_58</title>
<ellipse fill="#c1cdcd" stroke="black" cx="1293" cy="-428" rx="306.177" ry="31.1127"/>
<ellipse fill="none" stroke="black" cx="1293" cy="-428" rx="310.177" ry="35.1127"/>
<text text-anchor="middle" x="1293" y="-433.4" font-family="Times Roman,serif" font-size="14.00">CleanSurface</text>
<text text-anchor="middle" x="1293" y="-415.4" font-family="Times Roman,serif" font-size="14.00">(HERAKLES_HUMAN1 PR2_ROBOT ASSEMBLY_SURFACE_1 )</text>
</g>
<!-- node_59 -->
<g id="node11" class="node"><title>node_59</title>
<ellipse fill="#c1cdcd" stroke="black" cx="1293" cy="-348" rx="367" ry="31.1127"/>
<ellipse fill="none" stroke="black" cx="1293" cy="-348" rx="371" ry="35.1127"/>
<text text-anchor="middle" x="1293" y="-353.4" font-family="Times Roman,serif" font-size="14.00">PrepareBracket</text>
<text text-anchor="middle" x="1293" y="-335.4" font-family="Times Roman,serif" font-size="14.00">(HERAKLES_HUMAN1 PR2_ROBOT BRACKET_1 ASSEMBLY_SURFACE_1 )</text>
</g>
<!-- node_60 -->
<g id="node12" class="node"><title>node_60</title>
<ellipse fill="#cce6ff" stroke="black" cx="1881" cy="-388" rx="184.055" ry="31.1127"/>
<text text-anchor="middle" x="1881" y="-393.4" font-family="Times Roman,serif" font-size="14.00">Pick</text>
<text text-anchor="middle" x="1881" y="-375.4" font-family="Times Roman,serif" font-size="14.00">(HERAKLES_HUMAN1 BRACKET_1 )</text>
</g>
<!-- node_61 -->
<g id="node13" class="node"><title>node_61</title>
<ellipse fill="#c1cdcd" stroke="black" cx="2405" cy="-388" rx="302.141" ry="31.1127"/>
<text text-anchor="middle" x="2405" y="-393.4" font-family="Times Roman,serif" font-size="14.00">PlaceBracket</text>
<text text-anchor="middle" x="2405" y="-375.4" font-family="Times Roman,serif" font-size="14.00">(HERAKLES_HUMAN1 BRACKET_1 ASSEMBLY_SURFACE_1 )</text>
</g>
<!-- node_100 -->
<g id="node14" class="node"><title>node_100</title>
<ellipse fill="#c1cdcd" stroke="black" cx="1655" cy="-234.001" rx="246.987" ry="31.1127"/>
<text text-anchor="middle" x="1655" y="-239.401" font-family="Times Roman,serif" font-size="14.00">Bring</text>
<text text-anchor="middle" x="1655" y="-221.401" font-family="Times Roman,serif" font-size="14.00">(PR2_ROBOT BRACKET_1 WORK_LOCATION_1 )</text>
</g>
<!-- node_101 -->
<g id="node15" class="node"><title>node_101</title>
<ellipse fill="#ffffcc" stroke="black" cx="2083" cy="-234.001" rx="144.25" ry="31.1127"/>
<text text-anchor="middle" x="2083" y="-239.401" font-family="Times Roman,serif" font-size="14.00">Place</text>
<text text-anchor="middle" x="2083" y="-221.401" font-family="Times Roman,serif" font-size="14.00">(PR2_ROBOT BRACKET_1 )</text>
</g>
<!-- node_102 -->
<g id="node16" class="node"><title>node_102</title>
<ellipse fill="#cce6ff" stroke="black" cx="1655" cy="-154" rx="227" ry="31.1127"/>
<text text-anchor="middle" x="1655" y="-159.4" font-family="Times Roman,serif" font-size="14.00">TravelTo</text>
<text text-anchor="middle" x="1655" y="-141.4" font-family="Times Roman,serif" font-size="14.00">(HERAKLES_HUMAN1 WORK_LOCATION_1 )</text>
</g>
<!-- node_103 -->
<g id="node17" class="node"><title>node_103</title>
<ellipse fill="#ffffcc" stroke="black" cx="1612" cy="-40" rx="144.25" ry="31.1127"/>
<text text-anchor="middle" x="1612" y="-45.4" font-family="Times Roman,serif" font-size="14.00">Pick</text>
<text text-anchor="middle" x="1612" y="-27.4" font-family="Times Roman,serif" font-size="14.00">(PR2_ROBOT BRACKET_1 )</text>
</g>
<!-- node_104 -->
<g id="node18" class="node"><title>node_104</title>
<ellipse fill="#ffffcc" stroke="black" cx="1979" cy="-40" rx="186.176" ry="31.1127"/>
<text text-anchor="middle" x="1979" y="-45.4" font-family="Times Roman,serif" font-size="14.00">TravelTo</text>
<text text-anchor="middle" x="1979" y="-27.4" font-family="Times Roman,serif" font-size="14.00">(PR2_ROBOT WORK_LOCATION_1 )</text>
</g>
<!-- node_110 -->
<g id="node19" class="node"><title>node_110</title>
<ellipse fill="#ffffcc" stroke="black" cx="211" cy="-194" rx="201.025" ry="31.1127"/>
<text text-anchor="middle" x="211" y="-199.4" font-family="Times Roman,serif" font-size="14.00">StartPointing</text>
<text text-anchor="middle" x="211" y="-181.4" font-family="Times Roman,serif" font-size="14.00">(PR2_ROBOT ASSEMBLY_SURFACE_1 )</text>
</g>
<!-- node_111 -->
<g id="node20" class="node"><title>node_111</title>
<ellipse fill="#cce6ff" stroke="black" cx="691" cy="-194" rx="242" ry="31.1127"/>
<text text-anchor="middle" x="691" y="-199.4" font-family="Times Roman,serif" font-size="14.00">Clean</text>
<text text-anchor="middle" x="691" y="-181.4" font-family="Times Roman,serif" font-size="14.00">(HERAKLES_HUMAN1 ASSEMBLY_SURFACE_1 )</text>
</g>
<!-- node_112 -->
<g id="node21" class="node"><title>node_112</title>
<ellipse fill="#ffffcc" stroke="black" cx="1171" cy="-194" rx="201.025" ry="31.1127"/>
<text text-anchor="middle" x="1171" y="-199.4" font-family="Times Roman,serif" font-size="14.00">StopPointing</text>
<text text-anchor="middle" x="1171" y="-181.4" font-family="Times Roman,serif" font-size="14.00">(PR2_ROBOT ASSEMBLY_SURFACE_1 )</text>
</g>
<!-- node_113 -->
<g id="node22" class="node"><title>node_113</title>
<ellipse fill="#cce6ff" stroke="black" cx="2564" cy="-194" rx="302.141" ry="31.1127"/>
<text text-anchor="middle" x="2564" y="-199.4" font-family="Times Roman,serif" font-size="14.00">AttachBracket</text>
<text text-anchor="middle" x="2564" y="-181.4" font-family="Times Roman,serif" font-size="14.00">(HERAKLES_HUMAN1 BRACKET_1 ASSEMBLY_SURFACE_1 )</text>
</g>
<!-- node_56&#45;&gt;cluster_5 -->
<g id="edge8" class="edge"><title>node_56&#45;&gt;cluster_5</title>
<path fill="none" stroke="black" stroke-width="2" d="M1817,-620.866C1817,-611.543 1817,-601.301 1817,-591.373"/>
<polygon fill="black" stroke="black" points="1820.5,-591.192 1817,-581.192 1813.5,-591.192 1820.5,-591.192"/>
</g>
<!-- node_57&#45;&gt;cluster_6 -->
<g id="edge9" class="edge"><title>node_57&#45;&gt;cluster_6</title>
<path fill="none" stroke="black" stroke-width="2" d="M1817,-506.669C1817,-497.652 1817,-487.543 1817,-477.131"/>
<polygon fill="black" stroke="black" points="1820.5,-477.081 1817,-467.081 1813.5,-477.081 1820.5,-477.081"/>
</g>
<!-- node_58&#45;&gt;cluster_2 -->
<g id="edge10" class="edge"><title>node_58&#45;&gt;cluster_2</title>
<path fill="none" stroke="black" stroke-width="2" d="M1206.42,-394.349C1099.51,-352.791 917.525,-282.052 800.868,-236.707"/>
<polygon fill="black" stroke="black" points="802.125,-233.44 791.536,-233.08 799.589,-239.965 802.125,-233.44"/>
</g>
<!-- node_58&#45;&gt;node_60 -->
<g id="edge1" class="edge"><title>node_58&#45;&gt;node_60</title>
<path fill="none" stroke="#9a32cd" d="M1558.61,-409.931C1606.43,-406.678 1655.26,-403.356 1699.98,-400.314"/>
<polygon fill="#9a32cd" stroke="#9a32cd" points="1710.05,-399.629 1700.38,-404.798 1705.06,-399.969 1700.07,-400.308 1700.07,-400.308 1700.07,-400.308 1705.06,-399.969 1699.77,-395.818 1710.05,-399.629 1710.05,-399.629"/>
</g>
<!-- node_59&#45;&gt;cluster_0 -->
<g id="edge11" class="edge"><title>node_59&#45;&gt;cluster_0</title>
<path fill="none" stroke="black" stroke-width="2" d="M1406.7,-314.584C1445.98,-303.039 1491.9,-289.545 1538.51,-275.845"/>
<polygon fill="black" stroke="black" points="1539.55,-279.189 1548.15,-273.012 1537.57,-272.473 1539.55,-279.189"/>
</g>
<!-- node_59&#45;&gt;node_60 -->
<g id="edge2" class="edge"><title>node_59&#45;&gt;node_60</title>
<path fill="none" stroke="#9a32cd" d="M1594.32,-368.498C1630.39,-370.951 1666.31,-373.395 1699.91,-375.681"/>
<polygon fill="#9a32cd" stroke="#9a32cd" points="1710.26,-376.385 1699.98,-380.196 1705.27,-376.046 1700.28,-375.706 1700.28,-375.706 1700.28,-375.706 1705.27,-376.046 1700.59,-371.217 1710.26,-376.385 1710.26,-376.385"/>
</g>
<!-- node_60&#45;&gt;node_61 -->
<g id="edge3" class="edge"><title>node_60&#45;&gt;node_61</title>
<path fill="none" stroke="#9a32cd" d="M2065.01,-388C2074.1,-388 2083.34,-388 2092.66,-388"/>
<polygon fill="#9a32cd" stroke="#9a32cd" points="2102.8,-388 2092.8,-392.5 2097.8,-388 2092.8,-388 2092.8,-388 2092.8,-388 2097.8,-388 2092.8,-383.5 2102.8,-388 2102.8,-388"/>
</g>
<!-- node_61&#45;&gt;cluster_3 -->
<g id="edge12" class="edge"><title>node_61&#45;&gt;cluster_3</title>
<path fill="none" stroke="black" stroke-width="2" d="M2430.55,-356.831C2456.17,-325.563 2495.96,-277.018 2525.43,-241.061"/>
<polygon fill="black" stroke="black" points="2528.3,-243.084 2531.93,-233.131 2522.88,-238.647 2528.3,-243.084"/>
</g>
<!-- node_100&#45;&gt;cluster_1 -->
<g id="edge13" class="edge"><title>node_100&#45;&gt;cluster_1</title>
<path fill="none" stroke="black" stroke-width="2" d="M1681.03,-202.831C1707.14,-171.564 1747.67,-123.018 1777.7,-87.0606"/>
<polygon fill="black" stroke="black" points="1780.6,-89.0504 1784.32,-79.1313 1775.23,-84.5636 1780.6,-89.0504"/>
</g>
<!-- node_100&#45;&gt;node_101 -->
<g id="edge4" class="edge"><title>node_100&#45;&gt;node_101</title>
<path fill="none" stroke="#9a32cd" d="M1902.11,-234.001C1911.03,-234.001 1919.88,-234.001 1928.58,-234.001"/>
<polygon fill="#9a32cd" stroke="#9a32cd" points="1938.73,-234.001 1928.73,-238.501 1933.73,-234.001 1928.73,-234.001 1928.73,-234.001 1928.73,-234.001 1933.73,-234.001 1928.73,-229.501 1938.73,-234.001 1938.73,-234.001"/>
</g>
<!-- node_103&#45;&gt;node_104 -->
<g id="edge5" class="edge"><title>node_103&#45;&gt;node_104</title>
<path fill="none" stroke="#9a32cd" d="M1756.26,-40C1765.01,-40 1773.88,-40 1782.8,-40"/>
<polygon fill="#9a32cd" stroke="#9a32cd" points="1792.87,-40 1782.87,-44.5001 1787.87,-40.0001 1782.87,-40.0001 1782.87,-40.0001 1782.87,-40.0001 1787.87,-40.0001 1782.87,-35.5001 1792.87,-40 1792.87,-40"/>
</g>
<!-- node_110&#45;&gt;node_111 -->
<g id="edge6" class="edge"><title>node_110&#45;&gt;node_111</title>
<path fill="none" stroke="#9a32cd" d="M412.129,-194C420.989,-194 429.922,-194 438.877,-194"/>
<polygon fill="#9a32cd" stroke="#9a32cd" points="448.995,-194 438.995,-198.5 443.995,-194 438.995,-194 438.995,-194 438.995,-194 443.995,-194 438.995,-189.5 448.995,-194 448.995,-194"/>
</g>
<!-- node_111&#45;&gt;node_112 -->
<g id="edge7" class="edge"><title>node_111&#45;&gt;node_112</title>
<path fill="none" stroke="#9a32cd" d="M933.109,-194C941.901,-194 950.689,-194 959.426,-194"/>
<polygon fill="#9a32cd" stroke="#9a32cd" points="969.657,-194 959.657,-198.5 964.657,-194 959.657,-194 959.657,-194 959.657,-194 964.657,-194 959.657,-189.5 969.657,-194 969.657,-194"/>
</g>
</g>
</svg>
