<?xml version="1.0" encoding="UTF-8" standalone="no"?>
<!DOCTYPE svg PUBLIC "-//W3C//DTD SVG 1.1//EN"
 "http://www.w3.org/Graphics/SVG/1.1/DTD/svg11.dtd">
<!-- Generated by graphviz version 2.26.3 (20100126.1600)
 -->
<!-- Title: graphForClustersContents Pages: 1 -->
<svg width="3564pt" height="202pt"
 viewBox="0.00 0.00 3564.00 202.00" xmlns="http://www.w3.org/2000/svg" xmlns:xlink="http://www.w3.org/1999/xlink">
<g id="graph1" class="graph" transform="scale(1 1) rotate(0) translate(4 198)">
<title>graphForClustersContents</title>
<polygon fill="white" stroke="white" points="-4,5 -4,-198 3561,-198 3561,5 -4,5"/>
<!-- node25136 -->
<g id="node2" class="node"><title>node25136</title>
<ellipse fill="#ffffcc" stroke="black" cx="283" cy="-44" rx="282.843" ry="43.8406"/>
<text text-anchor="middle" x="283" y="-58.4" font-family="Times Roman,serif" font-size="14.00">TakeObject</text>
<text text-anchor="middle" x="283" y="-40.4" font-family="Times Roman,serif" font-size="14.00">(HERAKLES_HUMAN1 GREEN_CUBE PLACEMAT_BLUE )</text>
<text text-anchor="middle" x="283" y="-22.4" font-family="Times Roman,serif" font-size="14.00">[0, 1]</text>
</g>
<!-- node25130 -->
<g id="node5" class="node"><title>node25130</title>
<ellipse fill="#ffffcc" stroke="black" cx="891" cy="-44" rx="289.207" ry="43.8406"/>
<text text-anchor="middle" x="891" y="-58.4" font-family="Times Roman,serif" font-size="14.00">ThrowObject</text>
<text text-anchor="middle" x="891" y="-40.4" font-family="Times Roman,serif" font-size="14.00">(HERAKLES_HUMAN1 GREEN_CUBE GREEN_TRASHBIN )</text>
<text text-anchor="middle" x="891" y="-22.4" font-family="Times Roman,serif" font-size="14.00">[1, 2]</text>
</g>
<!-- node25136&#45;&gt;node25130 -->
<g id="edge8" class="edge"><title>node25136&#45;&gt;node25130</title>
<path fill="none" stroke="#9a32cd" d="M566.085,-44C574.659,-44 583.255,-44 591.847,-44"/>
<polygon fill="#9a32cd" stroke="#9a32cd" points="601.928,-44 591.928,-48.5001 596.928,-44 591.928,-44.0001 591.928,-44.0001 591.928,-44.0001 596.928,-44 591.928,-39.5001 601.928,-44 601.928,-44"/>
</g>
<!-- node25155 -->
<g id="node3" class="node"><title>node25155</title>
<ellipse fill="#cce6ff" stroke="black" cx="283" cy="-150" rx="212.132" ry="43.8406"/>
<text text-anchor="middle" x="283" y="-164.4" font-family="Times Roman,serif" font-size="14.00">TakeObject</text>
<text text-anchor="middle" x="283" y="-146.4" font-family="Times Roman,serif" font-size="14.00">(PR2_ROBOT RED_CUBE ROBOT_AREA )</text>
<text text-anchor="middle" x="283" y="-128.4" font-family="Times Roman,serif" font-size="14.00">[0, 1]</text>
</g>
<!-- node25143 -->
<g id="node6" class="node"><title>node25143</title>
<ellipse fill="#cce6ff" stroke="black" cx="891" cy="-150" rx="227.896" ry="43.8406"/>
<text text-anchor="middle" x="891" y="-164.4" font-family="Times Roman,serif" font-size="14.00">PlaceObject</text>
<text text-anchor="middle" x="891" y="-146.4" font-family="Times Roman,serif" font-size="14.00">(PR2_ROBOT RED_CUBE PLACEMAT_BLUE )</text>
<text text-anchor="middle" x="891" y="-128.4" font-family="Times Roman,serif" font-size="14.00">[1, 2]</text>
</g>
<!-- node25155&#45;&gt;node25143 -->
<g id="edge11" class="edge"><title>node25155&#45;&gt;node25143</title>
<path fill="none" stroke="#9a32cd" d="M495.222,-150C545.886,-150 600.303,-150 652.077,-150"/>
<polygon fill="#9a32cd" stroke="#9a32cd" points="662.395,-150 652.395,-154.5 657.395,-150 652.395,-150 652.395,-150 652.395,-150 657.395,-150 652.395,-145.5 662.395,-150 662.395,-150"/>
</g>
<!-- node25141 -->
<g id="node8" class="node"><title>node25141</title>
<ellipse fill="#ffffcc" stroke="black" cx="1491" cy="-44" rx="273.858" ry="43.8406"/>
<text text-anchor="middle" x="1491" y="-58.4" font-family="Times Roman,serif" font-size="14.00">TakeObject</text>
<text text-anchor="middle" x="1491" y="-40.4" font-family="Times Roman,serif" font-size="14.00">(HERAKLES_HUMAN1 GREEN_CUBE2 HUMAN_AREA )</text>
<text text-anchor="middle" x="1491" y="-22.4" font-family="Times Roman,serif" font-size="14.00">[2, 3]</text>
</g>
<!-- node25130&#45;&gt;node25141 -->
<g id="edge7" class="edge"><title>node25130&#45;&gt;node25141</title>
<path fill="none" stroke="#9a32cd" d="M1180.02,-44C1188.75,-44 1197.49,-44 1206.22,-44"/>
<polygon fill="#9a32cd" stroke="#9a32cd" points="1216.45,-44 1206.45,-48.5001 1211.45,-44 1206.45,-44.0001 1206.45,-44.0001 1206.45,-44.0001 1211.45,-44 1206.45,-39.5001 1216.45,-44 1216.45,-44"/>
</g>
<!-- node25138 -->
<g id="node10" class="node"><title>node25138</title>
<ellipse fill="#ffffcc" stroke="black" cx="2098" cy="-44" rx="295.071" ry="43.8406"/>
<text text-anchor="middle" x="2098" y="-58.4" font-family="Times Roman,serif" font-size="14.00">ThrowObject</text>
<text text-anchor="middle" x="2098" y="-40.4" font-family="Times Roman,serif" font-size="14.00">(HERAKLES_HUMAN1 GREEN_CUBE2 GREEN_TRASHBIN )</text>
<text text-anchor="middle" x="2098" y="-22.4" font-family="Times Roman,serif" font-size="14.00">[3, 4]</text>
</g>
<!-- node25141&#45;&gt;node25138 -->
<g id="edge10" class="edge"><title>node25141&#45;&gt;node25138</title>
<path fill="none" stroke="#9a32cd" d="M1765.64,-44C1774.54,-44 1783.47,-44 1792.4,-44"/>
<polygon fill="#9a32cd" stroke="#9a32cd" points="1802.48,-44 1792.48,-48.5001 1797.48,-44 1792.48,-44.0001 1792.48,-44.0001 1792.48,-44.0001 1797.48,-44 1792.48,-39.5001 1802.48,-44 1802.48,-44"/>
</g>
<!-- node25160 -->
<g id="node12" class="node"><title>node25160</title>
<ellipse fill="#ffffcc" stroke="black" cx="2690" cy="-44" rx="260.215" ry="43.8406"/>
<text text-anchor="middle" x="2690" y="-58.4" font-family="Times Roman,serif" font-size="14.00">TakeObject</text>
<text text-anchor="middle" x="2690" y="-40.4" font-family="Times Roman,serif" font-size="14.00">(HERAKLES_HUMAN1 RED_CUBE2 HUMAN_AREA )</text>
<text text-anchor="middle" x="2690" y="-22.4" font-family="Times Roman,serif" font-size="14.00">[4, 5]</text>
</g>
<!-- node25138&#45;&gt;node25160 -->
<g id="edge9" class="edge"><title>node25138&#45;&gt;node25160</title>
<path fill="none" stroke="#9a32cd" d="M2393.57,-44C2402.3,-44 2411.04,-44 2419.74,-44"/>
<polygon fill="#9a32cd" stroke="#9a32cd" points="2429.94,-44 2419.94,-48.5001 2424.94,-44 2419.94,-44.0001 2419.94,-44.0001 2419.94,-44.0001 2424.94,-44 2419.94,-39.5001 2429.94,-44 2429.94,-44"/>
</g>
<!-- node25157 -->
<g id="node14" class="node"><title>node25157</title>
<ellipse fill="#ffffcc" stroke="black" cx="3271" cy="-44" rx="283.757" ry="43.8406"/>
<text text-anchor="middle" x="3271" y="-58.4" font-family="Times Roman,serif" font-size="14.00">PlaceObject</text>
<text text-anchor="middle" x="3271" y="-40.4" font-family="Times Roman,serif" font-size="14.00">(HERAKLES_HUMAN1 RED_CUBE2 PLACEMAT_GREEN )</text>
<text text-anchor="middle" x="3271" y="-22.4" font-family="Times Roman,serif" font-size="14.00">[5, 6]</text>
</g>
<!-- node25160&#45;&gt;node25157 -->
<g id="edge12" class="edge"><title>node25160&#45;&gt;node25157</title>
<path fill="none" stroke="#9a32cd" d="M2950.34,-44C2958.91,-44 2967.51,-44 2976.12,-44"/>
<polygon fill="#9a32cd" stroke="#9a32cd" points="2986.23,-44 2976.23,-48.5001 2981.23,-44 2976.23,-44.0001 2976.23,-44.0001 2976.23,-44.0001 2981.23,-44 2976.23,-39.5001 2986.23,-44 2986.23,-44"/>
</g>
</g>
</svg>
