<?xml version="1.0" encoding="UTF-8" standalone="no"?>
<!DOCTYPE svg PUBLIC "-//W3C//DTD SVG 1.1//EN"
 "http://www.w3.org/Graphics/SVG/1.1/DTD/svg11.dtd">
<!-- Generated by graphviz version 2.26.3 (20100126.1600)
 -->
<!-- Title: graphForClustersContents Pages: 1 -->
<svg width="5820pt" height="223pt"
 viewBox="0.00 0.00 5820.00 223.00" xmlns="http://www.w3.org/2000/svg" xmlns:xlink="http://www.w3.org/1999/xlink">
<g id="graph1" class="graph" transform="scale(1 1) rotate(0) translate(4 219)">
<title>graphForClustersContents</title>
<polygon fill="white" stroke="white" points="-4,5 -4,-219 5817,-219 5817,5 -4,5"/>
<!-- node339 -->
<g id="node2" class="node"><title>node339</title>
<ellipse fill="#ffffcc" stroke="black" cx="227" cy="-150" rx="226.981" ry="43.8406"/>
<text text-anchor="middle" x="227" y="-164.4" font-family="Times Roman,serif" font-size="14.00">TravelTo</text>
<text text-anchor="middle" x="227" y="-146.4" font-family="Times Roman,serif" font-size="14.00">(HERAKLES_HUMAN1 WORK_LOCATION_1 )</text>
<text text-anchor="middle" x="227" y="-128.4" font-family="Times Roman,serif" font-size="14.00">[0, 10]</text>
</g>
<!-- node340 -->
<g id="node5" class="node"><title>node340</title>
<ellipse fill="#ffffcc" stroke="black" cx="732" cy="-150" rx="241.831" ry="43.8406"/>
<text text-anchor="middle" x="732" y="-164.4" font-family="Times Roman,serif" font-size="14.00">Clean</text>
<text text-anchor="middle" x="732" y="-146.4" font-family="Times Roman,serif" font-size="14.00">(HERAKLES_HUMAN1 ASSEMBLY_SURFACE_1 )</text>
<text text-anchor="middle" x="732" y="-128.4" font-family="Times Roman,serif" font-size="14.00">[10, 30]</text>
</g>
<!-- node339&#45;&gt;node340 -->
<g id="edge14" class="edge"><title>node339&#45;&gt;node340</title>
<path fill="none" stroke="#9a32cd" d="M454.017,-150C462.586,-150 471.194,-150 479.801,-150"/>
<polygon fill="#9a32cd" stroke="#9a32cd" points="489.903,-150 479.903,-154.5 484.903,-150 479.903,-150 479.903,-150 479.903,-150 484.903,-150 479.903,-145.5 489.903,-150 489.903,-150"/>
</g>
<!-- node341 -->
<g id="node3" class="node"><title>node341</title>
<ellipse fill="#cce6ff" stroke="black" cx="227" cy="-44" rx="157.184" ry="43.8406"/>
<text text-anchor="middle" x="227" y="-58.4" font-family="Times Roman,serif" font-size="14.00">TravelTo</text>
<text text-anchor="middle" x="227" y="-40.4" font-family="Times Roman,serif" font-size="14.00">(PR2_ROBOT STOCK_TABLE )</text>
<text text-anchor="middle" x="227" y="-22.4" font-family="Times Roman,serif" font-size="14.00">[0, 10]</text>
</g>
<!-- node342 -->
<g id="node6" class="node"><title>node342</title>
<ellipse fill="#cce6ff" stroke="black" cx="732" cy="-44" rx="157.892" ry="43.8406"/>
<text text-anchor="middle" x="732" y="-58.4" font-family="Times Roman,serif" font-size="14.00">Pick</text>
<text text-anchor="middle" x="732" y="-40.4" font-family="Times Roman,serif" font-size="14.00">(PR2_ROBOT GLUE_BOTTLE )</text>
<text text-anchor="middle" x="732" y="-22.4" font-family="Times Roman,serif" font-size="14.00">[10, 20]</text>
</g>
<!-- node341&#45;&gt;node342 -->
<g id="edge16" class="edge"><title>node341&#45;&gt;node342</title>
<path fill="none" stroke="#9a32cd" d="M384.708,-44C441.357,-44 505.453,-44 563.021,-44"/>
<polygon fill="#9a32cd" stroke="#9a32cd" points="573.317,-44 563.317,-48.5001 568.317,-44 563.317,-44.0001 563.317,-44.0001 563.317,-44.0001 568.317,-44 563.317,-39.5001 573.317,-44 573.317,-44"/>
</g>
<!-- node346 -->
<g id="node10" class="node"><title>node346</title>
<ellipse fill="#e5f2e5" stroke="black" cx="1687" cy="-101" rx="263.044" ry="43.8406"/>
<ellipse fill="none" stroke="black" cx="1687" cy="-101" rx="267.044" ry="47.8406"/>
<text text-anchor="middle" x="1687" y="-115.4" font-family="Times Roman,serif" font-size="14.00">HandOver</text>
<text text-anchor="middle" x="1687" y="-97.4" font-family="Times Roman,serif" font-size="14.00">(PR2_ROBOT HERAKLES_HUMAN1 GLUE_BOTTLE )</text>
<text text-anchor="middle" x="1687" y="-79.4" font-family="Times Roman,serif" font-size="14.00">[30, 40]</text>
</g>
<!-- node340&#45;&gt;node346 -->
<g id="edge15" class="edge"><title>node340&#45;&gt;node346</title>
<path fill="none" stroke="#9a32cd" d="M965.008,-138.045C1102.37,-130.997 1276.71,-122.052 1419.65,-114.717"/>
<polygon fill="#9a32cd" stroke="#9a32cd" points="1429.89,-114.192 1420.13,-119.199 1424.9,-114.448 1419.9,-114.705 1419.9,-114.705 1419.9,-114.705 1424.9,-114.448 1419.67,-110.21 1429.89,-114.192 1429.89,-114.192"/>
</g>
<!-- node343 -->
<g id="node8" class="node"><title>node343</title>
<ellipse fill="#cce6ff" stroke="black" cx="1197" cy="-61" rx="186.176" ry="43.8406"/>
<text text-anchor="middle" x="1197" y="-75.4" font-family="Times Roman,serif" font-size="14.00">TravelTo</text>
<text text-anchor="middle" x="1197" y="-57.4" font-family="Times Roman,serif" font-size="14.00">(PR2_ROBOT WORK_LOCATION_1 )</text>
<text text-anchor="middle" x="1197" y="-39.4" font-family="Times Roman,serif" font-size="14.00">[20, 30]</text>
</g>
<!-- node342&#45;&gt;node343 -->
<g id="edge17" class="edge"><title>node342&#45;&gt;node343</title>
<path fill="none" stroke="#9a32cd" d="M889.428,-49.7554C925.707,-51.0818 964.719,-52.508 1002.37,-53.8844"/>
<polygon fill="#9a32cd" stroke="#9a32cd" points="1012.43,-54.2522 1002.27,-58.3837 1007.43,-54.0694 1002.43,-53.8867 1002.43,-53.8867 1002.43,-53.8867 1007.43,-54.0694 1002.6,-49.3897 1012.43,-54.2522 1012.43,-54.2522"/>
</g>
<!-- node343&#45;&gt;node346 -->
<g id="edge18" class="edge"><title>node343&#45;&gt;node346</title>
<path fill="none" stroke="#9a32cd" d="M1373.56,-75.4127C1393.03,-77.0023 1413.13,-78.6431 1433.31,-80.2904"/>
<polygon fill="#9a32cd" stroke="#9a32cd" points="1443.54,-81.1256 1433.21,-84.797 1438.56,-80.7187 1433.57,-80.3119 1433.57,-80.3119 1433.57,-80.3119 1438.56,-80.7187 1433.94,-75.8268 1443.54,-81.1256 1443.54,-81.1256"/>
</g>
<!-- node381 -->
<g id="node12" class="node"><title>node381</title>
<ellipse fill="#cce6ff" stroke="black" cx="2192" cy="-65" rx="201.025" ry="43.8406"/>
<text text-anchor="middle" x="2192" y="-79.4" font-family="Times Roman,serif" font-size="14.00">StartPointing</text>
<text text-anchor="middle" x="2192" y="-61.4" font-family="Times Roman,serif" font-size="14.00">(PR2_ROBOT ASSEMBLY_SURFACE_1 )</text>
<text text-anchor="middle" x="2192" y="-43.4" font-family="Times Roman,serif" font-size="14.00">[40, 41]</text>
</g>
<!-- node346&#45;&gt;node381 -->
<g id="edge19" class="edge"><title>node346&#45;&gt;node381</title>
<path fill="none" stroke="#9a32cd" d="M1935.43,-83.29C1953.83,-81.9785 1972.26,-80.6649 1990.32,-79.3771"/>
<polygon fill="#9a32cd" stroke="#9a32cd" points="2000.32,-78.6645 1990.66,-83.8642 1995.33,-79.0201 1990.34,-79.3756 1990.34,-79.3756 1990.34,-79.3756 1995.33,-79.0201 1990.02,-74.887 2000.32,-78.6645 2000.32,-78.6645"/>
</g>
<!-- node382 -->
<g id="node14" class="node"><title>node382</title>
<ellipse fill="#ffffcc" stroke="black" cx="2672" cy="-137" rx="241.831" ry="43.8406"/>
<text text-anchor="middle" x="2672" y="-151.4" font-family="Times Roman,serif" font-size="14.00">Glue</text>
<text text-anchor="middle" x="2672" y="-133.4" font-family="Times Roman,serif" font-size="14.00">(HERAKLES_HUMAN1 ASSEMBLY_SURFACE_1 )</text>
<text text-anchor="middle" x="2672" y="-115.4" font-family="Times Roman,serif" font-size="14.00">[41, 61]</text>
</g>
<!-- node346&#45;&gt;node382 -->
<g id="edge20" class="edge"><title>node346&#45;&gt;node382</title>
<path fill="none" stroke="#9a32cd" d="M1941.16,-115.785C1957.68,-116.584 1974.08,-117.332 1990,-118 2132.73,-123.991 2292.35,-128.554 2421.26,-131.705"/>
<polygon fill="#9a32cd" stroke="#9a32cd" points="2431.28,-131.949 2421.17,-136.204 2426.28,-131.827 2421.28,-131.706 2421.28,-131.706 2421.28,-131.706 2426.28,-131.827 2421.39,-127.207 2431.28,-131.949 2431.28,-131.949"/>
</g>
<!-- node381&#45;&gt;node382 -->
<g id="edge21" class="edge"><title>node381&#45;&gt;node382</title>
<path fill="none" stroke="#9a32cd" d="M2358.2,-89.9296C2395.74,-95.5616 2435.96,-101.594 2474.65,-107.398"/>
<polygon fill="#9a32cd" stroke="#9a32cd" points="2484.98,-108.947 2474.43,-111.914 2480.04,-108.206 2475.09,-107.464 2475.09,-107.464 2475.09,-107.464 2480.04,-108.206 2475.76,-103.014 2484.98,-108.947 2484.98,-108.947"/>
</g>
<!-- node383 -->
<g id="node17" class="node"><title>node383</title>
<ellipse fill="#cce6ff" stroke="black" cx="3152" cy="-65" rx="201.025" ry="43.8406"/>
<text text-anchor="middle" x="3152" y="-79.4" font-family="Times Roman,serif" font-size="14.00">StopPointing</text>
<text text-anchor="middle" x="3152" y="-61.4" font-family="Times Roman,serif" font-size="14.00">(PR2_ROBOT ASSEMBLY_SURFACE_1 )</text>
<text text-anchor="middle" x="3152" y="-43.4" font-family="Times Roman,serif" font-size="14.00">[61, 62]</text>
</g>
<!-- node381&#45;&gt;node383 -->
<g id="edge22" class="edge"><title>node381&#45;&gt;node383</title>
<path fill="none" stroke="#9a32cd" d="M2393.54,-65C2553.78,-65 2777.3,-65 2940.17,-65"/>
<polygon fill="#9a32cd" stroke="#9a32cd" points="2950.32,-65 2940.32,-69.5001 2945.32,-65 2940.32,-65.0001 2940.32,-65.0001 2940.32,-65.0001 2945.32,-65 2940.32,-60.5001 2950.32,-65 2950.32,-65"/>
</g>
<!-- node384 -->
<g id="node16" class="node"><title>node384</title>
<ellipse fill="#ffffcc" stroke="black" cx="3152" cy="-171" rx="198.197" ry="43.8406"/>
<text text-anchor="middle" x="3152" y="-185.4" font-family="Times Roman,serif" font-size="14.00">Place</text>
<text text-anchor="middle" x="3152" y="-167.4" font-family="Times Roman,serif" font-size="14.00">(HERAKLES_HUMAN1 GLUE_BOTTLE )</text>
<text text-anchor="middle" x="3152" y="-149.4" font-family="Times Roman,serif" font-size="14.00">[61, 71]</text>
</g>
<!-- node382&#45;&gt;node384 -->
<g id="edge24" class="edge"><title>node382&#45;&gt;node384</title>
<path fill="none" stroke="#9a32cd" d="M2897.59,-152.98C2915.97,-154.281 2934.46,-155.591 2952.63,-156.878"/>
<polygon fill="#9a32cd" stroke="#9a32cd" points="2962.69,-157.591 2952.4,-161.373 2957.71,-157.237 2952.72,-156.884 2952.72,-156.884 2952.72,-156.884 2957.71,-157.237 2953.04,-152.395 2962.69,-157.591 2962.69,-157.591"/>
</g>
<!-- node382&#45;&gt;node383 -->
<g id="edge23" class="edge"><title>node382&#45;&gt;node383</title>
<path fill="none" stroke="#9a32cd" d="M2858.95,-108.957C2897.38,-103.194 2937.71,-97.1441 2975.73,-91.4398"/>
<polygon fill="#9a32cd" stroke="#9a32cd" points="2985.87,-89.9193 2976.65,-95.853 2980.93,-90.6611 2975.98,-91.4028 2975.98,-91.4028 2975.98,-91.4028 2980.93,-90.6611 2975.31,-86.9526 2985.87,-89.9193 2985.87,-89.9193"/>
</g>
<!-- node390 -->
<g id="node27" class="node"><title>node390</title>
<ellipse fill="#ffffcc" stroke="black" cx="4985" cy="-131" rx="184.055" ry="43.8406"/>
<text text-anchor="middle" x="4985" y="-145.4" font-family="Times Roman,serif" font-size="14.00">Pick</text>
<text text-anchor="middle" x="4985" y="-127.4" font-family="Times Roman,serif" font-size="14.00">(HERAKLES_HUMAN1 BRACKET_1 )</text>
<text text-anchor="middle" x="4985" y="-109.4" font-family="Times Roman,serif" font-size="14.00">[102, 112]</text>
</g>
<!-- node384&#45;&gt;node390 -->
<g id="edge26" class="edge"><title>node384&#45;&gt;node390</title>
<path fill="none" stroke="#9a32cd" d="M3350.6,-170.166C3498.28,-169.618 3704.73,-169 3886,-169 3886,-169 3886,-169 4253,-169 4439.44,-169 4652.23,-156.554 4800.15,-145.908"/>
<polygon fill="#9a32cd" stroke="#9a32cd" points="4810.24,-145.177 4800.59,-150.387 4805.25,-145.538 4800.26,-145.899 4800.26,-145.899 4800.26,-145.899 4805.25,-145.538 4799.94,-141.411 4810.24,-145.177 4810.24,-145.177"/>
</g>
<!-- node387 -->
<g id="node19" class="node"><title>node387</title>
<ellipse fill="#cce6ff" stroke="black" cx="3548" cy="-82" rx="157.184" ry="43.8406"/>
<text text-anchor="middle" x="3548" y="-96.4" font-family="Times Roman,serif" font-size="14.00">TravelTo</text>
<text text-anchor="middle" x="3548" y="-78.4" font-family="Times Roman,serif" font-size="14.00">(PR2_ROBOT STOCK_TABLE )</text>
<text text-anchor="middle" x="3548" y="-60.4" font-family="Times Roman,serif" font-size="14.00">[62, 72]</text>
</g>
<!-- node383&#45;&gt;node387 -->
<g id="edge25" class="edge"><title>node383&#45;&gt;node387</title>
<path fill="none" stroke="#9a32cd" d="M3350,-73.5C3360.7,-73.9592 3371.39,-74.4184 3381.97,-74.8722"/>
<polygon fill="#9a32cd" stroke="#9a32cd" points="3392.06,-75.3056 3381.87,-79.3724 3387.06,-75.0911 3382.07,-74.8766 3382.07,-74.8766 3382.07,-74.8766 3387.06,-75.0911 3382.26,-70.3807 3392.06,-75.3056 3392.06,-75.3056"/>
</g>
<!-- node388 -->
<g id="node21" class="node"><title>node388</title>
<ellipse fill="#cce6ff" stroke="black" cx="3886" cy="-83" rx="144.25" ry="43.8406"/>
<text text-anchor="middle" x="3886" y="-97.4" font-family="Times Roman,serif" font-size="14.00">Pick</text>
<text text-anchor="middle" x="3886" y="-79.4" font-family="Times Roman,serif" font-size="14.00">(PR2_ROBOT BRACKET_1 )</text>
<text text-anchor="middle" x="3886" y="-61.4" font-family="Times Roman,serif" font-size="14.00">[72, 82]</text>
</g>
<!-- node387&#45;&gt;node388 -->
<g id="edge28" class="edge"><title>node387&#45;&gt;node388</title>
<path fill="none" stroke="#9a32cd" d="M3705.62,-82.4663C3714.34,-82.4921 3723.1,-82.5181 3731.81,-82.5438"/>
<polygon fill="#9a32cd" stroke="#9a32cd" points="3742,-82.574 3731.99,-87.0443 3737,-82.5591 3732,-82.5443 3732,-82.5443 3732,-82.5443 3737,-82.5591 3732.02,-78.0443 3742,-82.574 3742,-82.574"/>
</g>
<!-- node389 -->
<g id="node23" class="node"><title>node389</title>
<ellipse fill="#cce6ff" stroke="black" cx="4253" cy="-91" rx="186.176" ry="43.8406"/>
<text text-anchor="middle" x="4253" y="-105.4" font-family="Times Roman,serif" font-size="14.00">TravelTo</text>
<text text-anchor="middle" x="4253" y="-87.4" font-family="Times Roman,serif" font-size="14.00">(PR2_ROBOT WORK_LOCATION_1 )</text>
<text text-anchor="middle" x="4253" y="-69.4" font-family="Times Roman,serif" font-size="14.00">[82, 92]</text>
</g>
<!-- node388&#45;&gt;node389 -->
<g id="edge29" class="edge"><title>node388&#45;&gt;node389</title>
<path fill="none" stroke="#9a32cd" d="M4029.73,-86.1331C4038.64,-86.3272 4047.67,-86.5242 4056.75,-86.7221"/>
<polygon fill="#9a32cd" stroke="#9a32cd" points="4067.01,-86.9458 4056.92,-91.2267 4062.02,-86.8368 4057.02,-86.7278 4057.02,-86.7278 4057.02,-86.7278 4062.02,-86.8368 4057.11,-82.2289 4067.01,-86.9458 4067.01,-86.9458"/>
</g>
<!-- node386 -->
<g id="node25" class="node"><title>node386</title>
<ellipse fill="#cce6ff" stroke="black" cx="4620" cy="-93" rx="144.25" ry="43.8406"/>
<text text-anchor="middle" x="4620" y="-107.4" font-family="Times Roman,serif" font-size="14.00">Place</text>
<text text-anchor="middle" x="4620" y="-89.4" font-family="Times Roman,serif" font-size="14.00">(PR2_ROBOT BRACKET_1 )</text>
<text text-anchor="middle" x="4620" y="-71.4" font-family="Times Roman,serif" font-size="14.00">[92, 102]</text>
</g>
<!-- node389&#45;&gt;node386 -->
<g id="edge30" class="edge"><title>node389&#45;&gt;node386</title>
<path fill="none" stroke="#9a32cd" d="M4439.46,-92.0161C4448.25,-92.064 4457.03,-92.1119 4465.72,-92.1592"/>
<polygon fill="#9a32cd" stroke="#9a32cd" points="4475.88,-92.2146 4465.85,-96.6599 4470.88,-92.1873 4465.88,-92.16 4465.88,-92.16 4465.88,-92.16 4470.88,-92.1873 4465.9,-87.6601 4475.88,-92.2146 4475.88,-92.2146"/>
</g>
<!-- node386&#45;&gt;node390 -->
<g id="edge27" class="edge"><title>node386&#45;&gt;node390</title>
<path fill="none" stroke="#9a32cd" d="M4756.43,-107.204C4772.45,-108.871 4788.97,-110.591 4805.45,-112.307"/>
<polygon fill="#9a32cd" stroke="#9a32cd" points="4815.71,-113.375 4805.3,-116.816 4810.74,-112.858 4805.76,-112.34 4805.76,-112.34 4805.76,-112.34 4810.74,-112.858 4806.23,-107.864 4815.71,-113.375 4815.71,-113.375"/>
</g>
<!-- node391 -->
<g id="node29" class="node"><title>node391</title>
<ellipse fill="#ffffcc" stroke="black" cx="5509" cy="-131" rx="302.141" ry="43.8406"/>
<text text-anchor="middle" x="5509" y="-145.4" font-family="Times Roman,serif" font-size="14.00">AttachBracket</text>
<text text-anchor="middle" x="5509" y="-127.4" font-family="Times Roman,serif" font-size="14.00">(HERAKLES_HUMAN1 BRACKET_1 ASSEMBLY_SURFACE_1 )</text>
<text text-anchor="middle" x="5509" y="-109.4" font-family="Times Roman,serif" font-size="14.00">[112, 132]</text>
</g>
<!-- node390&#45;&gt;node391 -->
<g id="edge31" class="edge"><title>node390&#45;&gt;node391</title>
<path fill="none" stroke="#9a32cd" d="M5169.74,-131C5178.41,-131 5187.21,-131 5196.08,-131"/>
<polygon fill="#9a32cd" stroke="#9a32cd" points="5206.14,-131 5196.14,-135.5 5201.14,-131 5196.14,-131 5196.14,-131 5196.14,-131 5201.14,-131 5196.14,-126.5 5206.14,-131 5206.14,-131"/>
</g>
</g>
</svg>
