<?xml version="1.0" encoding="UTF-8" standalone="no"?>
<!DOCTYPE svg PUBLIC "-//W3C//DTD SVG 1.1//EN"
 "http://www.w3.org/Graphics/SVG/1.1/DTD/svg11.dtd">
<!-- Generated by graphviz version 2.26.3 (20100126.1600)
 -->
<!-- Title: graphForClustersContents Pages: 1 -->
<svg width="8016pt" height="96pt"
 viewBox="0.00 0.00 8016.00 96.00" xmlns="http://www.w3.org/2000/svg" xmlns:xlink="http://www.w3.org/1999/xlink">
<g id="graph1" class="graph" transform="scale(1 1) rotate(0) translate(4 92)">
<title>graphForClustersContents</title>
<polygon fill="white" stroke="white" points="-4,5 -4,-92 8013,-92 8013,5 -4,5"/>
<!-- node8 -->
<g id="node2" class="node"><title>node8</title>
<ellipse fill="#ffffcc" stroke="black" cx="188" cy="-44" rx="186.884" ry="43.8406"/>
<text text-anchor="middle" x="188" y="-58.4" font-family="Times Roman,serif" font-size="14.00">Pick</text>
<text text-anchor="middle" x="188" y="-40.4" font-family="Times Roman,serif" font-size="14.00">(HERAKLES_HUMAN1 Green_Cube )</text>
<text text-anchor="middle" x="188" y="-22.4" font-family="Times Roman,serif" font-size="14.00">[0, 6]</text>
</g>
<!-- node14 -->
<g id="node4" class="node"><title>node14</title>
<ellipse fill="#ffffcc" stroke="black" cx="658" cy="-44" rx="244.866" ry="43.8406"/>
<text text-anchor="middle" x="658" y="-58.4" font-family="Times Roman,serif" font-size="14.00">Place</text>
<text text-anchor="middle" x="658" y="-40.4" font-family="Times Roman,serif" font-size="14.00">(HERAKLES_HUMAN1 Green_Cube GluingArea )</text>
<text text-anchor="middle" x="658" y="-22.4" font-family="Times Roman,serif" font-size="14.00">[6, 12]</text>
</g>
<!-- node8&#45;&gt;node14 -->
<g id="edge18" class="edge"><title>node8&#45;&gt;node14</title>
<path fill="none" stroke="#9a32cd" d="M375.783,-44C384.514,-44 393.336,-44 402.198,-44"/>
<polygon fill="#9a32cd" stroke="#9a32cd" points="412.218,-44 402.218,-48.5001 407.218,-44 402.218,-44.0001 402.218,-44.0001 402.218,-44.0001 407.218,-44 402.218,-39.5001 412.218,-44 412.218,-44"/>
</g>
<!-- node15 -->
<g id="node6" class="node"><title>node15</title>
<ellipse fill="#ffffcc" stroke="black" cx="1247" cy="-44" rx="306.884" ry="43.8406"/>
<text text-anchor="middle" x="1247" y="-58.4" font-family="Times Roman,serif" font-size="14.00">Apply</text>
<text text-anchor="middle" x="1247" y="-40.4" font-family="Times Roman,serif" font-size="14.00">(HERAKLES_HUMAN1 Green_Cube Glue_Green GluingArea )</text>
<text text-anchor="middle" x="1247" y="-22.4" font-family="Times Roman,serif" font-size="14.00">[12, 18]</text>
</g>
<!-- node14&#45;&gt;node15 -->
<g id="edge19" class="edge"><title>node14&#45;&gt;node15</title>
<path fill="none" stroke="#9a32cd" d="M903.524,-44C912.145,-44 920.824,-44 929.53,-44"/>
<polygon fill="#9a32cd" stroke="#9a32cd" points="939.76,-44 929.761,-48.5001 934.76,-44 929.76,-44.0001 929.76,-44.0001 929.76,-44.0001 934.76,-44 929.76,-39.5001 939.76,-44 939.76,-44"/>
</g>
<!-- node16 -->
<g id="node8" class="node"><title>node16</title>
<ellipse fill="#ffffcc" stroke="black" cx="1778" cy="-44" rx="186.884" ry="43.8406"/>
<text text-anchor="middle" x="1778" y="-58.4" font-family="Times Roman,serif" font-size="14.00">Pick</text>
<text text-anchor="middle" x="1778" y="-40.4" font-family="Times Roman,serif" font-size="14.00">(HERAKLES_HUMAN1 Green_Cube )</text>
<text text-anchor="middle" x="1778" y="-22.4" font-family="Times Roman,serif" font-size="14.00">[18, 24]</text>
</g>
<!-- node15&#45;&gt;node16 -->
<g id="edge20" class="edge"><title>node15&#45;&gt;node16</title>
<path fill="none" stroke="#9a32cd" d="M1554.35,-44C1563.08,-44 1571.76,-44 1580.33,-44"/>
<polygon fill="#9a32cd" stroke="#9a32cd" points="1590.35,-44 1580.35,-48.5001 1585.35,-44 1580.35,-44.0001 1580.35,-44.0001 1580.35,-44.0001 1585.35,-44 1580.35,-39.5001 1590.35,-44 1590.35,-44"/>
</g>
<!-- node19 -->
<g id="node10" class="node"><title>node19</title>
<ellipse fill="#ffffcc" stroke="black" cx="2268" cy="-44" rx="265.872" ry="43.8406"/>
<text text-anchor="middle" x="2268" y="-58.4" font-family="Times Roman,serif" font-size="14.00">Place</text>
<text text-anchor="middle" x="2268" y="-40.4" font-family="Times Roman,serif" font-size="14.00">(HERAKLES_HUMAN1 Green_Cube SmoothingArea )</text>
<text text-anchor="middle" x="2268" y="-22.4" font-family="Times Roman,serif" font-size="14.00">[24, 30]</text>
</g>
<!-- node16&#45;&gt;node19 -->
<g id="edge21" class="edge"><title>node16&#45;&gt;node19</title>
<path fill="none" stroke="#9a32cd" d="M1965.7,-44C1974.24,-44 1982.87,-44 1991.57,-44"/>
<polygon fill="#9a32cd" stroke="#9a32cd" points="2001.79,-44 1991.79,-48.5001 1996.79,-44 1991.79,-44.0001 1991.79,-44.0001 1991.79,-44.0001 1996.79,-44 1991.79,-39.5001 2001.79,-44 2001.79,-44"/>
</g>
<!-- node20 -->
<g id="node12" class="node"><title>node20</title>
<ellipse fill="#ffffcc" stroke="black" cx="2889" cy="-44" rx="318.905" ry="43.8406"/>
<text text-anchor="middle" x="2889" y="-58.4" font-family="Times Roman,serif" font-size="14.00">Apply</text>
<text text-anchor="middle" x="2889" y="-40.4" font-family="Times Roman,serif" font-size="14.00">(HERAKLES_HUMAN1 Green_Cube Smoothen SmoothingArea )</text>
<text text-anchor="middle" x="2889" y="-22.4" font-family="Times Roman,serif" font-size="14.00">[30, 36]</text>
</g>
<!-- node19&#45;&gt;node20 -->
<g id="edge22" class="edge"><title>node19&#45;&gt;node20</title>
<path fill="none" stroke="#9a32cd" d="M2534.06,-44C2542.58,-44 2551.14,-44 2559.73,-44"/>
<polygon fill="#9a32cd" stroke="#9a32cd" points="2569.81,-44 2559.81,-48.5001 2564.81,-44 2559.81,-44.0001 2559.81,-44.0001 2559.81,-44.0001 2564.81,-44 2559.81,-39.5001 2569.81,-44 2569.81,-44"/>
</g>
<!-- node21 -->
<g id="node14" class="node"><title>node21</title>
<ellipse fill="#ffffcc" stroke="black" cx="3432" cy="-44" rx="186.884" ry="43.8406"/>
<text text-anchor="middle" x="3432" y="-58.4" font-family="Times Roman,serif" font-size="14.00">Pick</text>
<text text-anchor="middle" x="3432" y="-40.4" font-family="Times Roman,serif" font-size="14.00">(HERAKLES_HUMAN1 Green_Cube )</text>
<text text-anchor="middle" x="3432" y="-22.4" font-family="Times Roman,serif" font-size="14.00">[36, 42]</text>
</g>
<!-- node20&#45;&gt;node21 -->
<g id="edge23" class="edge"><title>node20&#45;&gt;node21</title>
<path fill="none" stroke="#9a32cd" d="M3208.01,-44C3216.8,-44 3225.53,-44 3234.14,-44"/>
<polygon fill="#9a32cd" stroke="#9a32cd" points="3244.21,-44 3234.21,-48.5001 3239.21,-44 3234.21,-44.0001 3234.21,-44.0001 3234.21,-44.0001 3239.21,-44 3234.21,-39.5001 3244.21,-44 3244.21,-44"/>
</g>
<!-- node7 -->
<g id="node16" class="node"><title>node7</title>
<ellipse fill="#ffffcc" stroke="black" cx="3897" cy="-44" rx="239.916" ry="43.8406"/>
<text text-anchor="middle" x="3897" y="-58.4" font-family="Times Roman,serif" font-size="14.00">PlaceOnStack</text>
<text text-anchor="middle" x="3897" y="-40.4" font-family="Times Roman,serif" font-size="14.00">(HERAKLES_HUMAN1 Green_Cube StackArea )</text>
<text text-anchor="middle" x="3897" y="-22.4" font-family="Times Roman,serif" font-size="14.00">[42, 48]</text>
</g>
<!-- node21&#45;&gt;node7 -->
<g id="edge24" class="edge"><title>node21&#45;&gt;node7</title>
<path fill="none" stroke="#9a32cd" d="M3619.79,-44C3628.58,-44 3637.46,-44 3646.38,-44"/>
<polygon fill="#9a32cd" stroke="#9a32cd" points="3656.46,-44 3646.46,-48.5001 3651.46,-44 3646.46,-44.0001 3646.46,-44.0001 3646.46,-44.0001 3651.46,-44 3646.46,-39.5001 3656.46,-44 3656.46,-44"/>
</g>
<!-- node27 -->
<g id="node18" class="node"><title>node27</title>
<ellipse fill="#ffffcc" stroke="black" cx="4350" cy="-44" rx="174.863" ry="43.8406"/>
<text text-anchor="middle" x="4350" y="-58.4" font-family="Times Roman,serif" font-size="14.00">Pick</text>
<text text-anchor="middle" x="4350" y="-40.4" font-family="Times Roman,serif" font-size="14.00">(HERAKLES_HUMAN1 Red_Cube )</text>
<text text-anchor="middle" x="4350" y="-22.4" font-family="Times Roman,serif" font-size="14.00">[48, 54]</text>
</g>
<!-- node7&#45;&gt;node27 -->
<g id="edge17" class="edge"><title>node7&#45;&gt;node27</title>
<path fill="none" stroke="#9a32cd" d="M4137.76,-44C4146.58,-44 4155.37,-44 4164.07,-44"/>
<polygon fill="#9a32cd" stroke="#9a32cd" points="4174.25,-44 4164.25,-48.5001 4169.25,-44 4164.25,-44.0001 4164.25,-44.0001 4164.25,-44.0001 4169.25,-44 4164.25,-39.5001 4174.25,-44 4174.25,-44"/>
</g>
<!-- node33 -->
<g id="node20" class="node"><title>node33</title>
<ellipse fill="#ffffcc" stroke="black" cx="4795" cy="-44" rx="232.138" ry="43.8406"/>
<text text-anchor="middle" x="4795" y="-58.4" font-family="Times Roman,serif" font-size="14.00">Place</text>
<text text-anchor="middle" x="4795" y="-40.4" font-family="Times Roman,serif" font-size="14.00">(HERAKLES_HUMAN1 Red_Cube GluingArea )</text>
<text text-anchor="middle" x="4795" y="-22.4" font-family="Times Roman,serif" font-size="14.00">[54, 60]</text>
</g>
<!-- node27&#45;&gt;node33 -->
<g id="edge25" class="edge"><title>node27&#45;&gt;node33</title>
<path fill="none" stroke="#9a32cd" d="M4525.56,-44C4534.39,-44 4543.32,-44 4552.3,-44"/>
<polygon fill="#9a32cd" stroke="#9a32cd" points="4562.45,-44 4552.45,-48.5001 4557.45,-44 4552.45,-44.0001 4552.45,-44.0001 4552.45,-44.0001 4557.45,-44 4552.45,-39.5001 4562.45,-44 4562.45,-44"/>
</g>
<!-- node34 -->
<g id="node22" class="node"><title>node34</title>
<ellipse fill="#ffffcc" stroke="black" cx="5346" cy="-44" rx="282.136" ry="43.8406"/>
<text text-anchor="middle" x="5346" y="-58.4" font-family="Times Roman,serif" font-size="14.00">Apply</text>
<text text-anchor="middle" x="5346" y="-40.4" font-family="Times Roman,serif" font-size="14.00">(HERAKLES_HUMAN1 Red_Cube Glue_Red GluingArea )</text>
<text text-anchor="middle" x="5346" y="-22.4" font-family="Times Roman,serif" font-size="14.00">[60, 66]</text>
</g>
<!-- node33&#45;&gt;node34 -->
<g id="edge26" class="edge"><title>node33&#45;&gt;node34</title>
<path fill="none" stroke="#9a32cd" d="M5027.87,-44C5036.42,-44 5045.03,-44 5053.66,-44"/>
<polygon fill="#9a32cd" stroke="#9a32cd" points="5063.8,-44 5053.8,-48.5001 5058.8,-44 5053.8,-44.0001 5053.8,-44.0001 5053.8,-44.0001 5058.8,-44 5053.8,-39.5001 5063.8,-44 5063.8,-44"/>
</g>
<!-- node35 -->
<g id="node24" class="node"><title>node35</title>
<ellipse fill="#ffffcc" stroke="black" cx="5840" cy="-44" rx="174.863" ry="43.8406"/>
<text text-anchor="middle" x="5840" y="-58.4" font-family="Times Roman,serif" font-size="14.00">Pick</text>
<text text-anchor="middle" x="5840" y="-40.4" font-family="Times Roman,serif" font-size="14.00">(HERAKLES_HUMAN1 Red_Cube )</text>
<text text-anchor="middle" x="5840" y="-22.4" font-family="Times Roman,serif" font-size="14.00">[66, 72]</text>
</g>
<!-- node34&#45;&gt;node35 -->
<g id="edge27" class="edge"><title>node34&#45;&gt;node35</title>
<path fill="none" stroke="#9a32cd" d="M5628.35,-44C5636.95,-44 5645.5,-44 5653.95,-44"/>
<polygon fill="#9a32cd" stroke="#9a32cd" points="5664.19,-44 5654.19,-48.5001 5659.19,-44 5654.19,-44.0001 5654.19,-44.0001 5654.19,-44.0001 5659.19,-44 5654.19,-39.5001 5664.19,-44 5664.19,-44"/>
</g>
<!-- node38 -->
<g id="node26" class="node"><title>node38</title>
<ellipse fill="#ffffcc" stroke="black" cx="6296" cy="-44" rx="243.952" ry="43.8406"/>
<text text-anchor="middle" x="6296" y="-58.4" font-family="Times Roman,serif" font-size="14.00">Place</text>
<text text-anchor="middle" x="6296" y="-40.4" font-family="Times Roman,serif" font-size="14.00">(HERAKLES_HUMAN1 Red_Cube PolishingArea )</text>
<text text-anchor="middle" x="6296" y="-22.4" font-family="Times Roman,serif" font-size="14.00">[72, 78]</text>
</g>
<!-- node35&#45;&gt;node38 -->
<g id="edge28" class="edge"><title>node35&#45;&gt;node38</title>
<path fill="none" stroke="#9a32cd" d="M6015.65,-44C6024.21,-44 6032.88,-44 6041.61,-44"/>
<polygon fill="#9a32cd" stroke="#9a32cd" points="6051.87,-44 6041.87,-48.5001 6046.87,-44 6041.87,-44.0001 6041.87,-44.0001 6041.87,-44.0001 6046.87,-44 6041.87,-39.5001 6051.87,-44 6051.87,-44"/>
</g>
<!-- node39 -->
<g id="node28" class="node"><title>node39</title>
<ellipse fill="#ffffcc" stroke="black" cx="6851" cy="-44" rx="275.065" ry="43.8406"/>
<text text-anchor="middle" x="6851" y="-58.4" font-family="Times Roman,serif" font-size="14.00">Apply</text>
<text text-anchor="middle" x="6851" y="-40.4" font-family="Times Roman,serif" font-size="14.00">(HERAKLES_HUMAN1 Red_Cube Polish PolishingArea )</text>
<text text-anchor="middle" x="6851" y="-22.4" font-family="Times Roman,serif" font-size="14.00">[78, 84]</text>
</g>
<!-- node38&#45;&gt;node39 -->
<g id="edge29" class="edge"><title>node38&#45;&gt;node39</title>
<path fill="none" stroke="#9a32cd" d="M6540.24,-44C6548.7,-44 6557.21,-44 6565.73,-44"/>
<polygon fill="#9a32cd" stroke="#9a32cd" points="6575.73,-44 6565.73,-48.5001 6570.73,-44 6565.73,-44.0001 6565.73,-44.0001 6565.73,-44.0001 6570.73,-44 6565.73,-39.5001 6575.73,-44 6575.73,-44"/>
</g>
<!-- node40 -->
<g id="node30" class="node"><title>node40</title>
<ellipse fill="#ffffcc" stroke="black" cx="7338" cy="-44" rx="174.863" ry="43.8406"/>
<text text-anchor="middle" x="7338" y="-58.4" font-family="Times Roman,serif" font-size="14.00">Pick</text>
<text text-anchor="middle" x="7338" y="-40.4" font-family="Times Roman,serif" font-size="14.00">(HERAKLES_HUMAN1 Red_Cube )</text>
<text text-anchor="middle" x="7338" y="-22.4" font-family="Times Roman,serif" font-size="14.00">[84, 90]</text>
</g>
<!-- node39&#45;&gt;node40 -->
<g id="edge30" class="edge"><title>node39&#45;&gt;node40</title>
<path fill="none" stroke="#9a32cd" d="M7126.17,-44C7134.92,-44 7143.61,-44 7152.2,-44"/>
<polygon fill="#9a32cd" stroke="#9a32cd" points="7162.24,-44 7152.24,-48.5001 7157.24,-44 7152.24,-44.0001 7152.24,-44.0001 7152.24,-44.0001 7157.24,-44 7152.24,-39.5001 7162.24,-44 7162.24,-44"/>
</g>
<!-- node26 -->
<g id="node32" class="node"><title>node26</title>
<ellipse fill="#ffffcc" stroke="black" cx="7779" cy="-44" rx="227.896" ry="43.8406"/>
<text text-anchor="middle" x="7779" y="-58.4" font-family="Times Roman,serif" font-size="14.00">PlaceOnStack</text>
<text text-anchor="middle" x="7779" y="-40.4" font-family="Times Roman,serif" font-size="14.00">(HERAKLES_HUMAN1 Red_Cube StackArea )</text>
<text text-anchor="middle" x="7779" y="-22.4" font-family="Times Roman,serif" font-size="14.00">[90, 96]</text>
</g>
<!-- node40&#45;&gt;node26 -->
<g id="edge31" class="edge"><title>node40&#45;&gt;node26</title>
<path fill="none" stroke="#9a32cd" d="M7513.56,-44C7522.38,-44 7531.29,-44 7540.24,-44"/>
<polygon fill="#9a32cd" stroke="#9a32cd" points="7550.36,-44 7540.36,-48.5001 7545.36,-44 7540.36,-44.0001 7540.36,-44.0001 7540.36,-44.0001 7545.36,-44 7540.36,-39.5001 7550.36,-44 7550.36,-44"/>
</g>
</g>
</svg>
