<?xml version="1.0" encoding="UTF-8" standalone="no"?>
<!DOCTYPE svg PUBLIC "-//W3C//DTD SVG 1.1//EN"
 "http://www.w3.org/Graphics/SVG/1.1/DTD/svg11.dtd">
<!-- Generated by graphviz version 2.26.3 (20100126.1600)
 -->
<!-- Title: final_graph Pages: 1 -->
<svg width="5636pt" height="772pt"
 viewBox="0.00 0.00 5636.00 772.00" xmlns="http://www.w3.org/2000/svg" xmlns:xlink="http://www.w3.org/1999/xlink">
<g id="graph1" class="graph" transform="scale(1 1) rotate(0) translate(4 768)">
<title>final_graph</title>
<polygon fill="white" stroke="white" points="-4,5 -4,-768 5633,-768 5633,5 -4,5"/>
<!-- cluster_0 -->
<g id="node1" class="node"><title>cluster_0</title>
<polygon fill="none" stroke="blue" points="3825,-763.002 3729,-763.002 3729,-685.002 3825,-685.002 3825,-763.002"/>
<text text-anchor="middle" x="3777" y="-720.402" font-family="Times Roman,serif" font-size="14.00"> </text>
</g>
<!-- cluster_1 -->
<g id="node2" class="node"><title>cluster_1</title>
<polygon fill="none" stroke="blue" points="4020,-649 3534,-649 3534,-571 4020,-571 4020,-649"/>
<text text-anchor="middle" x="3777" y="-606.4" font-family="Times Roman,serif" font-size="14.00"> </text>
</g>
<!-- cluster_2 -->
<g id="node3" class="node"><title>cluster_2</title>
<polygon fill="none" stroke="blue" points="3772,-535 2680,-535 2680,-457 3772,-457 3772,-535"/>
<text text-anchor="middle" x="3226" y="-492.4" font-family="Times Roman,serif" font-size="14.00"> </text>
</g>
<!-- cluster_3 -->
<g id="node4" class="node"><title>cluster_3</title>
<polygon fill="none" stroke="blue" points="2567,-421 0.9968,-421 0.9968,-343 2567,-343 2567,-421"/>
<text text-anchor="middle" x="1284" y="-378.4" font-family="Times Roman,serif" font-size="14.00"> </text>
</g>
<!-- cluster_4 -->
<g id="node5" class="node"><title>cluster_4</title>
<polygon fill="none" stroke="blue" points="3867,-421 2585,-421 2585,-343 3867,-343 3867,-421"/>
<text text-anchor="middle" x="3226" y="-378.4" font-family="Times Roman,serif" font-size="14.00"> </text>
</g>
<!-- cluster_5 -->
<g id="node6" class="node"><title>cluster_5</title>
<polygon fill="none" stroke="blue" points="2873,-307 2375,-307 2375,-229 2873,-229 2873,-307"/>
<text text-anchor="middle" x="2624" y="-264.4" font-family="Times Roman,serif" font-size="14.00"> </text>
</g>
<!-- cluster_6 -->
<g id="node7" class="node"><title>cluster_6</title>
<polygon fill="none" stroke="blue" points="4199,-307 2891,-307 2891,-229 4199,-229 4199,-307"/>
<text text-anchor="middle" x="3545" y="-264.4" font-family="Times Roman,serif" font-size="14.00"> </text>
</g>
<!-- cluster_7 -->
<g id="node8" class="node"><title>cluster_7</title>
<polygon fill="none" stroke="blue" points="3729,-193 2151,-193 2151,-115 3729,-115 3729,-193"/>
<text text-anchor="middle" x="2940" y="-150.4" font-family="Times Roman,serif" font-size="14.00"> </text>
</g>
<!-- cluster_8 -->
<g id="node9" class="node"><title>cluster_8</title>
<polygon fill="none" stroke="blue" points="4553,-193 3747,-193 3747,-115 4553,-115 4553,-193"/>
<text text-anchor="middle" x="4150" y="-150.4" font-family="Times Roman,serif" font-size="14.00"> </text>
</g>
<!-- cluster_9 -->
<g id="node10" class="node"><title>cluster_9</title>
<polygon fill="none" stroke="blue" points="4351,-79 3949,-79 3949,-1.00002 4351,-1.00002 4351,-79"/>
<text text-anchor="middle" x="4150" y="-36.4" font-family="Times Roman,serif" font-size="14.00"> </text>
</g>
<!-- cluster_10 -->
<g id="node11" class="node"><title>cluster_10</title>
<polygon fill="none" stroke="blue" points="4687,-535 3969,-535 3969,-457 4687,-457 4687,-535"/>
<text text-anchor="middle" x="4328" y="-492.4" font-family="Times Roman,serif" font-size="14.00"> </text>
</g>
<!-- cluster_11 -->
<g id="node12" class="node"><title>cluster_11</title>
<polygon fill="none" stroke="blue" points="4771,-421 3885,-421 3885,-343 4771,-343 4771,-421"/>
<text text-anchor="middle" x="4328" y="-378.4" font-family="Times Roman,serif" font-size="14.00"> </text>
</g>
<!-- cluster_12 -->
<g id="node13" class="node"><title>cluster_12</title>
<polygon fill="none" stroke="blue" points="5375,-421 4789,-421 4789,-343 5375,-343 5375,-421"/>
<text text-anchor="middle" x="5082" y="-378.4" font-family="Times Roman,serif" font-size="14.00"> </text>
</g>
<!-- cluster_13 -->
<g id="node14" class="node"><title>cluster_13</title>
<polygon fill="none" stroke="blue" points="5627,-307 4537,-307 4537,-229 5627,-229 5627,-307"/>
<text text-anchor="middle" x="5082" y="-264.4" font-family="Times Roman,serif" font-size="14.00"> </text>
</g>
<!-- node_10 -->
<g id="node15" class="node"><title>node_10</title>
<ellipse fill="#c1cdcd" stroke="black" cx="3777" cy="-724.002" rx="39.1428" ry="31.1127"/>
<ellipse fill="none" stroke="black" cx="3777" cy="-724.002" rx="43.0969" ry="35.1127"/>
<text text-anchor="middle" x="3777" y="-729.402" font-family="Times Roman,serif" font-size="14.00">Clean</text>
<text text-anchor="middle" x="3777" y="-711.402" font-family="Times Roman,serif" font-size="14.00">()</text>
</g>
<!-- node_11 -->
<g id="node16" class="node"><title>node_11</title>
<ellipse fill="#c1cdcd" stroke="black" cx="3655" cy="-610" rx="111.947" ry="31.1127"/>
<ellipse fill="none" stroke="black" cx="3655" cy="-610" rx="115.93" ry="35.1127"/>
<text text-anchor="middle" x="3655" y="-615.4" font-family="Times Roman,serif" font-size="14.00">CleanColoredObjects</text>
<text text-anchor="middle" x="3655" y="-597.4" font-family="Times Roman,serif" font-size="14.00">()</text>
</g>
<!-- node_12 -->
<g id="node17" class="node"><title>node_12</title>
<ellipse fill="#c1cdcd" stroke="black" cx="3907.99" cy="-610" rx="104" ry="31.1127"/>
<ellipse fill="none" stroke="black" cx="3907.99" cy="-610" rx="108" ry="35.1127"/>
<text text-anchor="middle" x="3907.99" y="-615.4" font-family="Times Roman,serif" font-size="14.00">CleanOtherObjects</text>
<text text-anchor="middle" x="3907.99" y="-597.4" font-family="Times Roman,serif" font-size="14.00">()</text>
</g>
<!-- node_16 -->
<g id="node18" class="node"><title>node_16</title>
<ellipse fill="#c1cdcd" stroke="black" cx="2840" cy="-496" rx="152.028" ry="31.1127"/>
<ellipse fill="none" stroke="black" cx="2840" cy="-496" rx="156.028" ry="35.1127"/>
<text text-anchor="middle" x="2840" y="-501.4" font-family="Times Roman,serif" font-size="14.00">ObtainObject</text>
<text text-anchor="middle" x="2840" y="-483.4" font-family="Times Roman,serif" font-size="14.00">(PR2_ROBOT BLUE_CUBE2 )</text>
</g>
<!-- node_17 -->
<g id="node19" class="node"><title>node_17</title>
<ellipse fill="#ffffcc" stroke="black" cx="3265" cy="-496" rx="237" ry="31.1127"/>
<text text-anchor="middle" x="3265" y="-501.4" font-family="Times Roman,serif" font-size="14.00">ThrowObject</text>
<text text-anchor="middle" x="3265" y="-483.4" font-family="Times Roman,serif" font-size="14.00">(PR2_ROBOT BLUE_CUBE2 BLUE_TRASHBIN )</text>
</g>
<!-- node_18 -->
<g id="node20" class="node"><title>node_18</title>
<ellipse fill="#c1cdcd" stroke="black" cx="3651" cy="-496" rx="111.947" ry="31.1127"/>
<ellipse fill="none" stroke="black" cx="3651" cy="-496" rx="115.93" ry="35.1127"/>
<text text-anchor="middle" x="3651" y="-501.4" font-family="Times Roman,serif" font-size="14.00">CleanColoredObjects</text>
<text text-anchor="middle" x="3651" y="-483.4" font-family="Times Roman,serif" font-size="14.00">()</text>
</g>
<!-- node_308 -->
<g id="node21" class="node"><title>node_308</title>
<ellipse fill="#ffffcc" stroke="black" cx="246.997" cy="-382" rx="237.088" ry="31.1127"/>
<text text-anchor="middle" x="246.997" y="-387.4" font-family="Times Roman,serif" font-size="14.00">TakeObject</text>
<text text-anchor="middle" x="246.997" y="-369.4" font-family="Times Roman,serif" font-size="14.00">(PR2_ROBOT RED_CUBE PLACEMAT_GREEN )</text>
</g>
<!-- node_309 -->
<g id="node22" class="node"><title>node_309</title>
<ellipse fill="#ffffcc" stroke="black" cx="708.997" cy="-382" rx="186.884" ry="31.1127"/>
<text text-anchor="middle" x="708.997" y="-387.4" font-family="Times Roman,serif" font-size="14.00">PlaceObject</text>
<text text-anchor="middle" x="708.997" y="-369.4" font-family="Times Roman,serif" font-size="14.00">(PR2_ROBOT RED_CUBE TABLE_4 )</text>
</g>
<!-- node_310 -->
<g id="node23" class="node"><title>node_310</title>
<ellipse fill="#cce6ff" stroke="black" cx="1171.99" cy="-382" rx="239.002" ry="31.1127"/>
<text text-anchor="middle" x="1171.99" y="-387.4" font-family="Times Roman,serif" font-size="14.00">TakeObject</text>
<text text-anchor="middle" x="1171.99" y="-369.4" font-family="Times Roman,serif" font-size="14.00">(HERAKLES_HUMAN1 BLUE_CUBE2 TABLE_4 )</text>
</g>
<!-- node_311 -->
<g id="node24" class="node"><title>node_311</title>
<ellipse fill="#cce6ff" stroke="black" cx="1736" cy="-382" rx="289.207" ry="31.1127"/>
<text text-anchor="middle" x="1736" y="-387.4" font-family="Times Roman,serif" font-size="14.00">PlaceObject</text>
<text text-anchor="middle" x="1736" y="-369.4" font-family="Times Roman,serif" font-size="14.00">(HERAKLES_HUMAN1 BLUE_CUBE2 PLACEMAT_GREEN )</text>
</g>
<!-- node_312 -->
<g id="node25" class="node"><title>node_312</title>
<ellipse fill="#ffffcc" stroke="black" cx="2310" cy="-382" rx="249" ry="31.1127"/>
<text text-anchor="middle" x="2310" y="-387.4" font-family="Times Roman,serif" font-size="14.00">TakeObject</text>
<text text-anchor="middle" x="2310" y="-369.4" font-family="Times Roman,serif" font-size="14.00">(PR2_ROBOT BLUE_CUBE2 PLACEMAT_GREEN )</text>
</g>
<!-- node_316 -->
<g id="node26" class="node"><title>node_316</title>
<ellipse fill="#c1cdcd" stroke="black" cx="2788" cy="-382" rx="193.954" ry="31.1127"/>
<text text-anchor="middle" x="2788" y="-387.4" font-family="Times Roman,serif" font-size="14.00">ObtainObject</text>
<text text-anchor="middle" x="2788" y="-369.4" font-family="Times Roman,serif" font-size="14.00">(HERAKLES_HUMAN1 GREEN_CUBE )</text>
</g>
<!-- node_317 -->
<g id="node27" class="node"><title>node_317</title>
<ellipse fill="#cce6ff" stroke="black" cx="3308" cy="-382" rx="289.207" ry="31.1127"/>
<text text-anchor="middle" x="3308" y="-387.4" font-family="Times Roman,serif" font-size="14.00">ThrowObject</text>
<text text-anchor="middle" x="3308" y="-369.4" font-family="Times Roman,serif" font-size="14.00">(HERAKLES_HUMAN1 GREEN_CUBE GREEN_TRASHBIN )</text>
</g>
<!-- node_318 -->
<g id="node28" class="node"><title>node_318</title>
<ellipse fill="#c1cdcd" stroke="black" cx="3746" cy="-382" rx="111.947" ry="31.1127"/>
<ellipse fill="none" stroke="black" cx="3746" cy="-382" rx="115.93" ry="35.1127"/>
<text text-anchor="middle" x="3746" y="-387.4" font-family="Times Roman,serif" font-size="14.00">CleanColoredObjects</text>
<text text-anchor="middle" x="3746" y="-369.4" font-family="Times Roman,serif" font-size="14.00">()</text>
</g>
<!-- node_407 -->
<g id="node29" class="node"><title>node_407</title>
<ellipse fill="#cce6ff" stroke="black" cx="2624" cy="-268" rx="241.123" ry="31.1127"/>
<text text-anchor="middle" x="2624" y="-273.4" font-family="Times Roman,serif" font-size="14.00">TakeObject</text>
<text text-anchor="middle" x="2624" y="-255.4" font-family="Times Roman,serif" font-size="14.00">(HERAKLES_HUMAN1 GREEN_CUBE TABLE_4 )</text>
</g>
<!-- node_411 -->
<g id="node30" class="node"><title>node_411</title>
<ellipse fill="#c1cdcd" stroke="black" cx="3100" cy="-268" rx="201" ry="31.1127"/>
<ellipse fill="none" stroke="black" cx="3100" cy="-268" rx="205" ry="35.1127"/>
<text text-anchor="middle" x="3100" y="-273.4" font-family="Times Roman,serif" font-size="14.00">ObtainObject</text>
<text text-anchor="middle" x="3100" y="-255.4" font-family="Times Roman,serif" font-size="14.00">(HERAKLES_HUMAN1 GREEN_CUBE2 )</text>
</g>
<!-- node_412 -->
<g id="node31" class="node"><title>node_412</title>
<ellipse fill="#cce6ff" stroke="black" cx="3633" cy="-268" rx="295.071" ry="31.1127"/>
<text text-anchor="middle" x="3633" y="-273.4" font-family="Times Roman,serif" font-size="14.00">ThrowObject</text>
<text text-anchor="middle" x="3633" y="-255.4" font-family="Times Roman,serif" font-size="14.00">(HERAKLES_HUMAN1 GREEN_CUBE2 GREEN_TRASHBIN )</text>
</g>
<!-- node_413 -->
<g id="node32" class="node"><title>node_413</title>
<ellipse fill="#c1cdcd" stroke="black" cx="4078" cy="-268" rx="111.93" ry="31.1127"/>
<text text-anchor="middle" x="4078" y="-273.4" font-family="Times Roman,serif" font-size="14.00">CleanColoredObjects</text>
<text text-anchor="middle" x="4078" y="-255.4" font-family="Times Roman,serif" font-size="14.00">()</text>
</g>
<!-- node_453 -->
<g id="node33" class="node"><title>node_453</title>
<ellipse fill="#ffffcc" stroke="black" cx="2366" cy="-154" rx="207.182" ry="31.1127"/>
<text text-anchor="middle" x="2366" y="-159.4" font-family="Times Roman,serif" font-size="14.00">TakeObject</text>
<text text-anchor="middle" x="2366" y="-141.4" font-family="Times Roman,serif" font-size="14.00">(PR2_ROBOT GREEN_CUBE2 TABLE_4 )</text>
</g>
<!-- node_454 -->
<g id="node34" class="node"><title>node_454</title>
<ellipse fill="#ffffcc" stroke="black" cx="2858" cy="-154" rx="249" ry="31.1127"/>
<text text-anchor="middle" x="2858" y="-159.4" font-family="Times Roman,serif" font-size="14.00">PlaceObject</text>
<text text-anchor="middle" x="2858" y="-141.4" font-family="Times Roman,serif" font-size="14.00">(PR2_ROBOT GREEN_CUBE2 PLACEMAT_BLUE )</text>
</g>
<!-- node_455 -->
<g id="node35" class="node"><title>node_455</title>
<ellipse fill="#cce6ff" stroke="black" cx="3431.99" cy="-154" rx="289.207" ry="31.1127"/>
<text text-anchor="middle" x="3431.99" y="-159.4" font-family="Times Roman,serif" font-size="14.00">TakeObject</text>
<text text-anchor="middle" x="3431.99" y="-141.4" font-family="Times Roman,serif" font-size="14.00">(HERAKLES_HUMAN1 GREEN_CUBE2 PLACEMAT_BLUE )</text>
</g>
<!-- node_456 -->
<g id="node36" class="node"><title>node_456</title>
<ellipse fill="#c1cdcd" stroke="black" cx="3901" cy="-154" rx="145.163" ry="31.1127"/>
<text text-anchor="middle" x="3901" y="-159.4" font-family="Times Roman,serif" font-size="14.00">ObtainObject</text>
<text text-anchor="middle" x="3901" y="-141.4" font-family="Times Roman,serif" font-size="14.00">(PR2_ROBOT BLUE_CUBE )</text>
</g>
<!-- node_457 -->
<g id="node37" class="node"><title>node_457</title>
<ellipse fill="#ffffcc" stroke="black" cx="4314" cy="-154" rx="230.017" ry="31.1127"/>
<text text-anchor="middle" x="4314" y="-159.4" font-family="Times Roman,serif" font-size="14.00">ThrowObject</text>
<text text-anchor="middle" x="4314" y="-141.4" font-family="Times Roman,serif" font-size="14.00">(PR2_ROBOT BLUE_CUBE BLUE_TRASHBIN )</text>
</g>
<!-- node_459 -->
<g id="node38" class="node"><title>node_459</title>
<ellipse fill="#ffffcc" stroke="black" cx="4150" cy="-40" rx="191.833" ry="31.1127"/>
<text text-anchor="middle" x="4150" y="-45.4" font-family="Times Roman,serif" font-size="14.00">TakeObject</text>
<text text-anchor="middle" x="4150" y="-27.4" font-family="Times Roman,serif" font-size="14.00">(PR2_ROBOT BLUE_CUBE TABLE_4 )</text>
</g>
<!-- node_462 -->
<g id="node39" class="node"><title>node_462</title>
<ellipse fill="#c1cdcd" stroke="black" cx="4206" cy="-496" rx="227.896" ry="31.1127"/>
<text text-anchor="middle" x="4206" y="-501.4" font-family="Times Roman,serif" font-size="14.00">CleanOtherObject</text>
<text text-anchor="middle" x="4206" y="-483.4" font-family="Times Roman,serif" font-size="14.00">(RED_CUBE PR2_ROBOT PLACEMAT_BLUE )</text>
</g>
<!-- node_463 -->
<g id="node40" class="node"><title>node_463</title>
<ellipse fill="#c1cdcd" stroke="black" cx="4575" cy="-496" rx="104" ry="31.1127"/>
<text text-anchor="middle" x="4575" y="-501.4" font-family="Times Roman,serif" font-size="14.00">CleanOtherObjects</text>
<text text-anchor="middle" x="4575" y="-483.4" font-family="Times Roman,serif" font-size="14.00">()</text>
</g>
<!-- node_474 -->
<g id="node41" class="node"><title>node_474</title>
<ellipse fill="#ffffcc" stroke="black" cx="4081" cy="-382" rx="186.884" ry="31.1127"/>
<text text-anchor="middle" x="4081" y="-387.4" font-family="Times Roman,serif" font-size="14.00">TakeObject</text>
<text text-anchor="middle" x="4081" y="-369.4" font-family="Times Roman,serif" font-size="14.00">(PR2_ROBOT RED_CUBE TABLE_4 )</text>
</g>
<!-- node_475 -->
<g id="node42" class="node"><title>node_475</title>
<ellipse fill="#ffffcc" stroke="black" cx="4534" cy="-382" rx="227.896" ry="31.1127"/>
<text text-anchor="middle" x="4534" y="-387.4" font-family="Times Roman,serif" font-size="14.00">PlaceObject</text>
<text text-anchor="middle" x="4534" y="-369.4" font-family="Times Roman,serif" font-size="14.00">(PR2_ROBOT RED_CUBE PLACEMAT_BLUE )</text>
</g>
<!-- node_476 -->
<g id="node43" class="node"><title>node_476</title>
<ellipse fill="#c1cdcd" stroke="black" cx="5082" cy="-382" rx="283.757" ry="31.1127"/>
<text text-anchor="middle" x="5082" y="-387.4" font-family="Times Roman,serif" font-size="14.00">CleanOtherObject</text>
<text text-anchor="middle" x="5082" y="-369.4" font-family="Times Roman,serif" font-size="14.00">(RED_CUBE2 HERAKLES_HUMAN1 PLACEMAT_GREEN )</text>
</g>
<!-- node_478 -->
<g id="node44" class="node"><title>node_478</title>
<ellipse fill="#cce6ff" stroke="black" cx="4779" cy="-268" rx="234.052" ry="31.1127"/>
<text text-anchor="middle" x="4779" y="-273.4" font-family="Times Roman,serif" font-size="14.00">TakeObject</text>
<text text-anchor="middle" x="4779" y="-255.4" font-family="Times Roman,serif" font-size="14.00">(HERAKLES_HUMAN1 RED_CUBE2 TABLE_4 )</text>
</g>
<!-- node_479 -->
<g id="node45" class="node"><title>node_479</title>
<ellipse fill="#cce6ff" stroke="black" cx="5334" cy="-268" rx="283.757" ry="31.1127"/>
<text text-anchor="middle" x="5334" y="-273.4" font-family="Times Roman,serif" font-size="14.00">PlaceObject</text>
<text text-anchor="middle" x="5334" y="-255.4" font-family="Times Roman,serif" font-size="14.00">(HERAKLES_HUMAN1 RED_CUBE2 PLACEMAT_GREEN )</text>
</g>
<!-- node_10&#45;&gt;cluster_1 -->
<g id="edge18" class="edge"><title>node_10&#45;&gt;cluster_1</title>
<path fill="none" stroke="black" stroke-width="2" d="M3777,-688.868C3777,-679.545 3777,-669.302 3777,-659.374"/>
<polygon fill="black" stroke="black" points="3780.5,-659.193 3777,-649.193 3773.5,-659.193 3780.5,-659.193"/>
</g>
<!-- node_11&#45;&gt;cluster_2 -->
<g id="edge19" class="edge"><title>node_11&#45;&gt;cluster_2</title>
<path fill="none" stroke="black" stroke-width="2" d="M3567.93,-586.862C3514.81,-572.746 3445.33,-554.284 3382.89,-537.691"/>
<polygon fill="black" stroke="black" points="3383.5,-534.231 3372.93,-535.045 3381.7,-540.996 3383.5,-534.231"/>
</g>
<!-- node_11&#45;&gt;node_12 -->
<g id="edge1" class="edge"><title>node_11&#45;&gt;node_12</title>
<path fill="none" stroke="#9a32cd" d="M3771.13,-610C3777.29,-610 3783.48,-610 3789.64,-610"/>
<polygon fill="#9a32cd" stroke="#9a32cd" points="3799.98,-610 3789.98,-614.5 3794.98,-610 3789.98,-610 3789.98,-610 3789.98,-610 3794.98,-610 3789.98,-605.5 3799.98,-610 3799.98,-610"/>
</g>
<!-- node_12&#45;&gt;cluster_10 -->
<g id="edge20" class="edge"><title>node_12&#45;&gt;cluster_10</title>
<path fill="none" stroke="black" stroke-width="2" d="M3990.97,-587.477C4043.17,-573.311 4112.13,-554.593 4174.07,-537.781"/>
<polygon fill="black" stroke="black" points="4175.21,-541.097 4183.94,-535.1 4173.38,-534.342 4175.21,-541.097"/>
</g>
<!-- node_16&#45;&gt;cluster_3 -->
<g id="edge21" class="edge"><title>node_16&#45;&gt;cluster_3</title>
<path fill="none" stroke="black" stroke-width="2" d="M2691.51,-485.121C2493.88,-470.641 2133.66,-444.25 1827.12,-421.792"/>
<polygon fill="black" stroke="black" points="1826.93,-418.269 1816.7,-421.028 1826.42,-425.25 1826.93,-418.269"/>
</g>
<!-- node_16&#45;&gt;node_17 -->
<g id="edge2" class="edge"><title>node_16&#45;&gt;node_17</title>
<path fill="none" stroke="#9a32cd" d="M2996.15,-496C3003.31,-496 3010.56,-496 3017.88,-496"/>
<polygon fill="#9a32cd" stroke="#9a32cd" points="3027.88,-496 3017.88,-500.5 3022.88,-496 3017.88,-496 3017.88,-496 3017.88,-496 3022.88,-496 3017.88,-491.5 3027.88,-496 3027.88,-496"/>
</g>
<!-- node_17&#45;&gt;node_18 -->
<g id="edge3" class="edge"><title>node_17&#45;&gt;node_18</title>
<path fill="none" stroke="#9a32cd" d="M3502.04,-496C3509.76,-496 3517.37,-496 3524.83,-496"/>
<polygon fill="#9a32cd" stroke="#9a32cd" points="3534.91,-496 3524.91,-500.5 3529.91,-496 3524.91,-496 3524.91,-496 3524.91,-496 3529.91,-496 3524.91,-491.5 3534.91,-496 3534.91,-496"/>
</g>
<!-- node_18&#45;&gt;cluster_4 -->
<g id="edge22" class="edge"><title>node_18&#45;&gt;cluster_4</title>
<path fill="none" stroke="black" stroke-width="2" d="M3564.23,-472.724C3511.69,-458.631 3443.13,-440.242 3381.49,-423.707"/>
<polygon fill="black" stroke="black" points="3382.22,-420.28 3371.66,-421.07 3380.41,-427.041 3382.22,-420.28"/>
</g>
<!-- node_308&#45;&gt;node_309 -->
<g id="edge4" class="edge"><title>node_308&#45;&gt;node_309</title>
<path fill="none" stroke="#9a32cd" d="M484.087,-382C493.262,-382 502.425,-382 511.517,-382"/>
<polygon fill="#9a32cd" stroke="#9a32cd" points="521.748,-382 511.748,-386.5 516.748,-382 511.748,-382 511.748,-382 511.748,-382 516.748,-382 511.748,-377.5 521.748,-382 521.748,-382"/>
</g>
<!-- node_309&#45;&gt;node_310 -->
<g id="edge5" class="edge"><title>node_309&#45;&gt;node_310</title>
<path fill="none" stroke="#9a32cd" d="M896.314,-382C905.062,-382 913.896,-382 922.766,-382"/>
<polygon fill="#9a32cd" stroke="#9a32cd" points="932.792,-382 922.792,-386.5 927.792,-382 922.792,-382 922.792,-382 922.792,-382 927.792,-382 922.792,-377.5 932.792,-382 932.792,-382"/>
</g>
<!-- node_310&#45;&gt;node_311 -->
<g id="edge6" class="edge"><title>node_310&#45;&gt;node_311</title>
<path fill="none" stroke="#9a32cd" d="M1411.18,-382C1419.71,-382 1428.28,-382 1436.88,-382"/>
<polygon fill="#9a32cd" stroke="#9a32cd" points="1446.98,-382 1436.98,-386.5 1441.98,-382 1436.98,-382 1436.98,-382 1436.98,-382 1441.98,-382 1436.98,-377.5 1446.98,-382 1446.98,-382"/>
</g>
<!-- node_311&#45;&gt;node_312 -->
<g id="edge7" class="edge"><title>node_311&#45;&gt;node_312</title>
<path fill="none" stroke="#9a32cd" d="M2025.1,-382C2033.72,-382 2042.34,-382 2050.92,-382"/>
<polygon fill="#9a32cd" stroke="#9a32cd" points="2060.98,-382 2050.98,-386.5 2055.98,-382 2050.98,-382 2050.98,-382 2050.98,-382 2055.98,-382 2050.98,-377.5 2060.98,-382 2060.98,-382"/>
</g>
<!-- node_316&#45;&gt;cluster_5 -->
<g id="edge23" class="edge"><title>node_316&#45;&gt;cluster_5</title>
<path fill="none" stroke="black" stroke-width="2" d="M2744.49,-351.75C2727.29,-339.798 2707.18,-325.817 2688.37,-312.74"/>
<polygon fill="black" stroke="black" points="2690.32,-309.837 2680.11,-307.003 2686.33,-315.585 2690.32,-309.837"/>
</g>
<!-- node_316&#45;&gt;node_317 -->
<g id="edge8" class="edge"><title>node_316&#45;&gt;node_317</title>
<path fill="none" stroke="#9a32cd" d="M2982.37,-382C2991.07,-382 2999.87,-382 3008.74,-382"/>
<polygon fill="#9a32cd" stroke="#9a32cd" points="3018.77,-382 3008.77,-386.5 3013.77,-382 3008.77,-382 3008.77,-382 3008.77,-382 3013.77,-382 3008.77,-377.5 3018.77,-382 3018.77,-382"/>
</g>
<!-- node_317&#45;&gt;node_318 -->
<g id="edge9" class="edge"><title>node_317&#45;&gt;node_318</title>
<path fill="none" stroke="#9a32cd" d="M3597.1,-382C3604.7,-382 3612.17,-382 3619.47,-382"/>
<polygon fill="#9a32cd" stroke="#9a32cd" points="3629.67,-382 3619.67,-386.5 3624.67,-382 3619.67,-382 3619.67,-382 3619.67,-382 3624.67,-382 3619.67,-377.5 3629.67,-382 3629.67,-382"/>
</g>
<!-- node_318&#45;&gt;cluster_6 -->
<g id="edge24" class="edge"><title>node_318&#45;&gt;cluster_6</title>
<path fill="none" stroke="black" stroke-width="2" d="M3691.34,-351C3670.3,-339.067 3645.85,-325.2 3623.03,-312.257"/>
<polygon fill="black" stroke="black" points="3624.47,-309.047 3614.04,-307.158 3621.01,-315.136 3624.47,-309.047"/>
</g>
<!-- node_411&#45;&gt;cluster_7 -->
<g id="edge25" class="edge"><title>node_411&#45;&gt;cluster_7</title>
<path fill="none" stroke="black" stroke-width="2" d="M3051.99,-233.796C3036.71,-222.905 3019.55,-210.686 3003.36,-199.144"/>
<polygon fill="black" stroke="black" points="3005.16,-196.133 2994.99,-193.181 3001.1,-201.834 3005.16,-196.133"/>
</g>
<!-- node_411&#45;&gt;node_412 -->
<g id="edge10" class="edge"><title>node_411&#45;&gt;node_412</title>
<path fill="none" stroke="#9a32cd" d="M3305.31,-268C3312.66,-268 3320.09,-268 3327.56,-268"/>
<polygon fill="#9a32cd" stroke="#9a32cd" points="3337.76,-268 3327.76,-272.5 3332.76,-268 3327.76,-268 3327.76,-268 3327.76,-268 3332.76,-268 3327.76,-263.5 3337.76,-268 3337.76,-268"/>
</g>
<!-- node_412&#45;&gt;node_413 -->
<g id="edge11" class="edge"><title>node_412&#45;&gt;node_413</title>
<path fill="none" stroke="#9a32cd" d="M3928.27,-268C3937.52,-268 3946.58,-268 3955.37,-268"/>
<polygon fill="#9a32cd" stroke="#9a32cd" points="3965.57,-268 3955.57,-272.5 3960.57,-268 3955.57,-268 3955.57,-268 3955.57,-268 3960.57,-268 3955.57,-263.5 3965.57,-268 3965.57,-268"/>
</g>
<!-- node_413&#45;&gt;cluster_8 -->
<g id="edge26" class="edge"><title>node_413&#45;&gt;cluster_8</title>
<path fill="none" stroke="black" stroke-width="2" d="M4097.29,-237.45C4104.2,-226.517 4112.16,-213.916 4119.76,-201.873"/>
<polygon fill="black" stroke="black" points="4122.84,-203.559 4125.22,-193.235 4116.92,-199.821 4122.84,-203.559"/>
</g>
<!-- node_453&#45;&gt;node_454 -->
<g id="edge12" class="edge"><title>node_453&#45;&gt;node_454</title>
<path fill="none" stroke="#9a32cd" d="M2573.22,-154C2581.72,-154 2590.27,-154 2598.85,-154"/>
<polygon fill="#9a32cd" stroke="#9a32cd" points="2608.93,-154 2598.93,-158.5 2603.93,-154 2598.93,-154 2598.93,-154 2598.93,-154 2603.93,-154 2598.93,-149.5 2608.93,-154 2608.93,-154"/>
</g>
<!-- node_454&#45;&gt;node_455 -->
<g id="edge13" class="edge"><title>node_454&#45;&gt;node_455</title>
<path fill="none" stroke="#9a32cd" d="M3107.26,-154C3115.74,-154 3124.26,-154 3132.8,-154"/>
<polygon fill="#9a32cd" stroke="#9a32cd" points="3142.83,-154 3132.83,-158.5 3137.83,-154 3132.83,-154 3132.83,-154 3132.83,-154 3137.83,-154 3132.83,-149.5 3142.83,-154 3142.83,-154"/>
</g>
<!-- node_456&#45;&gt;cluster_9 -->
<g id="edge27" class="edge"><title>node_456&#45;&gt;cluster_9</title>
<path fill="none" stroke="black" stroke-width="2" d="M3962.55,-125.82C3990.6,-112.978 4024.44,-97.4868 4055.6,-83.2207"/>
<polygon fill="black" stroke="black" points="4057.1,-86.3807 4064.74,-79.0355 4054.19,-80.016 4057.1,-86.3807"/>
</g>
<!-- node_456&#45;&gt;node_457 -->
<g id="edge14" class="edge"><title>node_456&#45;&gt;node_457</title>
<path fill="none" stroke="#9a32cd" d="M4046.03,-154C4055.08,-154 4064.3,-154 4073.61,-154"/>
<polygon fill="#9a32cd" stroke="#9a32cd" points="4083.75,-154 4073.75,-158.5 4078.75,-154 4073.75,-154 4073.75,-154 4073.75,-154 4078.75,-154 4073.75,-149.5 4083.75,-154 4083.75,-154"/>
</g>
<!-- node_462&#45;&gt;cluster_11 -->
<g id="edge28" class="edge"><title>node_462&#45;&gt;cluster_11</title>
<path fill="none" stroke="black" stroke-width="2" d="M4239.02,-465.15C4251.28,-453.689 4265.47,-440.427 4278.87,-427.907"/>
<polygon fill="black" stroke="black" points="4281.3,-430.429 4286.22,-421.044 4276.52,-425.315 4281.3,-430.429"/>
</g>
<!-- node_462&#45;&gt;node_463 -->
<g id="edge15" class="edge"><title>node_462&#45;&gt;node_463</title>
<path fill="none" stroke="#9a32cd" d="M4434.18,-496C4443.2,-496 4452.08,-496 4460.71,-496"/>
<polygon fill="#9a32cd" stroke="#9a32cd" points="4470.73,-496 4460.73,-500.5 4465.73,-496 4460.73,-496 4460.73,-496 4460.73,-496 4465.73,-496 4460.73,-491.5 4470.73,-496 4470.73,-496"/>
</g>
<!-- node_463&#45;&gt;cluster_12 -->
<g id="edge29" class="edge"><title>node_463&#45;&gt;cluster_12</title>
<path fill="none" stroke="black" stroke-width="2" d="M4658.15,-477.303C4723.21,-462.674 4816.13,-441.781 4898.4,-423.284"/>
<polygon fill="black" stroke="black" points="4899.38,-426.649 4908.37,-421.04 4897.85,-419.819 4899.38,-426.649"/>
</g>
<!-- node_474&#45;&gt;node_475 -->
<g id="edge16" class="edge"><title>node_474&#45;&gt;node_475</title>
<path fill="none" stroke="#9a32cd" d="M4268.19,-382C4277.31,-382 4286.52,-382 4295.76,-382"/>
<polygon fill="#9a32cd" stroke="#9a32cd" points="4305.79,-382 4295.79,-386.5 4300.79,-382 4295.79,-382 4295.79,-382 4295.79,-382 4300.79,-382 4295.79,-377.5 4305.79,-382 4305.79,-382"/>
</g>
<!-- node_476&#45;&gt;cluster_13 -->
<g id="edge30" class="edge"><title>node_476&#45;&gt;cluster_13</title>
<path fill="none" stroke="black" stroke-width="2" d="M5082,-350.849C5082,-340.552 5082,-328.828 5082,-317.505"/>
<polygon fill="black" stroke="black" points="5085.5,-317.272 5082,-307.272 5078.5,-317.272 5085.5,-317.272"/>
</g>
<!-- node_478&#45;&gt;node_479 -->
<g id="edge17" class="edge"><title>node_478&#45;&gt;node_479</title>
<path fill="none" stroke="#9a32cd" d="M5013.16,-268C5021.98,-268 5030.86,-268 5039.76,-268"/>
<polygon fill="#9a32cd" stroke="#9a32cd" points="5049.82,-268 5039.82,-272.5 5044.82,-268 5039.82,-268 5039.82,-268 5039.82,-268 5044.82,-268 5039.82,-263.5 5049.82,-268 5049.82,-268"/>
</g>
</g>
</svg>
