<?xml version="1.0" encoding="UTF-8" standalone="no"?>
<!DOCTYPE svg PUBLIC "-//W3C//DTD SVG 1.1//EN"
 "http://www.w3.org/Graphics/SVG/1.1/DTD/svg11.dtd">
<!-- Generated by graphviz version 2.26.3 (20100126.1600)
 -->
<!-- Title: graphForClustersContents Pages: 1 -->
<svg width="838pt" height="96pt"
 viewBox="0.00 0.00 838.00 96.00" xmlns="http://www.w3.org/2000/svg" xmlns:xlink="http://www.w3.org/1999/xlink">
<g id="graph1" class="graph" transform="scale(1 1) rotate(0) translate(4 92)">
<title>graphForClustersContents</title>
<polygon fill="white" stroke="white" points="-4,5 -4,-92 835,-92 835,5 -4,5"/>
<!-- node2 -->
<g id="node2" class="node"><title>node2</title>
<ellipse fill="#ffffcc" stroke="black" cx="239" cy="-44" rx="237.795" ry="43.8406"/>
<text text-anchor="middle" x="239" y="-58.4" font-family="Times Roman,serif" font-size="14.00">Pick</text>
<text text-anchor="middle" x="239" y="-40.4" font-family="Times Roman,serif" font-size="14.00">(PR2_ROBOT BRACKET_1 PLACEMENT_ST_1 )</text>
<text text-anchor="middle" x="239" y="-22.4" font-family="Times Roman,serif" font-size="14.00">[0, 10]</text>
</g>
<!-- node3 -->
<g id="node4" class="node"><title>node3</title>
<ellipse fill="#ffffcc" stroke="black" cx="672" cy="-44" rx="157.184" ry="43.8406"/>
<text text-anchor="middle" x="672" y="-58.4" font-family="Times Roman,serif" font-size="14.00">TravelTo</text>
<text text-anchor="middle" x="672" y="-40.4" font-family="Times Roman,serif" font-size="14.00">(PR2_ROBOT STOCK_TABLE )</text>
<text text-anchor="middle" x="672" y="-22.4" font-family="Times Roman,serif" font-size="14.00">[10, 20]</text>
</g>
<!-- node2&#45;&gt;node3 -->
<g id="edge3" class="edge"><title>node2&#45;&gt;node3</title>
<path fill="none" stroke="#9a32cd" d="M477.665,-44C486.543,-44 495.37,-44 504.086,-44"/>
<polygon fill="#9a32cd" stroke="#9a32cd" points="514.264,-44 504.264,-48.5001 509.264,-44 504.264,-44.0001 504.264,-44.0001 504.264,-44.0001 509.264,-44 504.264,-39.5001 514.264,-44 514.264,-44"/>
</g>
</g>
</svg>
