<?xml version="1.0" encoding="UTF-8" standalone="no"?>
<!DOCTYPE svg PUBLIC "-//W3C//DTD SVG 1.1//EN"
 "http://www.w3.org/Graphics/SVG/1.1/DTD/svg11.dtd">
<!-- Generated by graphviz version 2.26.3 (20100126.1600)
 -->
<!-- Title: final_graph Pages: 1 -->
<svg width="4328pt" height="772pt"
 viewBox="0.00 0.00 4328.00 772.00" xmlns="http://www.w3.org/2000/svg" xmlns:xlink="http://www.w3.org/1999/xlink">
<g id="graph1" class="graph" transform="scale(1 1) rotate(0) translate(4 768)">
<title>final_graph</title>
<polygon fill="white" stroke="white" points="-4,5 -4,-768 4325,-768 4325,5 -4,5"/>
<!-- cluster_0 -->
<g id="node1" class="node"><title>cluster_0</title>
<polygon fill="none" stroke="blue" points="1689,-421 0.9984,-421 0.9984,-343 1689,-343 1689,-421"/>
<text text-anchor="middle" x="844.998" y="-378.4" font-family="Times Roman,serif" font-size="14.00"> </text>
</g>
<!-- cluster_1 -->
<g id="node2" class="node"><title>cluster_1</title>
<polygon fill="none" stroke="blue" points="2696,-763.002 2600,-763.002 2600,-685.002 2696,-685.002 2696,-763.002"/>
<text text-anchor="middle" x="2648" y="-720.402" font-family="Times Roman,serif" font-size="14.00"> </text>
</g>
<!-- cluster_2 -->
<g id="node3" class="node"><title>cluster_2</title>
<polygon fill="none" stroke="blue" points="2721,-421 1707,-421 1707,-343 2721,-343 2721,-421"/>
<text text-anchor="middle" x="2214" y="-378.4" font-family="Times Roman,serif" font-size="14.00"> </text>
</g>
<!-- cluster_3 -->
<g id="node4" class="node"><title>cluster_3</title>
<polygon fill="none" stroke="blue" points="2815,-649 2481,-649 2481,-571 2815,-571 2815,-649"/>
<text text-anchor="middle" x="2648" y="-606.4" font-family="Times Roman,serif" font-size="14.00"> </text>
</g>
<!-- cluster_4 -->
<g id="node5" class="node"><title>cluster_4</title>
<polygon fill="none" stroke="blue" points="1891,-307 196.999,-307 196.999,-229 1891,-229 1891,-307"/>
<text text-anchor="middle" x="1044" y="-264.4" font-family="Times Roman,serif" font-size="14.00"> </text>
</g>
<!-- cluster_5 -->
<g id="node6" class="node"><title>cluster_5</title>
<polygon fill="none" stroke="blue" points="3113,-307 1909,-307 1909,-229 3113,-229 3113,-307"/>
<text text-anchor="middle" x="2511" y="-264.4" font-family="Times Roman,serif" font-size="14.00"> </text>
</g>
<!-- cluster_6 -->
<g id="node7" class="node"><title>cluster_6</title>
<polygon fill="none" stroke="blue" points="2639,-193 1045,-193 1045,-115 2639,-115 2639,-193"/>
<text text-anchor="middle" x="1842" y="-150.4" font-family="Times Roman,serif" font-size="14.00"> </text>
</g>
<!-- cluster_7 -->
<g id="node8" class="node"><title>cluster_7</title>
<polygon fill="none" stroke="blue" points="2646,-535 1656,-535 1656,-457 2646,-457 2646,-535"/>
<text text-anchor="middle" x="2151" y="-492.4" font-family="Times Roman,serif" font-size="14.00"> </text>
</g>
<!-- cluster_8 -->
<g id="node9" class="node"><title>cluster_8</title>
<polygon fill="none" stroke="blue" points="3703,-193 2657,-193 2657,-115 3703,-115 3703,-193"/>
<text text-anchor="middle" x="3180" y="-150.4" font-family="Times Roman,serif" font-size="14.00"> </text>
</g>
<!-- cluster_9 -->
<g id="node10" class="node"><title>cluster_9</title>
<polygon fill="none" stroke="blue" points="3995,-79 2365,-79 2365,-1.00002 3995,-1.00002 3995,-79"/>
<text text-anchor="middle" x="3180" y="-36.4" font-family="Times Roman,serif" font-size="14.00"> </text>
</g>
<!-- cluster_10 -->
<g id="node11" class="node"><title>cluster_10</title>
<polygon fill="none" stroke="blue" points="3626,-535 2664,-535 2664,-457 3626,-457 3626,-535"/>
<text text-anchor="middle" x="3145" y="-492.4" font-family="Times Roman,serif" font-size="14.00"> </text>
</g>
<!-- cluster_11 -->
<g id="node12" class="node"><title>cluster_11</title>
<polygon fill="none" stroke="blue" points="3303,-421 2863,-421 2863,-343 3303,-343 3303,-421"/>
<text text-anchor="middle" x="3083" y="-378.4" font-family="Times Roman,serif" font-size="14.00"> </text>
</g>
<!-- cluster_12 -->
<g id="node13" class="node"><title>cluster_12</title>
<polygon fill="none" stroke="blue" points="4319,-421 3321,-421 3321,-343 4319,-343 4319,-421"/>
<text text-anchor="middle" x="3820" y="-378.4" font-family="Times Roman,serif" font-size="14.00"> </text>
</g>
<!-- cluster_13 -->
<g id="node14" class="node"><title>cluster_13</title>
<polygon fill="none" stroke="blue" points="4088,-307 3552,-307 3552,-229 4088,-229 4088,-307"/>
<text text-anchor="middle" x="3820" y="-264.4" font-family="Times Roman,serif" font-size="14.00"> </text>
</g>
<!-- node_2 -->
<g id="node15" class="node"><title>node_2</title>
<ellipse fill="#c1cdcd" stroke="black" cx="2648" cy="-724.002" rx="39.1428" ry="31.1127"/>
<ellipse fill="none" stroke="black" cx="2648" cy="-724.002" rx="43.0969" ry="35.1127"/>
<text text-anchor="middle" x="2648" y="-729.402" font-family="Times Roman,serif" font-size="14.00">Clean</text>
<text text-anchor="middle" x="2648" y="-711.402" font-family="Times Roman,serif" font-size="14.00">()</text>
</g>
<!-- node_3 -->
<g id="node16" class="node"><title>node_3</title>
<ellipse fill="#c1cdcd" stroke="black" cx="2563" cy="-610" rx="73.0647" ry="31.1127"/>
<ellipse fill="none" stroke="black" cx="2563" cy="-610" rx="77.0389" ry="35.1127"/>
<text text-anchor="middle" x="2563" y="-615.4" font-family="Times Roman,serif" font-size="14.00">ThrowCubes</text>
<text text-anchor="middle" x="2563" y="-597.4" font-family="Times Roman,serif" font-size="14.00">()</text>
</g>
<!-- node_4 -->
<g id="node17" class="node"><title>node_4</title>
<ellipse fill="#c1cdcd" stroke="black" cx="2740" cy="-610" rx="67.1751" ry="31.1127"/>
<ellipse fill="none" stroke="black" cx="2740" cy="-610" rx="71.1751" ry="35.1127"/>
<text text-anchor="middle" x="2740" y="-615.4" font-family="Times Roman,serif" font-size="14.00">PlaceCubes</text>
<text text-anchor="middle" x="2740" y="-597.4" font-family="Times Roman,serif" font-size="14.00">()</text>
</g>
<!-- node_5 -->
<g id="node18" class="node"><title>node_5</title>
<ellipse fill="#c1cdcd" stroke="black" cx="1810" cy="-496" rx="145.177" ry="31.1127"/>
<ellipse fill="none" stroke="black" cx="1810" cy="-496" rx="149.163" ry="35.1127"/>
<text text-anchor="middle" x="1810" y="-501.4" font-family="Times Roman,serif" font-size="14.00">ObtainObject</text>
<text text-anchor="middle" x="1810" y="-483.4" font-family="Times Roman,serif" font-size="14.00">(PR2_ROBOT BLUE_CUBE )</text>
</g>
<!-- node_6 -->
<g id="node19" class="node"><title>node_6</title>
<ellipse fill="#cce6ff" stroke="black" cx="2223" cy="-496" rx="230.017" ry="31.1127"/>
<text text-anchor="middle" x="2223" y="-501.4" font-family="Times Roman,serif" font-size="14.00">ThrowObject</text>
<text text-anchor="middle" x="2223" y="-483.4" font-family="Times Roman,serif" font-size="14.00">(PR2_ROBOT BLUE_CUBE BLUE_TRASHBIN )</text>
</g>
<!-- node_7 -->
<g id="node20" class="node"><title>node_7</title>
<ellipse fill="#c1cdcd" stroke="black" cx="2564" cy="-496" rx="73.0647" ry="31.1127"/>
<ellipse fill="none" stroke="black" cx="2564" cy="-496" rx="77.0389" ry="35.1127"/>
<text text-anchor="middle" x="2564" y="-501.4" font-family="Times Roman,serif" font-size="14.00">ThrowCubes</text>
<text text-anchor="middle" x="2564" y="-483.4" font-family="Times Roman,serif" font-size="14.00">()</text>
</g>
<!-- node_19 -->
<g id="node21" class="node"><title>node_19</title>
<ellipse fill="#ffffcc" stroke="black" cx="282.999" cy="-382" rx="273.15" ry="31.1127"/>
<text text-anchor="middle" x="282.999" y="-387.4" font-family="Times Roman,serif" font-size="14.00">TakeObject</text>
<text text-anchor="middle" x="282.999" y="-369.4" font-family="Times Roman,serif" font-size="14.00">(HERAKLES_HUMAN1 BLUE_CUBE PLACEMAT_BLUE )</text>
</g>
<!-- node_20 -->
<g id="node22" class="node"><title>node_20</title>
<ellipse fill="#ffffcc" stroke="black" cx="876.002" cy="-382" rx="283" ry="31.1127"/>
<text text-anchor="middle" x="876.002" y="-387.4" font-family="Times Roman,serif" font-size="14.00">PlaceObject</text>
<text text-anchor="middle" x="876.002" y="-369.4" font-family="Times Roman,serif" font-size="14.00">(HERAKLES_HUMAN1 BLUE_CUBE PLACEMAT_GREEN )</text>
</g>
<!-- node_22 -->
<g id="node23" class="node"><title>node_22</title>
<ellipse fill="#cce6ff" stroke="black" cx="1438" cy="-382" rx="242.038" ry="31.1127"/>
<text text-anchor="middle" x="1438" y="-387.4" font-family="Times Roman,serif" font-size="14.00">TakeObject</text>
<text text-anchor="middle" x="1438" y="-369.4" font-family="Times Roman,serif" font-size="14.00">(PR2_ROBOT BLUE_CUBE PLACEMAT_GREEN )</text>
</g>
<!-- node_23 -->
<g id="node24" class="node"><title>node_23</title>
<ellipse fill="#c1cdcd" stroke="black" cx="1867" cy="-382" rx="152.028" ry="31.1127"/>
<ellipse fill="none" stroke="black" cx="1867" cy="-382" rx="156.028" ry="35.1127"/>
<text text-anchor="middle" x="1867" y="-387.4" font-family="Times Roman,serif" font-size="14.00">ObtainObject</text>
<text text-anchor="middle" x="1867" y="-369.4" font-family="Times Roman,serif" font-size="14.00">(PR2_ROBOT BLUE_CUBE2 )</text>
</g>
<!-- node_24 -->
<g id="node25" class="node"><title>node_24</title>
<ellipse fill="#cce6ff" stroke="black" cx="2292" cy="-382" rx="237" ry="31.1127"/>
<text text-anchor="middle" x="2292" y="-387.4" font-family="Times Roman,serif" font-size="14.00">ThrowObject</text>
<text text-anchor="middle" x="2292" y="-369.4" font-family="Times Roman,serif" font-size="14.00">(PR2_ROBOT BLUE_CUBE2 BLUE_TRASHBIN )</text>
</g>
<!-- node_25 -->
<g id="node26" class="node"><title>node_25</title>
<ellipse fill="#c1cdcd" stroke="black" cx="2639" cy="-382" rx="73.0647" ry="31.1127"/>
<ellipse fill="none" stroke="black" cx="2639" cy="-382" rx="77.0389" ry="35.1127"/>
<text text-anchor="middle" x="2639" y="-387.4" font-family="Times Roman,serif" font-size="14.00">ThrowCubes</text>
<text text-anchor="middle" x="2639" y="-369.4" font-family="Times Roman,serif" font-size="14.00">()</text>
</g>
<!-- node_34 -->
<g id="node27" class="node"><title>node_34</title>
<ellipse fill="#ffffcc" stroke="black" cx="469.999" cy="-268" rx="265.165" ry="31.1127"/>
<text text-anchor="middle" x="469.999" y="-273.4" font-family="Times Roman,serif" font-size="14.00">TakeObject</text>
<text text-anchor="middle" x="469.999" y="-255.4" font-family="Times Roman,serif" font-size="14.00">(HERAKLES_HUMAN1 BLUE_CUBE2 HUMAN_AREA )</text>
</g>
<!-- node_35 -->
<g id="node28" class="node"><title>node_35</title>
<ellipse fill="#ffffcc" stroke="black" cx="1060" cy="-268" rx="289.207" ry="31.1127"/>
<text text-anchor="middle" x="1060" y="-273.4" font-family="Times Roman,serif" font-size="14.00">PlaceObject</text>
<text text-anchor="middle" x="1060" y="-255.4" font-family="Times Roman,serif" font-size="14.00">(HERAKLES_HUMAN1 BLUE_CUBE2 PLACEMAT_GREEN )</text>
</g>
<!-- node_37 -->
<g id="node29" class="node"><title>node_37</title>
<ellipse fill="#cce6ff" stroke="black" cx="1634" cy="-268" rx="249" ry="31.1127"/>
<text text-anchor="middle" x="1634" y="-273.4" font-family="Times Roman,serif" font-size="14.00">TakeObject</text>
<text text-anchor="middle" x="1634" y="-255.4" font-family="Times Roman,serif" font-size="14.00">(PR2_ROBOT BLUE_CUBE2 PLACEMAT_GREEN )</text>
</g>
<!-- node_38 -->
<g id="node30" class="node"><title>node_38</title>
<ellipse fill="#c1cdcd" stroke="black" cx="2112" cy="-268" rx="193.965" ry="31.1127"/>
<ellipse fill="none" stroke="black" cx="2112" cy="-268" rx="197.954" ry="35.1127"/>
<text text-anchor="middle" x="2112" y="-273.4" font-family="Times Roman,serif" font-size="14.00">ObtainObject</text>
<text text-anchor="middle" x="2112" y="-255.4" font-family="Times Roman,serif" font-size="14.00">(HERAKLES_HUMAN1 GREEN_CUBE )</text>
</g>
<!-- node_39 -->
<g id="node31" class="node"><title>node_39</title>
<ellipse fill="#ffffcc" stroke="black" cx="2632" cy="-268" rx="289.207" ry="31.1127"/>
<text text-anchor="middle" x="2632" y="-273.4" font-family="Times Roman,serif" font-size="14.00">ThrowObject</text>
<text text-anchor="middle" x="2632" y="-255.4" font-family="Times Roman,serif" font-size="14.00">(HERAKLES_HUMAN1 GREEN_CUBE GREEN_TRASHBIN )</text>
</g>
<!-- node_40 -->
<g id="node32" class="node"><title>node_40</title>
<ellipse fill="#c1cdcd" stroke="black" cx="3031" cy="-268" rx="73.0647" ry="31.1127"/>
<ellipse fill="none" stroke="black" cx="3031" cy="-268" rx="77.0389" ry="35.1127"/>
<text text-anchor="middle" x="3031" y="-273.4" font-family="Times Roman,serif" font-size="14.00">ThrowCubes</text>
<text text-anchor="middle" x="3031" y="-255.4" font-family="Times Roman,serif" font-size="14.00">()</text>
</g>
<!-- node_46 -->
<g id="node33" class="node"><title>node_46</title>
<ellipse fill="#cce6ff" stroke="black" cx="1279.99" cy="-154" rx="225.775" ry="31.1127"/>
<text text-anchor="middle" x="1279.99" y="-159.4" font-family="Times Roman,serif" font-size="14.00">TakeObject</text>
<text text-anchor="middle" x="1279.99" y="-141.4" font-family="Times Roman,serif" font-size="14.00">(PR2_ROBOT GREEN_CUBE ROBOT_AREA )</text>
</g>
<!-- node_47 -->
<g id="node34" class="node"><title>node_47</title>
<ellipse fill="#cce6ff" stroke="black" cx="1786" cy="-154" rx="242.038" ry="31.1127"/>
<text text-anchor="middle" x="1786" y="-159.4" font-family="Times Roman,serif" font-size="14.00">PlaceObject</text>
<text text-anchor="middle" x="1786" y="-141.4" font-family="Times Roman,serif" font-size="14.00">(PR2_ROBOT GREEN_CUBE PLACEMAT_BLUE )</text>
</g>
<!-- node_49 -->
<g id="node35" class="node"><title>node_49</title>
<ellipse fill="#ffffcc" stroke="black" cx="2348" cy="-154" rx="283" ry="31.1127"/>
<text text-anchor="middle" x="2348" y="-159.4" font-family="Times Roman,serif" font-size="14.00">TakeObject</text>
<text text-anchor="middle" x="2348" y="-141.4" font-family="Times Roman,serif" font-size="14.00">(HERAKLES_HUMAN1 GREEN_CUBE PLACEMAT_BLUE )</text>
</g>
<!-- node_50 -->
<g id="node36" class="node"><title>node_50</title>
<ellipse fill="#c1cdcd" stroke="black" cx="2866" cy="-154" rx="201" ry="31.1127"/>
<ellipse fill="none" stroke="black" cx="2866" cy="-154" rx="205" ry="35.1127"/>
<text text-anchor="middle" x="2866" y="-159.4" font-family="Times Roman,serif" font-size="14.00">ObtainObject</text>
<text text-anchor="middle" x="2866" y="-141.4" font-family="Times Roman,serif" font-size="14.00">(HERAKLES_HUMAN1 GREEN_CUBE2 )</text>
</g>
<!-- node_51 -->
<g id="node37" class="node"><title>node_51</title>
<ellipse fill="#ffffcc" stroke="black" cx="3399" cy="-154" rx="295.071" ry="31.1127"/>
<text text-anchor="middle" x="3399" y="-159.4" font-family="Times Roman,serif" font-size="14.00">ThrowObject</text>
<text text-anchor="middle" x="3399" y="-141.4" font-family="Times Roman,serif" font-size="14.00">(HERAKLES_HUMAN1 GREEN_CUBE2 GREEN_TRASHBIN )</text>
</g>
<!-- node_55 -->
<g id="node38" class="node"><title>node_55</title>
<ellipse fill="#cce6ff" stroke="black" cx="2606" cy="-40" rx="232.138" ry="31.1127"/>
<text text-anchor="middle" x="2606" y="-45.4" font-family="Times Roman,serif" font-size="14.00">TakeObject</text>
<text text-anchor="middle" x="2606" y="-27.4" font-family="Times Roman,serif" font-size="14.00">(PR2_ROBOT GREEN_CUBE2 ROBOT_AREA )</text>
</g>
<!-- node_56 -->
<g id="node39" class="node"><title>node_56</title>
<ellipse fill="#cce6ff" stroke="black" cx="3124" cy="-40" rx="249" ry="31.1127"/>
<text text-anchor="middle" x="3124" y="-45.4" font-family="Times Roman,serif" font-size="14.00">PlaceObject</text>
<text text-anchor="middle" x="3124" y="-27.4" font-family="Times Roman,serif" font-size="14.00">(PR2_ROBOT GREEN_CUBE2 PLACEMAT_BLUE )</text>
</g>
<!-- node_58 -->
<g id="node40" class="node"><title>node_58</title>
<ellipse fill="#ffffcc" stroke="black" cx="3698" cy="-40" rx="289.207" ry="31.1127"/>
<text text-anchor="middle" x="3698" y="-45.4" font-family="Times Roman,serif" font-size="14.00">TakeObject</text>
<text text-anchor="middle" x="3698" y="-27.4" font-family="Times Roman,serif" font-size="14.00">(HERAKLES_HUMAN1 GREEN_CUBE2 PLACEMAT_BLUE )</text>
</g>
<!-- node_59 -->
<g id="node41" class="node"><title>node_59</title>
<ellipse fill="#c1cdcd" stroke="black" cx="2813" cy="-496" rx="140.213" ry="31.1127"/>
<text text-anchor="middle" x="2813" y="-501.4" font-family="Times Roman,serif" font-size="14.00">ObtainObject</text>
<text text-anchor="middle" x="2813" y="-483.4" font-family="Times Roman,serif" font-size="14.00">(PR2_ROBOT RED_CUBE )</text>
</g>
<!-- node_60 -->
<g id="node42" class="node"><title>node_60</title>
<ellipse fill="#cce6ff" stroke="black" cx="3219" cy="-496" rx="227.896" ry="31.1127"/>
<text text-anchor="middle" x="3219" y="-501.4" font-family="Times Roman,serif" font-size="14.00">PlaceObject</text>
<text text-anchor="middle" x="3219" y="-483.4" font-family="Times Roman,serif" font-size="14.00">(PR2_ROBOT RED_CUBE PLACEMAT_BLUE )</text>
</g>
<!-- node_61 -->
<g id="node43" class="node"><title>node_61</title>
<ellipse fill="#c1cdcd" stroke="black" cx="3551" cy="-496" rx="67.1751" ry="31.1127"/>
<text text-anchor="middle" x="3551" y="-501.4" font-family="Times Roman,serif" font-size="14.00">PlaceCubes</text>
<text text-anchor="middle" x="3551" y="-483.4" font-family="Times Roman,serif" font-size="14.00">()</text>
</g>
<!-- node_72 -->
<g id="node44" class="node"><title>node_72</title>
<ellipse fill="#cce6ff" stroke="black" cx="3083" cy="-382" rx="212.132" ry="31.1127"/>
<text text-anchor="middle" x="3083" y="-387.4" font-family="Times Roman,serif" font-size="14.00">TakeObject</text>
<text text-anchor="middle" x="3083" y="-369.4" font-family="Times Roman,serif" font-size="14.00">(PR2_ROBOT RED_CUBE ROBOT_AREA )</text>
</g>
<!-- node_73 -->
<g id="node45" class="node"><title>node_73</title>
<ellipse fill="#c1cdcd" stroke="black" cx="3517" cy="-382" rx="186.884" ry="31.1127"/>
<text text-anchor="middle" x="3517" y="-387.4" font-family="Times Roman,serif" font-size="14.00">ObtainObject</text>
<text text-anchor="middle" x="3517" y="-369.4" font-family="Times Roman,serif" font-size="14.00">(HERAKLES_HUMAN1 RED_CUBE2 )</text>
</g>
<!-- node_74 -->
<g id="node46" class="node"><title>node_74</title>
<ellipse fill="#ffffcc" stroke="black" cx="4026" cy="-382" rx="283.757" ry="31.1127"/>
<text text-anchor="middle" x="4026" y="-387.4" font-family="Times Roman,serif" font-size="14.00">PlaceObject</text>
<text text-anchor="middle" x="4026" y="-369.4" font-family="Times Roman,serif" font-size="14.00">(HERAKLES_HUMAN1 RED_CUBE2 PLACEMAT_GREEN )</text>
</g>
<!-- node_77 -->
<g id="node47" class="node"><title>node_77</title>
<ellipse fill="#ffffcc" stroke="black" cx="3820" cy="-268" rx="260.215" ry="31.1127"/>
<text text-anchor="middle" x="3820" y="-273.4" font-family="Times Roman,serif" font-size="14.00">TakeObject</text>
<text text-anchor="middle" x="3820" y="-255.4" font-family="Times Roman,serif" font-size="14.00">(HERAKLES_HUMAN1 RED_CUBE2 HUMAN_AREA )</text>
</g>
<!-- node_2&#45;&gt;cluster_3 -->
<g id="edge20" class="edge"><title>node_2&#45;&gt;cluster_3</title>
<path fill="none" stroke="black" stroke-width="2" d="M2648,-688.868C2648,-679.545 2648,-669.302 2648,-659.374"/>
<polygon fill="black" stroke="black" points="2651.5,-659.193 2648,-649.193 2644.5,-659.193 2651.5,-659.193"/>
</g>
<!-- node_3&#45;&gt;cluster_7 -->
<g id="edge21" class="edge"><title>node_3&#45;&gt;cluster_7</title>
<path fill="none" stroke="black" stroke-width="2" d="M2496.8,-591.684C2444.34,-577.166 2368.96,-556.31 2301.97,-537.773"/>
<polygon fill="black" stroke="black" points="2302.72,-534.349 2292.15,-535.055 2300.85,-541.095 2302.72,-534.349"/>
</g>
<!-- node_3&#45;&gt;node_4 -->
<g id="edge1" class="edge"><title>node_3&#45;&gt;node_4</title>
<path fill="none" stroke="#9a32cd" d="M2640.12,-610C2646.27,-610 2652.49,-610 2658.66,-610"/>
<polygon fill="#9a32cd" stroke="#9a32cd" points="2668.99,-610 2658.99,-614.5 2663.99,-610 2658.99,-610 2658.99,-610 2658.99,-610 2663.99,-610 2658.99,-605.5 2668.99,-610 2668.99,-610"/>
</g>
<!-- node_4&#45;&gt;cluster_10 -->
<g id="edge22" class="edge"><title>node_4&#45;&gt;cluster_10</title>
<path fill="none" stroke="black" stroke-width="2" d="M2801.95,-592.562C2853.59,-578.026 2929.29,-556.718 2996.45,-537.814"/>
<polygon fill="black" stroke="black" points="2997.62,-541.122 3006.29,-535.044 2995.72,-534.384 2997.62,-541.122"/>
</g>
<!-- node_5&#45;&gt;cluster_0 -->
<g id="edge23" class="edge"><title>node_5&#45;&gt;cluster_0</title>
<path fill="none" stroke="black" stroke-width="2" d="M1676.83,-480.269C1550.41,-465.334 1355.04,-442.253 1185.39,-422.212"/>
<polygon fill="black" stroke="black" points="1185.63,-418.716 1175.28,-421.018 1184.81,-425.668 1185.63,-418.716"/>
</g>
<!-- node_5&#45;&gt;node_6 -->
<g id="edge2" class="edge"><title>node_5&#45;&gt;node_6</title>
<path fill="none" stroke="#9a32cd" d="M1959.1,-496C1966.9,-496 1974.82,-496 1982.8,-496"/>
<polygon fill="#9a32cd" stroke="#9a32cd" points="1992.95,-496 1982.95,-500.5 1987.95,-496 1982.95,-496 1982.95,-496 1982.95,-496 1987.95,-496 1982.95,-491.5 1992.95,-496 1992.95,-496"/>
</g>
<!-- node_6&#45;&gt;node_7 -->
<g id="edge3" class="edge"><title>node_6&#45;&gt;node_7</title>
<path fill="none" stroke="#9a32cd" d="M2453.29,-496C2461.35,-496 2469.2,-496 2476.77,-496"/>
<polygon fill="#9a32cd" stroke="#9a32cd" points="2486.9,-496 2476.9,-500.5 2481.9,-496 2476.9,-496 2476.9,-496 2476.9,-496 2481.9,-496 2476.9,-491.5 2486.9,-496 2486.9,-496"/>
</g>
<!-- node_7&#45;&gt;cluster_2 -->
<g id="edge24" class="edge"><title>node_7&#45;&gt;cluster_2</title>
<path fill="none" stroke="black" stroke-width="2" d="M2501.02,-475.487C2457.2,-461.216 2397.22,-441.679 2343.42,-424.155"/>
<polygon fill="black" stroke="black" points="2344.39,-420.791 2333.8,-421.022 2342.23,-427.447 2344.39,-420.791"/>
</g>
<!-- node_19&#45;&gt;node_20 -->
<g id="edge4" class="edge"><title>node_19&#45;&gt;node_20</title>
<path fill="none" stroke="#9a32cd" d="M556.068,-382C564.807,-382 573.574,-382 582.337,-382"/>
<polygon fill="#9a32cd" stroke="#9a32cd" points="592.621,-382 582.621,-386.5 587.621,-382 582.621,-382 582.621,-382 582.621,-382 587.621,-382 582.621,-377.5 592.621,-382 592.621,-382"/>
</g>
<!-- node_20&#45;&gt;node_22 -->
<g id="edge5" class="edge"><title>node_20&#45;&gt;node_22</title>
<path fill="none" stroke="#9a32cd" d="M1159.06,-382C1167.99,-382 1176.91,-382 1185.8,-382"/>
<polygon fill="#9a32cd" stroke="#9a32cd" points="1195.81,-382 1185.81,-386.5 1190.81,-382 1185.81,-382 1185.81,-382 1185.81,-382 1190.81,-382 1185.81,-377.5 1195.81,-382 1195.81,-382"/>
</g>
<!-- node_23&#45;&gt;cluster_4 -->
<g id="edge25" class="edge"><title>node_23&#45;&gt;cluster_4</title>
<path fill="none" stroke="black" stroke-width="2" d="M1733.86,-363.557C1626.56,-348.695 1471.73,-327.249 1335.93,-308.438"/>
<polygon fill="black" stroke="black" points="1336.16,-304.936 1325.77,-307.031 1335.2,-311.87 1336.16,-304.936"/>
</g>
<!-- node_23&#45;&gt;node_24 -->
<g id="edge6" class="edge"><title>node_23&#45;&gt;node_24</title>
<path fill="none" stroke="#9a32cd" d="M2023.14,-382C2030.31,-382 2037.56,-382 2044.87,-382"/>
<polygon fill="#9a32cd" stroke="#9a32cd" points="2054.87,-382 2044.87,-386.5 2049.87,-382 2044.87,-382 2044.87,-382 2044.87,-382 2049.87,-382 2044.87,-377.5 2054.87,-382 2054.87,-382"/>
</g>
<!-- node_24&#45;&gt;node_25 -->
<g id="edge7" class="edge"><title>node_24&#45;&gt;node_25</title>
<path fill="none" stroke="#9a32cd" d="M2529.21,-382C2536.98,-382 2544.56,-382 2551.86,-382"/>
<polygon fill="#9a32cd" stroke="#9a32cd" points="2561.99,-382 2551.99,-386.5 2556.99,-382 2551.99,-382 2551.99,-382 2551.99,-382 2556.99,-382 2551.99,-377.5 2561.99,-382 2561.99,-382"/>
</g>
<!-- node_25&#45;&gt;cluster_5 -->
<g id="edge26" class="edge"><title>node_25&#45;&gt;cluster_5</title>
<path fill="none" stroke="black" stroke-width="2" d="M2603.68,-350.547C2590.95,-339.203 2576.3,-326.157 2562.46,-313.836"/>
<polygon fill="black" stroke="black" points="2564.67,-311.117 2554.88,-307.08 2560.02,-316.345 2564.67,-311.117"/>
</g>
<!-- node_34&#45;&gt;node_35 -->
<g id="edge8" class="edge"><title>node_34&#45;&gt;node_35</title>
<path fill="none" stroke="#9a32cd" d="M735.227,-268C743.605,-268 752.016,-268 760.431,-268"/>
<polygon fill="#9a32cd" stroke="#9a32cd" points="770.697,-268 760.697,-272.5 765.697,-268 760.697,-268 760.697,-268 760.697,-268 765.697,-268 760.697,-263.5 770.697,-268 770.697,-268"/>
</g>
<!-- node_35&#45;&gt;node_37 -->
<g id="edge9" class="edge"><title>node_35&#45;&gt;node_37</title>
<path fill="none" stroke="#9a32cd" d="M1349.1,-268C1357.72,-268 1366.34,-268 1374.92,-268"/>
<polygon fill="#9a32cd" stroke="#9a32cd" points="1384.98,-268 1374.98,-272.5 1379.98,-268 1374.98,-268 1374.98,-268 1374.98,-268 1379.98,-268 1374.98,-263.5 1384.98,-268 1384.98,-268"/>
</g>
<!-- node_38&#45;&gt;cluster_6 -->
<g id="edge27" class="edge"><title>node_38&#45;&gt;cluster_6</title>
<path fill="none" stroke="black" stroke-width="2" d="M2035.35,-235.637C2006.95,-223.646 1974.28,-209.854 1943.98,-197.06"/>
<polygon fill="black" stroke="black" points="1945.24,-193.79 1934.66,-193.125 1942.51,-200.239 1945.24,-193.79"/>
</g>
<!-- node_38&#45;&gt;node_39 -->
<g id="edge10" class="edge"><title>node_38&#45;&gt;node_39</title>
<path fill="none" stroke="#9a32cd" d="M2310.07,-268C2317.56,-268 2325.11,-268 2332.71,-268"/>
<polygon fill="#9a32cd" stroke="#9a32cd" points="2342.73,-268 2332.73,-272.5 2337.73,-268 2332.73,-268 2332.73,-268 2332.73,-268 2337.73,-268 2332.73,-263.5 2342.73,-268 2342.73,-268"/>
</g>
<!-- node_39&#45;&gt;node_40 -->
<g id="edge11" class="edge"><title>node_39&#45;&gt;node_40</title>
<path fill="none" stroke="#9a32cd" d="M2921.18,-268C2928.95,-268 2936.49,-268 2943.74,-268"/>
<polygon fill="#9a32cd" stroke="#9a32cd" points="2953.78,-268 2943.78,-272.5 2948.78,-268 2943.78,-268 2943.78,-268 2943.78,-268 2948.78,-268 2943.78,-263.5 2953.78,-268 2953.78,-268"/>
</g>
<!-- node_40&#45;&gt;cluster_8 -->
<g id="edge28" class="edge"><title>node_40&#45;&gt;cluster_8</title>
<path fill="none" stroke="black" stroke-width="2" d="M3070.54,-237.749C3085.95,-225.958 3103.94,-212.193 3120.83,-199.268"/>
<polygon fill="black" stroke="black" points="3123.21,-201.859 3129.02,-193.003 3118.95,-196.3 3123.21,-201.859"/>
</g>
<!-- node_46&#45;&gt;node_47 -->
<g id="edge12" class="edge"><title>node_46&#45;&gt;node_47</title>
<path fill="none" stroke="#9a32cd" d="M1506.35,-154C1515.53,-154 1524.76,-154 1533.98,-154"/>
<polygon fill="#9a32cd" stroke="#9a32cd" points="1543.99,-154 1533.99,-158.5 1538.99,-154 1533.99,-154 1533.99,-154 1533.99,-154 1538.99,-154 1533.99,-149.5 1543.99,-154 1543.99,-154"/>
</g>
<!-- node_47&#45;&gt;node_49 -->
<g id="edge13" class="edge"><title>node_47&#45;&gt;node_49</title>
<path fill="none" stroke="#9a32cd" d="M2028,-154C2036.86,-154 2045.77,-154 2054.69,-154"/>
<polygon fill="#9a32cd" stroke="#9a32cd" points="2064.78,-154 2054.78,-158.5 2059.78,-154 2054.78,-154 2054.78,-154 2054.78,-154 2059.78,-154 2054.78,-149.5 2064.78,-154 2064.78,-154"/>
</g>
<!-- node_50&#45;&gt;cluster_9 -->
<g id="edge29" class="edge"><title>node_50&#45;&gt;cluster_9</title>
<path fill="none" stroke="black" stroke-width="2" d="M2953.47,-122.245C2987.28,-109.968 3026.49,-95.7326 3062.69,-82.5912"/>
<polygon fill="black" stroke="black" points="3064.11,-85.7991 3072.32,-79.0965 3061.72,-79.2193 3064.11,-85.7991"/>
</g>
<!-- node_50&#45;&gt;node_51 -->
<g id="edge14" class="edge"><title>node_50&#45;&gt;node_51</title>
<path fill="none" stroke="#9a32cd" d="M3071.31,-154C3078.67,-154 3086.1,-154 3093.56,-154"/>
<polygon fill="#9a32cd" stroke="#9a32cd" points="3103.77,-154 3093.77,-158.5 3098.77,-154 3093.77,-154 3093.77,-154 3093.77,-154 3098.77,-154 3093.77,-149.5 3103.77,-154 3103.77,-154"/>
</g>
<!-- node_55&#45;&gt;node_56 -->
<g id="edge15" class="edge"><title>node_55&#45;&gt;node_56</title>
<path fill="none" stroke="#9a32cd" d="M2838.11,-40C2847.01,-40 2855.95,-40 2864.89,-40"/>
<polygon fill="#9a32cd" stroke="#9a32cd" points="2874.98,-40 2864.98,-44.5001 2869.98,-40.0001 2864.98,-40.0001 2864.98,-40.0001 2864.98,-40.0001 2869.98,-40.0001 2864.98,-35.5001 2874.98,-40 2874.98,-40"/>
</g>
<!-- node_56&#45;&gt;node_58 -->
<g id="edge16" class="edge"><title>node_56&#45;&gt;node_58</title>
<path fill="none" stroke="#9a32cd" d="M3373.26,-40C3381.74,-40 3390.27,-40 3398.81,-40"/>
<polygon fill="#9a32cd" stroke="#9a32cd" points="3408.84,-40 3398.84,-44.5001 3403.84,-40.0001 3398.84,-40.0001 3398.84,-40.0001 3398.84,-40.0001 3403.84,-40.0001 3398.84,-35.5001 3408.84,-40 3408.84,-40"/>
</g>
<!-- node_59&#45;&gt;cluster_11 -->
<g id="edge30" class="edge"><title>node_59&#45;&gt;cluster_11</title>
<path fill="none" stroke="black" stroke-width="2" d="M2878.36,-468.404C2909.11,-455.424 2946.48,-439.642 2980.84,-425.136"/>
<polygon fill="black" stroke="black" points="2982.59,-428.196 2990.44,-421.082 2979.87,-421.747 2982.59,-428.196"/>
</g>
<!-- node_59&#45;&gt;node_60 -->
<g id="edge17" class="edge"><title>node_59&#45;&gt;node_60</title>
<path fill="none" stroke="#9a32cd" d="M2953.01,-496C2962.1,-496 2971.38,-496 2980.77,-496"/>
<polygon fill="#9a32cd" stroke="#9a32cd" points="2990.99,-496 2980.99,-500.5 2985.99,-496 2980.99,-496 2980.99,-496 2980.99,-496 2985.99,-496 2980.99,-491.5 2990.99,-496 2990.99,-496"/>
</g>
<!-- node_60&#45;&gt;node_61 -->
<g id="edge18" class="edge"><title>node_60&#45;&gt;node_61</title>
<path fill="none" stroke="#9a32cd" d="M3447.32,-496C3456.46,-496 3465.3,-496 3473.71,-496"/>
<polygon fill="#9a32cd" stroke="#9a32cd" points="3483.75,-496 3473.75,-500.5 3478.75,-496 3473.75,-496 3473.75,-496 3473.75,-496 3478.75,-496 3473.75,-491.5 3483.75,-496 3483.75,-496"/>
</g>
<!-- node_61&#45;&gt;cluster_12 -->
<g id="edge31" class="edge"><title>node_61&#45;&gt;cluster_12</title>
<path fill="none" stroke="black" stroke-width="2" d="M3600.66,-474.958C3633.68,-460.961 3678.24,-442.076 3718.58,-424.984"/>
<polygon fill="black" stroke="black" points="3720.08,-428.15 3727.92,-421.025 3717.34,-421.705 3720.08,-428.15"/>
</g>
<!-- node_73&#45;&gt;cluster_13 -->
<g id="edge32" class="edge"><title>node_73&#45;&gt;cluster_13</title>
<path fill="none" stroke="black" stroke-width="2" d="M3592.68,-353.527C3627.1,-340.577 3668.55,-324.981 3706.58,-310.672"/>
<polygon fill="black" stroke="black" points="3708.05,-313.862 3716.17,-307.065 3705.58,-307.31 3708.05,-313.862"/>
</g>
<!-- node_73&#45;&gt;node_74 -->
<g id="edge19" class="edge"><title>node_73&#45;&gt;node_74</title>
<path fill="none" stroke="#9a32cd" d="M3704.01,-382C3713.07,-382 3722.25,-382 3731.5,-382"/>
<polygon fill="#9a32cd" stroke="#9a32cd" points="3741.57,-382 3731.57,-386.5 3736.57,-382 3731.57,-382 3731.57,-382 3731.57,-382 3736.57,-382 3731.57,-377.5 3741.57,-382 3741.57,-382"/>
</g>
</g>
</svg>
