<?xml version="1.0" encoding="UTF-8" standalone="no"?>
<!DOCTYPE svg PUBLIC "-//W3C//DTD SVG 1.1//EN"
 "http://www.w3.org/Graphics/SVG/1.1/DTD/svg11.dtd">
<!-- Generated by graphviz version 2.26.3 (20100126.1600)
 -->
<!-- Title: graphForClustersContents Pages: 1 -->
<svg width="8016pt" height="202pt"
 viewBox="0.00 0.00 8016.00 202.00" xmlns="http://www.w3.org/2000/svg" xmlns:xlink="http://www.w3.org/1999/xlink">
<g id="graph1" class="graph" transform="scale(1 1) rotate(0) translate(4 198)">
<title>graphForClustersContents</title>
<polygon fill="white" stroke="white" points="-4,5 -4,-198 8013,-198 8013,5 -4,5"/>
<!-- node18 -->
<g id="node2" class="node"><title>node18</title>
<ellipse fill="#cce6ff" stroke="black" cx="188" cy="-150" rx="186.884" ry="43.8406"/>
<text text-anchor="middle" x="188" y="-164.4" font-family="Times Roman,serif" font-size="14.00">Pick</text>
<text text-anchor="middle" x="188" y="-146.4" font-family="Times Roman,serif" font-size="14.00">(HERAKLES_HUMAN1 Green_Cube )</text>
<text text-anchor="middle" x="188" y="-128.4" font-family="Times Roman,serif" font-size="14.00">[0, 6]</text>
</g>
<!-- node21 -->
<g id="node5" class="node"><title>node21</title>
<ellipse fill="#cce6ff" stroke="black" cx="678" cy="-150" rx="265.872" ry="43.8406"/>
<text text-anchor="middle" x="678" y="-164.4" font-family="Times Roman,serif" font-size="14.00">Place</text>
<text text-anchor="middle" x="678" y="-146.4" font-family="Times Roman,serif" font-size="14.00">(HERAKLES_HUMAN1 Green_Cube SmoothingArea )</text>
<text text-anchor="middle" x="678" y="-128.4" font-family="Times Roman,serif" font-size="14.00">[6, 12]</text>
</g>
<!-- node18&#45;&gt;node21 -->
<g id="edge23" class="edge"><title>node18&#45;&gt;node21</title>
<path fill="none" stroke="#9a32cd" d="M375.695,-150C384.235,-150 392.873,-150 401.565,-150"/>
<polygon fill="#9a32cd" stroke="#9a32cd" points="411.79,-150 401.79,-154.5 406.79,-150 401.79,-150 401.79,-150 401.79,-150 406.79,-150 401.79,-145.5 411.79,-150 411.79,-150"/>
</g>
<!-- node7 -->
<g id="node3" class="node"><title>node7</title>
<ellipse fill="#ffffcc" stroke="black" cx="188" cy="-44" rx="138.093" ry="43.8406"/>
<text text-anchor="middle" x="188" y="-58.4" font-family="Times Roman,serif" font-size="14.00">Pick</text>
<text text-anchor="middle" x="188" y="-40.4" font-family="Times Roman,serif" font-size="14.00">(PR2_ROBOT Blue_Cube )</text>
<text text-anchor="middle" x="188" y="-22.4" font-family="Times Roman,serif" font-size="14.00">[0, 6]</text>
</g>
<!-- node10 -->
<g id="node6" class="node"><title>node10</title>
<ellipse fill="#ffffcc" stroke="black" cx="678" cy="-44" rx="225.067" ry="43.8406"/>
<text text-anchor="middle" x="678" y="-58.4" font-family="Times Roman,serif" font-size="14.00">Place</text>
<text text-anchor="middle" x="678" y="-40.4" font-family="Times Roman,serif" font-size="14.00">(PR2_ROBOT Blue_Cube RagCleaningArea )</text>
<text text-anchor="middle" x="678" y="-22.4" font-family="Times Roman,serif" font-size="14.00">[6, 12]</text>
</g>
<!-- node7&#45;&gt;node10 -->
<g id="edge18" class="edge"><title>node7&#45;&gt;node10</title>
<path fill="none" stroke="#9a32cd" d="M326.776,-44C362.776,-44 402.57,-44 442.05,-44"/>
<polygon fill="#9a32cd" stroke="#9a32cd" points="452.078,-44 442.078,-48.5001 447.078,-44 442.078,-44.0001 442.078,-44.0001 442.078,-44.0001 447.078,-44 442.078,-39.5001 452.078,-44 452.078,-44"/>
</g>
<!-- node22 -->
<g id="node8" class="node"><title>node22</title>
<ellipse fill="#cce6ff" stroke="black" cx="1299" cy="-150" rx="318.905" ry="43.8406"/>
<text text-anchor="middle" x="1299" y="-164.4" font-family="Times Roman,serif" font-size="14.00">Apply</text>
<text text-anchor="middle" x="1299" y="-146.4" font-family="Times Roman,serif" font-size="14.00">(HERAKLES_HUMAN1 Green_Cube Smoothen SmoothingArea )</text>
<text text-anchor="middle" x="1299" y="-128.4" font-family="Times Roman,serif" font-size="14.00">[12, 18]</text>
</g>
<!-- node21&#45;&gt;node22 -->
<g id="edge24" class="edge"><title>node21&#45;&gt;node22</title>
<path fill="none" stroke="#9a32cd" d="M944.062,-150C952.58,-150 961.144,-150 969.727,-150"/>
<polygon fill="#9a32cd" stroke="#9a32cd" points="979.809,-150 969.809,-154.5 974.809,-150 969.809,-150 969.809,-150 969.809,-150 974.809,-150 969.809,-145.5 979.809,-150 979.809,-150"/>
</g>
<!-- node11 -->
<g id="node9" class="node"><title>node11</title>
<ellipse fill="#ffffcc" stroke="black" cx="1299" cy="-44" rx="255.973" ry="43.8406"/>
<text text-anchor="middle" x="1299" y="-58.4" font-family="Times Roman,serif" font-size="14.00">Apply</text>
<text text-anchor="middle" x="1299" y="-40.4" font-family="Times Roman,serif" font-size="14.00">(PR2_ROBOT Blue_Cube Clean RagCleaningArea )</text>
<text text-anchor="middle" x="1299" y="-22.4" font-family="Times Roman,serif" font-size="14.00">[12, 18]</text>
</g>
<!-- node10&#45;&gt;node11 -->
<g id="edge19" class="edge"><title>node10&#45;&gt;node11</title>
<path fill="none" stroke="#9a32cd" d="M903.513,-44C945.518,-44 989.771,-44 1032.86,-44"/>
<polygon fill="#9a32cd" stroke="#9a32cd" points="1042.91,-44 1032.91,-48.5001 1037.91,-44 1032.91,-44.0001 1032.91,-44.0001 1032.91,-44.0001 1037.91,-44 1032.91,-39.5001 1042.91,-44 1042.91,-44"/>
</g>
<!-- node23 -->
<g id="node11" class="node"><title>node23</title>
<ellipse fill="#cce6ff" stroke="black" cx="1842" cy="-150" rx="186.884" ry="43.8406"/>
<text text-anchor="middle" x="1842" y="-164.4" font-family="Times Roman,serif" font-size="14.00">Pick</text>
<text text-anchor="middle" x="1842" y="-146.4" font-family="Times Roman,serif" font-size="14.00">(HERAKLES_HUMAN1 Green_Cube )</text>
<text text-anchor="middle" x="1842" y="-128.4" font-family="Times Roman,serif" font-size="14.00">[18, 24]</text>
</g>
<!-- node22&#45;&gt;node23 -->
<g id="edge25" class="edge"><title>node22&#45;&gt;node23</title>
<path fill="none" stroke="#9a32cd" d="M1618.01,-150C1626.8,-150 1635.53,-150 1644.14,-150"/>
<polygon fill="#9a32cd" stroke="#9a32cd" points="1654.21,-150 1644.21,-154.5 1649.21,-150 1644.21,-150 1644.21,-150 1644.21,-150 1649.21,-150 1644.21,-145.5 1654.21,-150 1654.21,-150"/>
</g>
<!-- node12 -->
<g id="node12" class="node"><title>node12</title>
<ellipse fill="#ffffcc" stroke="black" cx="1842" cy="-44" rx="138.093" ry="43.8406"/>
<text text-anchor="middle" x="1842" y="-58.4" font-family="Times Roman,serif" font-size="14.00">Pick</text>
<text text-anchor="middle" x="1842" y="-40.4" font-family="Times Roman,serif" font-size="14.00">(PR2_ROBOT Blue_Cube )</text>
<text text-anchor="middle" x="1842" y="-22.4" font-family="Times Roman,serif" font-size="14.00">[18, 24]</text>
</g>
<!-- node11&#45;&gt;node12 -->
<g id="edge20" class="edge"><title>node11&#45;&gt;node12</title>
<path fill="none" stroke="#9a32cd" d="M1555.39,-44C1602.55,-44 1650.32,-44 1692.98,-44"/>
<polygon fill="#9a32cd" stroke="#9a32cd" points="1703.14,-44 1693.14,-48.5001 1698.14,-44 1693.14,-44.0001 1693.14,-44.0001 1693.14,-44.0001 1698.14,-44 1693.14,-39.5001 1703.14,-44 1703.14,-44"/>
</g>
<!-- node26 -->
<g id="node14" class="node"><title>node26</title>
<ellipse fill="#cce6ff" stroke="black" cx="2312" cy="-150" rx="244.866" ry="43.8406"/>
<text text-anchor="middle" x="2312" y="-164.4" font-family="Times Roman,serif" font-size="14.00">Place</text>
<text text-anchor="middle" x="2312" y="-146.4" font-family="Times Roman,serif" font-size="14.00">(HERAKLES_HUMAN1 Green_Cube GluingArea )</text>
<text text-anchor="middle" x="2312" y="-128.4" font-family="Times Roman,serif" font-size="14.00">[24, 30]</text>
</g>
<!-- node23&#45;&gt;node26 -->
<g id="edge26" class="edge"><title>node23&#45;&gt;node26</title>
<path fill="none" stroke="#9a32cd" d="M2029.78,-150C2038.51,-150 2047.34,-150 2056.2,-150"/>
<polygon fill="#9a32cd" stroke="#9a32cd" points="2066.22,-150 2056.22,-154.5 2061.22,-150 2056.22,-150 2056.22,-150 2056.22,-150 2061.22,-150 2056.22,-145.5 2066.22,-150 2066.22,-150"/>
</g>
<!-- node6 -->
<g id="node15" class="node"><title>node6</title>
<ellipse fill="#ffffcc" stroke="black" cx="2312" cy="-44" rx="191.126" ry="43.8406"/>
<text text-anchor="middle" x="2312" y="-58.4" font-family="Times Roman,serif" font-size="14.00">PlaceOnStack</text>
<text text-anchor="middle" x="2312" y="-40.4" font-family="Times Roman,serif" font-size="14.00">(PR2_ROBOT Blue_Cube StackArea )</text>
<text text-anchor="middle" x="2312" y="-22.4" font-family="Times Roman,serif" font-size="14.00">[24, 30]</text>
</g>
<!-- node12&#45;&gt;node6 -->
<g id="edge21" class="edge"><title>node12&#45;&gt;node6</title>
<path fill="none" stroke="#9a32cd" d="M1980.79,-44C2021.35,-44 2066.54,-44 2110.17,-44"/>
<polygon fill="#9a32cd" stroke="#9a32cd" points="2120.33,-44 2110.33,-48.5001 2115.33,-44 2110.33,-44.0001 2110.33,-44.0001 2110.33,-44.0001 2115.33,-44 2110.33,-39.5001 2120.33,-44 2120.33,-44"/>
</g>
<!-- node27 -->
<g id="node17" class="node"><title>node27</title>
<ellipse fill="#cce6ff" stroke="black" cx="2901" cy="-145" rx="306.884" ry="43.8406"/>
<text text-anchor="middle" x="2901" y="-159.4" font-family="Times Roman,serif" font-size="14.00">Apply</text>
<text text-anchor="middle" x="2901" y="-141.4" font-family="Times Roman,serif" font-size="14.00">(HERAKLES_HUMAN1 Green_Cube Glue_Green GluingArea )</text>
<text text-anchor="middle" x="2901" y="-123.4" font-family="Times Roman,serif" font-size="14.00">[30, 36]</text>
</g>
<!-- node26&#45;&gt;node27 -->
<g id="edge27" class="edge"><title>node26&#45;&gt;node27</title>
<path fill="none" stroke="#9a32cd" d="M2557.52,-147.916C2566.35,-147.841 2575.24,-147.765 2584.16,-147.69"/>
<polygon fill="#9a32cd" stroke="#9a32cd" points="2594.24,-147.604 2584.28,-152.189 2589.24,-147.647 2584.24,-147.689 2584.24,-147.689 2584.24,-147.689 2589.24,-147.647 2584.2,-143.189 2594.24,-147.604 2594.24,-147.604"/>
</g>
<!-- node17 -->
<g id="node21" class="node"><title>node17</title>
<ellipse fill="#cce6ff" stroke="black" cx="3897" cy="-99" rx="239.916" ry="43.8406"/>
<text text-anchor="middle" x="3897" y="-113.4" font-family="Times Roman,serif" font-size="14.00">PlaceOnStack</text>
<text text-anchor="middle" x="3897" y="-95.4" font-family="Times Roman,serif" font-size="14.00">(HERAKLES_HUMAN1 Green_Cube StackArea )</text>
<text text-anchor="middle" x="3897" y="-77.4" font-family="Times Roman,serif" font-size="14.00">[42, 48]</text>
</g>
<!-- node6&#45;&gt;node17 -->
<g id="edge17" class="edge"><title>node6&#45;&gt;node17</title>
<path fill="none" stroke="#9a32cd" d="M2502.68,-48.4257C2757.4,-54.6599 3222.77,-67.1734 3620,-84 3632.05,-84.5106 3644.4,-85.065 3656.87,-85.6496"/>
<polygon fill="#9a32cd" stroke="#9a32cd" points="3666.89,-86.1247 3656.69,-90.1461 3661.9,-85.8879 3656.91,-85.6511 3656.91,-85.6511 3656.91,-85.6511 3661.9,-85.8879 3657.12,-81.1562 3666.89,-86.1247 3666.89,-86.1247"/>
</g>
<!-- node28 -->
<g id="node19" class="node"><title>node28</title>
<ellipse fill="#cce6ff" stroke="black" cx="3432" cy="-137" rx="186.884" ry="43.8406"/>
<text text-anchor="middle" x="3432" y="-151.4" font-family="Times Roman,serif" font-size="14.00">Pick</text>
<text text-anchor="middle" x="3432" y="-133.4" font-family="Times Roman,serif" font-size="14.00">(HERAKLES_HUMAN1 Green_Cube )</text>
<text text-anchor="middle" x="3432" y="-115.4" font-family="Times Roman,serif" font-size="14.00">[36, 42]</text>
</g>
<!-- node27&#45;&gt;node28 -->
<g id="edge28" class="edge"><title>node27&#45;&gt;node28</title>
<path fill="none" stroke="#9a32cd" d="M3206.42,-140.399C3215.92,-140.255 3225.34,-140.114 3234.64,-139.973"/>
<polygon fill="#9a32cd" stroke="#9a32cd" points="3244.69,-139.822 3234.76,-144.472 3239.69,-139.897 3234.69,-139.973 3234.69,-139.973 3234.69,-139.973 3239.69,-139.897 3234.62,-135.473 3244.69,-139.822 3244.69,-139.822"/>
</g>
<!-- node28&#45;&gt;node17 -->
<g id="edge29" class="edge"><title>node28&#45;&gt;node17</title>
<path fill="none" stroke="#9a32cd" d="M3609.12,-122.525C3628.14,-120.972 3647.68,-119.375 3667.19,-117.78"/>
<polygon fill="#9a32cd" stroke="#9a32cd" points="3677.39,-116.947 3667.79,-122.246 3672.41,-117.354 3667.42,-117.761 3667.42,-117.761 3667.42,-117.761 3672.41,-117.354 3667.06,-113.276 3677.39,-116.947 3677.39,-116.947"/>
</g>
<!-- node34 -->
<g id="node23" class="node"><title>node34</title>
<ellipse fill="#cce6ff" stroke="black" cx="4350" cy="-99" rx="174.863" ry="43.8406"/>
<text text-anchor="middle" x="4350" y="-113.4" font-family="Times Roman,serif" font-size="14.00">Pick</text>
<text text-anchor="middle" x="4350" y="-95.4" font-family="Times Roman,serif" font-size="14.00">(HERAKLES_HUMAN1 Red_Cube )</text>
<text text-anchor="middle" x="4350" y="-77.4" font-family="Times Roman,serif" font-size="14.00">[48, 54]</text>
</g>
<!-- node17&#45;&gt;node34 -->
<g id="edge22" class="edge"><title>node17&#45;&gt;node34</title>
<path fill="none" stroke="#9a32cd" d="M4137.76,-99C4146.58,-99 4155.37,-99 4164.07,-99"/>
<polygon fill="#9a32cd" stroke="#9a32cd" points="4174.25,-99 4164.25,-103.5 4169.25,-99 4164.25,-99.0001 4164.25,-99.0001 4164.25,-99.0001 4169.25,-99 4164.25,-94.5001 4174.25,-99 4174.25,-99"/>
</g>
<!-- node37 -->
<g id="node25" class="node"><title>node37</title>
<ellipse fill="#cce6ff" stroke="black" cx="4806" cy="-99" rx="243.952" ry="43.8406"/>
<text text-anchor="middle" x="4806" y="-113.4" font-family="Times Roman,serif" font-size="14.00">Place</text>
<text text-anchor="middle" x="4806" y="-95.4" font-family="Times Roman,serif" font-size="14.00">(HERAKLES_HUMAN1 Red_Cube PolishingArea )</text>
<text text-anchor="middle" x="4806" y="-77.4" font-family="Times Roman,serif" font-size="14.00">[54, 60]</text>
</g>
<!-- node34&#45;&gt;node37 -->
<g id="edge30" class="edge"><title>node34&#45;&gt;node37</title>
<path fill="none" stroke="#9a32cd" d="M4525.65,-99C4534.21,-99 4542.88,-99 4551.61,-99"/>
<polygon fill="#9a32cd" stroke="#9a32cd" points="4561.87,-99 4551.87,-103.5 4556.87,-99 4551.87,-99.0001 4551.87,-99.0001 4551.87,-99.0001 4556.87,-99 4551.87,-94.5001 4561.87,-99 4561.87,-99"/>
</g>
<!-- node38 -->
<g id="node27" class="node"><title>node38</title>
<ellipse fill="#cce6ff" stroke="black" cx="5361" cy="-99" rx="275.065" ry="43.8406"/>
<text text-anchor="middle" x="5361" y="-113.4" font-family="Times Roman,serif" font-size="14.00">Apply</text>
<text text-anchor="middle" x="5361" y="-95.4" font-family="Times Roman,serif" font-size="14.00">(HERAKLES_HUMAN1 Red_Cube Polish PolishingArea )</text>
<text text-anchor="middle" x="5361" y="-77.4" font-family="Times Roman,serif" font-size="14.00">[60, 66]</text>
</g>
<!-- node37&#45;&gt;node38 -->
<g id="edge31" class="edge"><title>node37&#45;&gt;node38</title>
<path fill="none" stroke="#9a32cd" d="M5050.24,-99C5058.7,-99 5067.21,-99 5075.73,-99"/>
<polygon fill="#9a32cd" stroke="#9a32cd" points="5085.73,-99 5075.73,-103.5 5080.73,-99 5075.73,-99.0001 5075.73,-99.0001 5075.73,-99.0001 5080.73,-99 5075.73,-94.5001 5085.73,-99 5085.73,-99"/>
</g>
<!-- node39 -->
<g id="node29" class="node"><title>node39</title>
<ellipse fill="#cce6ff" stroke="black" cx="5848" cy="-99" rx="174.863" ry="43.8406"/>
<text text-anchor="middle" x="5848" y="-113.4" font-family="Times Roman,serif" font-size="14.00">Pick</text>
<text text-anchor="middle" x="5848" y="-95.4" font-family="Times Roman,serif" font-size="14.00">(HERAKLES_HUMAN1 Red_Cube )</text>
<text text-anchor="middle" x="5848" y="-77.4" font-family="Times Roman,serif" font-size="14.00">[66, 72]</text>
</g>
<!-- node38&#45;&gt;node39 -->
<g id="edge32" class="edge"><title>node38&#45;&gt;node39</title>
<path fill="none" stroke="#9a32cd" d="M5636.17,-99C5644.92,-99 5653.61,-99 5662.2,-99"/>
<polygon fill="#9a32cd" stroke="#9a32cd" points="5672.24,-99 5662.24,-103.5 5667.24,-99 5662.24,-99.0001 5662.24,-99.0001 5662.24,-99.0001 5667.24,-99 5662.24,-94.5001 5672.24,-99 5672.24,-99"/>
</g>
<!-- node42 -->
<g id="node31" class="node"><title>node42</title>
<ellipse fill="#cce6ff" stroke="black" cx="6293" cy="-99" rx="232.138" ry="43.8406"/>
<text text-anchor="middle" x="6293" y="-113.4" font-family="Times Roman,serif" font-size="14.00">Place</text>
<text text-anchor="middle" x="6293" y="-95.4" font-family="Times Roman,serif" font-size="14.00">(HERAKLES_HUMAN1 Red_Cube GluingArea )</text>
<text text-anchor="middle" x="6293" y="-77.4" font-family="Times Roman,serif" font-size="14.00">[72, 78]</text>
</g>
<!-- node39&#45;&gt;node42 -->
<g id="edge33" class="edge"><title>node39&#45;&gt;node42</title>
<path fill="none" stroke="#9a32cd" d="M6023.56,-99C6032.39,-99 6041.32,-99 6050.3,-99"/>
<polygon fill="#9a32cd" stroke="#9a32cd" points="6060.45,-99 6050.45,-103.5 6055.45,-99 6050.45,-99.0001 6050.45,-99.0001 6050.45,-99.0001 6055.45,-99 6050.45,-94.5001 6060.45,-99 6060.45,-99"/>
</g>
<!-- node43 -->
<g id="node33" class="node"><title>node43</title>
<ellipse fill="#cce6ff" stroke="black" cx="6844" cy="-99" rx="282.136" ry="43.8406"/>
<text text-anchor="middle" x="6844" y="-113.4" font-family="Times Roman,serif" font-size="14.00">Apply</text>
<text text-anchor="middle" x="6844" y="-95.4" font-family="Times Roman,serif" font-size="14.00">(HERAKLES_HUMAN1 Red_Cube Glue_Red GluingArea )</text>
<text text-anchor="middle" x="6844" y="-77.4" font-family="Times Roman,serif" font-size="14.00">[78, 84]</text>
</g>
<!-- node42&#45;&gt;node43 -->
<g id="edge34" class="edge"><title>node42&#45;&gt;node43</title>
<path fill="none" stroke="#9a32cd" d="M6525.87,-99C6534.42,-99 6543.03,-99 6551.66,-99"/>
<polygon fill="#9a32cd" stroke="#9a32cd" points="6561.8,-99 6551.8,-103.5 6556.8,-99 6551.8,-99.0001 6551.8,-99.0001 6551.8,-99.0001 6556.8,-99 6551.8,-94.5001 6561.8,-99 6561.8,-99"/>
</g>
<!-- node44 -->
<g id="node35" class="node"><title>node44</title>
<ellipse fill="#cce6ff" stroke="black" cx="7338" cy="-99" rx="174.863" ry="43.8406"/>
<text text-anchor="middle" x="7338" y="-113.4" font-family="Times Roman,serif" font-size="14.00">Pick</text>
<text text-anchor="middle" x="7338" y="-95.4" font-family="Times Roman,serif" font-size="14.00">(HERAKLES_HUMAN1 Red_Cube )</text>
<text text-anchor="middle" x="7338" y="-77.4" font-family="Times Roman,serif" font-size="14.00">[84, 90]</text>
</g>
<!-- node43&#45;&gt;node44 -->
<g id="edge35" class="edge"><title>node43&#45;&gt;node44</title>
<path fill="none" stroke="#9a32cd" d="M7126.35,-99C7134.95,-99 7143.5,-99 7151.95,-99"/>
<polygon fill="#9a32cd" stroke="#9a32cd" points="7162.19,-99 7152.19,-103.5 7157.19,-99 7152.19,-99.0001 7152.19,-99.0001 7152.19,-99.0001 7157.19,-99 7152.19,-94.5001 7162.19,-99 7162.19,-99"/>
</g>
<!-- node33 -->
<g id="node37" class="node"><title>node33</title>
<ellipse fill="#cce6ff" stroke="black" cx="7779" cy="-99" rx="227.896" ry="43.8406"/>
<text text-anchor="middle" x="7779" y="-113.4" font-family="Times Roman,serif" font-size="14.00">PlaceOnStack</text>
<text text-anchor="middle" x="7779" y="-95.4" font-family="Times Roman,serif" font-size="14.00">(HERAKLES_HUMAN1 Red_Cube StackArea )</text>
<text text-anchor="middle" x="7779" y="-77.4" font-family="Times Roman,serif" font-size="14.00">[90, 96]</text>
</g>
<!-- node44&#45;&gt;node33 -->
<g id="edge36" class="edge"><title>node44&#45;&gt;node33</title>
<path fill="none" stroke="#9a32cd" d="M7513.56,-99C7522.38,-99 7531.29,-99 7540.24,-99"/>
<polygon fill="#9a32cd" stroke="#9a32cd" points="7550.36,-99 7540.36,-103.5 7545.36,-99 7540.36,-99.0001 7540.36,-99.0001 7540.36,-99.0001 7545.36,-99 7540.36,-94.5001 7550.36,-99 7550.36,-99"/>
</g>
</g>
</svg>
