<?xml version="1.0" encoding="UTF-8" standalone="no"?>
<!DOCTYPE svg PUBLIC "-//W3C//DTD SVG 1.1//EN"
 "http://www.w3.org/Graphics/SVG/1.1/DTD/svg11.dtd">
<!-- Generated by graphviz version 2.26.3 (20100126.1600)
 -->
<!-- Title: final_graph Pages: 1 -->
<svg width="2869pt" height="396pt"
 viewBox="0.00 0.00 2869.00 396.00" xmlns="http://www.w3.org/2000/svg" xmlns:xlink="http://www.w3.org/1999/xlink">
<g id="graph1" class="graph" transform="scale(1 1) rotate(0) translate(4 392)">
<title>final_graph</title>
<polygon fill="white" stroke="white" points="-4,5 -4,-392 2866,-392 2866,5 -4,5"/>
<!-- cluster_0 -->
<g id="node1" class="node"><title>cluster_0</title>
<polygon fill="none" stroke="blue" points="2336,-387 1586,-387 1586,-309 2336,-309 2336,-387"/>
<text text-anchor="middle" x="1961" y="-344.4" font-family="Times Roman,serif" font-size="14.00"> </text>
</g>
<!-- cluster_1 -->
<g id="node2" class="node"><title>cluster_1</title>
<polygon fill="none" stroke="blue" points="2860,-273 1062,-273 1062,-115 2860,-115 2860,-273"/>
<text text-anchor="middle" x="1961" y="-190.4" font-family="Times Roman,serif" font-size="14.00"> </text>
</g>
<!-- cluster_2 -->
<g id="node3" class="node"><title>cluster_2</title>
<polygon fill="none" stroke="blue" points="1791,-79 1.0032,-79 1.0032,-1.00002 1791,-1.00002 1791,-79"/>
<text text-anchor="middle" x="896.003" y="-36.4" font-family="Times Roman,serif" font-size="14.00"> </text>
</g>
<!-- cluster_3 -->
<g id="node4" class="node"><title>cluster_3</title>
<polygon fill="none" stroke="blue" points="2113,-79 1809,-79 1809,-1.00002 2113,-1.00002 2113,-79"/>
<text text-anchor="middle" x="1961" y="-36.4" font-family="Times Roman,serif" font-size="14.00"> </text>
</g>
<!-- cluster_4 -->
<g id="node5" class="node"><title>cluster_4</title>
<polygon fill="none" stroke="blue" points="2753,-79 2131,-79 2131,-1.00002 2753,-1.00002 2753,-79"/>
<text text-anchor="middle" x="2442" y="-36.4" font-family="Times Roman,serif" font-size="14.00"> </text>
</g>
<!-- node_4030 -->
<g id="node6" class="node"><title>node_4030</title>
<ellipse fill="#c1cdcd" stroke="black" cx="1961" cy="-348" rx="367" ry="31.1127"/>
<ellipse fill="none" stroke="black" cx="1961" cy="-348" rx="371" ry="35.1127"/>
<text text-anchor="middle" x="1961" y="-353.4" font-family="Times Roman,serif" font-size="14.00">AssembleOneBracket</text>
<text text-anchor="middle" x="1961" y="-335.4" font-family="Times Roman,serif" font-size="14.00">(HERAKLES_HUMAN1 PR2_ROBOT BRACKET_3 ASSEMBLY_SURFACE_3 )</text>
</g>
<!-- node_4031 -->
<g id="node7" class="node"><title>node_4031</title>
<ellipse fill="#c1cdcd" stroke="black" cx="1437" cy="-234.001" rx="306.177" ry="31.1127"/>
<ellipse fill="none" stroke="black" cx="1437" cy="-234.001" rx="310.177" ry="35.1127"/>
<text text-anchor="middle" x="1437" y="-239.401" font-family="Times Roman,serif" font-size="14.00">CleanSurface</text>
<text text-anchor="middle" x="1437" y="-221.401" font-family="Times Roman,serif" font-size="14.00">(HERAKLES_HUMAN1 PR2_ROBOT ASSEMBLY_SURFACE_3 )</text>
</g>
<!-- node_4032 -->
<g id="node8" class="node"><title>node_4032</title>
<ellipse fill="#c1cdcd" stroke="black" cx="1437" cy="-154" rx="367" ry="31.1127"/>
<text text-anchor="middle" x="1437" y="-159.4" font-family="Times Roman,serif" font-size="14.00">PrepareBracket</text>
<text text-anchor="middle" x="1437" y="-141.4" font-family="Times Roman,serif" font-size="14.00">(HERAKLES_HUMAN1 PR2_ROBOT BRACKET_3 ASSEMBLY_SURFACE_3 )</text>
</g>
<!-- node_4033 -->
<g id="node9" class="node"><title>node_4033</title>
<ellipse fill="#cce6ff" stroke="black" cx="2025" cy="-194" rx="184.055" ry="31.1127"/>
<text text-anchor="middle" x="2025" y="-199.4" font-family="Times Roman,serif" font-size="14.00">Pick</text>
<text text-anchor="middle" x="2025" y="-181.4" font-family="Times Roman,serif" font-size="14.00">(HERAKLES_HUMAN1 BRACKET_3 )</text>
</g>
<!-- node_4034 -->
<g id="node10" class="node"><title>node_4034</title>
<ellipse fill="#c1cdcd" stroke="black" cx="2549" cy="-194" rx="302.141" ry="31.1127"/>
<text text-anchor="middle" x="2549" y="-199.4" font-family="Times Roman,serif" font-size="14.00">PlaceBracket</text>
<text text-anchor="middle" x="2549" y="-181.4" font-family="Times Roman,serif" font-size="14.00">(HERAKLES_HUMAN1 BRACKET_3 ASSEMBLY_SURFACE_3 )</text>
</g>
<!-- node_4035 -->
<g id="node11" class="node"><title>node_4035</title>
<ellipse fill="#ffffcc" stroke="black" cx="196.003" cy="-40" rx="186.176" ry="31.1127"/>
<text text-anchor="middle" x="196.003" y="-45.4" font-family="Times Roman,serif" font-size="14.00">TravelTo</text>
<text text-anchor="middle" x="196.003" y="-27.4" font-family="Times Roman,serif" font-size="14.00">(PR2_ROBOT WORK_LOCATION_3 )</text>
</g>
<!-- node_4036 -->
<g id="node12" class="node"><title>node_4036</title>
<ellipse fill="#ffffcc" stroke="black" cx="621.004" cy="-40" rx="201.025" ry="31.1127"/>
<text text-anchor="middle" x="621.004" y="-45.4" font-family="Times Roman,serif" font-size="14.00">StartPointing</text>
<text text-anchor="middle" x="621.004" y="-27.4" font-family="Times Roman,serif" font-size="14.00">(PR2_ROBOT ASSEMBLY_SURFACE_3 )</text>
</g>
<!-- node_4037 -->
<g id="node13" class="node"><title>node_4037</title>
<ellipse fill="#cce6ff" stroke="black" cx="1101" cy="-40" rx="242" ry="31.1127"/>
<text text-anchor="middle" x="1101" y="-45.4" font-family="Times Roman,serif" font-size="14.00">Clean</text>
<text text-anchor="middle" x="1101" y="-27.4" font-family="Times Roman,serif" font-size="14.00">(HERAKLES_HUMAN1 ASSEMBLY_SURFACE_3 )</text>
</g>
<!-- node_4038 -->
<g id="node14" class="node"><title>node_4038</title>
<ellipse fill="#ffffcc" stroke="black" cx="1581" cy="-40" rx="201.025" ry="31.1127"/>
<text text-anchor="middle" x="1581" y="-45.4" font-family="Times Roman,serif" font-size="14.00">StopPointing</text>
<text text-anchor="middle" x="1581" y="-27.4" font-family="Times Roman,serif" font-size="14.00">(PR2_ROBOT ASSEMBLY_SURFACE_3 )</text>
</g>
<!-- node_4040 -->
<g id="node15" class="node"><title>node_4040</title>
<ellipse fill="#ffffcc" stroke="black" cx="1961" cy="-40" rx="144.25" ry="31.1127"/>
<text text-anchor="middle" x="1961" y="-45.4" font-family="Times Roman,serif" font-size="14.00">Place</text>
<text text-anchor="middle" x="1961" y="-27.4" font-family="Times Roman,serif" font-size="14.00">(PR2_ROBOT BRACKET_3 )</text>
</g>
<!-- node_4041 -->
<g id="node16" class="node"><title>node_4041</title>
<ellipse fill="#cce6ff" stroke="black" cx="2442" cy="-40" rx="302.141" ry="31.1127"/>
<text text-anchor="middle" x="2442" y="-45.4" font-family="Times Roman,serif" font-size="14.00">AttachBracket</text>
<text text-anchor="middle" x="2442" y="-27.4" font-family="Times Roman,serif" font-size="14.00">(HERAKLES_HUMAN1 BRACKET_3 ASSEMBLY_SURFACE_3 )</text>
</g>
<!-- node_4030&#45;&gt;cluster_1 -->
<g id="edge7" class="edge"><title>node_4030&#45;&gt;cluster_1</title>
<path fill="none" stroke="black" stroke-width="2" d="M1961,-312.669C1961,-303.652 1961,-293.543 1961,-283.131"/>
<polygon fill="black" stroke="black" points="1964.5,-283.081 1961,-273.081 1957.5,-283.081 1964.5,-283.081"/>
</g>
<!-- node_4031&#45;&gt;cluster_2 -->
<g id="edge8" class="edge"><title>node_4031&#45;&gt;cluster_2</title>
<path fill="none" stroke="black" stroke-width="2" d="M1343.69,-200.54C1252.48,-167.831 1113.27,-117.911 1014.32,-82.4298"/>
<polygon fill="black" stroke="black" points="1015.47,-79.1233 1004.88,-79.0423 1013.11,-85.7125 1015.47,-79.1233"/>
</g>
<!-- node_4031&#45;&gt;node_4033 -->
<g id="edge1" class="edge"><title>node_4031&#45;&gt;node_4033</title>
<path fill="none" stroke="#9a32cd" d="M1702.61,-215.931C1750.43,-212.678 1799.26,-209.357 1843.98,-206.315"/>
<polygon fill="#9a32cd" stroke="#9a32cd" points="1854.05,-205.63 1844.38,-210.798 1849.06,-205.969 1844.07,-206.308 1844.07,-206.308 1844.07,-206.308 1849.06,-205.969 1843.77,-201.819 1854.05,-205.63 1854.05,-205.63"/>
</g>
<!-- node_4032&#45;&gt;cluster_3 -->
<g id="edge9" class="edge"><title>node_4032&#45;&gt;cluster_3</title>
<path fill="none" stroke="black" stroke-width="2" d="M1569.9,-125.086C1639.54,-109.934 1725.41,-91.2538 1798.93,-75.2594"/>
<polygon fill="black" stroke="black" points="1799.73,-78.6678 1808.75,-73.1219 1798.24,-71.8278 1799.73,-78.6678"/>
</g>
<!-- node_4032&#45;&gt;node_4033 -->
<g id="edge2" class="edge"><title>node_4032&#45;&gt;node_4033</title>
<path fill="none" stroke="#9a32cd" d="M1723.25,-173.473C1764.4,-176.273 1805.76,-179.086 1844.09,-181.694"/>
<polygon fill="#9a32cd" stroke="#9a32cd" points="1854.29,-182.387 1844.01,-186.198 1849.3,-182.048 1844.31,-181.709 1844.31,-181.709 1844.31,-181.709 1849.3,-182.048 1844.62,-177.219 1854.29,-182.387 1854.29,-182.387"/>
</g>
<!-- node_4033&#45;&gt;node_4034 -->
<g id="edge3" class="edge"><title>node_4033&#45;&gt;node_4034</title>
<path fill="none" stroke="#9a32cd" d="M2209.01,-194C2218.1,-194 2227.34,-194 2236.66,-194"/>
<polygon fill="#9a32cd" stroke="#9a32cd" points="2246.8,-194 2236.8,-198.5 2241.8,-194 2236.8,-194 2236.8,-194 2236.8,-194 2241.8,-194 2236.8,-189.5 2246.8,-194 2246.8,-194"/>
</g>
<!-- node_4034&#45;&gt;cluster_4 -->
<g id="edge10" class="edge"><title>node_4034&#45;&gt;cluster_4</title>
<path fill="none" stroke="black" stroke-width="2" d="M2527.35,-162.836C2512.33,-141.216 2492.04,-112.015 2475.01,-87.5089"/>
<polygon fill="black" stroke="black" points="2477.72,-85.272 2469.14,-79.0568 2471.97,-89.2662 2477.72,-85.272"/>
</g>
<!-- node_4035&#45;&gt;node_4036 -->
<g id="edge4" class="edge"><title>node_4035&#45;&gt;node_4036</title>
<path fill="none" stroke="#9a32cd" d="M382.105,-40C391.284,-40 400.53,-40 409.773,-40"/>
<polygon fill="#9a32cd" stroke="#9a32cd" points="419.797,-40 409.797,-44.5001 414.797,-40.0001 409.797,-40.0001 409.797,-40.0001 409.797,-40.0001 414.797,-40.0001 409.797,-35.5001 419.797,-40 419.797,-40"/>
</g>
<!-- node_4036&#45;&gt;node_4037 -->
<g id="edge5" class="edge"><title>node_4036&#45;&gt;node_4037</title>
<path fill="none" stroke="#9a32cd" d="M822.132,-40C830.992,-40 839.925,-40 848.88,-40"/>
<polygon fill="#9a32cd" stroke="#9a32cd" points="858.998,-40 848.998,-44.5001 853.998,-40.0001 848.998,-40.0001 848.998,-40.0001 848.998,-40.0001 853.998,-40.0001 848.998,-35.5001 858.998,-40 858.998,-40"/>
</g>
<!-- node_4037&#45;&gt;node_4038 -->
<g id="edge6" class="edge"><title>node_4037&#45;&gt;node_4038</title>
<path fill="none" stroke="#9a32cd" d="M1343.11,-40C1351.9,-40 1360.69,-40 1369.43,-40"/>
<polygon fill="#9a32cd" stroke="#9a32cd" points="1379.66,-40 1369.66,-44.5001 1374.66,-40.0001 1369.66,-40.0001 1369.66,-40.0001 1369.66,-40.0001 1374.66,-40.0001 1369.66,-35.5001 1379.66,-40 1379.66,-40"/>
</g>
</g>
</svg>
