<?xml version="1.0" encoding="UTF-8" standalone="no"?>
<!DOCTYPE svg PUBLIC "-//W3C//DTD SVG 1.1//EN"
 "http://www.w3.org/Graphics/SVG/1.1/DTD/svg11.dtd">
<!-- Generated by graphviz version 2.26.3 (20100126.1600)
 -->
<!-- Title: final_graph Pages: 1 -->
<svg width="7068pt" height="784pt"
 viewBox="0.00 0.00 7068.00 784.00" xmlns="http://www.w3.org/2000/svg" xmlns:xlink="http://www.w3.org/1999/xlink">
<g id="graph1" class="graph" transform="scale(1 1) rotate(0) translate(4 780)">
<title>final_graph</title>
<polygon fill="white" stroke="white" points="-4,5 -4,-780 7065,-780 7065,5 -4,5"/>
<!-- cluster_0 -->
<g id="node1" class="node"><title>cluster_0</title>
<polygon fill="none" stroke="blue" points="3396,-774.998 3106,-774.998 3106,-696.998 3396,-696.998 3396,-774.998"/>
<text text-anchor="middle" x="3251" y="-732.398" font-family="Times Roman,serif" font-size="14.00"> </text>
</g>
<!-- cluster_1 -->
<g id="node2" class="node"><title>cluster_1</title>
<polygon fill="none" stroke="blue" points="3626,-661 2876,-661 2876,-583 3626,-583 3626,-661"/>
<text text-anchor="middle" x="3251" y="-618.4" font-family="Times Roman,serif" font-size="14.00"> </text>
</g>
<!-- cluster_2 -->
<g id="node3" class="node"><title>cluster_2</title>
<polygon fill="none" stroke="blue" points="4448,-547 2054,-547 2054,-309 4448,-309 4448,-547"/>
<text text-anchor="middle" x="3251" y="-424.4" font-family="Times Roman,serif" font-size="14.00"> </text>
</g>
<!-- cluster_3 -->
<g id="node4" class="node"><title>cluster_3</title>
<polygon fill="none" stroke="blue" points="991,-233 1,-233 1,-155 991,-155 991,-233"/>
<text text-anchor="middle" x="496" y="-190.4" font-family="Times Roman,serif" font-size="14.00"> </text>
</g>
<!-- cluster_4 -->
<g id="node5" class="node"><title>cluster_4</title>
<polygon fill="none" stroke="blue" points="1941,-233 1009,-233 1009,-155 1941,-155 1941,-233"/>
<text text-anchor="middle" x="1475" y="-190.4" font-family="Times Roman,serif" font-size="14.00"> </text>
</g>
<!-- cluster_5 -->
<g id="node6" class="node"><title>cluster_5</title>
<polygon fill="none" stroke="blue" points="3143,-233 1959,-233 1959,-155 3143,-155 3143,-233"/>
<text text-anchor="middle" x="2551" y="-190.4" font-family="Times Roman,serif" font-size="14.00"> </text>
</g>
<!-- cluster_6 -->
<g id="node7" class="node"><title>cluster_6</title>
<polygon fill="none" stroke="blue" points="4743,-273 3161,-273 3161,-115 4743,-115 4743,-273"/>
<text text-anchor="middle" x="3952" y="-190.4" font-family="Times Roman,serif" font-size="14.00"> </text>
</g>
<!-- cluster_7 -->
<g id="node8" class="node"><title>cluster_7</title>
<polygon fill="none" stroke="blue" points="5805,-233 4761,-233 4761,-155 5805,-155 5805,-233"/>
<text text-anchor="middle" x="5283" y="-190.4" font-family="Times Roman,serif" font-size="14.00"> </text>
</g>
<!-- cluster_8 -->
<g id="node9" class="node"><title>cluster_8</title>
<polygon fill="none" stroke="blue" points="5911,-79 4655,-79 4655,-1.00002 5911,-1.00002 5911,-79"/>
<text text-anchor="middle" x="5283" y="-36.4" font-family="Times Roman,serif" font-size="14.00"> </text>
</g>
<!-- cluster_9 -->
<g id="node10" class="node"><title>cluster_9</title>
<polygon fill="none" stroke="blue" points="7059,-233 5823,-233 5823,-155 7059,-155 7059,-233"/>
<text text-anchor="middle" x="6441" y="-190.4" font-family="Times Roman,serif" font-size="14.00"> </text>
</g>
<!-- node_1696 -->
<g id="node11" class="node"><title>node_1696</title>
<ellipse fill="#c1cdcd" stroke="black" cx="3251" cy="-735.998" rx="137.179" ry="31.1127"/>
<ellipse fill="none" stroke="black" cx="3251" cy="-735.998" rx="141.179" ry="35.1127"/>
<text text-anchor="middle" x="3251" y="-741.398" font-family="Times Roman,serif" font-size="14.00">HandleSurface</text>
<text text-anchor="middle" x="3251" y="-723.398" font-family="Times Roman,serif" font-size="14.00">(ASSEMBLY_SURFACE_1 )</text>
</g>
<!-- node_1697 -->
<g id="node12" class="node"><title>node_1697</title>
<ellipse fill="#c1cdcd" stroke="black" cx="3251" cy="-622" rx="367" ry="31.1127"/>
<ellipse fill="none" stroke="black" cx="3251" cy="-622" rx="371" ry="35.1127"/>
<text text-anchor="middle" x="3251" y="-627.4" font-family="Times Roman,serif" font-size="14.00">AssembleOneBracket</text>
<text text-anchor="middle" x="3251" y="-609.4" font-family="Times Roman,serif" font-size="14.00">(HERAKLES_HUMAN1 PR2_ROBOT BRACKET_1 ASSEMBLY_SURFACE_1 )</text>
</g>
<!-- node_1698 -->
<g id="node13" class="node"><title>node_1698</title>
<ellipse fill="#c1cdcd" stroke="black" cx="2325" cy="-508" rx="242" ry="31.1127"/>
<text text-anchor="middle" x="2325" y="-513.4" font-family="Times Roman,serif" font-size="14.00">CleanSurface</text>
<text text-anchor="middle" x="2325" y="-495.4" font-family="Times Roman,serif" font-size="14.00">(HERAKLES_HUMAN1 ASSEMBLY_SURFACE_1 )</text>
</g>
<!-- node_1699 -->
<g id="node14" class="node"><title>node_1699</title>
<ellipse fill="#c1cdcd" stroke="black" cx="2325" cy="-428" rx="261.837" ry="31.1127"/>
<text text-anchor="middle" x="2325" y="-433.4" font-family="Times Roman,serif" font-size="14.00">Bring</text>
<text text-anchor="middle" x="2325" y="-415.4" font-family="Times Roman,serif" font-size="14.00">(PR2_ROBOT GLUE_BOTTLE WORK_LOCATION_1 )</text>
</g>
<!-- node_1700 -->
<g id="node15" class="node"><title>node_1700</title>
<ellipse fill="#c1cdcd" stroke="black" cx="2887" cy="-428" rx="263.044" ry="31.1127"/>
<ellipse fill="none" stroke="black" cx="2887" cy="-428" rx="267.044" ry="35.1127"/>
<text text-anchor="middle" x="2887" y="-433.4" font-family="Times Roman,serif" font-size="14.00">GiveGlue</text>
<text text-anchor="middle" x="2887" y="-415.4" font-family="Times Roman,serif" font-size="14.00">(PR2_ROBOT HERAKLES_HUMAN1 GLUE_BOTTLE )</text>
</g>
<!-- node_1701 -->
<g id="node16" class="node"><title>node_1701</title>
<ellipse fill="#c1cdcd" stroke="black" cx="3492" cy="-413.001" rx="306.177" ry="31.1127"/>
<ellipse fill="none" stroke="black" cx="3492" cy="-413.001" rx="310.177" ry="35.1127"/>
<text text-anchor="middle" x="3492" y="-418.401" font-family="Times Roman,serif" font-size="14.00">ApplyGlue</text>
<text text-anchor="middle" x="3492" y="-400.401" font-family="Times Roman,serif" font-size="14.00">(HERAKLES_HUMAN1 PR2_ROBOT ASSEMBLY_SURFACE_1 )</text>
</g>
<!-- node_1702 -->
<g id="node17" class="node"><title>node_1702</title>
<ellipse fill="#c1cdcd" stroke="black" cx="2325" cy="-348" rx="261.837" ry="31.1127"/>
<text text-anchor="middle" x="2325" y="-353.4" font-family="Times Roman,serif" font-size="14.00">PrepareBracket</text>
<text text-anchor="middle" x="2325" y="-335.4" font-family="Times Roman,serif" font-size="14.00">(PR2_ROBOT BRACKET_1 ASSEMBLY_SURFACE_1 )</text>
</g>
<!-- node_1703 -->
<g id="node18" class="node"><title>node_1703</title>
<ellipse fill="#c1cdcd" stroke="black" cx="4137" cy="-380" rx="302.141" ry="31.1127"/>
<text text-anchor="middle" x="4137" y="-385.4" font-family="Times Roman,serif" font-size="14.00">PlaceBracket</text>
<text text-anchor="middle" x="4137" y="-367.4" font-family="Times Roman,serif" font-size="14.00">(HERAKLES_HUMAN1 BRACKET_1 ASSEMBLY_SURFACE_1 )</text>
</g>
<!-- node_1704 -->
<g id="node19" class="node"><title>node_1704</title>
<ellipse fill="#ffffcc" stroke="black" cx="236" cy="-194" rx="227" ry="31.1127"/>
<text text-anchor="middle" x="236" y="-199.4" font-family="Times Roman,serif" font-size="14.00">TravelTo</text>
<text text-anchor="middle" x="236" y="-181.4" font-family="Times Roman,serif" font-size="14.00">(HERAKLES_HUMAN1 WORK_LOCATION_1 )</text>
</g>
<!-- node_1705 -->
<g id="node20" class="node"><title>node_1705</title>
<ellipse fill="#ffffcc" stroke="black" cx="741.002" cy="-194" rx="242" ry="31.1127"/>
<text text-anchor="middle" x="741.002" y="-199.4" font-family="Times Roman,serif" font-size="14.00">Clean</text>
<text text-anchor="middle" x="741.002" y="-181.4" font-family="Times Roman,serif" font-size="14.00">(HERAKLES_HUMAN1 ASSEMBLY_SURFACE_1 )</text>
</g>
<!-- node_1706 -->
<g id="node21" class="node"><title>node_1706</title>
<ellipse fill="#cce6ff" stroke="black" cx="1270" cy="-194" rx="251.937" ry="31.1127"/>
<text text-anchor="middle" x="1270" y="-199.4" font-family="Times Roman,serif" font-size="14.00">Pick</text>
<text text-anchor="middle" x="1270" y="-181.4" font-family="Times Roman,serif" font-size="14.00">(PR2_ROBOT GLUE_BOTTLE PLACEMENT_ST_4 )</text>
</g>
<!-- node_1707 -->
<g id="node22" class="node"><title>node_1707</title>
<ellipse fill="#cce6ff" stroke="black" cx="1746" cy="-194" rx="186.176" ry="31.1127"/>
<text text-anchor="middle" x="1746" y="-199.4" font-family="Times Roman,serif" font-size="14.00">TravelTo</text>
<text text-anchor="middle" x="1746" y="-181.4" font-family="Times Roman,serif" font-size="14.00">(PR2_ROBOT WORK_LOCATION_1 )</text>
</g>
<!-- node_1708 -->
<g id="node23" class="node"><title>node_1708</title>
<ellipse fill="#cce6ff" stroke="black" cx="2230" cy="-194" rx="261.837" ry="31.1127"/>
<text text-anchor="middle" x="2230" y="-199.4" font-family="Times Roman,serif" font-size="14.00">Place</text>
<text text-anchor="middle" x="2230" y="-181.4" font-family="Times Roman,serif" font-size="14.00">(PR2_ROBOT GLUE_BOTTLE PLACEMENT_WL1_1 )</text>
</g>
<!-- node_1709 -->
<g id="node24" class="node"><title>node_1709</title>
<ellipse fill="#ffffcc" stroke="black" cx="2832" cy="-194" rx="302.141" ry="31.1127"/>
<text text-anchor="middle" x="2832" y="-199.4" font-family="Times Roman,serif" font-size="14.00">Pick</text>
<text text-anchor="middle" x="2832" y="-181.4" font-family="Times Roman,serif" font-size="14.00">(HERAKLES_HUMAN1 GLUE_BOTTLE PLACEMENT_WL1_1 )</text>
</g>
<!-- node_1719 -->
<g id="node25" class="node"><title>node_1719</title>
<ellipse fill="#cce6ff" stroke="black" cx="3371" cy="-194" rx="201.025" ry="31.1127"/>
<text text-anchor="middle" x="3371" y="-199.4" font-family="Times Roman,serif" font-size="14.00">StartPointing</text>
<text text-anchor="middle" x="3371" y="-181.4" font-family="Times Roman,serif" font-size="14.00">(PR2_ROBOT ASSEMBLY_SURFACE_1 )</text>
</g>
<!-- node_1720 -->
<g id="node26" class="node"><title>node_1720</title>
<ellipse fill="#ffffcc" stroke="black" cx="3851" cy="-194" rx="242" ry="31.1127"/>
<text text-anchor="middle" x="3851" y="-199.4" font-family="Times Roman,serif" font-size="14.00">Glue</text>
<text text-anchor="middle" x="3851" y="-181.4" font-family="Times Roman,serif" font-size="14.00">(HERAKLES_HUMAN1 ASSEMBLY_SURFACE_1 )</text>
</g>
<!-- node_1721 -->
<g id="node27" class="node"><title>node_1721</title>
<ellipse fill="#cce6ff" stroke="black" cx="4432" cy="-154" rx="201.025" ry="31.1127"/>
<text text-anchor="middle" x="4432" y="-159.4" font-family="Times Roman,serif" font-size="14.00">StopPointing</text>
<text text-anchor="middle" x="4432" y="-141.4" font-family="Times Roman,serif" font-size="14.00">(PR2_ROBOT ASSEMBLY_SURFACE_1 )</text>
</g>
<!-- node_1722 -->
<g id="node28" class="node"><title>node_1722</title>
<ellipse fill="#ffffcc" stroke="black" cx="4432" cy="-234.001" rx="302.141" ry="31.1127"/>
<text text-anchor="middle" x="4432" y="-239.401" font-family="Times Roman,serif" font-size="14.00">Place</text>
<text text-anchor="middle" x="4432" y="-221.401" font-family="Times Roman,serif" font-size="14.00">(HERAKLES_HUMAN1 GLUE_BOTTLE PLACEMENT_WL1_1 )</text>
</g>
<!-- node_1755 -->
<g id="node29" class="node"><title>node_1755</title>
<ellipse fill="#c1cdcd" stroke="black" cx="5017" cy="-194" rx="246.987" ry="31.1127"/>
<text text-anchor="middle" x="5017" y="-199.4" font-family="Times Roman,serif" font-size="14.00">Bring</text>
<text text-anchor="middle" x="5017" y="-181.4" font-family="Times Roman,serif" font-size="14.00">(PR2_ROBOT BRACKET_1 WORK_LOCATION_1 )</text>
</g>
<!-- node_1756 -->
<g id="node30" class="node"><title>node_1756</title>
<ellipse fill="#cce6ff" stroke="black" cx="5549" cy="-194" rx="248.194" ry="31.1127"/>
<text text-anchor="middle" x="5549" y="-199.4" font-family="Times Roman,serif" font-size="14.00">Place</text>
<text text-anchor="middle" x="5549" y="-181.4" font-family="Times Roman,serif" font-size="14.00">(PR2_ROBOT BRACKET_1 PLACEMENT_WL1_2 )</text>
</g>
<!-- node_1760 -->
<g id="node31" class="node"><title>node_1760</title>
<ellipse fill="#cce6ff" stroke="black" cx="4821" cy="-40" rx="157.184" ry="31.1127"/>
<text text-anchor="middle" x="4821" y="-45.4" font-family="Times Roman,serif" font-size="14.00">TravelTo</text>
<text text-anchor="middle" x="4821" y="-27.4" font-family="Times Roman,serif" font-size="14.00">(PR2_ROBOT STOCK_TABLE )</text>
</g>
<!-- node_1761 -->
<g id="node32" class="node"><title>node_1761</title>
<ellipse fill="#cce6ff" stroke="black" cx="5254" cy="-40" rx="237.795" ry="31.1127"/>
<text text-anchor="middle" x="5254" y="-45.4" font-family="Times Roman,serif" font-size="14.00">Pick</text>
<text text-anchor="middle" x="5254" y="-27.4" font-family="Times Roman,serif" font-size="14.00">(PR2_ROBOT BRACKET_1 PLACEMENT_ST_1 )</text>
</g>
<!-- node_1762 -->
<g id="node33" class="node"><title>node_1762</title>
<ellipse fill="#cce6ff" stroke="black" cx="5716" cy="-40" rx="186.176" ry="31.1127"/>
<text text-anchor="middle" x="5716" y="-45.4" font-family="Times Roman,serif" font-size="14.00">TravelTo</text>
<text text-anchor="middle" x="5716" y="-27.4" font-family="Times Roman,serif" font-size="14.00">(PR2_ROBOT WORK_LOCATION_1 )</text>
</g>
<!-- node_1763 -->
<g id="node34" class="node"><title>node_1763</title>
<ellipse fill="#ffffcc" stroke="black" cx="6120" cy="-194" rx="288" ry="31.1127"/>
<text text-anchor="middle" x="6120" y="-199.4" font-family="Times Roman,serif" font-size="14.00">Pick</text>
<text text-anchor="middle" x="6120" y="-181.4" font-family="Times Roman,serif" font-size="14.00">(HERAKLES_HUMAN1 BRACKET_1 PLACEMENT_WL1_2 )</text>
</g>
<!-- node_1764 -->
<g id="node35" class="node"><title>node_1764</title>
<ellipse fill="#ffffcc" stroke="black" cx="6748" cy="-194" rx="302.141" ry="31.1127"/>
<text text-anchor="middle" x="6748" y="-199.4" font-family="Times Roman,serif" font-size="14.00">AttachBracket</text>
<text text-anchor="middle" x="6748" y="-181.4" font-family="Times Roman,serif" font-size="14.00">(HERAKLES_HUMAN1 BRACKET_1 ASSEMBLY_SURFACE_1 )</text>
</g>
<!-- node_1696&#45;&gt;cluster_1 -->
<g id="edge16" class="edge"><title>node_1696&#45;&gt;cluster_1</title>
<path fill="none" stroke="black" stroke-width="2" d="M3251,-700.864C3251,-691.542 3251,-681.3 3251,-671.372"/>
<polygon fill="black" stroke="black" points="3254.5,-671.192 3251,-661.192 3247.5,-671.192 3254.5,-671.192"/>
</g>
<!-- node_1697&#45;&gt;cluster_2 -->
<g id="edge17" class="edge"><title>node_1697&#45;&gt;cluster_2</title>
<path fill="none" stroke="black" stroke-width="2" d="M3251,-586.868C3251,-577.923 3251,-567.773 3251,-557.033"/>
<polygon fill="black" stroke="black" points="3254.5,-557.022 3251,-547.022 3247.5,-557.022 3254.5,-557.022"/>
</g>
<!-- node_1698&#45;&gt;cluster_3 -->
<g id="edge18" class="edge"><title>node_1698&#45;&gt;cluster_3</title>
<path fill="none" stroke="black" stroke-width="2" d="M2179.95,-483.099C1865.29,-429.078 1117.45,-300.69 733.075,-234.701"/>
<polygon fill="black" stroke="black" points="733.666,-231.251 723.218,-233.009 732.482,-238.15 733.666,-231.251"/>
</g>
<!-- node_1698&#45;&gt;node_1700 -->
<g id="edge1" class="edge"><title>node_1698&#45;&gt;node_1700</title>
<path fill="none" stroke="#9a32cd" d="M2487.18,-484.915C2552.38,-475.633 2628.05,-464.862 2695.9,-455.203"/>
<polygon fill="#9a32cd" stroke="#9a32cd" points="2705.85,-453.786 2696.59,-459.651 2700.9,-454.491 2695.95,-455.196 2695.95,-455.196 2695.95,-455.196 2700.9,-454.491 2695.32,-450.741 2705.85,-453.786 2705.85,-453.786"/>
</g>
<!-- node_1699&#45;&gt;cluster_4 -->
<g id="edge19" class="edge"><title>node_1699&#45;&gt;cluster_4</title>
<path fill="none" stroke="black" stroke-width="2" d="M2221.2,-399.424C2072.51,-358.492 1797.97,-282.912 1626.56,-235.724"/>
<polygon fill="black" stroke="black" points="1627.27,-232.288 1616.7,-233.009 1625.41,-239.037 1627.27,-232.288"/>
</g>
<!-- node_1699&#45;&gt;node_1700 -->
<g id="edge2" class="edge"><title>node_1699&#45;&gt;node_1700</title>
<path fill="none" stroke="#9a32cd" d="M2587.08,-428C2594.55,-428 2602.05,-428 2609.54,-428"/>
<polygon fill="#9a32cd" stroke="#9a32cd" points="2619.75,-428 2609.75,-432.5 2614.75,-428 2609.75,-428 2609.75,-428 2609.75,-428 2614.75,-428 2609.75,-423.5 2619.75,-428 2619.75,-428"/>
</g>
<!-- node_1700&#45;&gt;cluster_5 -->
<g id="edge20" class="edge"><title>node_1700&#45;&gt;cluster_5</title>
<path fill="none" stroke="black" stroke-width="2" d="M2837.42,-393.473C2778.63,-352.531 2680.49,-284.177 2615.75,-239.092"/>
<polygon fill="black" stroke="black" points="2617.44,-236.008 2607.24,-233.165 2613.44,-241.752 2617.44,-236.008"/>
</g>
<!-- node_1700&#45;&gt;node_1701 -->
<g id="edge3" class="edge"><title>node_1700&#45;&gt;node_1701</title>
<path fill="none" stroke="#9a32cd" d="M3149.72,-421.487C3159.42,-421.246 3169.18,-421.004 3178.96,-420.762"/>
<polygon fill="#9a32cd" stroke="#9a32cd" points="3189.15,-420.509 3179.26,-425.256 3184.15,-420.633 3179.15,-420.757 3179.15,-420.757 3179.15,-420.757 3184.15,-420.633 3179.04,-416.258 3189.15,-420.509 3189.15,-420.509"/>
</g>
<!-- node_1701&#45;&gt;cluster_6 -->
<g id="edge21" class="edge"><title>node_1701&#45;&gt;cluster_6</title>
<path fill="none" stroke="black" stroke-width="2" d="M3563.62,-378.902C3620.41,-351.866 3702.24,-312.909 3776.15,-277.719"/>
<polygon fill="black" stroke="black" points="3778.07,-280.684 3785.59,-273.226 3775.06,-274.364 3778.07,-280.684"/>
</g>
<!-- node_1701&#45;&gt;node_1703 -->
<g id="edge4" class="edge"><title>node_1701&#45;&gt;node_1703</title>
<path fill="none" stroke="#9a32cd" d="M3774.44,-398.55C3801.67,-397.157 3829.28,-395.744 3856.49,-394.352"/>
<polygon fill="#9a32cd" stroke="#9a32cd" points="3866.49,-393.84 3856.74,-398.845 3861.5,-394.096 3856.51,-394.351 3856.51,-394.351 3856.51,-394.351 3861.5,-394.096 3856.28,-389.857 3866.49,-393.84 3866.49,-393.84"/>
</g>
<!-- node_1702&#45;&gt;cluster_7 -->
<g id="edge22" class="edge"><title>node_1702&#45;&gt;cluster_7</title>
<path fill="none" stroke="black" stroke-width="2" d="M2564.87,-335.512C3038.31,-310.864 4102.99,-255.434 4750.43,-221.727"/>
<polygon fill="black" stroke="black" points="4751.08,-225.198 4760.88,-221.183 4750.72,-218.208 4751.08,-225.198"/>
</g>
<!-- node_1702&#45;&gt;node_1703 -->
<g id="edge5" class="edge"><title>node_1702&#45;&gt;node_1703</title>
<path fill="none" stroke="#9a32cd" d="M2584.14,-352.577C2912.83,-358.381 3478.93,-368.379 3829.25,-374.565"/>
<polygon fill="#9a32cd" stroke="#9a32cd" points="3839.29,-374.743 3829.22,-379.065 3834.3,-374.654 3829.3,-374.566 3829.3,-374.566 3829.3,-374.566 3834.3,-374.654 3829.38,-370.067 3839.29,-374.743 3839.29,-374.743"/>
</g>
<!-- node_1703&#45;&gt;cluster_9 -->
<g id="edge23" class="edge"><title>node_1703&#45;&gt;cluster_9</title>
<path fill="none" stroke="black" stroke-width="2" d="M4374.62,-360.817C4743.84,-331.011 5463.14,-272.942 5947.91,-233.807"/>
<polygon fill="black" stroke="black" points="5948.2,-237.295 5957.89,-233.001 5947.64,-230.317 5948.2,-237.295"/>
</g>
<!-- node_1704&#45;&gt;node_1705 -->
<g id="edge6" class="edge"><title>node_1704&#45;&gt;node_1705</title>
<path fill="none" stroke="#9a32cd" d="M463.018,-194C471.586,-194 480.194,-194 488.802,-194"/>
<polygon fill="#9a32cd" stroke="#9a32cd" points="498.903,-194 488.904,-198.5 493.903,-194 488.903,-194 488.903,-194 488.903,-194 493.903,-194 488.903,-189.5 498.903,-194 498.903,-194"/>
</g>
<!-- node_1706&#45;&gt;node_1707 -->
<g id="edge7" class="edge"><title>node_1706&#45;&gt;node_1707</title>
<path fill="none" stroke="#9a32cd" d="M1522.29,-194C1531.43,-194 1540.55,-194 1549.58,-194"/>
<polygon fill="#9a32cd" stroke="#9a32cd" points="1559.74,-194 1549.74,-198.5 1554.74,-194 1549.74,-194 1549.74,-194 1549.74,-194 1554.74,-194 1549.74,-189.5 1559.74,-194 1559.74,-194"/>
</g>
<!-- node_1708&#45;&gt;node_1709 -->
<g id="edge8" class="edge"><title>node_1708&#45;&gt;node_1709</title>
<path fill="none" stroke="#9a32cd" d="M2492.3,-194C2501.28,-194 2510.3,-194 2519.34,-194"/>
<polygon fill="#9a32cd" stroke="#9a32cd" points="2529.55,-194 2519.55,-198.5 2524.55,-194 2519.55,-194 2519.55,-194 2519.55,-194 2524.55,-194 2519.55,-189.5 2529.55,-194 2529.55,-194"/>
</g>
<!-- node_1719&#45;&gt;node_1720 -->
<g id="edge9" class="edge"><title>node_1719&#45;&gt;node_1720</title>
<path fill="none" stroke="#9a32cd" d="M3572.13,-194C3580.99,-194 3589.92,-194 3598.88,-194"/>
<polygon fill="#9a32cd" stroke="#9a32cd" points="3609,-194 3599,-198.5 3604,-194 3599,-194 3599,-194 3599,-194 3604,-194 3599,-189.5 3609,-194 3609,-194"/>
</g>
<!-- node_1720&#45;&gt;node_1721 -->
<g id="edge10" class="edge"><title>node_1720&#45;&gt;node_1721</title>
<path fill="none" stroke="#9a32cd" d="M4064.46,-179.304C4121.41,-175.383 4182.62,-171.169 4238.44,-167.326"/>
<polygon fill="#9a32cd" stroke="#9a32cd" points="4248.43,-166.638 4238.76,-171.815 4243.44,-166.982 4238.46,-167.325 4238.46,-167.325 4238.46,-167.325 4243.44,-166.982 4238.15,-162.836 4248.43,-166.638 4248.43,-166.638"/>
</g>
<!-- node_1720&#45;&gt;node_1722 -->
<g id="edge11" class="edge"><title>node_1720&#45;&gt;node_1722</title>
<path fill="none" stroke="#9a32cd" d="M4064.46,-208.696C4099.08,-211.08 4135.27,-213.571 4170.87,-216.022"/>
<polygon fill="#9a32cd" stroke="#9a32cd" points="4180.89,-216.712 4170.6,-220.515 4175.9,-216.369 4170.91,-216.025 4170.91,-216.025 4170.91,-216.025 4175.9,-216.369 4171.22,-211.536 4180.89,-216.712 4180.89,-216.712"/>
</g>
<!-- node_1755&#45;&gt;cluster_8 -->
<g id="edge24" class="edge"><title>node_1755&#45;&gt;cluster_8</title>
<path fill="none" stroke="black" stroke-width="2" d="M5069.55,-163.575C5108.65,-140.941 5162.6,-109.707 5206.48,-84.3035"/>
<polygon fill="black" stroke="black" points="5208.49,-87.1803 5215.39,-79.1408 5204.99,-81.1223 5208.49,-87.1803"/>
</g>
<!-- node_1755&#45;&gt;node_1756 -->
<g id="edge12" class="edge"><title>node_1755&#45;&gt;node_1756</title>
<path fill="none" stroke="#9a32cd" d="M5264.31,-194C5273.18,-194 5282.08,-194 5290.97,-194"/>
<polygon fill="#9a32cd" stroke="#9a32cd" points="5301,-194 5291,-198.5 5296,-194 5291,-194 5291,-194 5291,-194 5296,-194 5291,-189.5 5301,-194 5301,-194"/>
</g>
<!-- node_1760&#45;&gt;node_1761 -->
<g id="edge13" class="edge"><title>node_1760&#45;&gt;node_1761</title>
<path fill="none" stroke="#9a32cd" d="M4978.24,-40C4987.3,-40 4996.51,-40 5005.8,-40"/>
<polygon fill="#9a32cd" stroke="#9a32cd" points="5015.91,-40 5005.91,-44.5001 5010.91,-40.0001 5005.91,-40.0001 5005.91,-40.0001 5005.91,-40.0001 5010.91,-40.0001 5005.91,-35.5001 5015.91,-40 5015.91,-40"/>
</g>
<!-- node_1761&#45;&gt;node_1762 -->
<g id="edge14" class="edge"><title>node_1761&#45;&gt;node_1762</title>
<path fill="none" stroke="#9a32cd" d="M5492.1,-40C5501.33,-40 5510.54,-40 5519.68,-40"/>
<polygon fill="#9a32cd" stroke="#9a32cd" points="5529.96,-40 5519.96,-44.5001 5524.96,-40.0001 5519.96,-40.0001 5519.96,-40.0001 5519.96,-40.0001 5524.96,-40.0001 5519.96,-35.5001 5529.96,-40 5529.96,-40"/>
</g>
<!-- node_1763&#45;&gt;node_1764 -->
<g id="edge15" class="edge"><title>node_1763&#45;&gt;node_1764</title>
<path fill="none" stroke="#9a32cd" d="M6408.27,-194C6417.29,-194 6426.33,-194 6435.38,-194"/>
<polygon fill="#9a32cd" stroke="#9a32cd" points="6445.59,-194 6435.59,-198.5 6440.59,-194 6435.59,-194 6435.59,-194 6435.59,-194 6440.59,-194 6435.59,-189.5 6445.59,-194 6445.59,-194"/>
</g>
</g>
</svg>
