<?xml version="1.0" encoding="UTF-8" standalone="no"?>
<!DOCTYPE svg PUBLIC "-//W3C//DTD SVG 1.1//EN"
 "http://www.w3.org/Graphics/SVG/1.1/DTD/svg11.dtd">
<!-- Generated by graphviz version 2.26.3 (20100126.1600)
 -->
<!-- Title: final_graph Pages: 1 -->
<svg width="5011pt" height="772pt"
 viewBox="0.00 0.00 5011.00 772.00" xmlns="http://www.w3.org/2000/svg" xmlns:xlink="http://www.w3.org/1999/xlink">
<g id="graph1" class="graph" transform="scale(1 1) rotate(0) translate(4 768)">
<title>final_graph</title>
<polygon fill="white" stroke="white" points="-4,5 -4,-768 5008,-768 5008,5 -4,5"/>
<!-- cluster_0 -->
<g id="node1" class="node"><title>cluster_0</title>
<polygon fill="none" stroke="blue" points="1571,-307 1.0016,-307 1.0016,-229 1571,-229 1571,-307"/>
<text text-anchor="middle" x="786.002" y="-264.4" font-family="Times Roman,serif" font-size="14.00"> </text>
</g>
<!-- cluster_1 -->
<g id="node2" class="node"><title>cluster_1</title>
<polygon fill="none" stroke="blue" points="2087,-307 1589,-307 1589,-229 2087,-229 2087,-307"/>
<text text-anchor="middle" x="1838" y="-264.4" font-family="Times Roman,serif" font-size="14.00"> </text>
</g>
<!-- cluster_2 -->
<g id="node3" class="node"><title>cluster_2</title>
<polygon fill="none" stroke="blue" points="2542,-193 907.997,-193 907.997,-115 2542,-115 2542,-193"/>
<text text-anchor="middle" x="1725" y="-150.4" font-family="Times Roman,serif" font-size="14.00"> </text>
</g>
<!-- cluster_3 -->
<g id="node4" class="node"><title>cluster_3</title>
<polygon fill="none" stroke="blue" points="2598,-763.002 2438,-763.002 2438,-685.002 2598,-685.002 2598,-763.002"/>
<text text-anchor="middle" x="2518" y="-720.402" font-family="Times Roman,serif" font-size="14.00"> </text>
</g>
<!-- cluster_4 -->
<g id="node5" class="node"><title>cluster_4</title>
<polygon fill="none" stroke="blue" points="3175,-535 2701,-535 2701,-457 3175,-457 3175,-535"/>
<text text-anchor="middle" x="2938" y="-492.4" font-family="Times Roman,serif" font-size="14.00"> </text>
</g>
<!-- cluster_5 -->
<g id="node6" class="node"><title>cluster_5</title>
<polygon fill="none" stroke="blue" points="3500,-421 2638,-421 2638,-343 3500,-343 3500,-421"/>
<text text-anchor="middle" x="3069" y="-378.4" font-family="Times Roman,serif" font-size="14.00"> </text>
</g>
<!-- cluster_6 -->
<g id="node7" class="node"><title>cluster_6</title>
<polygon fill="none" stroke="blue" points="3915,-307 2675,-307 2675,-229 3915,-229 3915,-307"/>
<text text-anchor="middle" x="3295" y="-264.4" font-family="Times Roman,serif" font-size="14.00"> </text>
</g>
<!-- cluster_7 -->
<g id="node8" class="node"><title>cluster_7</title>
<polygon fill="none" stroke="blue" points="2857,-649 2179,-649 2179,-571 2857,-571 2857,-649"/>
<text text-anchor="middle" x="2518" y="-606.4" font-family="Times Roman,serif" font-size="14.00"> </text>
</g>
<!-- cluster_8 -->
<g id="node9" class="node"><title>cluster_8</title>
<polygon fill="none" stroke="blue" points="4030,-193 2560,-193 2560,-115 4030,-115 4030,-193"/>
<text text-anchor="middle" x="3295" y="-150.4" font-family="Times Roman,serif" font-size="14.00"> </text>
</g>
<!-- cluster_9 -->
<g id="node10" class="node"><title>cluster_9</title>
<polygon fill="none" stroke="blue" points="4478,-193 4048,-193 4048,-115 4478,-115 4478,-193"/>
<text text-anchor="middle" x="4263" y="-150.4" font-family="Times Roman,serif" font-size="14.00"> </text>
</g>
<!-- cluster_10 -->
<g id="node11" class="node"><title>cluster_10</title>
<polygon fill="none" stroke="blue" points="5002,-79 3524,-79 3524,-1.00002 5002,-1.00002 5002,-79"/>
<text text-anchor="middle" x="4263" y="-36.4" font-family="Times Roman,serif" font-size="14.00"> </text>
</g>
<!-- cluster_11 -->
<g id="node12" class="node"><title>cluster_11</title>
<polygon fill="none" stroke="blue" points="2553,-535 1643,-535 1643,-457 2553,-457 2553,-535"/>
<text text-anchor="middle" x="2098" y="-492.4" font-family="Times Roman,serif" font-size="14.00"> </text>
</g>
<!-- cluster_12 -->
<g id="node13" class="node"><title>cluster_12</title>
<polygon fill="none" stroke="blue" points="2507,-421 1169,-421 1169,-343 2507,-343 2507,-421"/>
<text text-anchor="middle" x="1838" y="-378.4" font-family="Times Roman,serif" font-size="14.00"> </text>
</g>
<!-- node_2 -->
<g id="node14" class="node"><title>node_2</title>
<ellipse fill="#c1cdcd" stroke="black" cx="2518" cy="-724.002" rx="72.1249" ry="31.1127"/>
<text text-anchor="middle" x="2518" y="-729.402" font-family="Times Roman,serif" font-size="14.00">BuildStack</text>
<text text-anchor="middle" x="2518" y="-711.402" font-family="Times Roman,serif" font-size="14.00">(StackArea )</text>
</g>
<!-- node_3 -->
<g id="node15" class="node"><title>node_3</title>
<ellipse fill="#c1cdcd" stroke="black" cx="2428" cy="-610" rx="239.916" ry="31.1127"/>
<text text-anchor="middle" x="2428" y="-615.4" font-family="Times Roman,serif" font-size="14.00">Handle</text>
<text text-anchor="middle" x="2428" y="-597.4" font-family="Times Roman,serif" font-size="14.00">(HERAKLES_HUMAN1 Green_Cube StackArea )</text>
</g>
<!-- node_4 -->
<g id="node16" class="node"><title>node_4</title>
<ellipse fill="#c1cdcd" stroke="black" cx="2777" cy="-610" rx="72.1249" ry="31.1127"/>
<text text-anchor="middle" x="2777" y="-615.4" font-family="Times Roman,serif" font-size="14.00">BuildStack</text>
<text text-anchor="middle" x="2777" y="-597.4" font-family="Times Roman,serif" font-size="14.00">(StackArea )</text>
</g>
<!-- node_5 -->
<g id="node17" class="node"><title>node_5</title>
<ellipse fill="#c1cdcd" stroke="black" cx="1839" cy="-496" rx="186.884" ry="31.1127"/>
<text text-anchor="middle" x="1839" y="-501.4" font-family="Times Roman,serif" font-size="14.00">ApplyFirstOperations</text>
<text text-anchor="middle" x="1839" y="-483.4" font-family="Times Roman,serif" font-size="14.00">(HERAKLES_HUMAN1 Green_Cube )</text>
</g>
<!-- node_7 -->
<g id="node18" class="node"><title>node_7</title>
<ellipse fill="#ffffcc" stroke="black" cx="2304" cy="-496" rx="239.916" ry="31.1127"/>
<text text-anchor="middle" x="2304" y="-501.4" font-family="Times Roman,serif" font-size="14.00">PlaceOnStack</text>
<text text-anchor="middle" x="2304" y="-483.4" font-family="Times Roman,serif" font-size="14.00">(HERAKLES_HUMAN1 Green_Cube StackArea )</text>
</g>
<!-- node_8 -->
<g id="node19" class="node"><title>node_8</title>
<ellipse fill="#ffffcc" stroke="black" cx="1365" cy="-382" rx="186.884" ry="31.1127"/>
<text text-anchor="middle" x="1365" y="-387.4" font-family="Times Roman,serif" font-size="14.00">Pick</text>
<text text-anchor="middle" x="1365" y="-369.4" font-family="Times Roman,serif" font-size="14.00">(HERAKLES_HUMAN1 Green_Cube )</text>
</g>
<!-- node_9 -->
<g id="node20" class="node"><title>node_9</title>
<ellipse fill="#c1cdcd" stroke="black" cx="1838" cy="-382" rx="249" ry="31.1127"/>
<text text-anchor="middle" x="1838" y="-387.4" font-family="Times Roman,serif" font-size="14.00">ApplyOperation</text>
<text text-anchor="middle" x="1838" y="-369.4" font-family="Times Roman,serif" font-size="14.00">(HERAKLES_HUMAN1 Green_Cube Glue_Green )</text>
</g>
<!-- node_10 -->
<g id="node21" class="node"><title>node_10</title>
<ellipse fill="#c1cdcd" stroke="black" cx="2311" cy="-382" rx="186.884" ry="31.1127"/>
<text text-anchor="middle" x="2311" y="-387.4" font-family="Times Roman,serif" font-size="14.00">ApplyFirstOperations</text>
<text text-anchor="middle" x="2311" y="-369.4" font-family="Times Roman,serif" font-size="14.00">(HERAKLES_HUMAN1 Green_Cube )</text>
</g>
<!-- node_14 -->
<g id="node22" class="node"><title>node_14</title>
<ellipse fill="#ffffcc" stroke="black" cx="255.002" cy="-268" rx="244.866" ry="31.1127"/>
<text text-anchor="middle" x="255.002" y="-273.4" font-family="Times Roman,serif" font-size="14.00">Place</text>
<text text-anchor="middle" x="255.002" y="-255.4" font-family="Times Roman,serif" font-size="14.00">(HERAKLES_HUMAN1 Green_Cube GluingArea )</text>
</g>
<!-- node_15 -->
<g id="node23" class="node"><title>node_15</title>
<ellipse fill="#ffffcc" stroke="black" cx="844.005" cy="-268" rx="307" ry="31.1127"/>
<text text-anchor="middle" x="844.005" y="-273.4" font-family="Times Roman,serif" font-size="14.00">Apply</text>
<text text-anchor="middle" x="844.005" y="-255.4" font-family="Times Roman,serif" font-size="14.00">(HERAKLES_HUMAN1 Green_Cube Glue_Green GluingArea )</text>
</g>
<!-- node_16 -->
<g id="node24" class="node"><title>node_16</title>
<ellipse fill="#ffffcc" stroke="black" cx="1375" cy="-268" rx="186.884" ry="31.1127"/>
<text text-anchor="middle" x="1375" y="-273.4" font-family="Times Roman,serif" font-size="14.00">Pick</text>
<text text-anchor="middle" x="1375" y="-255.4" font-family="Times Roman,serif" font-size="14.00">(HERAKLES_HUMAN1 Green_Cube )</text>
</g>
<!-- node_17 -->
<g id="node25" class="node"><title>node_17</title>
<ellipse fill="#c1cdcd" stroke="black" cx="1838" cy="-268" rx="239.916" ry="31.1127"/>
<text text-anchor="middle" x="1838" y="-273.4" font-family="Times Roman,serif" font-size="14.00">ApplyOperation</text>
<text text-anchor="middle" x="1838" y="-255.4" font-family="Times Roman,serif" font-size="14.00">(HERAKLES_HUMAN1 Green_Cube Smoothen )</text>
</g>
<!-- node_19 -->
<g id="node26" class="node"><title>node_19</title>
<ellipse fill="#ffffcc" stroke="black" cx="1181.99" cy="-154" rx="266" ry="31.1127"/>
<text text-anchor="middle" x="1181.99" y="-159.4" font-family="Times Roman,serif" font-size="14.00">Place</text>
<text text-anchor="middle" x="1181.99" y="-141.4" font-family="Times Roman,serif" font-size="14.00">(HERAKLES_HUMAN1 Green_Cube SmoothingArea )</text>
</g>
<!-- node_20 -->
<g id="node27" class="node"><title>node_20</title>
<ellipse fill="#ffffcc" stroke="black" cx="1802.99" cy="-154" rx="319" ry="31.1127"/>
<text text-anchor="middle" x="1802.99" y="-159.4" font-family="Times Roman,serif" font-size="14.00">Apply</text>
<text text-anchor="middle" x="1802.99" y="-141.4" font-family="Times Roman,serif" font-size="14.00">(HERAKLES_HUMAN1 Green_Cube Smoothen SmoothingArea )</text>
</g>
<!-- node_21 -->
<g id="node28" class="node"><title>node_21</title>
<ellipse fill="#ffffcc" stroke="black" cx="2346" cy="-154" rx="186.884" ry="31.1127"/>
<text text-anchor="middle" x="2346" y="-159.4" font-family="Times Roman,serif" font-size="14.00">Pick</text>
<text text-anchor="middle" x="2346" y="-141.4" font-family="Times Roman,serif" font-size="14.00">(HERAKLES_HUMAN1 Green_Cube )</text>
</g>
<!-- node_22 -->
<g id="node29" class="node"><title>node_22</title>
<ellipse fill="#c1cdcd" stroke="black" cx="2938" cy="-496" rx="227.896" ry="31.1127"/>
<text text-anchor="middle" x="2938" y="-501.4" font-family="Times Roman,serif" font-size="14.00">Handle</text>
<text text-anchor="middle" x="2938" y="-483.4" font-family="Times Roman,serif" font-size="14.00">(HERAKLES_HUMAN1 Red_Cube StackArea )</text>
</g>
<!-- node_24 -->
<g id="node30" class="node"><title>node_24</title>
<ellipse fill="#c1cdcd" stroke="black" cx="2822" cy="-382" rx="174.863" ry="31.1127"/>
<text text-anchor="middle" x="2822" y="-387.4" font-family="Times Roman,serif" font-size="14.00">ApplyFirstOperations</text>
<text text-anchor="middle" x="2822" y="-369.4" font-family="Times Roman,serif" font-size="14.00">(HERAKLES_HUMAN1 Red_Cube )</text>
</g>
<!-- node_26 -->
<g id="node31" class="node"><title>node_26</title>
<ellipse fill="#ffffcc" stroke="black" cx="3263" cy="-382" rx="227.896" ry="31.1127"/>
<text text-anchor="middle" x="3263" y="-387.4" font-family="Times Roman,serif" font-size="14.00">PlaceOnStack</text>
<text text-anchor="middle" x="3263" y="-369.4" font-family="Times Roman,serif" font-size="14.00">(HERAKLES_HUMAN1 Red_Cube StackArea )</text>
</g>
<!-- node_27 -->
<g id="node32" class="node"><title>node_27</title>
<ellipse fill="#ffffcc" stroke="black" cx="2859" cy="-268" rx="174.863" ry="31.1127"/>
<text text-anchor="middle" x="2859" y="-273.4" font-family="Times Roman,serif" font-size="14.00">Pick</text>
<text text-anchor="middle" x="2859" y="-255.4" font-family="Times Roman,serif" font-size="14.00">(HERAKLES_HUMAN1 Red_Cube )</text>
</g>
<!-- node_28 -->
<g id="node33" class="node"><title>node_28</title>
<ellipse fill="#c1cdcd" stroke="black" cx="3295" cy="-268" rx="224.153" ry="31.1127"/>
<text text-anchor="middle" x="3295" y="-273.4" font-family="Times Roman,serif" font-size="14.00">ApplyOperation</text>
<text text-anchor="middle" x="3295" y="-255.4" font-family="Times Roman,serif" font-size="14.00">(HERAKLES_HUMAN1 Red_Cube Glue_Red )</text>
</g>
<!-- node_29 -->
<g id="node34" class="node"><title>node_29</title>
<ellipse fill="#c1cdcd" stroke="black" cx="3731" cy="-268" rx="174.863" ry="31.1127"/>
<text text-anchor="middle" x="3731" y="-273.4" font-family="Times Roman,serif" font-size="14.00">ApplyFirstOperations</text>
<text text-anchor="middle" x="3731" y="-255.4" font-family="Times Roman,serif" font-size="14.00">(HERAKLES_HUMAN1 Red_Cube )</text>
</g>
<!-- node_33 -->
<g id="node35" class="node"><title>node_33</title>
<ellipse fill="#ffffcc" stroke="black" cx="2801" cy="-154" rx="232.138" ry="31.1127"/>
<text text-anchor="middle" x="2801" y="-159.4" font-family="Times Roman,serif" font-size="14.00">Place</text>
<text text-anchor="middle" x="2801" y="-141.4" font-family="Times Roman,serif" font-size="14.00">(HERAKLES_HUMAN1 Red_Cube GluingArea )</text>
</g>
<!-- node_34 -->
<g id="node36" class="node"><title>node_34</title>
<ellipse fill="#ffffcc" stroke="black" cx="3352" cy="-154" rx="282.136" ry="31.1127"/>
<text text-anchor="middle" x="3352" y="-159.4" font-family="Times Roman,serif" font-size="14.00">Apply</text>
<text text-anchor="middle" x="3352" y="-141.4" font-family="Times Roman,serif" font-size="14.00">(HERAKLES_HUMAN1 Red_Cube Glue_Red GluingArea )</text>
</g>
<!-- node_35 -->
<g id="node37" class="node"><title>node_35</title>
<ellipse fill="#ffffcc" stroke="black" cx="3846" cy="-154" rx="174.863" ry="31.1127"/>
<text text-anchor="middle" x="3846" y="-159.4" font-family="Times Roman,serif" font-size="14.00">Pick</text>
<text text-anchor="middle" x="3846" y="-141.4" font-family="Times Roman,serif" font-size="14.00">(HERAKLES_HUMAN1 Red_Cube )</text>
</g>
<!-- node_36 -->
<g id="node38" class="node"><title>node_36</title>
<ellipse fill="#c1cdcd" stroke="black" cx="4263" cy="-154" rx="205.975" ry="31.1127"/>
<text text-anchor="middle" x="4263" y="-159.4" font-family="Times Roman,serif" font-size="14.00">ApplyOperation</text>
<text text-anchor="middle" x="4263" y="-141.4" font-family="Times Roman,serif" font-size="14.00">(HERAKLES_HUMAN1 Red_Cube Polish )</text>
</g>
<!-- node_38 -->
<g id="node39" class="node"><title>node_38</title>
<ellipse fill="#ffffcc" stroke="black" cx="3776" cy="-40" rx="244" ry="31.1127"/>
<text text-anchor="middle" x="3776" y="-45.4" font-family="Times Roman,serif" font-size="14.00">Place</text>
<text text-anchor="middle" x="3776" y="-27.4" font-family="Times Roman,serif" font-size="14.00">(HERAKLES_HUMAN1 Red_Cube PolishingArea )</text>
</g>
<!-- node_39 -->
<g id="node40" class="node"><title>node_39</title>
<ellipse fill="#ffffcc" stroke="black" cx="4330.99" cy="-40" rx="275.065" ry="31.1127"/>
<text text-anchor="middle" x="4330.99" y="-45.4" font-family="Times Roman,serif" font-size="14.00">Apply</text>
<text text-anchor="middle" x="4330.99" y="-27.4" font-family="Times Roman,serif" font-size="14.00">(HERAKLES_HUMAN1 Red_Cube Polish PolishingArea )</text>
</g>
<!-- node_40 -->
<g id="node41" class="node"><title>node_40</title>
<ellipse fill="#ffffcc" stroke="black" cx="4817.99" cy="-40" rx="174.863" ry="31.1127"/>
<text text-anchor="middle" x="4817.99" y="-45.4" font-family="Times Roman,serif" font-size="14.00">Pick</text>
<text text-anchor="middle" x="4817.99" y="-27.4" font-family="Times Roman,serif" font-size="14.00">(HERAKLES_HUMAN1 Red_Cube )</text>
</g>
<!-- node_2&#45;&gt;cluster_7 -->
<g id="edge16" class="edge"><title>node_2&#45;&gt;cluster_7</title>
<path fill="none" stroke="black" stroke-width="2" d="M2518,-692.851C2518,-682.554 2518,-670.829 2518,-659.506"/>
<polygon fill="black" stroke="black" points="2521.5,-659.273 2518,-649.273 2514.5,-659.273 2521.5,-659.273"/>
</g>
<!-- node_3&#45;&gt;cluster_11 -->
<g id="edge17" class="edge"><title>node_3&#45;&gt;cluster_11</title>
<path fill="none" stroke="black" stroke-width="2" d="M2343.87,-580.938C2306.4,-567.994 2261.54,-552.497 2220.46,-538.304"/>
<polygon fill="black" stroke="black" points="2221.53,-534.97 2210.93,-535.013 2219.24,-541.586 2221.53,-534.97"/>
</g>
<!-- node_3&#45;&gt;node_4 -->
<g id="edge1" class="edge"><title>node_3&#45;&gt;node_4</title>
<path fill="none" stroke="#9a32cd" d="M2668.01,-610C2677.19,-610 2686.09,-610 2694.58,-610"/>
<polygon fill="#9a32cd" stroke="#9a32cd" points="2704.73,-610 2694.73,-614.5 2699.73,-610 2694.73,-610 2694.73,-610 2694.73,-610 2699.73,-610 2694.73,-605.5 2704.73,-610 2704.73,-610"/>
</g>
<!-- node_4&#45;&gt;cluster_4 -->
<g id="edge18" class="edge"><title>node_4&#45;&gt;cluster_4</title>
<path fill="none" stroke="black" stroke-width="2" d="M2814.74,-583.272C2832.55,-570.663 2854.29,-555.269 2874.53,-540.941"/>
<polygon fill="black" stroke="black" points="2876.66,-543.724 2882.8,-535.089 2872.61,-538.011 2876.66,-543.724"/>
</g>
<!-- node_5&#45;&gt;cluster_12 -->
<g id="edge19" class="edge"><title>node_5&#45;&gt;cluster_12</title>
<path fill="none" stroke="black" stroke-width="2" d="M1838.73,-464.849C1838.64,-454.553 1838.53,-442.828 1838.44,-431.505"/>
<polygon fill="black" stroke="black" points="1841.93,-431.241 1838.35,-421.272 1834.93,-431.303 1841.93,-431.241"/>
</g>
<!-- node_5&#45;&gt;node_7 -->
<g id="edge2" class="edge"><title>node_5&#45;&gt;node_7</title>
<path fill="none" stroke="#9a32cd" d="M2026.12,-496C2035.3,-496 2044.57,-496 2053.88,-496"/>
<polygon fill="#9a32cd" stroke="#9a32cd" points="2063.99,-496 2053.99,-500.5 2058.99,-496 2053.99,-496 2053.99,-496 2053.99,-496 2058.99,-496 2053.99,-491.5 2063.99,-496 2063.99,-496"/>
</g>
<!-- node_8&#45;&gt;node_9 -->
<g id="edge3" class="edge"><title>node_8&#45;&gt;node_9</title>
<path fill="none" stroke="#9a32cd" d="M1552.28,-382C1561,-382 1569.82,-382 1578.67,-382"/>
<polygon fill="#9a32cd" stroke="#9a32cd" points="1588.69,-382 1578.69,-386.5 1583.69,-382 1578.69,-382 1578.69,-382 1578.69,-382 1583.69,-382 1578.69,-377.5 1588.69,-382 1588.69,-382"/>
</g>
<!-- node_9&#45;&gt;cluster_0 -->
<g id="edge20" class="edge"><title>node_9&#45;&gt;cluster_0</title>
<path fill="none" stroke="black" stroke-width="2" d="M1649.92,-361.619C1512.96,-346.776 1322.97,-326.189 1156.03,-308.098"/>
<polygon fill="black" stroke="black" points="1156.4,-304.618 1146.08,-307.02 1155.65,-311.577 1156.4,-304.618"/>
</g>
<!-- node_9&#45;&gt;node_10 -->
<g id="edge4" class="edge"><title>node_9&#45;&gt;node_10</title>
<path fill="none" stroke="#9a32cd" d="M2087.31,-382C2096.1,-382 2104.87,-382 2113.56,-382"/>
<polygon fill="#9a32cd" stroke="#9a32cd" points="2123.73,-382 2113.73,-386.5 2118.73,-382 2113.73,-382 2113.73,-382 2113.73,-382 2118.73,-382 2113.73,-377.5 2123.73,-382 2123.73,-382"/>
</g>
<!-- node_10&#45;&gt;cluster_1 -->
<g id="edge21" class="edge"><title>node_10&#45;&gt;cluster_1</title>
<path fill="none" stroke="black" stroke-width="2" d="M2204.85,-356.416C2147.46,-342.586 2075.19,-325.166 2009.99,-309.453"/>
<polygon fill="black" stroke="black" points="2010.55,-305.988 2000.01,-307.048 2008.91,-312.793 2010.55,-305.988"/>
</g>
<!-- node_14&#45;&gt;node_15 -->
<g id="edge5" class="edge"><title>node_14&#45;&gt;node_15</title>
<path fill="none" stroke="#9a32cd" d="M500.101,-268C508.936,-268 517.833,-268 526.758,-268"/>
<polygon fill="#9a32cd" stroke="#9a32cd" points="536.844,-268 526.844,-272.5 531.844,-268 526.844,-268 526.844,-268 526.844,-268 531.844,-268 526.844,-263.5 536.844,-268 536.844,-268"/>
</g>
<!-- node_15&#45;&gt;node_16 -->
<g id="edge6" class="edge"><title>node_15&#45;&gt;node_16</title>
<path fill="none" stroke="#9a32cd" d="M1151.35,-268C1160.17,-268 1168.93,-268 1177.58,-268"/>
<polygon fill="#9a32cd" stroke="#9a32cd" points="1187.69,-268 1177.69,-272.5 1182.69,-268 1177.69,-268 1177.69,-268 1177.69,-268 1182.69,-268 1177.69,-263.5 1187.69,-268 1187.69,-268"/>
</g>
<!-- node_17&#45;&gt;cluster_2 -->
<g id="edge22" class="edge"><title>node_17&#45;&gt;cluster_2</title>
<path fill="none" stroke="black" stroke-width="2" d="M1807.42,-237.15C1796.16,-225.795 1783.16,-212.672 1770.85,-200.255"/>
<polygon fill="black" stroke="black" points="1773.23,-197.682 1763.7,-193.044 1768.25,-202.61 1773.23,-197.682"/>
</g>
<!-- node_19&#45;&gt;node_20 -->
<g id="edge7" class="edge"><title>node_19&#45;&gt;node_20</title>
<path fill="none" stroke="#9a32cd" d="M1448.06,-154C1456.57,-154 1465.14,-154 1473.72,-154"/>
<polygon fill="#9a32cd" stroke="#9a32cd" points="1483.8,-154 1473.8,-158.5 1478.8,-154 1473.8,-154 1473.8,-154 1473.8,-154 1478.8,-154 1473.8,-149.5 1483.8,-154 1483.8,-154"/>
</g>
<!-- node_20&#45;&gt;node_21 -->
<g id="edge8" class="edge"><title>node_20&#45;&gt;node_21</title>
<path fill="none" stroke="#9a32cd" d="M2122,-154C2130.96,-154 2139.85,-154 2148.63,-154"/>
<polygon fill="#9a32cd" stroke="#9a32cd" points="2158.88,-154 2148.88,-158.5 2153.88,-154 2148.88,-154 2148.88,-154 2148.88,-154 2153.88,-154 2148.88,-149.5 2158.88,-154 2158.88,-154"/>
</g>
<!-- node_22&#45;&gt;cluster_5 -->
<g id="edge23" class="edge"><title>node_22&#45;&gt;cluster_5</title>
<path fill="none" stroke="black" stroke-width="2" d="M2973.45,-465.15C2986.62,-453.689 3001.86,-440.427 3016.25,-427.907"/>
<polygon fill="black" stroke="black" points="3018.89,-430.249 3024.13,-421.044 3014.29,-424.969 3018.89,-430.249"/>
</g>
<!-- node_24&#45;&gt;cluster_6 -->
<g id="edge24" class="edge"><title>node_24&#45;&gt;cluster_6</title>
<path fill="none" stroke="black" stroke-width="2" d="M2925.8,-356.982C2983.48,-343.08 3056.74,-325.425 3122.76,-309.512"/>
<polygon fill="black" stroke="black" points="3123.97,-312.822 3132.87,-307.076 3122.33,-306.016 3123.97,-312.822"/>
</g>
<!-- node_24&#45;&gt;node_26 -->
<g id="edge9" class="edge"><title>node_24&#45;&gt;node_26</title>
<path fill="none" stroke="#9a32cd" d="M2997.24,-382C3006.33,-382 3015.53,-382 3024.77,-382"/>
<polygon fill="#9a32cd" stroke="#9a32cd" points="3034.8,-382 3024.8,-386.5 3029.8,-382 3024.8,-382 3024.8,-382 3024.8,-382 3029.8,-382 3024.8,-377.5 3034.8,-382 3034.8,-382"/>
</g>
<!-- node_27&#45;&gt;node_28 -->
<g id="edge10" class="edge"><title>node_27&#45;&gt;node_28</title>
<path fill="none" stroke="#9a32cd" d="M3034.14,-268C3042.91,-268 3051.78,-268 3060.69,-268"/>
<polygon fill="#9a32cd" stroke="#9a32cd" points="3070.76,-268 3060.76,-272.5 3065.76,-268 3060.76,-268 3060.76,-268 3060.76,-268 3065.76,-268 3060.76,-263.5 3070.76,-268 3070.76,-268"/>
</g>
<!-- node_28&#45;&gt;cluster_8 -->
<g id="edge25" class="edge"><title>node_28&#45;&gt;cluster_8</title>
<path fill="none" stroke="black" stroke-width="2" d="M3295,-236.849C3295,-226.552 3295,-214.828 3295,-203.505"/>
<polygon fill="black" stroke="black" points="3298.5,-203.272 3295,-193.272 3291.5,-203.272 3298.5,-203.272"/>
</g>
<!-- node_28&#45;&gt;node_29 -->
<g id="edge11" class="edge"><title>node_28&#45;&gt;node_29</title>
<path fill="none" stroke="#9a32cd" d="M3519.07,-268C3527.93,-268 3536.77,-268 3545.54,-268"/>
<polygon fill="#9a32cd" stroke="#9a32cd" points="3555.8,-268 3545.8,-272.5 3550.8,-268 3545.8,-268 3545.8,-268 3545.8,-268 3550.8,-268 3545.8,-263.5 3555.8,-268 3555.8,-268"/>
</g>
<!-- node_29&#45;&gt;cluster_9 -->
<g id="edge26" class="edge"><title>node_29&#45;&gt;cluster_9</title>
<path fill="none" stroke="black" stroke-width="2" d="M3842.53,-244.102C3908.71,-229.92 3994.41,-211.555 4071.16,-195.108"/>
<polygon fill="black" stroke="black" points="4071.91,-198.527 4080.96,-193.009 4070.45,-191.682 4071.91,-198.527"/>
</g>
<!-- node_33&#45;&gt;node_34 -->
<g id="edge12" class="edge"><title>node_33&#45;&gt;node_34</title>
<path fill="none" stroke="#9a32cd" d="M3033.08,-154C3041.95,-154 3050.88,-154 3059.83,-154"/>
<polygon fill="#9a32cd" stroke="#9a32cd" points="3069.95,-154 3059.95,-158.5 3064.95,-154 3059.95,-154 3059.95,-154 3059.95,-154 3064.95,-154 3059.95,-149.5 3069.95,-154 3069.95,-154"/>
</g>
<!-- node_34&#45;&gt;node_35 -->
<g id="edge13" class="edge"><title>node_34&#45;&gt;node_35</title>
<path fill="none" stroke="#9a32cd" d="M3634.35,-154C3643.21,-154 3652,-154 3660.68,-154"/>
<polygon fill="#9a32cd" stroke="#9a32cd" points="3670.82,-154 3660.82,-158.5 3665.82,-154 3660.82,-154 3660.82,-154 3660.82,-154 3665.82,-154 3660.82,-149.5 3670.82,-154 3670.82,-154"/>
</g>
<!-- node_36&#45;&gt;cluster_10 -->
<g id="edge27" class="edge"><title>node_36&#45;&gt;cluster_10</title>
<path fill="none" stroke="black" stroke-width="2" d="M4263,-122.849C4263,-112.552 4263,-100.828 4263,-89.5054"/>
<polygon fill="black" stroke="black" points="4266.5,-89.2722 4263,-79.2722 4259.5,-89.2723 4266.5,-89.2722"/>
</g>
<!-- node_38&#45;&gt;node_39 -->
<g id="edge14" class="edge"><title>node_38&#45;&gt;node_39</title>
<path fill="none" stroke="#9a32cd" d="M4020.23,-40C4028.7,-40 4037.21,-40 4045.72,-40"/>
<polygon fill="#9a32cd" stroke="#9a32cd" points="4055.72,-40 4045.72,-44.5001 4050.72,-40.0001 4045.72,-40.0001 4045.72,-40.0001 4045.72,-40.0001 4050.72,-40.0001 4045.72,-35.5001 4055.72,-40 4055.72,-40"/>
</g>
<!-- node_39&#45;&gt;node_40 -->
<g id="edge15" class="edge"><title>node_39&#45;&gt;node_40</title>
<path fill="none" stroke="#9a32cd" d="M4606.16,-40C4615.07,-40 4623.91,-40 4632.66,-40"/>
<polygon fill="#9a32cd" stroke="#9a32cd" points="4642.87,-40 4632.87,-44.5001 4637.87,-40.0001 4632.87,-40.0001 4632.87,-40.0001 4632.87,-40.0001 4637.87,-40.0001 4632.87,-35.5001 4642.87,-40 4642.87,-40"/>
</g>
</g>
</svg>
