<?xml version="1.0" encoding="UTF-8" standalone="no"?>
<!DOCTYPE svg PUBLIC "-//W3C//DTD SVG 1.1//EN"
 "http://www.w3.org/Graphics/SVG/1.1/DTD/svg11.dtd">
<!-- Generated by graphviz version 2.26.3 (20100126.1600)
 -->
<!-- Title: final_graph Pages: 1 -->
<svg width="5773pt" height="772pt"
 viewBox="0.00 0.00 5773.00 772.00" xmlns="http://www.w3.org/2000/svg" xmlns:xlink="http://www.w3.org/1999/xlink">
<g id="graph1" class="graph" transform="scale(1 1) rotate(0) translate(4 768)">
<title>final_graph</title>
<polygon fill="white" stroke="white" points="-4,5 -4,-768 5770,-768 5770,5 -4,5"/>
<!-- cluster_0 -->
<g id="node1" class="node"><title>cluster_0</title>
<polygon fill="none" stroke="blue" points="1693,-763.002 1533,-763.002 1533,-685.002 1693,-685.002 1693,-763.002"/>
<text text-anchor="middle" x="1613" y="-720.402" font-family="Times Roman,serif" font-size="14.00"> </text>
</g>
<!-- cluster_1 -->
<g id="node2" class="node"><title>cluster_1</title>
<polygon fill="none" stroke="blue" points="1331,-307 0.99992,-307 0.99992,-229 1331,-229 1331,-307"/>
<text text-anchor="middle" x="666" y="-264.4" font-family="Times Roman,serif" font-size="14.00"> </text>
</g>
<!-- cluster_2 -->
<g id="node3" class="node"><title>cluster_2</title>
<polygon fill="none" stroke="blue" points="2399,-535 1721,-535 1721,-457 2399,-457 2399,-535"/>
<text text-anchor="middle" x="2060" y="-492.4" font-family="Times Roman,serif" font-size="14.00"> </text>
</g>
<!-- cluster_3 -->
<g id="node4" class="node"><title>cluster_3</title>
<polygon fill="none" stroke="blue" points="2721,-421 1399,-421 1399,-343 2721,-343 2721,-421"/>
<text text-anchor="middle" x="2060" y="-378.4" font-family="Times Roman,serif" font-size="14.00"> </text>
</g>
<!-- cluster_4 -->
<g id="node5" class="node"><title>cluster_4</title>
<polygon fill="none" stroke="blue" points="2259,-307 1349,-307 1349,-229 2259,-229 2259,-307"/>
<text text-anchor="middle" x="1804" y="-264.4" font-family="Times Roman,serif" font-size="14.00"> </text>
</g>
<!-- cluster_5 -->
<g id="node6" class="node"><title>cluster_5</title>
<polygon fill="none" stroke="blue" points="1903,-649 1323,-649 1323,-571 1903,-571 1903,-649"/>
<text text-anchor="middle" x="1613" y="-606.4" font-family="Times Roman,serif" font-size="14.00"> </text>
</g>
<!-- cluster_6 -->
<g id="node7" class="node"><title>cluster_6</title>
<polygon fill="none" stroke="blue" points="1731,-193 97.0032,-193 97.0032,-115 1731,-115 1731,-193"/>
<text text-anchor="middle" x="914.003" y="-150.4" font-family="Times Roman,serif" font-size="14.00"> </text>
</g>
<!-- cluster_7 -->
<g id="node8" class="node"><title>cluster_7</title>
<polygon fill="none" stroke="blue" points="2791,-307 2277,-307 2277,-229 2791,-229 2791,-307"/>
<text text-anchor="middle" x="2534" y="-264.4" font-family="Times Roman,serif" font-size="14.00"> </text>
</g>
<!-- cluster_8 -->
<g id="node9" class="node"><title>cluster_8</title>
<polygon fill="none" stroke="blue" points="3319,-193 1749,-193 1749,-115 3319,-115 3319,-193"/>
<text text-anchor="middle" x="2534" y="-150.4" font-family="Times Roman,serif" font-size="14.00"> </text>
</g>
<!-- cluster_9 -->
<g id="node10" class="node"><title>cluster_9</title>
<polygon fill="none" stroke="blue" points="3726,-421 3252,-421 3252,-343 3726,-343 3726,-421"/>
<text text-anchor="middle" x="3489" y="-378.4" font-family="Times Roman,serif" font-size="14.00"> </text>
</g>
<!-- cluster_10 -->
<g id="node11" class="node"><title>cluster_10</title>
<polygon fill="none" stroke="blue" points="4371,-307 3121,-307 3121,-229 4371,-229 4371,-307"/>
<text text-anchor="middle" x="3746" y="-264.4" font-family="Times Roman,serif" font-size="14.00"> </text>
</g>
<!-- cluster_11 -->
<g id="node12" class="node"><title>cluster_11</title>
<polygon fill="none" stroke="blue" points="4155,-193 3337,-193 3337,-115 4155,-115 4155,-193"/>
<text text-anchor="middle" x="3746" y="-150.4" font-family="Times Roman,serif" font-size="14.00"> </text>
</g>
<!-- cluster_12 -->
<g id="node13" class="node"><title>cluster_12</title>
<polygon fill="none" stroke="blue" points="4276,-79 2798,-79 2798,-1.00002 4276,-1.00002 4276,-79"/>
<text text-anchor="middle" x="3537" y="-36.4" font-family="Times Roman,serif" font-size="14.00"> </text>
</g>
<!-- cluster_13 -->
<g id="node14" class="node"><title>cluster_13</title>
<polygon fill="none" stroke="blue" points="1523,-535 809.003,-535 809.003,-457 1523,-457 1523,-535"/>
<text text-anchor="middle" x="1166" y="-492.4" font-family="Times Roman,serif" font-size="14.00"> </text>
</g>
<!-- cluster_14 -->
<g id="node15" class="node"><title>cluster_14</title>
<polygon fill="none" stroke="blue" points="5053,-193 4589,-193 4589,-115 5053,-115 5053,-193"/>
<text text-anchor="middle" x="4821" y="-150.4" font-family="Times Roman,serif" font-size="14.00"> </text>
</g>
<!-- cluster_15 -->
<g id="node16" class="node"><title>cluster_15</title>
<polygon fill="none" stroke="blue" points="5764,-79 4294,-79 4294,-1.00002 5764,-1.00002 5764,-79"/>
<text text-anchor="middle" x="5029" y="-36.4" font-family="Times Roman,serif" font-size="14.00"> </text>
</g>
<!-- cluster_16 -->
<g id="node17" class="node"><title>cluster_16</title>
<polygon fill="none" stroke="blue" points="1319,-421 651.002,-421 651.002,-343 1319,-343 1319,-421"/>
<text text-anchor="middle" x="985.002" y="-378.4" font-family="Times Roman,serif" font-size="14.00"> </text>
</g>
<!-- node_1 -->
<g id="node18" class="node"><title>node_1</title>
<ellipse fill="#c1cdcd" stroke="black" cx="1613" cy="-724.002" rx="72.1249" ry="31.1127"/>
<ellipse fill="none" stroke="black" cx="1613" cy="-724.002" rx="76.1249" ry="35.1127"/>
<text text-anchor="middle" x="1613" y="-729.402" font-family="Times Roman,serif" font-size="14.00">BuildStack</text>
<text text-anchor="middle" x="1613" y="-711.402" font-family="Times Roman,serif" font-size="14.00">(StackArea )</text>
</g>
<!-- node_2 -->
<g id="node19" class="node"><title>node_2</title>
<ellipse fill="#c1cdcd" stroke="black" cx="1523" cy="-610" rx="191.126" ry="31.1127"/>
<text text-anchor="middle" x="1523" y="-615.4" font-family="Times Roman,serif" font-size="14.00">Handle</text>
<text text-anchor="middle" x="1523" y="-597.4" font-family="Times Roman,serif" font-size="14.00">(PR2_ROBOT Blue_Cube StackArea )</text>
</g>
<!-- node_3 -->
<g id="node20" class="node"><title>node_3</title>
<ellipse fill="#c1cdcd" stroke="black" cx="1823" cy="-610" rx="72.1249" ry="31.1127"/>
<text text-anchor="middle" x="1823" y="-615.4" font-family="Times Roman,serif" font-size="14.00">BuildStack</text>
<text text-anchor="middle" x="1823" y="-597.4" font-family="Times Roman,serif" font-size="14.00">(StackArea )</text>
</g>
<!-- node_4 -->
<g id="node21" class="node"><title>node_4</title>
<ellipse fill="#c1cdcd" stroke="black" cx="956.001" cy="-496" rx="138.093" ry="31.1127"/>
<text text-anchor="middle" x="956.001" y="-501.4" font-family="Times Roman,serif" font-size="14.00">ApplyFirstOperations</text>
<text text-anchor="middle" x="956.001" y="-483.4" font-family="Times Roman,serif" font-size="14.00">(PR2_ROBOT Blue_Cube )</text>
</g>
<!-- node_6 -->
<g id="node22" class="node"><title>node_6</title>
<ellipse fill="#ffffcc" stroke="black" cx="1323.01" cy="-496" rx="191.126" ry="31.1127"/>
<text text-anchor="middle" x="1323.01" y="-501.4" font-family="Times Roman,serif" font-size="14.00">PlaceOnStack</text>
<text text-anchor="middle" x="1323.01" y="-483.4" font-family="Times Roman,serif" font-size="14.00">(PR2_ROBOT Blue_Cube StackArea )</text>
</g>
<!-- node_7 -->
<g id="node23" class="node"><title>node_7</title>
<ellipse fill="#ffffcc" stroke="black" cx="798.004" cy="-382" rx="138.093" ry="31.1127"/>
<text text-anchor="middle" x="798.004" y="-387.4" font-family="Times Roman,serif" font-size="14.00">Pick</text>
<text text-anchor="middle" x="798.004" y="-369.4" font-family="Times Roman,serif" font-size="14.00">(PR2_ROBOT Blue_Cube )</text>
</g>
<!-- node_8 -->
<g id="node24" class="node"><title>node_8</title>
<ellipse fill="#c1cdcd" stroke="black" cx="1142.01" cy="-382" rx="169" ry="31.1127"/>
<text text-anchor="middle" x="1142.01" y="-387.4" font-family="Times Roman,serif" font-size="14.00">ApplyOperation</text>
<text text-anchor="middle" x="1142.01" y="-369.4" font-family="Times Roman,serif" font-size="14.00">(PR2_ROBOT Blue_Cube Clean )</text>
</g>
<!-- node_10 -->
<g id="node25" class="node"><title>node_10</title>
<ellipse fill="#ffffcc" stroke="black" cx="235" cy="-268" rx="225.067" ry="31.1127"/>
<text text-anchor="middle" x="235" y="-273.4" font-family="Times Roman,serif" font-size="14.00">Place</text>
<text text-anchor="middle" x="235" y="-255.4" font-family="Times Roman,serif" font-size="14.00">(PR2_ROBOT Blue_Cube RagCleaningArea )</text>
</g>
<!-- node_11 -->
<g id="node26" class="node"><title>node_11</title>
<ellipse fill="#ffffcc" stroke="black" cx="752.997" cy="-268" rx="256" ry="31.1127"/>
<text text-anchor="middle" x="752.997" y="-273.4" font-family="Times Roman,serif" font-size="14.00">Apply</text>
<text text-anchor="middle" x="752.997" y="-255.4" font-family="Times Roman,serif" font-size="14.00">(PR2_ROBOT Blue_Cube Clean RagCleaningArea )</text>
</g>
<!-- node_12 -->
<g id="node27" class="node"><title>node_12</title>
<ellipse fill="#ffffcc" stroke="black" cx="1184" cy="-268" rx="138.093" ry="31.1127"/>
<text text-anchor="middle" x="1184" y="-273.4" font-family="Times Roman,serif" font-size="14.00">Pick</text>
<text text-anchor="middle" x="1184" y="-255.4" font-family="Times Roman,serif" font-size="14.00">(PR2_ROBOT Blue_Cube )</text>
</g>
<!-- node_13 -->
<g id="node28" class="node"><title>node_13</title>
<ellipse fill="#c1cdcd" stroke="black" cx="1970" cy="-496" rx="239.916" ry="31.1127"/>
<text text-anchor="middle" x="1970" y="-501.4" font-family="Times Roman,serif" font-size="14.00">Handle</text>
<text text-anchor="middle" x="1970" y="-483.4" font-family="Times Roman,serif" font-size="14.00">(HERAKLES_HUMAN1 Green_Cube StackArea )</text>
</g>
<!-- node_14 -->
<g id="node29" class="node"><title>node_14</title>
<ellipse fill="#c1cdcd" stroke="black" cx="2319" cy="-496" rx="72.1249" ry="31.1127"/>
<text text-anchor="middle" x="2319" y="-501.4" font-family="Times Roman,serif" font-size="14.00">BuildStack</text>
<text text-anchor="middle" x="2319" y="-483.4" font-family="Times Roman,serif" font-size="14.00">(StackArea )</text>
</g>
<!-- node_15 -->
<g id="node30" class="node"><title>node_15</title>
<ellipse fill="#c1cdcd" stroke="black" cx="1595" cy="-382" rx="186.884" ry="31.1127"/>
<text text-anchor="middle" x="1595" y="-387.4" font-family="Times Roman,serif" font-size="14.00">ApplyFirstOperations</text>
<text text-anchor="middle" x="1595" y="-369.4" font-family="Times Roman,serif" font-size="14.00">(HERAKLES_HUMAN1 Green_Cube )</text>
</g>
<!-- node_16 -->
<g id="node31" class="node"><title>node_16</title>
<ellipse fill="#c1cdcd" stroke="black" cx="2007" cy="-382" rx="186.884" ry="31.1127"/>
<text text-anchor="middle" x="2007" y="-387.4" font-family="Times Roman,serif" font-size="14.00">ApplySecondOperations</text>
<text text-anchor="middle" x="2007" y="-369.4" font-family="Times Roman,serif" font-size="14.00">(HERAKLES_HUMAN1 Green_Cube )</text>
</g>
<!-- node_17 -->
<g id="node32" class="node"><title>node_17</title>
<ellipse fill="#cce6ff" stroke="black" cx="2472" cy="-382" rx="239.916" ry="31.1127"/>
<text text-anchor="middle" x="2472" y="-387.4" font-family="Times Roman,serif" font-size="14.00">PlaceOnStack</text>
<text text-anchor="middle" x="2472" y="-369.4" font-family="Times Roman,serif" font-size="14.00">(HERAKLES_HUMAN1 Green_Cube StackArea )</text>
</g>
<!-- node_18 -->
<g id="node33" class="node"><title>node_18</title>
<ellipse fill="#cce6ff" stroke="black" cx="1545" cy="-268" rx="186.884" ry="31.1127"/>
<text text-anchor="middle" x="1545" y="-273.4" font-family="Times Roman,serif" font-size="14.00">Pick</text>
<text text-anchor="middle" x="1545" y="-255.4" font-family="Times Roman,serif" font-size="14.00">(HERAKLES_HUMAN1 Green_Cube )</text>
</g>
<!-- node_19 -->
<g id="node34" class="node"><title>node_19</title>
<ellipse fill="#c1cdcd" stroke="black" cx="2010" cy="-268" rx="239.916" ry="31.1127"/>
<text text-anchor="middle" x="2010" y="-273.4" font-family="Times Roman,serif" font-size="14.00">ApplyOperation</text>
<text text-anchor="middle" x="2010" y="-255.4" font-family="Times Roman,serif" font-size="14.00">(HERAKLES_HUMAN1 Green_Cube Smoothen )</text>
</g>
<!-- node_21 -->
<g id="node35" class="node"><title>node_21</title>
<ellipse fill="#cce6ff" stroke="black" cx="371.003" cy="-154" rx="266" ry="31.1127"/>
<text text-anchor="middle" x="371.003" y="-159.4" font-family="Times Roman,serif" font-size="14.00">Place</text>
<text text-anchor="middle" x="371.003" y="-141.4" font-family="Times Roman,serif" font-size="14.00">(HERAKLES_HUMAN1 Green_Cube SmoothingArea )</text>
</g>
<!-- node_22 -->
<g id="node36" class="node"><title>node_22</title>
<ellipse fill="#cce6ff" stroke="black" cx="992.001" cy="-154" rx="319" ry="31.1127"/>
<text text-anchor="middle" x="992.001" y="-159.4" font-family="Times Roman,serif" font-size="14.00">Apply</text>
<text text-anchor="middle" x="992.001" y="-141.4" font-family="Times Roman,serif" font-size="14.00">(HERAKLES_HUMAN1 Green_Cube Smoothen SmoothingArea )</text>
</g>
<!-- node_23 -->
<g id="node37" class="node"><title>node_23</title>
<ellipse fill="#cce6ff" stroke="black" cx="1535" cy="-154" rx="186.884" ry="31.1127"/>
<text text-anchor="middle" x="1535" y="-159.4" font-family="Times Roman,serif" font-size="14.00">Pick</text>
<text text-anchor="middle" x="1535" y="-141.4" font-family="Times Roman,serif" font-size="14.00">(HERAKLES_HUMAN1 Green_Cube )</text>
</g>
<!-- node_24 -->
<g id="node38" class="node"><title>node_24</title>
<ellipse fill="#c1cdcd" stroke="black" cx="2534" cy="-268" rx="249" ry="31.1127"/>
<text text-anchor="middle" x="2534" y="-273.4" font-family="Times Roman,serif" font-size="14.00">ApplyOperation</text>
<text text-anchor="middle" x="2534" y="-255.4" font-family="Times Roman,serif" font-size="14.00">(HERAKLES_HUMAN1 Green_Cube Glue_Green )</text>
</g>
<!-- node_26 -->
<g id="node39" class="node"><title>node_26</title>
<ellipse fill="#cce6ff" stroke="black" cx="2003" cy="-154" rx="244.866" ry="31.1127"/>
<text text-anchor="middle" x="2003" y="-159.4" font-family="Times Roman,serif" font-size="14.00">Place</text>
<text text-anchor="middle" x="2003" y="-141.4" font-family="Times Roman,serif" font-size="14.00">(HERAKLES_HUMAN1 Green_Cube GluingArea )</text>
</g>
<!-- node_27 -->
<g id="node40" class="node"><title>node_27</title>
<ellipse fill="#cce6ff" stroke="black" cx="2592.01" cy="-154" rx="307" ry="31.1127"/>
<text text-anchor="middle" x="2592.01" y="-159.4" font-family="Times Roman,serif" font-size="14.00">Apply</text>
<text text-anchor="middle" x="2592.01" y="-141.4" font-family="Times Roman,serif" font-size="14.00">(HERAKLES_HUMAN1 Green_Cube Glue_Green GluingArea )</text>
</g>
<!-- node_28 -->
<g id="node41" class="node"><title>node_28</title>
<ellipse fill="#cce6ff" stroke="black" cx="3123.01" cy="-154" rx="186.884" ry="31.1127"/>
<text text-anchor="middle" x="3123.01" y="-159.4" font-family="Times Roman,serif" font-size="14.00">Pick</text>
<text text-anchor="middle" x="3123.01" y="-141.4" font-family="Times Roman,serif" font-size="14.00">(HERAKLES_HUMAN1 Green_Cube )</text>
</g>
<!-- node_29 -->
<g id="node42" class="node"><title>node_29</title>
<ellipse fill="#c1cdcd" stroke="black" cx="3489" cy="-382" rx="227.896" ry="31.1127"/>
<text text-anchor="middle" x="3489" y="-387.4" font-family="Times Roman,serif" font-size="14.00">Handle</text>
<text text-anchor="middle" x="3489" y="-369.4" font-family="Times Roman,serif" font-size="14.00">(HERAKLES_HUMAN1 Red_Cube StackArea )</text>
</g>
<!-- node_31 -->
<g id="node43" class="node"><title>node_31</title>
<ellipse fill="#c1cdcd" stroke="black" cx="3305" cy="-268" rx="174.863" ry="31.1127"/>
<text text-anchor="middle" x="3305" y="-273.4" font-family="Times Roman,serif" font-size="14.00">ApplyFirstOperations</text>
<text text-anchor="middle" x="3305" y="-255.4" font-family="Times Roman,serif" font-size="14.00">(HERAKLES_HUMAN1 Red_Cube )</text>
</g>
<!-- node_32 -->
<g id="node44" class="node"><title>node_32</title>
<ellipse fill="#c1cdcd" stroke="black" cx="3693" cy="-268" rx="174.863" ry="31.1127"/>
<text text-anchor="middle" x="3693" y="-273.4" font-family="Times Roman,serif" font-size="14.00">ApplySecondOperations</text>
<text text-anchor="middle" x="3693" y="-255.4" font-family="Times Roman,serif" font-size="14.00">(HERAKLES_HUMAN1 Red_Cube )</text>
</g>
<!-- node_33 -->
<g id="node45" class="node"><title>node_33</title>
<ellipse fill="#cce6ff" stroke="black" cx="4134" cy="-268" rx="227.896" ry="31.1127"/>
<text text-anchor="middle" x="4134" y="-273.4" font-family="Times Roman,serif" font-size="14.00">PlaceOnStack</text>
<text text-anchor="middle" x="4134" y="-255.4" font-family="Times Roman,serif" font-size="14.00">(HERAKLES_HUMAN1 Red_Cube StackArea )</text>
</g>
<!-- node_34 -->
<g id="node46" class="node"><title>node_34</title>
<ellipse fill="#cce6ff" stroke="black" cx="3521" cy="-154" rx="174.863" ry="31.1127"/>
<text text-anchor="middle" x="3521" y="-159.4" font-family="Times Roman,serif" font-size="14.00">Pick</text>
<text text-anchor="middle" x="3521" y="-141.4" font-family="Times Roman,serif" font-size="14.00">(HERAKLES_HUMAN1 Red_Cube )</text>
</g>
<!-- node_35 -->
<g id="node47" class="node"><title>node_35</title>
<ellipse fill="#c1cdcd" stroke="black" cx="3940" cy="-154" rx="205.975" ry="31.1127"/>
<text text-anchor="middle" x="3940" y="-159.4" font-family="Times Roman,serif" font-size="14.00">ApplyOperation</text>
<text text-anchor="middle" x="3940" y="-141.4" font-family="Times Roman,serif" font-size="14.00">(HERAKLES_HUMAN1 Red_Cube Polish )</text>
</g>
<!-- node_37 -->
<g id="node48" class="node"><title>node_37</title>
<ellipse fill="#cce6ff" stroke="black" cx="3050" cy="-40" rx="244" ry="31.1127"/>
<text text-anchor="middle" x="3050" y="-45.4" font-family="Times Roman,serif" font-size="14.00">Place</text>
<text text-anchor="middle" x="3050" y="-27.4" font-family="Times Roman,serif" font-size="14.00">(HERAKLES_HUMAN1 Red_Cube PolishingArea )</text>
</g>
<!-- node_38 -->
<g id="node49" class="node"><title>node_38</title>
<ellipse fill="#cce6ff" stroke="black" cx="3605" cy="-40" rx="275.065" ry="31.1127"/>
<text text-anchor="middle" x="3605" y="-45.4" font-family="Times Roman,serif" font-size="14.00">Apply</text>
<text text-anchor="middle" x="3605" y="-27.4" font-family="Times Roman,serif" font-size="14.00">(HERAKLES_HUMAN1 Red_Cube Polish PolishingArea )</text>
</g>
<!-- node_39 -->
<g id="node50" class="node"><title>node_39</title>
<ellipse fill="#cce6ff" stroke="black" cx="4092" cy="-40" rx="174.863" ry="31.1127"/>
<text text-anchor="middle" x="4092" y="-45.4" font-family="Times Roman,serif" font-size="14.00">Pick</text>
<text text-anchor="middle" x="4092" y="-27.4" font-family="Times Roman,serif" font-size="14.00">(HERAKLES_HUMAN1 Red_Cube )</text>
</g>
<!-- node_40 -->
<g id="node51" class="node"><title>node_40</title>
<ellipse fill="#c1cdcd" stroke="black" cx="4821" cy="-154" rx="224.153" ry="31.1127"/>
<text text-anchor="middle" x="4821" y="-159.4" font-family="Times Roman,serif" font-size="14.00">ApplyOperation</text>
<text text-anchor="middle" x="4821" y="-141.4" font-family="Times Roman,serif" font-size="14.00">(HERAKLES_HUMAN1 Red_Cube Glue_Red )</text>
</g>
<!-- node_42 -->
<g id="node52" class="node"><title>node_42</title>
<ellipse fill="#cce6ff" stroke="black" cx="4535" cy="-40" rx="232.138" ry="31.1127"/>
<text text-anchor="middle" x="4535" y="-45.4" font-family="Times Roman,serif" font-size="14.00">Place</text>
<text text-anchor="middle" x="4535" y="-27.4" font-family="Times Roman,serif" font-size="14.00">(HERAKLES_HUMAN1 Red_Cube GluingArea )</text>
</g>
<!-- node_43 -->
<g id="node53" class="node"><title>node_43</title>
<ellipse fill="#cce6ff" stroke="black" cx="5086" cy="-40" rx="282.136" ry="31.1127"/>
<text text-anchor="middle" x="5086" y="-45.4" font-family="Times Roman,serif" font-size="14.00">Apply</text>
<text text-anchor="middle" x="5086" y="-27.4" font-family="Times Roman,serif" font-size="14.00">(HERAKLES_HUMAN1 Red_Cube Glue_Red GluingArea )</text>
</g>
<!-- node_44 -->
<g id="node54" class="node"><title>node_44</title>
<ellipse fill="#cce6ff" stroke="black" cx="5580" cy="-40" rx="174.863" ry="31.1127"/>
<text text-anchor="middle" x="5580" y="-45.4" font-family="Times Roman,serif" font-size="14.00">Pick</text>
<text text-anchor="middle" x="5580" y="-27.4" font-family="Times Roman,serif" font-size="14.00">(HERAKLES_HUMAN1 Red_Cube )</text>
</g>
<!-- node_1&#45;&gt;cluster_5 -->
<g id="edge21" class="edge"><title>node_1&#45;&gt;cluster_5</title>
<path fill="none" stroke="black" stroke-width="2" d="M1613,-688.868C1613,-679.545 1613,-669.302 1613,-659.374"/>
<polygon fill="black" stroke="black" points="1616.5,-659.193 1613,-649.193 1609.5,-659.193 1616.5,-659.193"/>
</g>
<!-- node_2&#45;&gt;cluster_13 -->
<g id="edge22" class="edge"><title>node_2&#45;&gt;cluster_13</title>
<path fill="none" stroke="black" stroke-width="2" d="M1436.13,-582.258C1394.7,-569.029 1344.24,-552.915 1298.19,-538.212"/>
<polygon fill="black" stroke="black" points="1299.03,-534.805 1288.44,-535.097 1296.9,-541.474 1299.03,-534.805"/>
</g>
<!-- node_2&#45;&gt;node_3 -->
<g id="edge1" class="edge"><title>node_2&#45;&gt;node_3</title>
<path fill="none" stroke="#9a32cd" d="M1714.27,-610C1723.36,-610 1732.23,-610 1740.74,-610"/>
<polygon fill="#9a32cd" stroke="#9a32cd" points="1750.92,-610 1740.92,-614.5 1745.92,-610 1740.92,-610 1740.92,-610 1740.92,-610 1745.92,-610 1740.92,-605.5 1750.92,-610 1750.92,-610"/>
</g>
<!-- node_3&#45;&gt;cluster_2 -->
<g id="edge23" class="edge"><title>node_3&#45;&gt;cluster_2</title>
<path fill="none" stroke="black" stroke-width="2" d="M1871.25,-586.793C1899.45,-573.225 1935.97,-555.66 1969.36,-539.599"/>
<polygon fill="black" stroke="black" points="1971.19,-542.603 1978.68,-535.114 1968.16,-536.295 1971.19,-542.603"/>
</g>
<!-- node_4&#45;&gt;cluster_16 -->
<g id="edge24" class="edge"><title>node_4&#45;&gt;cluster_16</title>
<path fill="none" stroke="black" stroke-width="2" d="M963.926,-464.849C966.572,-454.447 969.589,-442.589 972.496,-431.159"/>
<polygon fill="black" stroke="black" points="975.938,-431.827 975.012,-421.272 969.154,-430.101 975.938,-431.827"/>
</g>
<!-- node_4&#45;&gt;node_6 -->
<g id="edge2" class="edge"><title>node_4&#45;&gt;node_6</title>
<path fill="none" stroke="#9a32cd" d="M1094.23,-496C1103.25,-496 1112.44,-496 1121.68,-496"/>
<polygon fill="#9a32cd" stroke="#9a32cd" points="1131.73,-496 1121.73,-500.5 1126.73,-496 1121.73,-496 1121.73,-496 1121.73,-496 1126.73,-496 1121.73,-491.5 1131.73,-496 1131.73,-496"/>
</g>
<!-- node_7&#45;&gt;node_8 -->
<g id="edge3" class="edge"><title>node_7&#45;&gt;node_8</title>
<path fill="none" stroke="#9a32cd" d="M936.436,-382C945.185,-382 954.055,-382 962.95,-382"/>
<polygon fill="#9a32cd" stroke="#9a32cd" points="972.998,-382 962.998,-386.5 967.998,-382 962.998,-382 962.998,-382 962.998,-382 967.998,-382 962.998,-377.5 972.998,-382 972.998,-382"/>
</g>
<!-- node_8&#45;&gt;cluster_1 -->
<g id="edge25" class="edge"><title>node_8&#45;&gt;cluster_1</title>
<path fill="none" stroke="black" stroke-width="2" d="M1039.01,-357.334C980.648,-343.356 906.098,-325.502 839.01,-309.435"/>
<polygon fill="black" stroke="black" points="839.709,-306.003 829.169,-307.078 838.079,-312.811 839.709,-306.003"/>
</g>
<!-- node_10&#45;&gt;node_11 -->
<g id="edge4" class="edge"><title>node_10&#45;&gt;node_11</title>
<path fill="none" stroke="#9a32cd" d="M460.318,-268C469.139,-268 478.013,-268 486.899,-268"/>
<polygon fill="#9a32cd" stroke="#9a32cd" points="496.933,-268 486.933,-272.5 491.933,-268 486.933,-268 486.933,-268 486.933,-268 491.933,-268 486.933,-263.5 496.933,-268 496.933,-268"/>
</g>
<!-- node_11&#45;&gt;node_12 -->
<g id="edge5" class="edge"><title>node_11&#45;&gt;node_12</title>
<path fill="none" stroke="#9a32cd" d="M1009.01,-268C1018.05,-268 1026.99,-268 1035.77,-268"/>
<polygon fill="#9a32cd" stroke="#9a32cd" points="1046,-268 1036,-272.5 1041,-268 1036,-268 1036,-268 1036,-268 1041,-268 1036,-263.5 1046,-268 1046,-268"/>
</g>
<!-- node_13&#45;&gt;cluster_3 -->
<g id="edge26" class="edge"><title>node_13&#45;&gt;cluster_3</title>
<path fill="none" stroke="black" stroke-width="2" d="M1994.35,-465.15C2003.15,-454.007 2013.29,-441.162 2022.93,-428.952"/>
<polygon fill="black" stroke="black" points="2025.72,-431.062 2029.17,-421.044 2020.23,-426.724 2025.72,-431.062"/>
</g>
<!-- node_13&#45;&gt;node_14 -->
<g id="edge6" class="edge"><title>node_13&#45;&gt;node_14</title>
<path fill="none" stroke="#9a32cd" d="M2210.01,-496C2219.19,-496 2228.09,-496 2236.58,-496"/>
<polygon fill="#9a32cd" stroke="#9a32cd" points="2246.73,-496 2236.73,-500.5 2241.73,-496 2236.73,-496 2236.73,-496 2236.73,-496 2241.73,-496 2236.73,-491.5 2246.73,-496 2246.73,-496"/>
</g>
<!-- node_14&#45;&gt;cluster_9 -->
<g id="edge27" class="edge"><title>node_14&#45;&gt;cluster_9</title>
<path fill="none" stroke="black" stroke-width="2" d="M2389.55,-489.126C2554.44,-473.059 2971.54,-432.419 3241.97,-406.07"/>
<polygon fill="black" stroke="black" points="3242.31,-409.553 3251.92,-405.1 3241.63,-402.586 3242.31,-409.553"/>
</g>
<!-- node_15&#45;&gt;cluster_4 -->
<g id="edge28" class="edge"><title>node_15&#45;&gt;cluster_4</title>
<path fill="none" stroke="black" stroke-width="2" d="M1649.64,-352.197C1672.15,-339.917 1698.7,-325.437 1723.37,-311.98"/>
<polygon fill="black" stroke="black" points="1725.26,-314.936 1732.36,-307.075 1721.91,-308.791 1725.26,-314.936"/>
</g>
<!-- node_15&#45;&gt;node_16 -->
<g id="edge7" class="edge"><title>node_15&#45;&gt;node_16</title>
<path fill="none" stroke="#9a32cd" d="M1782.01,-382C1791.23,-382 1800.5,-382 1809.74,-382"/>
<polygon fill="#9a32cd" stroke="#9a32cd" points="1819.76,-382 1809.76,-386.5 1814.76,-382 1809.76,-382 1809.76,-382 1809.76,-382 1814.76,-382 1809.76,-377.5 1819.76,-382 1819.76,-382"/>
</g>
<!-- node_16&#45;&gt;cluster_7 -->
<g id="edge29" class="edge"><title>node_16&#45;&gt;cluster_7</title>
<path fill="none" stroke="black" stroke-width="2" d="M2121.03,-357.334C2185.98,-343.283 2269.04,-325.315 2343.62,-309.183"/>
<polygon fill="black" stroke="black" points="2344.58,-312.557 2353.61,-307.022 2343.1,-305.715 2344.58,-312.557"/>
</g>
<!-- node_16&#45;&gt;node_17 -->
<g id="edge8" class="edge"><title>node_16&#45;&gt;node_17</title>
<path fill="none" stroke="#9a32cd" d="M2194.12,-382C2203.3,-382 2212.57,-382 2221.88,-382"/>
<polygon fill="#9a32cd" stroke="#9a32cd" points="2231.99,-382 2221.99,-386.5 2226.99,-382 2221.99,-382 2221.99,-382 2221.99,-382 2226.99,-382 2221.99,-377.5 2231.99,-382 2231.99,-382"/>
</g>
<!-- node_18&#45;&gt;node_19 -->
<g id="edge9" class="edge"><title>node_18&#45;&gt;node_19</title>
<path fill="none" stroke="#9a32cd" d="M1732.13,-268C1741.3,-268 1750.57,-268 1759.88,-268"/>
<polygon fill="#9a32cd" stroke="#9a32cd" points="1770,-268 1760,-272.5 1765,-268 1760,-268 1760,-268 1760,-268 1765,-268 1760,-263.5 1770,-268 1770,-268"/>
</g>
<!-- node_19&#45;&gt;cluster_6 -->
<g id="edge30" class="edge"><title>node_19&#45;&gt;cluster_6</title>
<path fill="none" stroke="black" stroke-width="2" d="M1822.84,-248.532C1679.43,-233.615 1476.67,-212.525 1299.04,-194.049"/>
<polygon fill="black" stroke="black" points="1299.3,-190.557 1288.99,-193.004 1298.57,-197.52 1299.3,-190.557"/>
</g>
<!-- node_21&#45;&gt;node_22 -->
<g id="edge10" class="edge"><title>node_21&#45;&gt;node_22</title>
<path fill="none" stroke="#9a32cd" d="M637.064,-154C645.582,-154 654.146,-154 662.729,-154"/>
<polygon fill="#9a32cd" stroke="#9a32cd" points="672.811,-154 662.811,-158.5 667.811,-154 662.811,-154 662.811,-154 662.811,-154 667.811,-154 662.811,-149.5 672.811,-154 672.811,-154"/>
</g>
<!-- node_22&#45;&gt;node_23 -->
<g id="edge11" class="edge"><title>node_22&#45;&gt;node_23</title>
<path fill="none" stroke="#9a32cd" d="M1311.01,-154C1319.97,-154 1328.86,-154 1337.63,-154"/>
<polygon fill="#9a32cd" stroke="#9a32cd" points="1347.88,-154 1337.88,-158.5 1342.88,-154 1337.88,-154 1337.88,-154 1337.88,-154 1342.88,-154 1337.88,-149.5 1347.88,-154 1347.88,-154"/>
</g>
<!-- node_24&#45;&gt;cluster_8 -->
<g id="edge31" class="edge"><title>node_24&#45;&gt;cluster_8</title>
<path fill="none" stroke="black" stroke-width="2" d="M2534,-236.849C2534,-226.552 2534,-214.828 2534,-203.505"/>
<polygon fill="black" stroke="black" points="2537.5,-203.272 2534,-193.272 2530.5,-203.272 2537.5,-203.272"/>
</g>
<!-- node_26&#45;&gt;node_27 -->
<g id="edge12" class="edge"><title>node_26&#45;&gt;node_27</title>
<path fill="none" stroke="#9a32cd" d="M2248.1,-154C2256.94,-154 2265.83,-154 2274.76,-154"/>
<polygon fill="#9a32cd" stroke="#9a32cd" points="2284.85,-154 2274.85,-158.5 2279.85,-154 2274.85,-154 2274.85,-154 2274.85,-154 2279.85,-154 2274.85,-149.5 2284.85,-154 2284.85,-154"/>
</g>
<!-- node_27&#45;&gt;node_28 -->
<g id="edge13" class="edge"><title>node_27&#45;&gt;node_28</title>
<path fill="none" stroke="#9a32cd" d="M2899.35,-154C2908.17,-154 2916.93,-154 2925.58,-154"/>
<polygon fill="#9a32cd" stroke="#9a32cd" points="2935.69,-154 2925.69,-158.5 2930.69,-154 2925.69,-154 2925.69,-154 2925.69,-154 2930.69,-154 2925.69,-149.5 2935.69,-154 2935.69,-154"/>
</g>
<!-- node_29&#45;&gt;cluster_10 -->
<g id="edge32" class="edge"><title>node_29&#45;&gt;cluster_10</title>
<path fill="none" stroke="black" stroke-width="2" d="M3555.85,-352.346C3584.02,-339.85 3617.37,-325.057 3648.21,-311.376"/>
<polygon fill="black" stroke="black" points="3649.97,-314.423 3657.7,-307.169 3647.14,-308.025 3649.97,-314.423"/>
</g>
<!-- node_31&#45;&gt;cluster_11 -->
<g id="edge33" class="edge"><title>node_31&#45;&gt;cluster_11</title>
<path fill="none" stroke="black" stroke-width="2" d="M3403.97,-242.416C3457.25,-228.642 3524.31,-211.309 3584.89,-195.647"/>
<polygon fill="black" stroke="black" points="3586.14,-198.939 3594.95,-193.048 3584.39,-192.162 3586.14,-198.939"/>
</g>
<!-- node_31&#45;&gt;node_32 -->
<g id="edge14" class="edge"><title>node_31&#45;&gt;node_32</title>
<path fill="none" stroke="#9a32cd" d="M3480.27,-268C3489.32,-268 3498.42,-268 3507.5,-268"/>
<polygon fill="#9a32cd" stroke="#9a32cd" points="3517.73,-268 3507.73,-272.5 3512.73,-268 3507.73,-268 3507.73,-268 3507.73,-268 3512.73,-268 3507.73,-263.5 3517.73,-268 3517.73,-268"/>
</g>
<!-- node_32&#45;&gt;cluster_14 -->
<g id="edge34" class="edge"><title>node_32&#45;&gt;cluster_14</title>
<path fill="none" stroke="black" stroke-width="2" d="M3845.13,-252.625C4033.39,-233.599 4356.28,-200.966 4578.77,-178.48"/>
<polygon fill="black" stroke="black" points="4579.36,-181.939 4588.96,-177.451 4578.66,-174.974 4579.36,-181.939"/>
</g>
<!-- node_32&#45;&gt;node_33 -->
<g id="edge15" class="edge"><title>node_32&#45;&gt;node_33</title>
<path fill="none" stroke="#9a32cd" d="M3868.25,-268C3877.34,-268 3886.53,-268 3895.77,-268"/>
<polygon fill="#9a32cd" stroke="#9a32cd" points="3905.81,-268 3895.81,-272.5 3900.81,-268 3895.81,-268 3895.81,-268 3895.81,-268 3900.81,-268 3895.81,-263.5 3905.81,-268 3905.81,-268"/>
</g>
<!-- node_34&#45;&gt;node_35 -->
<g id="edge16" class="edge"><title>node_34&#45;&gt;node_35</title>
<path fill="none" stroke="#9a32cd" d="M3696.27,-154C3705.41,-154 3714.63,-154 3723.88,-154"/>
<polygon fill="#9a32cd" stroke="#9a32cd" points="3733.92,-154 3723.92,-158.5 3728.92,-154 3723.92,-154 3723.92,-154 3723.92,-154 3728.92,-154 3723.92,-149.5 3733.92,-154 3733.92,-154"/>
</g>
<!-- node_35&#45;&gt;cluster_12 -->
<g id="edge35" class="edge"><title>node_35&#45;&gt;cluster_12</title>
<path fill="none" stroke="black" stroke-width="2" d="M3843.21,-126.622C3795.75,-113.195 3737.55,-96.7315 3684.68,-81.7766"/>
<polygon fill="black" stroke="black" points="3685.45,-78.3571 3674.88,-79.0029 3683.55,-85.0928 3685.45,-78.3571"/>
</g>
<!-- node_37&#45;&gt;node_38 -->
<g id="edge17" class="edge"><title>node_37&#45;&gt;node_38</title>
<path fill="none" stroke="#9a32cd" d="M3294.24,-40C3302.7,-40 3311.21,-40 3319.73,-40"/>
<polygon fill="#9a32cd" stroke="#9a32cd" points="3329.73,-40 3319.73,-44.5001 3324.73,-40.0001 3319.73,-40.0001 3319.73,-40.0001 3319.73,-40.0001 3324.73,-40.0001 3319.73,-35.5001 3329.73,-40 3329.73,-40"/>
</g>
<!-- node_38&#45;&gt;node_39 -->
<g id="edge18" class="edge"><title>node_38&#45;&gt;node_39</title>
<path fill="none" stroke="#9a32cd" d="M3880.16,-40C3889.07,-40 3897.92,-40 3906.66,-40"/>
<polygon fill="#9a32cd" stroke="#9a32cd" points="3916.87,-40 3906.87,-44.5001 3911.87,-40.0001 3906.87,-40.0001 3906.87,-40.0001 3906.87,-40.0001 3911.87,-40.0001 3906.87,-35.5001 3916.87,-40 3916.87,-40"/>
</g>
<!-- node_40&#45;&gt;cluster_15 -->
<g id="edge36" class="edge"><title>node_40&#45;&gt;cluster_15</title>
<path fill="none" stroke="black" stroke-width="2" d="M4875.92,-123.899C4898.22,-111.678 4924.42,-97.3179 4948.78,-83.9656"/>
<polygon fill="black" stroke="black" points="4950.57,-86.9733 4957.66,-79.0978 4947.21,-80.8348 4950.57,-86.9733"/>
</g>
<!-- node_42&#45;&gt;node_43 -->
<g id="edge19" class="edge"><title>node_42&#45;&gt;node_43</title>
<path fill="none" stroke="#9a32cd" d="M4767.08,-40C4775.94,-40 4784.87,-40 4793.83,-40"/>
<polygon fill="#9a32cd" stroke="#9a32cd" points="4803.94,-40 4793.94,-44.5001 4798.94,-40.0001 4793.94,-40.0001 4793.94,-40.0001 4793.94,-40.0001 4798.94,-40.0001 4793.94,-35.5001 4803.94,-40 4803.94,-40"/>
</g>
<!-- node_43&#45;&gt;node_44 -->
<g id="edge20" class="edge"><title>node_43&#45;&gt;node_44</title>
<path fill="none" stroke="#9a32cd" d="M5368.35,-40C5377.2,-40 5386,-40 5394.68,-40"/>
<polygon fill="#9a32cd" stroke="#9a32cd" points="5404.82,-40 5394.82,-44.5001 5399.82,-40.0001 5394.82,-40.0001 5394.82,-40.0001 5394.82,-40.0001 5399.82,-40.0001 5394.82,-35.5001 5404.82,-40 5404.82,-40"/>
</g>
</g>
</svg>
