<?xml version="1.0" encoding="UTF-8" standalone="no"?>
<!DOCTYPE svg PUBLIC "-//W3C//DTD SVG 1.1//EN"
 "http://www.w3.org/Graphics/SVG/1.1/DTD/svg11.dtd">
<!-- Generated by graphviz version 2.26.3 (20100126.1600)
 -->
<!-- Title: final_graph Pages: 1 -->
<svg width="856pt" height="202pt"
 viewBox="0.00 0.00 856.00 202.00" xmlns="http://www.w3.org/2000/svg" xmlns:xlink="http://www.w3.org/1999/xlink">
<g id="graph1" class="graph" transform="scale(1 1) rotate(0) translate(4 198)">
<title>final_graph</title>
<polygon fill="white" stroke="white" points="-4,5 -4,-198 853,-198 853,5 -4,5"/>
<!-- cluster_0 -->
<g id="node1" class="node"><title>cluster_0</title>
<polygon fill="none" stroke="blue" points="651,-193 197,-193 197,-115 651,-115 651,-193"/>
<text text-anchor="middle" x="424" y="-150.4" font-family="Times Roman,serif" font-size="14.00"> </text>
</g>
<!-- cluster_1 -->
<g id="node2" class="node"><title>cluster_1</title>
<polygon fill="none" stroke="blue" points="847,-79 1,-79 1,-1.00002 847,-1.00002 847,-79"/>
<text text-anchor="middle" x="424" y="-36.4" font-family="Times Roman,serif" font-size="14.00"> </text>
</g>
<!-- node_1 -->
<g id="node3" class="node"><title>node_1</title>
<ellipse fill="#c1cdcd" stroke="black" cx="424" cy="-154" rx="217.996" ry="31.1127"/>
<text text-anchor="middle" x="424" y="-159.4" font-family="Times Roman,serif" font-size="14.00">Bring</text>
<text text-anchor="middle" x="424" y="-141.4" font-family="Times Roman,serif" font-size="14.00">(PR2_ROBOT BRACKET_1 STOCK_TABLE )</text>
</g>
<!-- node_2 -->
<g id="node4" class="node"><title>node_2</title>
<ellipse fill="#ffffcc" stroke="black" cx="248" cy="-40" rx="237.795" ry="31.1127"/>
<text text-anchor="middle" x="248" y="-45.4" font-family="Times Roman,serif" font-size="14.00">Pick</text>
<text text-anchor="middle" x="248" y="-27.4" font-family="Times Roman,serif" font-size="14.00">(PR2_ROBOT BRACKET_1 PLACEMENT_ST_1 )</text>
</g>
<!-- node_3 -->
<g id="node5" class="node"><title>node_3</title>
<ellipse fill="#ffffcc" stroke="black" cx="681" cy="-40" rx="157.184" ry="31.1127"/>
<text text-anchor="middle" x="681" y="-45.4" font-family="Times Roman,serif" font-size="14.00">TravelTo</text>
<text text-anchor="middle" x="681" y="-27.4" font-family="Times Roman,serif" font-size="14.00">(PR2_ROBOT STOCK_TABLE )</text>
</g>
<!-- node_1&#45;&gt;cluster_1 -->
<g id="edge2" class="edge"><title>node_1&#45;&gt;cluster_1</title>
<path fill="none" stroke="black" stroke-width="2" d="M424,-122.849C424,-112.552 424,-100.828 424,-89.5054"/>
<polygon fill="black" stroke="black" points="427.5,-89.2722 424,-79.2722 420.5,-89.2723 427.5,-89.2722"/>
</g>
<!-- node_2&#45;&gt;node_3 -->
<g id="edge1" class="edge"><title>node_2&#45;&gt;node_3</title>
<path fill="none" stroke="#9a32cd" d="M486.034,-40C495.314,-40 504.542,-40 513.647,-40"/>
<polygon fill="#9a32cd" stroke="#9a32cd" points="523.871,-40 513.871,-44.5001 518.871,-40.0001 513.871,-40.0001 513.871,-40.0001 513.871,-40.0001 518.871,-40.0001 513.871,-35.5001 523.871,-40 523.871,-40"/>
</g>
</g>
</svg>
