<?xml version="1.0" encoding="UTF-8" standalone="no"?>
<!DOCTYPE svg PUBLIC "-//W3C//DTD SVG 1.1//EN"
 "http://www.w3.org/Graphics/SVG/1.1/DTD/svg11.dtd">
<!-- Generated by graphviz version 2.26.3 (20100126.1600)
 -->
<!-- Title: graphForClustersContents Pages: 1 -->
<svg width="2748pt" height="202pt"
 viewBox="0.00 0.00 2748.00 202.00" xmlns="http://www.w3.org/2000/svg" xmlns:xlink="http://www.w3.org/1999/xlink">
<g id="graph1" class="graph" transform="scale(1 1) rotate(0) translate(4 198)">
<title>graphForClustersContents</title>
<polygon fill="white" stroke="white" points="-4,5 -4,-198 2745,-198 2745,5 -4,5"/>
<!-- node4035 -->
<g id="node2" class="node"><title>node4035</title>
<ellipse fill="#ffffcc" stroke="black" cx="187" cy="-80" rx="186.176" ry="43.8406"/>
<text text-anchor="middle" x="187" y="-94.4" font-family="Times Roman,serif" font-size="14.00">TravelTo</text>
<text text-anchor="middle" x="187" y="-76.4" font-family="Times Roman,serif" font-size="14.00">(PR2_ROBOT WORK_LOCATION_3 )</text>
<text text-anchor="middle" x="187" y="-58.4" font-family="Times Roman,serif" font-size="14.00">[0, 10]</text>
</g>
<!-- node4040 -->
<g id="node4" class="node"><title>node4040</title>
<ellipse fill="#ffffcc" stroke="black" cx="554" cy="-80" rx="144.25" ry="43.8406"/>
<text text-anchor="middle" x="554" y="-94.4" font-family="Times Roman,serif" font-size="14.00">Place</text>
<text text-anchor="middle" x="554" y="-76.4" font-family="Times Roman,serif" font-size="14.00">(PR2_ROBOT BRACKET_3 )</text>
<text text-anchor="middle" x="554" y="-58.4" font-family="Times Roman,serif" font-size="14.00">[10, 20]</text>
</g>
<!-- node4035&#45;&gt;node4040 -->
<g id="edge8" class="edge"><title>node4035&#45;&gt;node4040</title>
<path fill="none" stroke="#9a32cd" d="M373.725,-80C382.444,-80 391.152,-80 399.772,-80"/>
<polygon fill="#9a32cd" stroke="#9a32cd" points="409.846,-80 399.846,-84.5001 404.846,-80 399.846,-80.0001 399.846,-80.0001 399.846,-80.0001 404.846,-80 399.846,-75.5001 409.846,-80 409.846,-80"/>
</g>
<!-- node4036 -->
<g id="node6" class="node"><title>node4036</title>
<ellipse fill="#ffffcc" stroke="black" cx="936" cy="-80" rx="201.025" ry="43.8406"/>
<text text-anchor="middle" x="936" y="-94.4" font-family="Times Roman,serif" font-size="14.00">StartPointing</text>
<text text-anchor="middle" x="936" y="-76.4" font-family="Times Roman,serif" font-size="14.00">(PR2_ROBOT ASSEMBLY_SURFACE_3 )</text>
<text text-anchor="middle" x="936" y="-58.4" font-family="Times Roman,serif" font-size="14.00">[20, 21]</text>
</g>
<!-- node4040&#45;&gt;node4036 -->
<g id="edge13" class="edge"><title>node4040&#45;&gt;node4036</title>
<path fill="none" stroke="#9a32cd" d="M698.146,-80C706.654,-80 715.295,-80 723.994,-80"/>
<polygon fill="#9a32cd" stroke="#9a32cd" points="734.229,-80 724.229,-84.5001 729.229,-80 724.229,-80.0001 724.229,-80.0001 724.229,-80.0001 729.229,-80 724.229,-75.5001 734.229,-80 734.229,-80"/>
</g>
<!-- node4037 -->
<g id="node8" class="node"><title>node4037</title>
<ellipse fill="#cce6ff" stroke="black" cx="1416" cy="-116" rx="241.831" ry="43.8406"/>
<text text-anchor="middle" x="1416" y="-130.4" font-family="Times Roman,serif" font-size="14.00">Clean</text>
<text text-anchor="middle" x="1416" y="-112.4" font-family="Times Roman,serif" font-size="14.00">(HERAKLES_HUMAN1 ASSEMBLY_SURFACE_3 )</text>
<text text-anchor="middle" x="1416" y="-94.4" font-family="Times Roman,serif" font-size="14.00">[21, 41]</text>
</g>
<!-- node4036&#45;&gt;node4037 -->
<g id="edge9" class="edge"><title>node4036&#45;&gt;node4037</title>
<path fill="none" stroke="#9a32cd" d="M1126.74,-94.3057C1144.93,-95.6694 1163.5,-97.0627 1182.03,-98.4524"/>
<polygon fill="#9a32cd" stroke="#9a32cd" points="1192.01,-99.2011 1181.71,-102.94 1187.03,-98.8271 1182.04,-98.4531 1182.04,-98.4531 1182.04,-98.4531 1187.03,-98.8271 1182.38,-93.9657 1192.01,-99.2011 1192.01,-99.2011"/>
</g>
<!-- node4038 -->
<g id="node11" class="node"><title>node4038</title>
<ellipse fill="#ffffcc" stroke="black" cx="1896" cy="-44" rx="201.025" ry="43.8406"/>
<text text-anchor="middle" x="1896" y="-58.4" font-family="Times Roman,serif" font-size="14.00">StopPointing</text>
<text text-anchor="middle" x="1896" y="-40.4" font-family="Times Roman,serif" font-size="14.00">(PR2_ROBOT ASSEMBLY_SURFACE_3 )</text>
<text text-anchor="middle" x="1896" y="-22.4" font-family="Times Roman,serif" font-size="14.00">[41, 42]</text>
</g>
<!-- node4036&#45;&gt;node4038 -->
<g id="edge10" class="edge"><title>node4036&#45;&gt;node4038</title>
<path fill="none" stroke="#9a32cd" d="M1126.59,-65.6242C1142.62,-64.6465 1158.59,-63.7529 1174,-63 1345.69,-54.6135 1540.53,-49.7606 1684.5,-47.0616"/>
<polygon fill="#9a32cd" stroke="#9a32cd" points="1694.78,-46.871 1684.87,-51.5558 1689.78,-46.9638 1684.78,-47.0565 1684.78,-47.0565 1684.78,-47.0565 1689.78,-46.9638 1684.7,-42.5573 1694.78,-46.871 1694.78,-46.871"/>
</g>
<!-- node4033 -->
<g id="node10" class="node"><title>node4033</title>
<ellipse fill="#cce6ff" stroke="black" cx="1896" cy="-150" rx="184.055" ry="43.8406"/>
<text text-anchor="middle" x="1896" y="-164.4" font-family="Times Roman,serif" font-size="14.00">Pick</text>
<text text-anchor="middle" x="1896" y="-146.4" font-family="Times Roman,serif" font-size="14.00">(HERAKLES_HUMAN1 BRACKET_3 )</text>
<text text-anchor="middle" x="1896" y="-128.4" font-family="Times Roman,serif" font-size="14.00">[41, 51]</text>
</g>
<!-- node4037&#45;&gt;node4033 -->
<g id="edge11" class="edge"><title>node4037&#45;&gt;node4033</title>
<path fill="none" stroke="#9a32cd" d="M1641.59,-131.98C1664.07,-133.572 1686.72,-135.176 1708.74,-136.736"/>
<polygon fill="#9a32cd" stroke="#9a32cd" points="1718.81,-137.449 1708.52,-141.231 1713.82,-137.096 1708.83,-136.742 1708.83,-136.742 1708.83,-136.742 1713.82,-137.096 1709.15,-132.254 1718.81,-137.449 1718.81,-137.449"/>
</g>
<!-- node4037&#45;&gt;node4038 -->
<g id="edge12" class="edge"><title>node4037&#45;&gt;node4038</title>
<path fill="none" stroke="#9a32cd" d="M1602.95,-87.9568C1641.38,-82.1936 1681.71,-76.1441 1719.73,-70.4398"/>
<polygon fill="#9a32cd" stroke="#9a32cd" points="1729.87,-68.9193 1720.65,-74.853 1724.93,-69.6611 1719.98,-70.4028 1719.98,-70.4028 1719.98,-70.4028 1724.93,-69.6611 1719.31,-65.9526 1729.87,-68.9193 1729.87,-68.9193"/>
</g>
<!-- node4041 -->
<g id="node13" class="node"><title>node4041</title>
<ellipse fill="#cce6ff" stroke="black" cx="2437" cy="-150" rx="302.141" ry="43.8406"/>
<text text-anchor="middle" x="2437" y="-164.4" font-family="Times Roman,serif" font-size="14.00">AttachBracket</text>
<text text-anchor="middle" x="2437" y="-146.4" font-family="Times Roman,serif" font-size="14.00">(HERAKLES_HUMAN1 BRACKET_3 ASSEMBLY_SURFACE_3 )</text>
<text text-anchor="middle" x="2437" y="-128.4" font-family="Times Roman,serif" font-size="14.00">[51, 71]</text>
</g>
<!-- node4033&#45;&gt;node4041 -->
<g id="edge7" class="edge"><title>node4033&#45;&gt;node4041</title>
<path fill="none" stroke="#9a32cd" d="M2080.67,-150C2094.84,-150 2109.37,-150 2124.07,-150"/>
<polygon fill="#9a32cd" stroke="#9a32cd" points="2134.27,-150 2124.27,-154.5 2129.27,-150 2124.27,-150 2124.27,-150 2124.27,-150 2129.27,-150 2124.27,-145.5 2134.27,-150 2134.27,-150"/>
</g>
</g>
</svg>
