<?xml version="1.0" encoding="UTF-8" standalone="no"?>
<!DOCTYPE svg PUBLIC "-//W3C//DTD SVG 1.1//EN"
 "http://www.w3.org/Graphics/SVG/1.1/DTD/svg11.dtd">
<!-- Generated by graphviz version 2.26.3 (20100126.1600)
 -->
<!-- Title: final_graph Pages: 1 -->
<svg width="5972pt" height="784pt"
 viewBox="0.00 0.00 5972.00 784.00" xmlns="http://www.w3.org/2000/svg" xmlns:xlink="http://www.w3.org/1999/xlink">
<g id="graph1" class="graph" transform="scale(1 1) rotate(0) translate(4 780)">
<title>final_graph</title>
<polygon fill="white" stroke="white" points="-4,5 -4,-780 5969,-780 5969,5 -4,5"/>
<!-- cluster_0 -->
<g id="node1" class="node"><title>cluster_0</title>
<polygon fill="none" stroke="blue" points="3028,-774.998 2738,-774.998 2738,-696.998 3028,-696.998 3028,-774.998"/>
<text text-anchor="middle" x="2883" y="-732.398" font-family="Times Roman,serif" font-size="14.00"> </text>
</g>
<!-- cluster_1 -->
<g id="node2" class="node"><title>cluster_1</title>
<polygon fill="none" stroke="blue" points="3258,-661 2508,-661 2508,-583 3258,-583 3258,-661"/>
<text text-anchor="middle" x="2883" y="-618.4" font-family="Times Roman,serif" font-size="14.00"> </text>
</g>
<!-- cluster_2 -->
<g id="node3" class="node"><title>cluster_2</title>
<polygon fill="none" stroke="blue" points="4080,-547 1686,-547 1686,-309 4080,-309 4080,-547"/>
<text text-anchor="middle" x="2883" y="-424.4" font-family="Times Roman,serif" font-size="14.00"> </text>
</g>
<!-- cluster_3 -->
<g id="node4" class="node"><title>cluster_3</title>
<polygon fill="none" stroke="blue" points="991,-233 1,-233 1,-155 991,-155 991,-233"/>
<text text-anchor="middle" x="496" y="-190.4" font-family="Times Roman,serif" font-size="14.00"> </text>
</g>
<!-- cluster_4 -->
<g id="node5" class="node"><title>cluster_4</title>
<polygon fill="none" stroke="blue" points="2105,-233 1009,-233 1009,-155 2105,-155 2105,-233"/>
<text text-anchor="middle" x="1557" y="-190.4" font-family="Times Roman,serif" font-size="14.00"> </text>
</g>
<!-- cluster_5 -->
<g id="node6" class="node"><title>cluster_5</title>
<polygon fill="none" stroke="blue" points="2665,-233 2123,-233 2123,-155 2665,-155 2665,-233"/>
<text text-anchor="middle" x="2394" y="-190.4" font-family="Times Roman,serif" font-size="14.00"> </text>
</g>
<!-- cluster_6 -->
<g id="node7" class="node"><title>cluster_6</title>
<polygon fill="none" stroke="blue" points="4063,-273 2683,-273 2683,-115 4063,-115 4063,-273"/>
<text text-anchor="middle" x="3373" y="-190.4" font-family="Times Roman,serif" font-size="14.00"> </text>
</g>
<!-- cluster_7 -->
<g id="node8" class="node"><title>cluster_7</title>
<polygon fill="none" stroke="blue" points="4917,-233 4081,-233 4081,-155 4917,-155 4917,-233"/>
<text text-anchor="middle" x="4499" y="-190.4" font-family="Times Roman,serif" font-size="14.00"> </text>
</g>
<!-- cluster_8 -->
<g id="node9" class="node"><title>cluster_8</title>
<polygon fill="none" stroke="blue" points="5032,-79 3966,-79 3966,-1.00002 5032,-1.00002 5032,-79"/>
<text text-anchor="middle" x="4499" y="-36.4" font-family="Times Roman,serif" font-size="14.00"> </text>
</g>
<!-- cluster_9 -->
<g id="node10" class="node"><title>cluster_9</title>
<polygon fill="none" stroke="blue" points="5963,-233 4935,-233 4935,-155 5963,-155 5963,-233"/>
<text text-anchor="middle" x="5449" y="-190.4" font-family="Times Roman,serif" font-size="14.00"> </text>
</g>
<!-- node_331 -->
<g id="node11" class="node"><title>node_331</title>
<ellipse fill="#c1cdcd" stroke="black" cx="2883" cy="-735.998" rx="137.179" ry="31.1127"/>
<ellipse fill="none" stroke="black" cx="2883" cy="-735.998" rx="141.179" ry="35.1127"/>
<text text-anchor="middle" x="2883" y="-741.398" font-family="Times Roman,serif" font-size="14.00">HandleSurface</text>
<text text-anchor="middle" x="2883" y="-723.398" font-family="Times Roman,serif" font-size="14.00">(ASSEMBLY_SURFACE_1 )</text>
</g>
<!-- node_332 -->
<g id="node12" class="node"><title>node_332</title>
<ellipse fill="#c1cdcd" stroke="black" cx="2883" cy="-622" rx="367" ry="31.1127"/>
<ellipse fill="none" stroke="black" cx="2883" cy="-622" rx="371" ry="35.1127"/>
<text text-anchor="middle" x="2883" y="-627.4" font-family="Times Roman,serif" font-size="14.00">AssembleOneBracket</text>
<text text-anchor="middle" x="2883" y="-609.4" font-family="Times Roman,serif" font-size="14.00">(HERAKLES_HUMAN1 PR2_ROBOT BRACKET_1 ASSEMBLY_SURFACE_1 )</text>
</g>
<!-- node_333 -->
<g id="node13" class="node"><title>node_333</title>
<ellipse fill="#c1cdcd" stroke="black" cx="1957" cy="-508" rx="242" ry="31.1127"/>
<text text-anchor="middle" x="1957" y="-513.4" font-family="Times Roman,serif" font-size="14.00">CleanSurface</text>
<text text-anchor="middle" x="1957" y="-495.4" font-family="Times Roman,serif" font-size="14.00">(HERAKLES_HUMAN1 ASSEMBLY_SURFACE_1 )</text>
</g>
<!-- node_334 -->
<g id="node14" class="node"><title>node_334</title>
<ellipse fill="#c1cdcd" stroke="black" cx="1957" cy="-428" rx="261.837" ry="31.1127"/>
<text text-anchor="middle" x="1957" y="-433.4" font-family="Times Roman,serif" font-size="14.00">Bring</text>
<text text-anchor="middle" x="1957" y="-415.4" font-family="Times Roman,serif" font-size="14.00">(PR2_ROBOT GLUE_BOTTLE WORK_LOCATION_1 )</text>
</g>
<!-- node_335 -->
<g id="node15" class="node"><title>node_335</title>
<ellipse fill="#c1cdcd" stroke="black" cx="2519" cy="-428" rx="263.044" ry="31.1127"/>
<ellipse fill="none" stroke="black" cx="2519" cy="-428" rx="267.044" ry="35.1127"/>
<text text-anchor="middle" x="2519" y="-433.4" font-family="Times Roman,serif" font-size="14.00">GiveGlue</text>
<text text-anchor="middle" x="2519" y="-415.4" font-family="Times Roman,serif" font-size="14.00">(PR2_ROBOT HERAKLES_HUMAN1 GLUE_BOTTLE )</text>
</g>
<!-- node_336 -->
<g id="node16" class="node"><title>node_336</title>
<ellipse fill="#c1cdcd" stroke="black" cx="3124" cy="-413.001" rx="306.177" ry="31.1127"/>
<ellipse fill="none" stroke="black" cx="3124" cy="-413.001" rx="310.177" ry="35.1127"/>
<text text-anchor="middle" x="3124" y="-418.401" font-family="Times Roman,serif" font-size="14.00">ApplyGlue</text>
<text text-anchor="middle" x="3124" y="-400.401" font-family="Times Roman,serif" font-size="14.00">(HERAKLES_HUMAN1 PR2_ROBOT ASSEMBLY_SURFACE_1 )</text>
</g>
<!-- node_337 -->
<g id="node17" class="node"><title>node_337</title>
<ellipse fill="#c1cdcd" stroke="black" cx="1957" cy="-348" rx="261.837" ry="31.1127"/>
<text text-anchor="middle" x="1957" y="-353.4" font-family="Times Roman,serif" font-size="14.00">PrepareBracket</text>
<text text-anchor="middle" x="1957" y="-335.4" font-family="Times Roman,serif" font-size="14.00">(PR2_ROBOT BRACKET_1 ASSEMBLY_SURFACE_1 )</text>
</g>
<!-- node_338 -->
<g id="node18" class="node"><title>node_338</title>
<ellipse fill="#c1cdcd" stroke="black" cx="3769" cy="-380" rx="302.141" ry="31.1127"/>
<text text-anchor="middle" x="3769" y="-385.4" font-family="Times Roman,serif" font-size="14.00">PlaceBracket</text>
<text text-anchor="middle" x="3769" y="-367.4" font-family="Times Roman,serif" font-size="14.00">(HERAKLES_HUMAN1 BRACKET_1 ASSEMBLY_SURFACE_1 )</text>
</g>
<!-- node_339 -->
<g id="node19" class="node"><title>node_339</title>
<ellipse fill="#ffffcc" stroke="black" cx="236" cy="-194" rx="227" ry="31.1127"/>
<text text-anchor="middle" x="236" y="-199.4" font-family="Times Roman,serif" font-size="14.00">TravelTo</text>
<text text-anchor="middle" x="236" y="-181.4" font-family="Times Roman,serif" font-size="14.00">(HERAKLES_HUMAN1 WORK_LOCATION_1 )</text>
</g>
<!-- node_340 -->
<g id="node20" class="node"><title>node_340</title>
<ellipse fill="#ffffcc" stroke="black" cx="741.002" cy="-194" rx="242" ry="31.1127"/>
<text text-anchor="middle" x="741.002" y="-199.4" font-family="Times Roman,serif" font-size="14.00">Clean</text>
<text text-anchor="middle" x="741.002" y="-181.4" font-family="Times Roman,serif" font-size="14.00">(HERAKLES_HUMAN1 ASSEMBLY_SURFACE_1 )</text>
</g>
<!-- node_341 -->
<g id="node21" class="node"><title>node_341</title>
<ellipse fill="#cce6ff" stroke="black" cx="1175" cy="-194" rx="157.184" ry="31.1127"/>
<text text-anchor="middle" x="1175" y="-199.4" font-family="Times Roman,serif" font-size="14.00">TravelTo</text>
<text text-anchor="middle" x="1175" y="-181.4" font-family="Times Roman,serif" font-size="14.00">(PR2_ROBOT STOCK_TABLE )</text>
</g>
<!-- node_342 -->
<g id="node22" class="node"><title>node_342</title>
<ellipse fill="#cce6ff" stroke="black" cx="1528" cy="-194" rx="157.892" ry="31.1127"/>
<text text-anchor="middle" x="1528" y="-199.4" font-family="Times Roman,serif" font-size="14.00">Pick</text>
<text text-anchor="middle" x="1528" y="-181.4" font-family="Times Roman,serif" font-size="14.00">(PR2_ROBOT GLUE_BOTTLE )</text>
</g>
<!-- node_343 -->
<g id="node23" class="node"><title>node_343</title>
<ellipse fill="#cce6ff" stroke="black" cx="1910" cy="-194" rx="186.176" ry="31.1127"/>
<text text-anchor="middle" x="1910" y="-199.4" font-family="Times Roman,serif" font-size="14.00">TravelTo</text>
<text text-anchor="middle" x="1910" y="-181.4" font-family="Times Roman,serif" font-size="14.00">(PR2_ROBOT WORK_LOCATION_1 )</text>
</g>
<!-- node_346 -->
<g id="node24" class="node"><title>node_346</title>
<ellipse fill="#e5f2e5" stroke="black" cx="2394" cy="-194" rx="263.044" ry="31.1127"/>
<ellipse fill="none" stroke="black" cx="2394" cy="-194" rx="267.044" ry="35.1127"/>
<text text-anchor="middle" x="2394" y="-199.4" font-family="Times Roman,serif" font-size="14.00">HandOver</text>
<text text-anchor="middle" x="2394" y="-181.4" font-family="Times Roman,serif" font-size="14.00">(PR2_ROBOT HERAKLES_HUMAN1 GLUE_BOTTLE )</text>
</g>
<!-- node_381 -->
<g id="node25" class="node"><title>node_381</title>
<ellipse fill="#cce6ff" stroke="black" cx="2893" cy="-194" rx="201.025" ry="31.1127"/>
<text text-anchor="middle" x="2893" y="-199.4" font-family="Times Roman,serif" font-size="14.00">StartPointing</text>
<text text-anchor="middle" x="2893" y="-181.4" font-family="Times Roman,serif" font-size="14.00">(PR2_ROBOT ASSEMBLY_SURFACE_1 )</text>
</g>
<!-- node_382 -->
<g id="node26" class="node"><title>node_382</title>
<ellipse fill="#ffffcc" stroke="black" cx="3373" cy="-194" rx="242" ry="31.1127"/>
<text text-anchor="middle" x="3373" y="-199.4" font-family="Times Roman,serif" font-size="14.00">Glue</text>
<text text-anchor="middle" x="3373" y="-181.4" font-family="Times Roman,serif" font-size="14.00">(HERAKLES_HUMAN1 ASSEMBLY_SURFACE_1 )</text>
</g>
<!-- node_383 -->
<g id="node27" class="node"><title>node_383</title>
<ellipse fill="#cce6ff" stroke="black" cx="3853" cy="-154" rx="201.025" ry="31.1127"/>
<text text-anchor="middle" x="3853" y="-159.4" font-family="Times Roman,serif" font-size="14.00">StopPointing</text>
<text text-anchor="middle" x="3853" y="-141.4" font-family="Times Roman,serif" font-size="14.00">(PR2_ROBOT ASSEMBLY_SURFACE_1 )</text>
</g>
<!-- node_384 -->
<g id="node28" class="node"><title>node_384</title>
<ellipse fill="#ffffcc" stroke="black" cx="3853" cy="-234.001" rx="198.197" ry="31.1127"/>
<text text-anchor="middle" x="3853" y="-239.401" font-family="Times Roman,serif" font-size="14.00">Place</text>
<text text-anchor="middle" x="3853" y="-221.401" font-family="Times Roman,serif" font-size="14.00">(HERAKLES_HUMAN1 GLUE_BOTTLE )</text>
</g>
<!-- node_385 -->
<g id="node29" class="node"><title>node_385</title>
<ellipse fill="#c1cdcd" stroke="black" cx="4337" cy="-194" rx="246.987" ry="31.1127"/>
<text text-anchor="middle" x="4337" y="-199.4" font-family="Times Roman,serif" font-size="14.00">Bring</text>
<text text-anchor="middle" x="4337" y="-181.4" font-family="Times Roman,serif" font-size="14.00">(PR2_ROBOT BRACKET_1 WORK_LOCATION_1 )</text>
</g>
<!-- node_386 -->
<g id="node30" class="node"><title>node_386</title>
<ellipse fill="#cce6ff" stroke="black" cx="4765" cy="-194" rx="144.25" ry="31.1127"/>
<text text-anchor="middle" x="4765" y="-199.4" font-family="Times Roman,serif" font-size="14.00">Place</text>
<text text-anchor="middle" x="4765" y="-181.4" font-family="Times Roman,serif" font-size="14.00">(PR2_ROBOT BRACKET_1 )</text>
</g>
<!-- node_387 -->
<g id="node31" class="node"><title>node_387</title>
<ellipse fill="#cce6ff" stroke="black" cx="4132" cy="-40" rx="157.184" ry="31.1127"/>
<text text-anchor="middle" x="4132" y="-45.4" font-family="Times Roman,serif" font-size="14.00">TravelTo</text>
<text text-anchor="middle" x="4132" y="-27.4" font-family="Times Roman,serif" font-size="14.00">(PR2_ROBOT STOCK_TABLE )</text>
</g>
<!-- node_388 -->
<g id="node32" class="node"><title>node_388</title>
<ellipse fill="#cce6ff" stroke="black" cx="4470" cy="-40" rx="144.25" ry="31.1127"/>
<text text-anchor="middle" x="4470" y="-45.4" font-family="Times Roman,serif" font-size="14.00">Pick</text>
<text text-anchor="middle" x="4470" y="-27.4" font-family="Times Roman,serif" font-size="14.00">(PR2_ROBOT BRACKET_1 )</text>
</g>
<!-- node_389 -->
<g id="node33" class="node"><title>node_389</title>
<ellipse fill="#cce6ff" stroke="black" cx="4837" cy="-40" rx="186.176" ry="31.1127"/>
<text text-anchor="middle" x="4837" y="-45.4" font-family="Times Roman,serif" font-size="14.00">TravelTo</text>
<text text-anchor="middle" x="4837" y="-27.4" font-family="Times Roman,serif" font-size="14.00">(PR2_ROBOT WORK_LOCATION_1 )</text>
</g>
<!-- node_390 -->
<g id="node34" class="node"><title>node_390</title>
<ellipse fill="#ffffcc" stroke="black" cx="5128" cy="-194" rx="184.055" ry="31.1127"/>
<text text-anchor="middle" x="5128" y="-199.4" font-family="Times Roman,serif" font-size="14.00">Pick</text>
<text text-anchor="middle" x="5128" y="-181.4" font-family="Times Roman,serif" font-size="14.00">(HERAKLES_HUMAN1 BRACKET_1 )</text>
</g>
<!-- node_391 -->
<g id="node35" class="node"><title>node_391</title>
<ellipse fill="#ffffcc" stroke="black" cx="5652" cy="-194" rx="302.141" ry="31.1127"/>
<text text-anchor="middle" x="5652" y="-199.4" font-family="Times Roman,serif" font-size="14.00">AttachBracket</text>
<text text-anchor="middle" x="5652" y="-181.4" font-family="Times Roman,serif" font-size="14.00">(HERAKLES_HUMAN1 BRACKET_1 ASSEMBLY_SURFACE_1 )</text>
</g>
<!-- node_331&#45;&gt;cluster_1 -->
<g id="edge16" class="edge"><title>node_331&#45;&gt;cluster_1</title>
<path fill="none" stroke="black" stroke-width="2" d="M2883,-700.864C2883,-691.542 2883,-681.3 2883,-671.372"/>
<polygon fill="black" stroke="black" points="2886.5,-671.192 2883,-661.192 2879.5,-671.192 2886.5,-671.192"/>
</g>
<!-- node_332&#45;&gt;cluster_2 -->
<g id="edge17" class="edge"><title>node_332&#45;&gt;cluster_2</title>
<path fill="none" stroke="black" stroke-width="2" d="M2883,-586.868C2883,-577.923 2883,-567.773 2883,-557.033"/>
<polygon fill="black" stroke="black" points="2886.5,-557.022 2883,-547.022 2879.5,-557.022 2886.5,-557.022"/>
</g>
<!-- node_333&#45;&gt;cluster_3 -->
<g id="edge18" class="edge"><title>node_333&#45;&gt;cluster_3</title>
<path fill="none" stroke="black" stroke-width="2" d="M1833.07,-481.364C1577.81,-426.503 991.892,-300.578 687.487,-235.155"/>
<polygon fill="black" stroke="black" points="688.183,-231.725 677.671,-233.045 686.712,-238.568 688.183,-231.725"/>
</g>
<!-- node_333&#45;&gt;node_335 -->
<g id="edge1" class="edge"><title>node_333&#45;&gt;node_335</title>
<path fill="none" stroke="#9a32cd" d="M2119.18,-484.915C2184.38,-475.633 2260.05,-464.862 2327.9,-455.203"/>
<polygon fill="#9a32cd" stroke="#9a32cd" points="2337.85,-453.786 2328.59,-459.651 2332.9,-454.491 2327.95,-455.196 2327.95,-455.196 2327.95,-455.196 2332.9,-454.491 2327.32,-450.741 2337.85,-453.786 2337.85,-453.786"/>
</g>
<!-- node_334&#45;&gt;cluster_4 -->
<g id="edge19" class="edge"><title>node_334&#45;&gt;cluster_4</title>
<path fill="none" stroke="black" stroke-width="2" d="M1904.71,-397.409C1835.38,-356.851 1712.55,-284.995 1632.98,-238.449"/>
<polygon fill="black" stroke="black" points="1634.38,-235.212 1623.98,-233.183 1630.84,-241.254 1634.38,-235.212"/>
</g>
<!-- node_334&#45;&gt;node_335 -->
<g id="edge2" class="edge"><title>node_334&#45;&gt;node_335</title>
<path fill="none" stroke="#9a32cd" d="M2219.08,-428C2226.55,-428 2234.05,-428 2241.54,-428"/>
<polygon fill="#9a32cd" stroke="#9a32cd" points="2251.75,-428 2241.75,-432.5 2246.75,-428 2241.75,-428 2241.75,-428 2241.75,-428 2246.75,-428 2241.75,-423.5 2251.75,-428 2251.75,-428"/>
</g>
<!-- node_335&#45;&gt;cluster_5 -->
<g id="edge20" class="edge"><title>node_335&#45;&gt;cluster_5</title>
<path fill="none" stroke="black" stroke-width="2" d="M2500.28,-392.968C2478.88,-352.89 2443.69,-287.026 2419.72,-242.145"/>
<polygon fill="black" stroke="black" points="2422.73,-240.354 2414.93,-233.183 2416.55,-243.653 2422.73,-240.354"/>
</g>
<!-- node_335&#45;&gt;node_336 -->
<g id="edge3" class="edge"><title>node_335&#45;&gt;node_336</title>
<path fill="none" stroke="#9a32cd" d="M2781.72,-421.487C2791.43,-421.246 2801.18,-421.004 2810.96,-420.762"/>
<polygon fill="#9a32cd" stroke="#9a32cd" points="2821.15,-420.509 2811.26,-425.256 2816.15,-420.633 2811.15,-420.757 2811.15,-420.757 2811.15,-420.757 2816.15,-420.633 2811.04,-416.258 2821.15,-420.509 2821.15,-420.509"/>
</g>
<!-- node_336&#45;&gt;cluster_6 -->
<g id="edge21" class="edge"><title>node_336&#45;&gt;cluster_6</title>
<path fill="none" stroke="black" stroke-width="2" d="M3163.73,-378.057C3193.79,-351.622 3236.4,-314.146 3275.33,-279.902"/>
<polygon fill="black" stroke="black" points="3277.86,-282.333 3283.06,-273.101 3273.24,-277.077 3277.86,-282.333"/>
</g>
<!-- node_336&#45;&gt;node_338 -->
<g id="edge4" class="edge"><title>node_336&#45;&gt;node_338</title>
<path fill="none" stroke="#9a32cd" d="M3406.44,-398.55C3433.67,-397.157 3461.28,-395.744 3488.49,-394.352"/>
<polygon fill="#9a32cd" stroke="#9a32cd" points="3498.49,-393.84 3488.74,-398.845 3493.5,-394.096 3488.51,-394.351 3488.51,-394.351 3488.51,-394.351 3493.5,-394.096 3488.28,-389.857 3498.49,-393.84 3498.49,-393.84"/>
</g>
<!-- node_337&#45;&gt;cluster_7 -->
<g id="edge22" class="edge"><title>node_337&#45;&gt;cluster_7</title>
<path fill="none" stroke="black" stroke-width="2" d="M2190.46,-333.857C2617.31,-307.998 3529.41,-252.74 4070.6,-219.954"/>
<polygon fill="black" stroke="black" points="4071.15,-223.427 4080.92,-219.328 4070.73,-216.439 4071.15,-223.427"/>
</g>
<!-- node_337&#45;&gt;node_338 -->
<g id="edge5" class="edge"><title>node_337&#45;&gt;node_338</title>
<path fill="none" stroke="#9a32cd" d="M2216.14,-352.577C2544.83,-358.381 3110.93,-368.379 3461.25,-374.565"/>
<polygon fill="#9a32cd" stroke="#9a32cd" points="3471.3,-374.743 3461.22,-379.065 3466.3,-374.654 3461.3,-374.566 3461.3,-374.566 3461.3,-374.566 3466.3,-374.654 3461.38,-370.067 3471.3,-374.743 3471.3,-374.743"/>
</g>
<!-- node_338&#45;&gt;cluster_9 -->
<g id="edge23" class="edge"><title>node_338&#45;&gt;cluster_9</title>
<path fill="none" stroke="black" stroke-width="2" d="M3974.59,-357.239C4251.01,-326.636 4746.96,-271.727 5086.72,-234.111"/>
<polygon fill="black" stroke="black" points="5087.17,-237.582 5096.72,-233.003 5086.4,-230.624 5087.17,-237.582"/>
</g>
<!-- node_339&#45;&gt;node_340 -->
<g id="edge6" class="edge"><title>node_339&#45;&gt;node_340</title>
<path fill="none" stroke="#9a32cd" d="M463.018,-194C471.586,-194 480.194,-194 488.802,-194"/>
<polygon fill="#9a32cd" stroke="#9a32cd" points="498.903,-194 488.904,-198.5 493.903,-194 488.903,-194 488.903,-194 488.903,-194 493.903,-194 488.903,-189.5 498.903,-194 498.903,-194"/>
</g>
<!-- node_341&#45;&gt;node_342 -->
<g id="edge7" class="edge"><title>node_341&#45;&gt;node_342</title>
<path fill="none" stroke="#9a32cd" d="M1332.14,-194C1341.23,-194 1350.39,-194 1359.52,-194"/>
<polygon fill="#9a32cd" stroke="#9a32cd" points="1369.81,-194 1359.81,-198.5 1364.81,-194 1359.81,-194 1359.81,-194 1359.81,-194 1364.81,-194 1359.81,-189.5 1369.81,-194 1369.81,-194"/>
</g>
<!-- node_342&#45;&gt;node_343 -->
<g id="edge8" class="edge"><title>node_342&#45;&gt;node_343</title>
<path fill="none" stroke="#9a32cd" d="M1686.13,-194C1695.25,-194 1704.47,-194 1713.71,-194"/>
<polygon fill="#9a32cd" stroke="#9a32cd" points="1723.74,-194 1713.74,-198.5 1718.74,-194 1713.74,-194 1713.74,-194 1713.74,-194 1718.74,-194 1713.74,-189.5 1723.74,-194 1723.74,-194"/>
</g>
<!-- node_381&#45;&gt;node_382 -->
<g id="edge9" class="edge"><title>node_381&#45;&gt;node_382</title>
<path fill="none" stroke="#9a32cd" d="M3094.13,-194C3102.99,-194 3111.92,-194 3120.87,-194"/>
<polygon fill="#9a32cd" stroke="#9a32cd" points="3130.99,-194 3120.99,-198.5 3125.99,-194 3120.99,-194 3120.99,-194 3120.99,-194 3125.99,-194 3120.99,-189.5 3130.99,-194 3130.99,-194"/>
</g>
<!-- node_382&#45;&gt;node_383 -->
<g id="edge10" class="edge"><title>node_382&#45;&gt;node_383</title>
<path fill="none" stroke="#9a32cd" d="M3575.87,-177.095C3605.75,-174.604 3636.42,-172.048 3665.97,-169.586"/>
<polygon fill="#9a32cd" stroke="#9a32cd" points="3675.94,-168.755 3666.35,-174.07 3670.96,-169.17 3665.97,-169.586 3665.97,-169.586 3665.97,-169.586 3670.96,-169.17 3665.6,-165.101 3675.94,-168.755 3675.94,-168.755"/>
</g>
<!-- node_382&#45;&gt;node_384 -->
<g id="edge11" class="edge"><title>node_382&#45;&gt;node_384</title>
<path fill="none" stroke="#9a32cd" d="M3575.87,-210.906C3606.44,-213.454 3637.84,-216.07 3668.01,-218.585"/>
<polygon fill="#9a32cd" stroke="#9a32cd" points="3678.19,-219.433 3667.85,-223.087 3673.21,-219.018 3668.23,-218.603 3668.23,-218.603 3668.23,-218.603 3673.21,-219.018 3668.6,-214.118 3678.19,-219.433 3678.19,-219.433"/>
</g>
<!-- node_385&#45;&gt;cluster_8 -->
<g id="edge24" class="edge"><title>node_385&#45;&gt;cluster_8</title>
<path fill="none" stroke="black" stroke-width="2" d="M4369.39,-163.206C4392.5,-141.237 4423.99,-111.303 4450.14,-86.4427"/>
<polygon fill="black" stroke="black" points="4452.88,-88.6679 4457.72,-79.2413 4448.06,-83.5945 4452.88,-88.6679"/>
</g>
<!-- node_385&#45;&gt;node_386 -->
<g id="edge12" class="edge"><title>node_385&#45;&gt;node_386</title>
<path fill="none" stroke="#9a32cd" d="M4584.11,-194C4593.03,-194 4601.88,-194 4610.58,-194"/>
<polygon fill="#9a32cd" stroke="#9a32cd" points="4620.73,-194 4610.73,-198.5 4615.73,-194 4610.73,-194 4610.73,-194 4610.73,-194 4615.73,-194 4610.73,-189.5 4620.73,-194 4620.73,-194"/>
</g>
<!-- node_387&#45;&gt;node_388 -->
<g id="edge13" class="edge"><title>node_387&#45;&gt;node_388</title>
<path fill="none" stroke="#9a32cd" d="M4289.12,-40C4297.92,-40 4306.76,-40 4315.55,-40"/>
<polygon fill="#9a32cd" stroke="#9a32cd" points="4325.84,-40 4315.84,-44.5001 4320.84,-40.0001 4315.84,-40.0001 4315.84,-40.0001 4315.84,-40.0001 4320.84,-40.0001 4315.84,-35.5001 4325.84,-40 4325.84,-40"/>
</g>
<!-- node_388&#45;&gt;node_389 -->
<g id="edge14" class="edge"><title>node_388&#45;&gt;node_389</title>
<path fill="none" stroke="#9a32cd" d="M4614.25,-40C4623,-40 4631.88,-40 4640.79,-40"/>
<polygon fill="#9a32cd" stroke="#9a32cd" points="4650.87,-40 4640.87,-44.5001 4645.87,-40.0001 4640.87,-40.0001 4640.87,-40.0001 4640.87,-40.0001 4645.87,-40.0001 4640.87,-35.5001 4650.87,-40 4650.87,-40"/>
</g>
<!-- node_390&#45;&gt;node_391 -->
<g id="edge15" class="edge"><title>node_390&#45;&gt;node_391</title>
<path fill="none" stroke="#9a32cd" d="M5312.01,-194C5321.1,-194 5330.34,-194 5339.66,-194"/>
<polygon fill="#9a32cd" stroke="#9a32cd" points="5349.81,-194 5339.81,-198.5 5344.81,-194 5339.81,-194 5339.81,-194 5339.81,-194 5344.81,-194 5339.81,-189.5 5349.81,-194 5349.81,-194"/>
</g>
</g>
</svg>
