<?xml version="1.0" encoding="UTF-8" standalone="no"?>
<!DOCTYPE svg PUBLIC "-//W3C//DTD SVG 1.1//EN"
 "http://www.w3.org/Graphics/SVG/1.1/DTD/svg11.dtd">
<!-- Generated by graphviz version 2.26.3 (20100126.1600)
 -->
<!-- Title: graphForClustersContents Pages: 1 -->
<svg width="3238pt" height="224pt"
 viewBox="0.00 0.00 3238.00 224.00" xmlns="http://www.w3.org/2000/svg" xmlns:xlink="http://www.w3.org/1999/xlink">
<g id="graph1" class="graph" transform="scale(1 1) rotate(0) translate(4 220)">
<title>graphForClustersContents</title>
<polygon fill="white" stroke="white" points="-4,5 -4,-220 3235,-220 3235,5 -4,5"/>
<!-- node102 -->
<g id="node2" class="node"><title>node102</title>
<ellipse fill="#cce6ff" stroke="black" cx="227" cy="-150" rx="226.981" ry="43.8406"/>
<text text-anchor="middle" x="227" y="-164.4" font-family="Times Roman,serif" font-size="14.00">TravelTo</text>
<text text-anchor="middle" x="227" y="-146.4" font-family="Times Roman,serif" font-size="14.00">(HERAKLES_HUMAN1 WORK_LOCATION_1 )</text>
<text text-anchor="middle" x="227" y="-128.4" font-family="Times Roman,serif" font-size="14.00">[0, 10]</text>
</g>
<!-- node111 -->
<g id="node11" class="node"><title>node111</title>
<ellipse fill="#cce6ff" stroke="black" cx="1906" cy="-142" rx="241.831" ry="43.8406"/>
<text text-anchor="middle" x="1906" y="-156.4" font-family="Times Roman,serif" font-size="14.00">Clean</text>
<text text-anchor="middle" x="1906" y="-138.4" font-family="Times Roman,serif" font-size="14.00">(HERAKLES_HUMAN1 ASSEMBLY_SURFACE_1 )</text>
<text text-anchor="middle" x="1906" y="-120.4" font-family="Times Roman,serif" font-size="14.00">[31, 51]</text>
</g>
<!-- node102&#45;&gt;node111 -->
<g id="edge10" class="edge"><title>node102&#45;&gt;node111</title>
<path fill="none" stroke="#9a32cd" d="M454.31,-148.917C767.087,-147.427 1328.32,-144.753 1653.72,-143.202"/>
<polygon fill="#9a32cd" stroke="#9a32cd" points="1663.76,-143.154 1653.78,-147.702 1658.76,-143.178 1653.76,-143.202 1653.76,-143.202 1653.76,-143.202 1658.76,-143.178 1653.74,-138.702 1663.76,-143.154 1663.76,-143.154"/>
</g>
<!-- node103 -->
<g id="node3" class="node"><title>node103</title>
<ellipse fill="#ffffcc" stroke="black" cx="227" cy="-44" rx="144.25" ry="43.8406"/>
<text text-anchor="middle" x="227" y="-58.4" font-family="Times Roman,serif" font-size="14.00">Pick</text>
<text text-anchor="middle" x="227" y="-40.4" font-family="Times Roman,serif" font-size="14.00">(PR2_ROBOT BRACKET_1 )</text>
<text text-anchor="middle" x="227" y="-22.4" font-family="Times Roman,serif" font-size="14.00">[0, 10]</text>
</g>
<!-- node104 -->
<g id="node5" class="node"><title>node104</title>
<ellipse fill="#ffffcc" stroke="black" cx="677" cy="-47" rx="186.176" ry="43.8406"/>
<text text-anchor="middle" x="677" y="-61.4" font-family="Times Roman,serif" font-size="14.00">TravelTo</text>
<text text-anchor="middle" x="677" y="-43.4" font-family="Times Roman,serif" font-size="14.00">(PR2_ROBOT WORK_LOCATION_1 )</text>
<text text-anchor="middle" x="677" y="-25.4" font-family="Times Roman,serif" font-size="14.00">[10, 20]</text>
</g>
<!-- node103&#45;&gt;node104 -->
<g id="edge11" class="edge"><title>node103&#45;&gt;node104</title>
<path fill="none" stroke="#9a32cd" d="M371.24,-44.9616C405.9,-45.1927 443.508,-45.4434 480.108,-45.6874"/>
<polygon fill="#9a32cd" stroke="#9a32cd" points="490.401,-45.756 480.371,-50.1891 485.401,-45.7226 480.401,-45.6892 480.401,-45.6892 480.401,-45.6892 485.401,-45.7226 480.431,-41.1893 490.401,-45.756 490.401,-45.756"/>
</g>
<!-- node101 -->
<g id="node7" class="node"><title>node101</title>
<ellipse fill="#ffffcc" stroke="black" cx="1044" cy="-49" rx="144.25" ry="43.8406"/>
<text text-anchor="middle" x="1044" y="-63.4" font-family="Times Roman,serif" font-size="14.00">Place</text>
<text text-anchor="middle" x="1044" y="-45.4" font-family="Times Roman,serif" font-size="14.00">(PR2_ROBOT BRACKET_1 )</text>
<text text-anchor="middle" x="1044" y="-27.4" font-family="Times Roman,serif" font-size="14.00">[20, 30]</text>
</g>
<!-- node104&#45;&gt;node101 -->
<g id="edge12" class="edge"><title>node104&#45;&gt;node101</title>
<path fill="none" stroke="#9a32cd" d="M863.457,-48.0161C872.247,-48.064 881.029,-48.1119 889.721,-48.1592"/>
<polygon fill="#9a32cd" stroke="#9a32cd" points="899.878,-48.2146 889.854,-52.6599 894.878,-48.1873 889.878,-48.16 889.878,-48.16 889.878,-48.16 894.878,-48.1873 889.903,-43.6601 899.878,-48.2146 899.878,-48.2146"/>
</g>
<!-- node110 -->
<g id="node9" class="node"><title>node110</title>
<ellipse fill="#ffffcc" stroke="black" cx="1426" cy="-66" rx="201.025" ry="43.8406"/>
<text text-anchor="middle" x="1426" y="-80.4" font-family="Times Roman,serif" font-size="14.00">StartPointing</text>
<text text-anchor="middle" x="1426" y="-62.4" font-family="Times Roman,serif" font-size="14.00">(PR2_ROBOT ASSEMBLY_SURFACE_1 )</text>
<text text-anchor="middle" x="1426" y="-44.4" font-family="Times Roman,serif" font-size="14.00">[30, 31]</text>
</g>
<!-- node101&#45;&gt;node110 -->
<g id="edge9" class="edge"><title>node101&#45;&gt;node110</title>
<path fill="none" stroke="#9a32cd" d="M1186.51,-55.3423C1196.88,-55.8035 1207.44,-56.2737 1218.08,-56.7471"/>
<polygon fill="#9a32cd" stroke="#9a32cd" points="1228.3,-57.2018 1218.11,-61.2527 1223.3,-56.9795 1218.31,-56.7571 1218.31,-56.7571 1218.31,-56.7571 1223.3,-56.9795 1218.51,-52.2616 1228.3,-57.2018 1228.3,-57.2018"/>
</g>
<!-- node110&#45;&gt;node111 -->
<g id="edge13" class="edge"><title>node110&#45;&gt;node111</title>
<path fill="none" stroke="#9a32cd" d="M1589.18,-91.8362C1629.18,-98.1705 1672.37,-105.009 1713.61,-111.538"/>
<polygon fill="#9a32cd" stroke="#9a32cd" points="1723.49,-113.102 1712.9,-115.983 1718.55,-112.32 1713.61,-111.538 1713.61,-111.538 1713.61,-111.538 1718.55,-112.32 1714.31,-107.093 1723.49,-113.102 1723.49,-113.102"/>
</g>
<!-- node112 -->
<g id="node14" class="node"><title>node112</title>
<ellipse fill="#ffffcc" stroke="black" cx="2386" cy="-66" rx="201.025" ry="43.8406"/>
<text text-anchor="middle" x="2386" y="-80.4" font-family="Times Roman,serif" font-size="14.00">StopPointing</text>
<text text-anchor="middle" x="2386" y="-62.4" font-family="Times Roman,serif" font-size="14.00">(PR2_ROBOT ASSEMBLY_SURFACE_1 )</text>
<text text-anchor="middle" x="2386" y="-44.4" font-family="Times Roman,serif" font-size="14.00">[51, 52]</text>
</g>
<!-- node110&#45;&gt;node112 -->
<g id="edge14" class="edge"><title>node110&#45;&gt;node112</title>
<path fill="none" stroke="#9a32cd" d="M1627.54,-66C1787.78,-66 2011.3,-66 2174.17,-66"/>
<polygon fill="#9a32cd" stroke="#9a32cd" points="2184.32,-66 2174.32,-70.5001 2179.32,-66 2174.32,-66.0001 2174.32,-66.0001 2174.32,-66.0001 2179.32,-66 2174.32,-61.5001 2184.32,-66 2184.32,-66"/>
</g>
<!-- node60 -->
<g id="node13" class="node"><title>node60</title>
<ellipse fill="#cce6ff" stroke="black" cx="2386" cy="-172" rx="184.055" ry="43.8406"/>
<text text-anchor="middle" x="2386" y="-186.4" font-family="Times Roman,serif" font-size="14.00">Pick</text>
<text text-anchor="middle" x="2386" y="-168.4" font-family="Times Roman,serif" font-size="14.00">(HERAKLES_HUMAN1 BRACKET_1 )</text>
<text text-anchor="middle" x="2386" y="-150.4" font-family="Times Roman,serif" font-size="14.00">[51, 61]</text>
</g>
<!-- node111&#45;&gt;node60 -->
<g id="edge15" class="edge"><title>node111&#45;&gt;node60</title>
<path fill="none" stroke="#9a32cd" d="M2135.1,-156.319C2155.94,-157.621 2176.89,-158.93 2197.31,-160.207"/>
<polygon fill="#9a32cd" stroke="#9a32cd" points="2207.29,-160.831 2197.03,-164.698 2202.3,-160.519 2197.31,-160.207 2197.31,-160.207 2197.31,-160.207 2202.3,-160.519 2197.59,-155.716 2207.29,-160.831 2207.29,-160.831"/>
</g>
<!-- node111&#45;&gt;node112 -->
<g id="edge16" class="edge"><title>node111&#45;&gt;node112</title>
<path fill="none" stroke="#9a32cd" d="M2088.84,-113.051C2129.47,-106.618 2172.42,-99.8174 2212.65,-93.4467"/>
<polygon fill="#9a32cd" stroke="#9a32cd" points="2222.55,-91.8801 2213.37,-97.8887 2217.61,-92.6621 2212.67,-93.4441 2212.67,-93.4441 2212.67,-93.4441 2217.61,-92.6621 2211.97,-88.9994 2222.55,-91.8801 2222.55,-91.8801"/>
</g>
<!-- node113 -->
<g id="node16" class="node"><title>node113</title>
<ellipse fill="#cce6ff" stroke="black" cx="2927" cy="-172" rx="302.141" ry="43.8406"/>
<text text-anchor="middle" x="2927" y="-186.4" font-family="Times Roman,serif" font-size="14.00">AttachBracket</text>
<text text-anchor="middle" x="2927" y="-168.4" font-family="Times Roman,serif" font-size="14.00">(HERAKLES_HUMAN1 BRACKET_1 ASSEMBLY_SURFACE_1 )</text>
<text text-anchor="middle" x="2927" y="-150.4" font-family="Times Roman,serif" font-size="14.00">[61, 81]</text>
</g>
<!-- node60&#45;&gt;node113 -->
<g id="edge8" class="edge"><title>node60&#45;&gt;node113</title>
<path fill="none" stroke="#9a32cd" d="M2570.67,-172C2584.84,-172 2599.37,-172 2614.07,-172"/>
<polygon fill="#9a32cd" stroke="#9a32cd" points="2624.27,-172 2614.27,-176.5 2619.27,-172 2614.27,-172 2614.27,-172 2614.27,-172 2619.27,-172 2614.27,-167.5 2624.27,-172 2624.27,-172"/>
</g>
</g>
</svg>
