<?xml version="1.0" encoding="UTF-8" standalone="no"?>
<!DOCTYPE svg PUBLIC "-//W3C//DTD SVG 1.1//EN"
 "http://www.w3.org/Graphics/SVG/1.1/DTD/svg11.dtd">
<!-- Generated by graphviz version 2.26.3 (20100126.1600)
 -->
<!-- Title: graphForClustersContents Pages: 1 -->
<svg width="8014pt" height="202pt"
 viewBox="0.00 0.00 8014.00 202.00" xmlns="http://www.w3.org/2000/svg" xmlns:xlink="http://www.w3.org/1999/xlink">
<g id="graph1" class="graph" transform="scale(1 1) rotate(0) translate(4 198)">
<title>graphForClustersContents</title>
<polygon fill="white" stroke="white" points="-4,5 -4,-198 8011,-198 8011,5 -4,5"/>
<!-- node19 -->
<g id="node2" class="node"><title>node19</title>
<ellipse fill="#ffffcc" stroke="black" cx="274" cy="-97" rx="273.15" ry="43.8406"/>
<text text-anchor="middle" x="274" y="-111.4" font-family="Times Roman,serif" font-size="14.00">TakeObject</text>
<text text-anchor="middle" x="274" y="-93.4" font-family="Times Roman,serif" font-size="14.00">(HERAKLES_HUMAN1 BLUE_CUBE PLACEMAT_BLUE )</text>
<text text-anchor="middle" x="274" y="-75.4" font-family="Times Roman,serif" font-size="14.00">[0, 1]</text>
</g>
<!-- node20 -->
<g id="node4" class="node"><title>node20</title>
<ellipse fill="#ffffcc" stroke="black" cx="867" cy="-97" rx="282.843" ry="43.8406"/>
<text text-anchor="middle" x="867" y="-111.4" font-family="Times Roman,serif" font-size="14.00">PlaceObject</text>
<text text-anchor="middle" x="867" y="-93.4" font-family="Times Roman,serif" font-size="14.00">(HERAKLES_HUMAN1 BLUE_CUBE PLACEMAT_GREEN )</text>
<text text-anchor="middle" x="867" y="-75.4" font-family="Times Roman,serif" font-size="14.00">[1, 2]</text>
</g>
<!-- node19&#45;&gt;node20 -->
<g id="edge16" class="edge"><title>node19&#45;&gt;node20</title>
<path fill="none" stroke="#9a32cd" d="M547.501,-97C556.124,-97 564.773,-97 573.419,-97"/>
<polygon fill="#9a32cd" stroke="#9a32cd" points="583.565,-97 573.565,-101.5 578.565,-97 573.565,-97.0001 573.565,-97.0001 573.565,-97.0001 578.565,-97 573.565,-92.5001 583.565,-97 583.565,-97"/>
</g>
<!-- node34 -->
<g id="node6" class="node"><title>node34</title>
<ellipse fill="#ffffcc" stroke="black" cx="1451" cy="-150" rx="265.165" ry="43.8406"/>
<text text-anchor="middle" x="1451" y="-164.4" font-family="Times Roman,serif" font-size="14.00">TakeObject</text>
<text text-anchor="middle" x="1451" y="-146.4" font-family="Times Roman,serif" font-size="14.00">(HERAKLES_HUMAN1 BLUE_CUBE2 HUMAN_AREA )</text>
<text text-anchor="middle" x="1451" y="-128.4" font-family="Times Roman,serif" font-size="14.00">[2, 3]</text>
</g>
<!-- node20&#45;&gt;node34 -->
<g id="edge18" class="edge"><title>node20&#45;&gt;node34</title>
<path fill="none" stroke="#9a32cd" d="M1111.71,-119.208C1143.56,-122.098 1176.18,-125.059 1208,-127.947"/>
<polygon fill="#9a32cd" stroke="#9a32cd" points="1218.3,-128.882 1207.93,-132.459 1213.32,-128.43 1208.34,-127.978 1208.34,-127.978 1208.34,-127.978 1213.32,-128.43 1208.75,-123.496 1218.3,-128.882 1218.3,-128.882"/>
</g>
<!-- node22 -->
<g id="node7" class="node"><title>node22</title>
<ellipse fill="#cce6ff" stroke="black" cx="1451" cy="-44" rx="242.038" ry="43.8406"/>
<text text-anchor="middle" x="1451" y="-58.4" font-family="Times Roman,serif" font-size="14.00">TakeObject</text>
<text text-anchor="middle" x="1451" y="-40.4" font-family="Times Roman,serif" font-size="14.00">(PR2_ROBOT BLUE_CUBE PLACEMAT_GREEN )</text>
<text text-anchor="middle" x="1451" y="-22.4" font-family="Times Roman,serif" font-size="14.00">[2, 3]</text>
</g>
<!-- node20&#45;&gt;node22 -->
<g id="edge17" class="edge"><title>node20&#45;&gt;node22</title>
<path fill="none" stroke="#9a32cd" d="M1111.71,-74.792C1148.82,-71.4235 1186.99,-67.9601 1223.71,-64.6271"/>
<polygon fill="#9a32cd" stroke="#9a32cd" points="1234.03,-63.6907 1224.48,-69.0762 1229.05,-64.1426 1224.07,-64.5946 1224.07,-64.5946 1224.07,-64.5946 1229.05,-64.1426 1223.67,-60.113 1234.03,-63.6907 1234.03,-63.6907"/>
</g>
<!-- node35 -->
<g id="node9" class="node"><title>node35</title>
<ellipse fill="#ffffcc" stroke="black" cx="2041" cy="-150" rx="289.207" ry="43.8406"/>
<text text-anchor="middle" x="2041" y="-164.4" font-family="Times Roman,serif" font-size="14.00">PlaceObject</text>
<text text-anchor="middle" x="2041" y="-146.4" font-family="Times Roman,serif" font-size="14.00">(HERAKLES_HUMAN1 BLUE_CUBE2 PLACEMAT_GREEN )</text>
<text text-anchor="middle" x="2041" y="-128.4" font-family="Times Roman,serif" font-size="14.00">[3, 4]</text>
</g>
<!-- node34&#45;&gt;node35 -->
<g id="edge21" class="edge"><title>node34&#45;&gt;node35</title>
<path fill="none" stroke="#9a32cd" d="M1716.23,-150C1724.61,-150 1733.02,-150 1741.43,-150"/>
<polygon fill="#9a32cd" stroke="#9a32cd" points="1751.7,-150 1741.7,-154.5 1746.7,-150 1741.7,-150 1741.7,-150 1741.7,-150 1746.7,-150 1741.7,-145.5 1751.7,-150 1751.7,-150"/>
</g>
<!-- node6 -->
<g id="node10" class="node"><title>node6</title>
<ellipse fill="#cce6ff" stroke="black" cx="2041" cy="-44" rx="230.017" ry="43.8406"/>
<text text-anchor="middle" x="2041" y="-58.4" font-family="Times Roman,serif" font-size="14.00">ThrowObject</text>
<text text-anchor="middle" x="2041" y="-40.4" font-family="Times Roman,serif" font-size="14.00">(PR2_ROBOT BLUE_CUBE BLUE_TRASHBIN )</text>
<text text-anchor="middle" x="2041" y="-22.4" font-family="Times Roman,serif" font-size="14.00">[3, 4]</text>
</g>
<!-- node22&#45;&gt;node6 -->
<g id="edge19" class="edge"><title>node22&#45;&gt;node6</title>
<path fill="none" stroke="#9a32cd" d="M1693.53,-44C1728.68,-44 1764.85,-44 1799.97,-44"/>
<polygon fill="#9a32cd" stroke="#9a32cd" points="1810.34,-44 1800.34,-48.5001 1805.34,-44 1800.34,-44.0001 1800.34,-44.0001 1800.34,-44.0001 1805.34,-44 1800.34,-39.5001 1810.34,-44 1810.34,-44"/>
</g>
<!-- node37 -->
<g id="node12" class="node"><title>node37</title>
<ellipse fill="#cce6ff" stroke="black" cx="2615" cy="-44" rx="248.902" ry="43.8406"/>
<text text-anchor="middle" x="2615" y="-58.4" font-family="Times Roman,serif" font-size="14.00">TakeObject</text>
<text text-anchor="middle" x="2615" y="-40.4" font-family="Times Roman,serif" font-size="14.00">(PR2_ROBOT BLUE_CUBE2 PLACEMAT_GREEN )</text>
<text text-anchor="middle" x="2615" y="-22.4" font-family="Times Roman,serif" font-size="14.00">[4, 5]</text>
</g>
<!-- node35&#45;&gt;node37 -->
<g id="edge22" class="edge"><title>node35&#45;&gt;node37</title>
<path fill="none" stroke="#9a32cd" d="M2226.02,-116.14C2260.58,-109.795 2296.39,-103.207 2330,-97 2363.45,-90.8234 2399.09,-84.2145 2433.45,-77.8319"/>
<polygon fill="#9a32cd" stroke="#9a32cd" points="2443.58,-75.949 2434.57,-82.2002 2438.67,-76.8624 2433.75,-77.7759 2433.75,-77.7759 2433.75,-77.7759 2438.67,-76.8624 2432.93,-73.3516 2443.58,-75.949 2443.58,-75.949"/>
</g>
<!-- node49 -->
<g id="node20" class="node"><title>node49</title>
<ellipse fill="#ffffcc" stroke="black" cx="4705" cy="-150" rx="282.843" ry="43.8406"/>
<text text-anchor="middle" x="4705" y="-164.4" font-family="Times Roman,serif" font-size="14.00">TakeObject</text>
<text text-anchor="middle" x="4705" y="-146.4" font-family="Times Roman,serif" font-size="14.00">(HERAKLES_HUMAN1 GREEN_CUBE PLACEMAT_BLUE )</text>
<text text-anchor="middle" x="4705" y="-128.4" font-family="Times Roman,serif" font-size="14.00">[8, 9]</text>
</g>
<!-- node35&#45;&gt;node49 -->
<g id="edge23" class="edge"><title>node35&#45;&gt;node49</title>
<path fill="none" stroke="#9a32cd" d="M2330.02,-150C2551.01,-150 2863.24,-150 3137,-150 3137,-150 3137,-150 3637,-150 3899.03,-150 4197.22,-150 4411.8,-150"/>
<polygon fill="#9a32cd" stroke="#9a32cd" points="4421.95,-150 4411.95,-154.5 4416.95,-150 4411.95,-150 4411.95,-150 4411.95,-150 4416.95,-150 4411.95,-145.5 4421.95,-150 4421.95,-150"/>
</g>
<!-- node6&#45;&gt;node37 -->
<g id="edge15" class="edge"><title>node6&#45;&gt;node37</title>
<path fill="none" stroke="#9a32cd" d="M2271.57,-44C2299.2,-44 2327.55,-44 2355.54,-44"/>
<polygon fill="#9a32cd" stroke="#9a32cd" points="2365.84,-44 2355.84,-48.5001 2360.84,-44 2355.84,-44.0001 2355.84,-44.0001 2355.84,-44.0001 2360.84,-44 2355.84,-39.5001 2365.84,-44 2365.84,-44"/>
</g>
<!-- node24 -->
<g id="node14" class="node"><title>node24</title>
<ellipse fill="#cce6ff" stroke="black" cx="3137" cy="-44" rx="236.881" ry="43.8406"/>
<text text-anchor="middle" x="3137" y="-58.4" font-family="Times Roman,serif" font-size="14.00">ThrowObject</text>
<text text-anchor="middle" x="3137" y="-40.4" font-family="Times Roman,serif" font-size="14.00">(PR2_ROBOT BLUE_CUBE2 BLUE_TRASHBIN )</text>
<text text-anchor="middle" x="3137" y="-22.4" font-family="Times Roman,serif" font-size="14.00">[5, 6]</text>
</g>
<!-- node37&#45;&gt;node24 -->
<g id="edge24" class="edge"><title>node37&#45;&gt;node24</title>
<path fill="none" stroke="#9a32cd" d="M2864.15,-44C2872.73,-44 2881.33,-44 2889.91,-44"/>
<polygon fill="#9a32cd" stroke="#9a32cd" points="2899.96,-44 2889.96,-48.5001 2894.96,-44 2889.96,-44.0001 2889.96,-44.0001 2889.96,-44.0001 2894.96,-44 2889.96,-39.5001 2899.96,-44 2899.96,-44"/>
</g>
<!-- node46 -->
<g id="node16" class="node"><title>node46</title>
<ellipse fill="#cce6ff" stroke="black" cx="3637" cy="-44" rx="225.775" ry="43.8406"/>
<text text-anchor="middle" x="3637" y="-58.4" font-family="Times Roman,serif" font-size="14.00">TakeObject</text>
<text text-anchor="middle" x="3637" y="-40.4" font-family="Times Roman,serif" font-size="14.00">(PR2_ROBOT GREEN_CUBE ROBOT_AREA )</text>
<text text-anchor="middle" x="3637" y="-22.4" font-family="Times Roman,serif" font-size="14.00">[6, 7]</text>
</g>
<!-- node24&#45;&gt;node46 -->
<g id="edge20" class="edge"><title>node24&#45;&gt;node46</title>
<path fill="none" stroke="#9a32cd" d="M3374.19,-44C3382.8,-44 3391.43,-44 3400.04,-44"/>
<polygon fill="#9a32cd" stroke="#9a32cd" points="3410.13,-44 3400.13,-48.5001 3405.13,-44 3400.13,-44.0001 3400.13,-44.0001 3400.13,-44.0001 3405.13,-44 3400.13,-39.5001 3410.13,-44 3410.13,-44"/>
</g>
<!-- node47 -->
<g id="node18" class="node"><title>node47</title>
<ellipse fill="#cce6ff" stroke="black" cx="4143" cy="-44" rx="242.038" ry="43.8406"/>
<text text-anchor="middle" x="4143" y="-58.4" font-family="Times Roman,serif" font-size="14.00">PlaceObject</text>
<text text-anchor="middle" x="4143" y="-40.4" font-family="Times Roman,serif" font-size="14.00">(PR2_ROBOT GREEN_CUBE PLACEMAT_BLUE )</text>
<text text-anchor="middle" x="4143" y="-22.4" font-family="Times Roman,serif" font-size="14.00">[7, 8]</text>
</g>
<!-- node46&#45;&gt;node47 -->
<g id="edge26" class="edge"><title>node46&#45;&gt;node47</title>
<path fill="none" stroke="#9a32cd" d="M3863.73,-44C3872.42,-44 3881.16,-44 3889.89,-44"/>
<polygon fill="#9a32cd" stroke="#9a32cd" points="3900.14,-44 3890.14,-48.5001 3895.14,-44 3890.14,-44.0001 3890.14,-44.0001 3890.14,-44.0001 3895.14,-44 3890.14,-39.5001 3900.14,-44 3900.14,-44"/>
</g>
<!-- node47&#45;&gt;node49 -->
<g id="edge27" class="edge"><title>node47&#45;&gt;node49</title>
<path fill="none" stroke="#9a32cd" d="M4310.44,-75.8801C4347.19,-82.8575 4385.91,-90.1918 4422,-97 4451.7,-102.601 4483.15,-108.513 4513.87,-114.276"/>
<polygon fill="#9a32cd" stroke="#9a32cd" points="4523.82,-116.141 4513.16,-118.721 4518.91,-115.22 4513.99,-114.298 4513.99,-114.298 4513.99,-114.298 4518.91,-115.22 4514.82,-109.875 4523.82,-116.141 4523.82,-116.141"/>
</g>
<!-- node55 -->
<g id="node21" class="node"><title>node55</title>
<ellipse fill="#cce6ff" stroke="black" cx="4705" cy="-44" rx="232.138" ry="43.8406"/>
<text text-anchor="middle" x="4705" y="-58.4" font-family="Times Roman,serif" font-size="14.00">TakeObject</text>
<text text-anchor="middle" x="4705" y="-40.4" font-family="Times Roman,serif" font-size="14.00">(PR2_ROBOT GREEN_CUBE2 ROBOT_AREA )</text>
<text text-anchor="middle" x="4705" y="-22.4" font-family="Times Roman,serif" font-size="14.00">[8, 9]</text>
</g>
<!-- node47&#45;&gt;node55 -->
<g id="edge28" class="edge"><title>node47&#45;&gt;node55</title>
<path fill="none" stroke="#9a32cd" d="M4385.82,-44C4411.12,-44 4436.83,-44 4462.12,-44"/>
<polygon fill="#9a32cd" stroke="#9a32cd" points="4472.16,-44 4462.16,-48.5001 4467.16,-44 4462.16,-44.0001 4462.16,-44.0001 4462.16,-44.0001 4467.16,-44 4462.16,-39.5001 4472.16,-44 4472.16,-44"/>
</g>
<!-- node39 -->
<g id="node23" class="node"><title>node39</title>
<ellipse fill="#ffffcc" stroke="black" cx="5313" cy="-150" rx="289.207" ry="43.8406"/>
<text text-anchor="middle" x="5313" y="-164.4" font-family="Times Roman,serif" font-size="14.00">ThrowObject</text>
<text text-anchor="middle" x="5313" y="-146.4" font-family="Times Roman,serif" font-size="14.00">(HERAKLES_HUMAN1 GREEN_CUBE GREEN_TRASHBIN )</text>
<text text-anchor="middle" x="5313" y="-128.4" font-family="Times Roman,serif" font-size="14.00">[9, 10]</text>
</g>
<!-- node49&#45;&gt;node39 -->
<g id="edge29" class="edge"><title>node49&#45;&gt;node39</title>
<path fill="none" stroke="#9a32cd" d="M4988.09,-150C4996.66,-150 5005.26,-150 5013.85,-150"/>
<polygon fill="#9a32cd" stroke="#9a32cd" points="5023.93,-150 5013.93,-154.5 5018.93,-150 5013.93,-150 5013.93,-150 5013.93,-150 5018.93,-150 5013.93,-145.5 5023.93,-150 5023.93,-150"/>
</g>
<!-- node56 -->
<g id="node24" class="node"><title>node56</title>
<ellipse fill="#cce6ff" stroke="black" cx="5313" cy="-44" rx="248.902" ry="43.8406"/>
<text text-anchor="middle" x="5313" y="-58.4" font-family="Times Roman,serif" font-size="14.00">PlaceObject</text>
<text text-anchor="middle" x="5313" y="-40.4" font-family="Times Roman,serif" font-size="14.00">(PR2_ROBOT GREEN_CUBE2 PLACEMAT_BLUE )</text>
<text text-anchor="middle" x="5313" y="-22.4" font-family="Times Roman,serif" font-size="14.00">[9, 10]</text>
</g>
<!-- node55&#45;&gt;node56 -->
<g id="edge31" class="edge"><title>node55&#45;&gt;node56</title>
<path fill="none" stroke="#9a32cd" d="M4937.9,-44C4975.73,-44 5015.12,-44 5053.53,-44"/>
<polygon fill="#9a32cd" stroke="#9a32cd" points="5063.81,-44 5053.81,-48.5001 5058.81,-44 5053.81,-44.0001 5053.81,-44.0001 5053.81,-44.0001 5058.81,-44 5053.81,-39.5001 5063.81,-44 5063.81,-44"/>
</g>
<!-- node58 -->
<g id="node26" class="node"><title>node58</title>
<ellipse fill="#ffffcc" stroke="black" cx="5927" cy="-150" rx="289.207" ry="43.8406"/>
<text text-anchor="middle" x="5927" y="-164.4" font-family="Times Roman,serif" font-size="14.00">TakeObject</text>
<text text-anchor="middle" x="5927" y="-146.4" font-family="Times Roman,serif" font-size="14.00">(HERAKLES_HUMAN1 GREEN_CUBE2 PLACEMAT_BLUE )</text>
<text text-anchor="middle" x="5927" y="-128.4" font-family="Times Roman,serif" font-size="14.00">[10, 11]</text>
</g>
<!-- node39&#45;&gt;node58 -->
<g id="edge25" class="edge"><title>node39&#45;&gt;node58</title>
<path fill="none" stroke="#9a32cd" d="M5602.02,-150C5610.63,-150 5619.25,-150 5627.87,-150"/>
<polygon fill="#9a32cd" stroke="#9a32cd" points="5637.98,-150 5627.98,-154.5 5632.98,-150 5627.98,-150 5627.98,-150 5627.98,-150 5632.98,-150 5627.98,-145.5 5637.98,-150 5637.98,-150"/>
</g>
<!-- node56&#45;&gt;node58 -->
<g id="edge32" class="edge"><title>node56&#45;&gt;node58</title>
<path fill="none" stroke="#9a32cd" d="M5491.42,-74.802C5564.78,-87.4672 5650.1,-102.197 5725.69,-115.245"/>
<polygon fill="#9a32cd" stroke="#9a32cd" points="5735.81,-116.993 5725.19,-119.726 5730.88,-116.142 5725.95,-115.291 5725.95,-115.291 5725.95,-115.291 5730.88,-116.142 5726.72,-110.857 5735.81,-116.993 5735.81,-116.993"/>
</g>
<!-- node72 -->
<g id="node27" class="node"><title>node72</title>
<ellipse fill="#cce6ff" stroke="black" cx="5927" cy="-44" rx="212.132" ry="43.8406"/>
<text text-anchor="middle" x="5927" y="-58.4" font-family="Times Roman,serif" font-size="14.00">TakeObject</text>
<text text-anchor="middle" x="5927" y="-40.4" font-family="Times Roman,serif" font-size="14.00">(PR2_ROBOT RED_CUBE ROBOT_AREA )</text>
<text text-anchor="middle" x="5927" y="-22.4" font-family="Times Roman,serif" font-size="14.00">[10, 11]</text>
</g>
<!-- node56&#45;&gt;node72 -->
<g id="edge33" class="edge"><title>node56&#45;&gt;node72</title>
<path fill="none" stroke="#9a32cd" d="M5562.29,-44C5609.34,-44 5658.26,-44 5704.42,-44"/>
<polygon fill="#9a32cd" stroke="#9a32cd" points="5714.53,-44 5704.53,-48.5001 5709.53,-44 5704.53,-44.0001 5704.53,-44.0001 5704.53,-44.0001 5709.53,-44 5704.53,-39.5001 5714.53,-44 5714.53,-44"/>
</g>
<!-- node51 -->
<g id="node29" class="node"><title>node51</title>
<ellipse fill="#ffffcc" stroke="black" cx="6548" cy="-150" rx="295.071" ry="43.8406"/>
<text text-anchor="middle" x="6548" y="-164.4" font-family="Times Roman,serif" font-size="14.00">ThrowObject</text>
<text text-anchor="middle" x="6548" y="-146.4" font-family="Times Roman,serif" font-size="14.00">(HERAKLES_HUMAN1 GREEN_CUBE2 GREEN_TRASHBIN )</text>
<text text-anchor="middle" x="6548" y="-128.4" font-family="Times Roman,serif" font-size="14.00">[11, 12]</text>
</g>
<!-- node58&#45;&gt;node51 -->
<g id="edge34" class="edge"><title>node58&#45;&gt;node51</title>
<path fill="none" stroke="#9a32cd" d="M6216.14,-150C6224.78,-150 6233.45,-150 6242.11,-150"/>
<polygon fill="#9a32cd" stroke="#9a32cd" points="6252.27,-150 6242.27,-154.5 6247.27,-150 6242.27,-150 6242.27,-150 6242.27,-150 6247.27,-150 6242.27,-145.5 6252.27,-150 6252.27,-150"/>
</g>
<!-- node60 -->
<g id="node30" class="node"><title>node60</title>
<ellipse fill="#cce6ff" stroke="black" cx="6548" cy="-44" rx="227.896" ry="43.8406"/>
<text text-anchor="middle" x="6548" y="-58.4" font-family="Times Roman,serif" font-size="14.00">PlaceObject</text>
<text text-anchor="middle" x="6548" y="-40.4" font-family="Times Roman,serif" font-size="14.00">(PR2_ROBOT RED_CUBE PLACEMAT_BLUE )</text>
<text text-anchor="middle" x="6548" y="-22.4" font-family="Times Roman,serif" font-size="14.00">[11, 12]</text>
</g>
<!-- node72&#45;&gt;node60 -->
<g id="edge35" class="edge"><title>node72&#45;&gt;node60</title>
<path fill="none" stroke="#9a32cd" d="M6139.41,-44C6194.16,-44 6253.45,-44 6309.44,-44"/>
<polygon fill="#9a32cd" stroke="#9a32cd" points="6319.49,-44 6309.49,-48.5001 6314.49,-44 6309.49,-44.0001 6309.49,-44.0001 6309.49,-44.0001 6314.49,-44 6309.49,-39.5001 6319.49,-44 6319.49,-44"/>
</g>
<!-- node77 -->
<g id="node32" class="node"><title>node77</title>
<ellipse fill="#ffffcc" stroke="black" cx="7140" cy="-150" rx="260.215" ry="43.8406"/>
<text text-anchor="middle" x="7140" y="-164.4" font-family="Times Roman,serif" font-size="14.00">TakeObject</text>
<text text-anchor="middle" x="7140" y="-146.4" font-family="Times Roman,serif" font-size="14.00">(HERAKLES_HUMAN1 RED_CUBE2 HUMAN_AREA )</text>
<text text-anchor="middle" x="7140" y="-128.4" font-family="Times Roman,serif" font-size="14.00">[12, 13]</text>
</g>
<!-- node51&#45;&gt;node77 -->
<g id="edge30" class="edge"><title>node51&#45;&gt;node77</title>
<path fill="none" stroke="#9a32cd" d="M6843.57,-150C6852.3,-150 6861.04,-150 6869.74,-150"/>
<polygon fill="#9a32cd" stroke="#9a32cd" points="6879.94,-150 6869.94,-154.5 6874.94,-150 6869.94,-150 6869.94,-150 6869.94,-150 6874.94,-150 6869.94,-145.5 6879.94,-150 6879.94,-150"/>
</g>
<!-- node74 -->
<g id="node34" class="node"><title>node74</title>
<ellipse fill="#ffffcc" stroke="black" cx="7721" cy="-150" rx="283.757" ry="43.8406"/>
<text text-anchor="middle" x="7721" y="-164.4" font-family="Times Roman,serif" font-size="14.00">PlaceObject</text>
<text text-anchor="middle" x="7721" y="-146.4" font-family="Times Roman,serif" font-size="14.00">(HERAKLES_HUMAN1 RED_CUBE2 PLACEMAT_GREEN )</text>
<text text-anchor="middle" x="7721" y="-128.4" font-family="Times Roman,serif" font-size="14.00">[13, 14]</text>
</g>
<!-- node77&#45;&gt;node74 -->
<g id="edge36" class="edge"><title>node77&#45;&gt;node74</title>
<path fill="none" stroke="#9a32cd" d="M7400.34,-150C7408.91,-150 7417.51,-150 7426.12,-150"/>
<polygon fill="#9a32cd" stroke="#9a32cd" points="7436.23,-150 7426.23,-154.5 7431.23,-150 7426.23,-150 7426.23,-150 7426.23,-150 7431.23,-150 7426.23,-145.5 7436.23,-150 7436.23,-150"/>
</g>
</g>
</svg>
