<?xml version="1.0" encoding="UTF-8" standalone="no"?>
<!DOCTYPE svg PUBLIC "-//W3C//DTD SVG 1.1//EN"
 "http://www.w3.org/Graphics/SVG/1.1/DTD/svg11.dtd">
<!-- Generated by graphviz version 2.26.3 (20100126.1600)
 -->
<!-- Title: final_graph Pages: 1 -->
<svg width="3300pt" height="544pt"
 viewBox="0.00 0.00 3300.00 544.00" xmlns="http://www.w3.org/2000/svg" xmlns:xlink="http://www.w3.org/1999/xlink">
<g id="graph1" class="graph" transform="scale(1 1) rotate(0) translate(4 540)">
<title>final_graph</title>
<polygon fill="white" stroke="white" points="-4,5 -4,-540 3297,-540 3297,5 -4,5"/>
<!-- cluster_0 -->
<g id="node1" class="node"><title>cluster_0</title>
<polygon fill="none" stroke="blue" points="1637,-535 1541,-535 1541,-457 1637,-457 1637,-535"/>
<text text-anchor="middle" x="1589" y="-492.4" font-family="Times Roman,serif" font-size="14.00"> </text>
</g>
<!-- cluster_1 -->
<g id="node2" class="node"><title>cluster_1</title>
<polygon fill="none" stroke="blue" points="1756,-421 1422,-421 1422,-343 1756,-343 1756,-421"/>
<text text-anchor="middle" x="1589" y="-378.4" font-family="Times Roman,serif" font-size="14.00"> </text>
</g>
<!-- cluster_2 -->
<g id="node3" class="node"><title>cluster_2</title>
<polygon fill="none" stroke="blue" points="1641,-307 437.002,-307 437.002,-229 1641,-229 1641,-307"/>
<text text-anchor="middle" x="1039" y="-264.4" font-family="Times Roman,serif" font-size="14.00"> </text>
</g>
<!-- cluster_3 -->
<g id="node4" class="node"><title>cluster_3</title>
<polygon fill="none" stroke="blue" points="583,-193 1.00024,-193 1.00024,-115 583,-115 583,-193"/>
<text text-anchor="middle" x="292" y="-150.4" font-family="Times Roman,serif" font-size="14.00"> </text>
</g>
<!-- cluster_4 -->
<g id="node5" class="node"><title>cluster_4</title>
<polygon fill="none" stroke="blue" points="1647,-193 600.998,-193 600.998,-115 1647,-115 1647,-193"/>
<text text-anchor="middle" x="1124" y="-150.4" font-family="Times Roman,serif" font-size="14.00"> </text>
</g>
<!-- cluster_5 -->
<g id="node6" class="node"><title>cluster_5</title>
<polygon fill="none" stroke="blue" points="1407,-79 840.998,-79 840.998,-1.00002 1407,-1.00002 1407,-79"/>
<text text-anchor="middle" x="1124" y="-36.4" font-family="Times Roman,serif" font-size="14.00"> </text>
</g>
<!-- cluster_6 -->
<g id="node7" class="node"><title>cluster_6</title>
<polygon fill="none" stroke="blue" points="2621,-307 1659,-307 1659,-229 2621,-229 2621,-307"/>
<text text-anchor="middle" x="2140" y="-264.4" font-family="Times Roman,serif" font-size="14.00"> </text>
</g>
<!-- cluster_7 -->
<g id="node8" class="node"><title>cluster_7</title>
<polygon fill="none" stroke="blue" points="2275,-193 1835,-193 1835,-115 2275,-115 2275,-193"/>
<text text-anchor="middle" x="2055" y="-150.4" font-family="Times Roman,serif" font-size="14.00"> </text>
</g>
<!-- cluster_8 -->
<g id="node9" class="node"><title>cluster_8</title>
<polygon fill="none" stroke="blue" points="3291,-193 2293,-193 2293,-115 3291,-115 3291,-193"/>
<text text-anchor="middle" x="2792" y="-150.4" font-family="Times Roman,serif" font-size="14.00"> </text>
</g>
<!-- cluster_9 -->
<g id="node10" class="node"><title>cluster_9</title>
<polygon fill="none" stroke="blue" points="3060,-79 2524,-79 2524,-1.00002 3060,-1.00002 3060,-79"/>
<text text-anchor="middle" x="2792" y="-36.4" font-family="Times Roman,serif" font-size="14.00"> </text>
</g>
<!-- node_25126 -->
<g id="node11" class="node"><title>node_25126</title>
<ellipse fill="#c1cdcd" stroke="black" cx="1589" cy="-496" rx="39.1428" ry="31.1127"/>
<ellipse fill="none" stroke="black" cx="1589" cy="-496" rx="43.0969" ry="35.1127"/>
<text text-anchor="middle" x="1589" y="-501.4" font-family="Times Roman,serif" font-size="14.00">Clean</text>
<text text-anchor="middle" x="1589" y="-483.4" font-family="Times Roman,serif" font-size="14.00">()</text>
</g>
<!-- node_25127 -->
<g id="node12" class="node"><title>node_25127</title>
<ellipse fill="#c1cdcd" stroke="black" cx="1504" cy="-382" rx="73.0388" ry="31.1127"/>
<text text-anchor="middle" x="1504" y="-387.4" font-family="Times Roman,serif" font-size="14.00">ThrowCubes</text>
<text text-anchor="middle" x="1504" y="-369.4" font-family="Times Roman,serif" font-size="14.00">()</text>
</g>
<!-- node_25128 -->
<g id="node13" class="node"><title>node_25128</title>
<ellipse fill="#c1cdcd" stroke="black" cx="1681" cy="-382" rx="67.1751" ry="31.1127"/>
<ellipse fill="none" stroke="black" cx="1681" cy="-382" rx="71.1751" ry="35.1127"/>
<text text-anchor="middle" x="1681" y="-387.4" font-family="Times Roman,serif" font-size="14.00">PlaceCubes</text>
<text text-anchor="middle" x="1681" y="-369.4" font-family="Times Roman,serif" font-size="14.00">()</text>
</g>
<!-- node_25129 -->
<g id="node14" class="node"><title>node_25129</title>
<ellipse fill="#c1cdcd" stroke="black" cx="640.002" cy="-268" rx="193.954" ry="31.1127"/>
<text text-anchor="middle" x="640.002" y="-273.4" font-family="Times Roman,serif" font-size="14.00">ObtainObject</text>
<text text-anchor="middle" x="640.002" y="-255.4" font-family="Times Roman,serif" font-size="14.00">(HERAKLES_HUMAN1 GREEN_CUBE )</text>
</g>
<!-- node_25130 -->
<g id="node15" class="node"><title>node_25130</title>
<ellipse fill="#ffffcc" stroke="black" cx="1160.01" cy="-268" rx="289.207" ry="31.1127"/>
<text text-anchor="middle" x="1160.01" y="-273.4" font-family="Times Roman,serif" font-size="14.00">ThrowObject</text>
<text text-anchor="middle" x="1160.01" y="-255.4" font-family="Times Roman,serif" font-size="14.00">(HERAKLES_HUMAN1 GREEN_CUBE GREEN_TRASHBIN )</text>
</g>
<!-- node_25131 -->
<g id="node16" class="node"><title>node_25131</title>
<ellipse fill="#c1cdcd" stroke="black" cx="1559" cy="-268" rx="73.0388" ry="31.1127"/>
<text text-anchor="middle" x="1559" y="-273.4" font-family="Times Roman,serif" font-size="14.00">ThrowCubes</text>
<text text-anchor="middle" x="1559" y="-255.4" font-family="Times Roman,serif" font-size="14.00">()</text>
</g>
<!-- node_25136 -->
<g id="node17" class="node"><title>node_25136</title>
<ellipse fill="#ffffcc" stroke="black" cx="292" cy="-154" rx="283" ry="31.1127"/>
<text text-anchor="middle" x="292" y="-159.4" font-family="Times Roman,serif" font-size="14.00">TakeObject</text>
<text text-anchor="middle" x="292" y="-141.4" font-family="Times Roman,serif" font-size="14.00">(HERAKLES_HUMAN1 GREEN_CUBE PLACEMAT_BLUE )</text>
</g>
<!-- node_25137 -->
<g id="node18" class="node"><title>node_25137</title>
<ellipse fill="#c1cdcd" stroke="black" cx="809.999" cy="-154" rx="201" ry="31.1127"/>
<text text-anchor="middle" x="809.999" y="-159.4" font-family="Times Roman,serif" font-size="14.00">ObtainObject</text>
<text text-anchor="middle" x="809.999" y="-141.4" font-family="Times Roman,serif" font-size="14.00">(HERAKLES_HUMAN1 GREEN_CUBE2 )</text>
</g>
<!-- node_25138 -->
<g id="node19" class="node"><title>node_25138</title>
<ellipse fill="#ffffcc" stroke="black" cx="1343" cy="-154" rx="295.071" ry="31.1127"/>
<text text-anchor="middle" x="1343" y="-159.4" font-family="Times Roman,serif" font-size="14.00">ThrowObject</text>
<text text-anchor="middle" x="1343" y="-141.4" font-family="Times Roman,serif" font-size="14.00">(HERAKLES_HUMAN1 GREEN_CUBE2 GREEN_TRASHBIN )</text>
</g>
<!-- node_25141 -->
<g id="node20" class="node"><title>node_25141</title>
<ellipse fill="#ffffcc" stroke="black" cx="1124" cy="-40" rx="273.858" ry="31.1127"/>
<text text-anchor="middle" x="1124" y="-45.4" font-family="Times Roman,serif" font-size="14.00">TakeObject</text>
<text text-anchor="middle" x="1124" y="-27.4" font-family="Times Roman,serif" font-size="14.00">(HERAKLES_HUMAN1 GREEN_CUBE2 HUMAN_AREA )</text>
</g>
<!-- node_25142 -->
<g id="node21" class="node"><title>node_25142</title>
<ellipse fill="#c1cdcd" stroke="black" cx="1808" cy="-268" rx="140.213" ry="31.1127"/>
<text text-anchor="middle" x="1808" y="-273.4" font-family="Times Roman,serif" font-size="14.00">ObtainObject</text>
<text text-anchor="middle" x="1808" y="-255.4" font-family="Times Roman,serif" font-size="14.00">(PR2_ROBOT RED_CUBE )</text>
</g>
<!-- node_25143 -->
<g id="node22" class="node"><title>node_25143</title>
<ellipse fill="#cce6ff" stroke="black" cx="2214" cy="-268" rx="227.896" ry="31.1127"/>
<text text-anchor="middle" x="2214" y="-273.4" font-family="Times Roman,serif" font-size="14.00">PlaceObject</text>
<text text-anchor="middle" x="2214" y="-255.4" font-family="Times Roman,serif" font-size="14.00">(PR2_ROBOT RED_CUBE PLACEMAT_BLUE )</text>
</g>
<!-- node_25144 -->
<g id="node23" class="node"><title>node_25144</title>
<ellipse fill="#c1cdcd" stroke="black" cx="2546" cy="-268" rx="67.1751" ry="31.1127"/>
<text text-anchor="middle" x="2546" y="-273.4" font-family="Times Roman,serif" font-size="14.00">PlaceCubes</text>
<text text-anchor="middle" x="2546" y="-255.4" font-family="Times Roman,serif" font-size="14.00">()</text>
</g>
<!-- node_25155 -->
<g id="node24" class="node"><title>node_25155</title>
<ellipse fill="#cce6ff" stroke="black" cx="2055" cy="-154" rx="212.132" ry="31.1127"/>
<text text-anchor="middle" x="2055" y="-159.4" font-family="Times Roman,serif" font-size="14.00">TakeObject</text>
<text text-anchor="middle" x="2055" y="-141.4" font-family="Times Roman,serif" font-size="14.00">(PR2_ROBOT RED_CUBE ROBOT_AREA )</text>
</g>
<!-- node_25156 -->
<g id="node25" class="node"><title>node_25156</title>
<ellipse fill="#c1cdcd" stroke="black" cx="2489" cy="-154" rx="186.884" ry="31.1127"/>
<text text-anchor="middle" x="2489" y="-159.4" font-family="Times Roman,serif" font-size="14.00">ObtainObject</text>
<text text-anchor="middle" x="2489" y="-141.4" font-family="Times Roman,serif" font-size="14.00">(HERAKLES_HUMAN1 RED_CUBE2 )</text>
</g>
<!-- node_25157 -->
<g id="node26" class="node"><title>node_25157</title>
<ellipse fill="#ffffcc" stroke="black" cx="2998" cy="-154" rx="283.757" ry="31.1127"/>
<text text-anchor="middle" x="2998" y="-159.4" font-family="Times Roman,serif" font-size="14.00">PlaceObject</text>
<text text-anchor="middle" x="2998" y="-141.4" font-family="Times Roman,serif" font-size="14.00">(HERAKLES_HUMAN1 RED_CUBE2 PLACEMAT_GREEN )</text>
</g>
<!-- node_25160 -->
<g id="node27" class="node"><title>node_25160</title>
<ellipse fill="#ffffcc" stroke="black" cx="2792" cy="-40" rx="260.215" ry="31.1127"/>
<text text-anchor="middle" x="2792" y="-45.4" font-family="Times Roman,serif" font-size="14.00">TakeObject</text>
<text text-anchor="middle" x="2792" y="-27.4" font-family="Times Roman,serif" font-size="14.00">(HERAKLES_HUMAN1 RED_CUBE2 HUMAN_AREA )</text>
</g>
<!-- node_25126&#45;&gt;cluster_1 -->
<g id="edge8" class="edge"><title>node_25126&#45;&gt;cluster_1</title>
<path fill="none" stroke="black" stroke-width="2" d="M1589,-460.866C1589,-451.544 1589,-441.301 1589,-431.373"/>
<polygon fill="black" stroke="black" points="1592.5,-431.193 1589,-421.193 1585.5,-431.193 1592.5,-431.193"/>
</g>
<!-- node_25127&#45;&gt;cluster_2 -->
<g id="edge9" class="edge"><title>node_25127&#45;&gt;cluster_2</title>
<path fill="none" stroke="black" stroke-width="2" d="M1440.32,-366.388C1380.68,-351.768 1288.9,-329.266 1208.15,-309.469"/>
<polygon fill="black" stroke="black" points="1208.91,-306.051 1198.36,-307.069 1207.24,-312.85 1208.91,-306.051"/>
</g>
<!-- node_25127&#45;&gt;node_25128 -->
<g id="edge1" class="edge"><title>node_25127&#45;&gt;node_25128</title>
<path fill="none" stroke="#9a32cd" d="M1577.02,-382C1584.48,-382 1592.1,-382 1599.64,-382"/>
<polygon fill="#9a32cd" stroke="#9a32cd" points="1609.87,-382 1599.87,-386.5 1604.87,-382 1599.87,-382 1599.87,-382 1599.87,-382 1604.87,-382 1599.87,-377.5 1609.87,-382 1609.87,-382"/>
</g>
<!-- node_25128&#45;&gt;cluster_6 -->
<g id="edge10" class="edge"><title>node_25128&#45;&gt;cluster_6</title>
<path fill="none" stroke="black" stroke-width="2" d="M1744.83,-366.149C1803.65,-351.54 1893.55,-329.209 1972.76,-309.537"/>
<polygon fill="black" stroke="black" points="1974,-312.835 1982.86,-307.028 1972.31,-306.042 1974,-312.835"/>
</g>
<!-- node_25129&#45;&gt;cluster_3 -->
<g id="edge11" class="edge"><title>node_25129&#45;&gt;cluster_3</title>
<path fill="none" stroke="black" stroke-width="2" d="M554.871,-240.112C514.566,-226.909 465.564,-210.857 420.84,-196.206"/>
<polygon fill="black" stroke="black" points="421.661,-192.792 411.069,-193.005 419.482,-199.444 421.661,-192.792"/>
</g>
<!-- node_25129&#45;&gt;node_25130 -->
<g id="edge2" class="edge"><title>node_25129&#45;&gt;node_25130</title>
<path fill="none" stroke="#9a32cd" d="M834.372,-268C843.07,-268 851.873,-268 860.738,-268"/>
<polygon fill="#9a32cd" stroke="#9a32cd" points="870.772,-268 860.772,-272.5 865.772,-268 860.772,-268 860.772,-268 860.772,-268 865.772,-268 860.772,-263.5 870.772,-268 870.772,-268"/>
</g>
<!-- node_25130&#45;&gt;node_25131 -->
<g id="edge3" class="edge"><title>node_25130&#45;&gt;node_25131</title>
<path fill="none" stroke="#9a32cd" d="M1449.18,-268C1458.43,-268 1467.36,-268 1475.85,-268"/>
<polygon fill="#9a32cd" stroke="#9a32cd" points="1485.99,-268 1475.99,-272.5 1480.99,-268 1475.99,-268 1475.99,-268 1475.99,-268 1480.99,-268 1475.99,-263.5 1485.99,-268 1485.99,-268"/>
</g>
<!-- node_25131&#45;&gt;cluster_4 -->
<g id="edge12" class="edge"><title>node_25131&#45;&gt;cluster_4</title>
<path fill="none" stroke="black" stroke-width="2" d="M1496.68,-251.666C1441.03,-237.083 1357.11,-215.09 1282.98,-195.665"/>
<polygon fill="black" stroke="black" points="1283.62,-192.214 1273.06,-193.065 1281.85,-198.985 1283.62,-192.214"/>
</g>
<!-- node_25137&#45;&gt;cluster_5 -->
<g id="edge13" class="edge"><title>node_25137&#45;&gt;cluster_5</title>
<path fill="none" stroke="black" stroke-width="2" d="M888.829,-125.38C924.568,-112.405 967.562,-96.7955 1006.96,-82.4918"/>
<polygon fill="black" stroke="black" points="1008.16,-85.7815 1016.36,-79.0789 1005.77,-79.2017 1008.16,-85.7815"/>
</g>
<!-- node_25137&#45;&gt;node_25138 -->
<g id="edge4" class="edge"><title>node_25137&#45;&gt;node_25138</title>
<path fill="none" stroke="#9a32cd" d="M1011.12,-154C1019.91,-154 1028.8,-154 1037.74,-154"/>
<polygon fill="#9a32cd" stroke="#9a32cd" points="1047.87,-154 1037.87,-158.5 1042.87,-154 1037.87,-154 1037.87,-154 1037.87,-154 1042.87,-154 1037.87,-149.5 1047.87,-154 1047.87,-154"/>
</g>
<!-- node_25142&#45;&gt;cluster_7 -->
<g id="edge14" class="edge"><title>node_25142&#45;&gt;cluster_7</title>
<path fill="none" stroke="black" stroke-width="2" d="M1868.74,-239.966C1896.56,-227.126 1930.17,-211.614 1961.14,-197.321"/>
<polygon fill="black" stroke="black" points="1962.61,-200.497 1970.22,-193.128 1959.68,-194.141 1962.61,-200.497"/>
</g>
<!-- node_25142&#45;&gt;node_25143 -->
<g id="edge5" class="edge"><title>node_25142&#45;&gt;node_25143</title>
<path fill="none" stroke="#9a32cd" d="M1948.01,-268C1957.1,-268 1966.38,-268 1975.76,-268"/>
<polygon fill="#9a32cd" stroke="#9a32cd" points="1985.98,-268 1975.98,-272.5 1980.98,-268 1975.98,-268 1975.98,-268 1975.98,-268 1980.98,-268 1975.98,-263.5 1985.98,-268 1985.98,-268"/>
</g>
<!-- node_25143&#45;&gt;node_25144 -->
<g id="edge6" class="edge"><title>node_25143&#45;&gt;node_25144</title>
<path fill="none" stroke="#9a32cd" d="M2442.32,-268C2451.45,-268 2460.3,-268 2468.71,-268"/>
<polygon fill="#9a32cd" stroke="#9a32cd" points="2478.75,-268 2468.75,-272.5 2473.75,-268 2468.75,-268 2468.75,-268 2468.75,-268 2473.75,-268 2468.75,-263.5 2478.75,-268 2478.75,-268"/>
</g>
<!-- node_25144&#45;&gt;cluster_8 -->
<g id="edge15" class="edge"><title>node_25144&#45;&gt;cluster_8</title>
<path fill="none" stroke="black" stroke-width="2" d="M2593.43,-246.019C2623.04,-232.3 2662.18,-214.16 2697.88,-197.615"/>
<polygon fill="black" stroke="black" points="2699.76,-200.602 2707.36,-193.222 2696.82,-194.251 2699.76,-200.602"/>
</g>
<!-- node_25156&#45;&gt;cluster_9 -->
<g id="edge16" class="edge"><title>node_25156&#45;&gt;cluster_9</title>
<path fill="none" stroke="black" stroke-width="2" d="M2564.68,-125.527C2599.1,-112.577 2640.55,-96.9808 2678.58,-82.6724"/>
<polygon fill="black" stroke="black" points="2680.04,-85.8621 2688.17,-79.0648 2677.58,-79.3104 2680.04,-85.8621"/>
</g>
<!-- node_25156&#45;&gt;node_25157 -->
<g id="edge7" class="edge"><title>node_25156&#45;&gt;node_25157</title>
<path fill="none" stroke="#9a32cd" d="M2676.01,-154C2685.06,-154 2694.25,-154 2703.5,-154"/>
<polygon fill="#9a32cd" stroke="#9a32cd" points="2713.57,-154 2703.57,-158.5 2708.57,-154 2703.57,-154 2703.57,-154 2703.57,-154 2708.57,-154 2703.57,-149.5 2713.57,-154 2713.57,-154"/>
</g>
</g>
</svg>
